<?xml version="1.0" encoding="utf-8"?>
<!-- Generator: Adobe Illustrator 27.5.0, SVG Export Plug-In . SVG Version: 6.00 Build 0)  -->
<svg version="1.1" id="hat" xmlns="http://www.w3.org/2000/svg" xmlns:xlink="http://www.w3.org/1999/xlink" x="0px" y="0px"
	 viewBox="0 0 223.5 689.5" style="enable-background:new 0 0 223.5 689.5;" xml:space="preserve">
<style type="text/css">
	.st0{fill:#FEC90F;}
	.st1{fill:#0F2D52;}
	.st2{fill:#0A223A;}
	.st3{fill:#FFDBAC;}
	.st4{fill:#FBAD18;}
	.st5{opacity:0.4;fill:#0A223A;}
	.st6{fill:none;stroke:#FFFFFF;stroke-width:1.8389;stroke-linejoin:round;stroke-miterlimit:10;}
	.st7{opacity:0.4;fill:#F1C27D;}
	.st8{fill:#FFFFFF;}
	.st9{fill:#6ABDFD;}
	.st10{fill:#F1C27D;}
	.st11{fill:#F1927D;}
	.st12{fill:#8D5524;}
	.st13{fill:none;stroke:#FEC90F;stroke-width:1.8389;stroke-miterlimit:10;}
	.st14{fill:#D88219;}
</style>
<g>
	<ellipse class="st0" cx="111.4" cy="76" rx="52.5" ry="49.1"/>
	<path class="st1" d="M149,112.4"/>
	<path class="st2" d="M145.2,141.4l1.9,0.8c-3.1,0.8-6.3,1.5-9.7,2c-7.7,1.3-16.2,2-25.1,2c-7.4,0-14.4-0.5-21-1.4
		c-5.9-0.8-11.3-1.9-16.3-3.4l5.7-2.4l-24.7-25.6l1.6-6.4c0,0,0.1,0,0.1-0.1c11.4-7.3,31.6-12.1,54.7-12.1
		c26.7,0,49.7,6.5,59.4,15.8c0.1,0.1,0.3,0.3,0.4,0.4l0,0l1.4,3L145.2,141.4z"/>
	<polygon class="st2" points="96.1,507.7 135.9,509.9 123.3,403 	"/>
	<path d="M55.4,516.4l13.8,103.4l-18.2,38.5l0.9,31.2c0,0,25.1-26,27.7-37.2l3.5-138L55.4,516.4z"/>
	<polygon points="167.4,516.8 190.8,620.2 190.8,664.8 211.6,687.3 218.9,655.7 203.4,619.8 192.5,493.5 	"/>
	<polyline points="32.6,335.8 29.6,351.3 21.2,377.9 38.1,388.3 44.6,336.4 32.6,335.8 	"/>
	<polygon points="182.8,337.7 167.6,338 178.3,384.1 195.8,374.7 182.2,349.1 	"/>
	<path class="st3" d="M150,144.3l-37.8,35.9v0.1l-0.1-0.1l-0.1,0.1v-0.1l-37.8-35.9c8.6-2.1,24.3-12.5,24.3-12.5v-23.9l13.5,1.5
		l13.5-1.5v23.9C125.7,131.8,141.4,142.2,150,144.3z"/>
	<polygon class="st3" points="168.9,326 169.5,337.7 181.5,337.7 181.2,324.4 	"/>
	<polygon class="st3" points="32.6,335.8 32.6,321.8 42.9,324.7 41,336.1 	"/>
	<polygon points="150.2,144.3 128.3,131.5 128.3,126.6 112.3,126.6 112.3,126.6 96.3,126.6 96.3,131.5 74.4,144.3 112.3,180.3 
		112.3,180.2 112.3,180.3 	"/>
	<rect x="112" y="126.5" class="st4" width="0.5" height="53.6"/>
	<g>
		<path class="st4" d="M113.7,135.6l2.6-0.9c0.1,0,0.2,0,0.2,0.2v7.6c0,0.1-0.1,0.2-0.2,0.2h-2.6c-0.1,0-0.2-0.1-0.2-0.2v-6.7
			C113.6,135.7,113.6,135.6,113.7,135.6z M107.8,137.7v4.8c0,0.1,0.1,0.2,0.2,0.2h2.6c0.1,0,0.2-0.1,0.2-0.2v-5.6
			c0-0.1-0.1-0.2-0.2-0.2l-2.6,0.9C107.9,137.6,107.8,137.7,107.8,137.7z M116.5,128.5l0.2,1.1l-8.7,3c-0.1,0-0.1,0.1-0.1,0.2v2.3
			c0,0.1,0.1,0.2,0.2,0.2l9.2-3.2l0.2,0.9c0,0.1,0.2,0.2,0.3,0.1l3.3-3.5c0.1-0.1,0-0.3-0.1-0.3l-4.3-0.8
			C116.5,128.2,116.4,128.3,116.5,128.5z"/>
	</g>
	<path class="st1" d="M42.3,155.3C66,159.2,71.2,193,71.2,193l-9.7,46.4l-10.1,89.2L30,320.8l4.2-63.6l8.4-16.6L42.3,155.3"/>
	<path class="st5" d="M71.2,193l-9.7,46.4l-10.1,89.2l-14.7-5.3l6.6-55.7l10.8-26c0,0,1.3-1.7,0.9-17.7c-0.3-9.6-7.1-18.6-12.5-24.3
		l-0.2-44.3C66,159.2,71.2,193,71.2,193z"/>
	<path class="st1" d="M161.4,256.2l-23.7-32.5l10.7-23.4c1.6-29.5,28.9-44.8,28.9-44.8L147,142.2l-1.9-0.8l28.2-27.3l-1.4-3l0,0
		l-0.2-0.6l-0.2,0.1l-34.2,33.5l-28.2,27.6l-17.9-27l-3.2-4.8l-30.5-33l-0.1-0.1l0,0.1l-1.6,6.4l24.7,25.6l-5.7,2.4l-32.6,13.8
		c21.1,12.3,30.5,48.6,30.5,48.7l0,0l6.5,20.8L51.7,267L17,504.5c0,0,22.4,26,97.7,24.7l3.1-97.4l6,96.5c40.3,1,73.7-19.1,73.7-19.1
		L161.4,256.2z"/>
	<path class="st1" d="M176.1,179.8l-26.4,18.6c9.1-36.3,27.6-42.7,27.6-42.7l-2.6,79.5l8.1,14.6l0.3,76.9l-19.1,2.6l-7.1-90.9
		l-10.4-50.6l12.3-35l18.5,2.9"/>
	<polygon class="st5" points="96.1,152.9 79.6,171.6 120.3,188 	"/>
	<polygon class="st5" points="127.6,153.2 144.5,169.8 115.5,184.1 109.3,170.5 	"/>
	<polygon class="st5" points="74.7,198.2 145.5,198.2 134.8,223.8 	"/>
	<polyline class="st6" points="57.6,107 86.5,137.4 120.3,188 114.7,529.2 	"/>
	<path class="st5" d="M175.3,157.3c0,0-19.1,13-26,39.6l24.7-9.7L175.3,157.3z"/>
	<path d="M112.3,117.8v0.1c-0.1,0-0.1,0-0.1-0.1C112.2,117.8,112.2,117.8,112.3,117.8z"/>
	<path d="M112.1,117.8c-0.1,0-0.1,0-0.1,0.1v-0.1C112,117.8,112.1,117.8,112.1,117.8z"/>
	<path d="M112,117.8v0.1c0.1,0,0.1,0,0.1-0.1C112,117.8,112,117.8,112,117.8z"/>
	<path d="M112.1,117.8c0.1,0,0.1,0,0.1,0.1v-0.1C112.2,117.8,112.2,117.8,112.1,117.8z"/>
	<path class="st7" d="M98.8,111.2v5.2c3.8,2.5,8.1,4.7,13.2,6.6c0,0,0.1,0,0.1,0.1c0,0,0,0,0,0h0c0.1,0,0.1,0,0.1-0.1
		c5.1-1.9,9.6-4.2,13.4-6.8V111l-13.4-8.2L98.8,111.2z"/>
	<g>
		<path class="st3" d="M155.7,79.9c-0.1,0.4-0.2,0.7-0.3,1.1c-1.6,4.6-5.8,7.5-10,7.2c-3.3,7.5-9.1,16-19.6,22.9
			c-3.8,2.5-8.3,4.8-13.4,6.7v0c0,0-0.1,0-0.1,0.1h0c0,0,0,0,0,0c-0.1,0-0.1,0-0.1-0.1v0c-5.1-1.9-9.4-4.2-13.2-6.6
			c-10.6-6.9-16.6-15.5-19.8-23c-4.2,0.3-8.4-2.6-10-7.2c-0.1-0.3-0.2-0.7-0.3-1.1c-1.2-5.1,1.2-10.2,5.8-11.8
			c0.2-0.1,0.3-0.1,0.5-0.2c0.4-19.6,17.2-35,37-35c0.1,0,0.2,0,0.3,0c0.1,0,0.2,0,0.3,0c19.8,0,36.6,15.4,37,35
			c0.2,0.1,0.4,0.1,0.6,0.2C154.5,69.7,156.9,74.8,155.7,79.9z"/>
		<path class="st8" d="M141,66.4c0,0-2.4,17.7-19,10.1c0,0-0.2-3.6,2.9-6.5c1.7-1.6,4.3-3,8.4-3.5C135.4,66.2,138,66.1,141,66.4z"/>
		<g>
			<path d="M135.9,71.2c0,3.1-2.5,5.6-5.6,5.6c-3.1,0-5.6-2.5-5.6-5.6c0-0.4,0.1-0.8,0.1-1.3c1.7-1.6,4.3-3,8.4-3.5
				C134.9,67.5,135.9,69.2,135.9,71.2z"/>
			<circle class="st9" cx="130.4" cy="71.2" r="3.9"/>
			<circle class="st8" cx="132.3" cy="69.1" r="1.9"/>
		</g>
		<path d="M142.9,64.1c-0.5,1.1-1.4,1.9-2.1,2.3c-1.3-0.1-2.5-0.2-3.7-0.2c-0.7,0-1.4,0-2,0.1c-2.8,0-8.5,0.9-10.2,3.5
			c2.4-1.4,8.1-2.7,12.2-2.7c0.9,0,1.8,0,2.7,0.1c-0.3,1.1-0.8,2.9-1.8,4.7c-2,3.6-4.9,4.9-8.6,5.5c-1.2,0.2-4.2,0.2-5.5-0.2
			c1.7,1.1,4,1.3,7.7,0.9c5.8-1.2,8.1-7,8.9-10C142.3,67.3,142.9,64.1,142.9,64.1z"/>
		<path class="st8" d="M84.5,66.4c0,0,2.4,17.7,19,10.1c0,0,0.2-3.6-2.9-6.5c-1.7-1.6-4.3-3-8.4-3.5C90,66.2,87.5,66.1,84.5,66.4z"
			/>
		<g>
			<path d="M89.5,71.2c0,3.1,2.5,5.6,5.6,5.6c3.1,0,5.6-2.5,5.6-5.6c0-0.4-0.1-0.8-0.1-1.3c-1.7-1.6-4.3-3-8.4-3.5
				C90.6,67.5,89.5,69.2,89.5,71.2z"/>
			<circle class="st9" cx="95.1" cy="71.2" r="3.9"/>
			<path class="st8" d="M99.2,68.8c0,0.1,0,0.2,0,0.3c0,1.1-0.9,1.9-1.9,1.9c-1.1,0-1.9-0.9-1.9-1.9c0-0.7,0.4-1.4,1-1.7L99.2,68.8z
				"/>
		</g>
		<path d="M82.5,64.1c0.5,1.1,1.4,1.9,2.1,2.3c1.3-0.1,2.5-0.2,3.7-0.2c0.7,0,1.4,0,2,0.1c2.8,0,8.5,0.9,10.2,3.5
			c-2.4-1.4-8.1-2.7-12.2-2.7c-0.9,0-1.8,0-2.7,0.1c0.3,1.1,0.8,2.9,1.8,4.7c2,3.6,4.9,4.9,8.6,5.5c1.2,0.2,4.2,0.2,5.5-0.2
			c-1.7,1.1-4,1.3-7.7,0.9c-5.8-1.2-8.1-7-8.9-10C83.2,67.3,82.5,64.1,82.5,64.1z"/>
		<path class="st0" d="M130.9,58l-12.7,3.9c-0.8,0.3-1,1.4-0.3,1.9l0.7,0.5l-2.8-0.8c1.1,1,5.5,2.8,5.5,2.8l18-8
			C135.9,57,130.9,58,130.9,58z"/>
		<path class="st0" d="M91.4,58l12.7,3.9c0.8,0.3,1,1.4,0.3,1.9l-0.7,0.5l2.8-0.8c-1.1,1-5.5,2.8-5.5,2.8l-18-8
			C86.3,57,91.4,58,91.4,58z"/>
		<path class="st10" d="M112.3,94.7l3.7-2.3c0,0-2.3-0.5-3.7,0.6c-1.4-1.2-3.7-0.6-3.7-0.6L112.3,94.7L112.3,94.7L112.3,94.7
			L112.3,94.7L112.3,94.7z"/>
		<g>
			<path class="st11" d="M103.5,100.6c0,0,0.8,3.8,8.8,4.1v-3.1v-2.2C112.3,99.4,107.1,98.2,103.5,100.6z"/>
			<path class="st11" d="M112.3,99.4v2.2v3.1c8.1-0.2,8.8-4.1,8.8-4.1C117.5,98.2,112.3,99.4,112.3,99.4z"/>
		</g>
		<circle class="st12" cx="119.6" cy="95.5" r="0.7"/>
		<g>
			<path class="st10" d="M76.4,77.9c0,0.2,0.2,0.4,0.4,0.4c0,0,0.1,0,0.1,0c0.2-0.1,0.4-0.3,0.4-0.5c-0.5-2.4-1.4-4-2.8-4.9
				c0,0,0,0,0,0c0,0,0,0,0,0c-0.1-0.1-0.2-0.2-0.3-0.2c-1.9-1-3.7-0.4-3.8-0.3c-0.2,0.1-0.4,0.4-0.3,0.6c0.1,0.2,0.4,0.4,0.6,0.3
				c0,0,1.4-0.5,2.8,0.2c-0.8,0.9-2.5,3.1-2.1,5.8c0.3,2.3,2.1,4.2,5.3,5.8c0.1,0,0.1,0,0.2,0c0.2,0,0.3-0.1,0.4-0.3
				c0.1-0.2,0-0.5-0.2-0.6c-2.9-1.4-4.5-3.2-4.8-5.1c-0.3-2.4,1.3-4.4,2-5.1C75.2,74.5,76,75.9,76.4,77.9z"/>
			<path class="st7" d="M75.9,74.1C75.9,74.1,75.9,74.1,75.9,74.1c-0.1,0-0.2,0-0.4,0c-0.3,0-0.5,0.1-0.7,0.1h0
				c-0.7,0.3-1.1,0.9-1.1,1.7c0,1,0.8,1.9,1.9,1.9c0.3,0,0.6-0.1,0.8-0.2c0.3-0.1,0.6-0.4,0.8-0.7L75.9,74.1z"/>
		</g>
		<g>
			<path class="st10" d="M145,77.9c0,0.2-0.2,0.4-0.4,0.4c0,0-0.1,0-0.1,0c-0.2-0.1-0.4-0.3-0.4-0.5c0.5-2.4,1.4-4,2.8-4.9
				c0,0,0,0,0,0c0,0,0,0,0,0c0.1-0.1,0.2-0.2,0.3-0.2c1.9-1,3.7-0.4,3.8-0.3c0.2,0.1,0.4,0.4,0.3,0.6c-0.1,0.2-0.4,0.4-0.6,0.3
				c0,0-1.4-0.5-2.8,0.2c0.8,0.9,2.5,3.1,2.1,5.8c-0.3,2.3-2.1,4.2-5.3,5.8c-0.1,0-0.1,0-0.2,0c-0.2,0-0.3-0.1-0.4-0.3
				c-0.1-0.2,0-0.5,0.2-0.6c2.9-1.4,4.5-3.2,4.8-5.1c0.3-2.4-1.3-4.4-2-5.1C146.1,74.5,145.4,75.9,145,77.9z"/>
			<path class="st7" d="M144.2,76.9c0.2,0.3,0.4,0.6,0.8,0.7c0.3,0.1,0.5,0.2,0.8,0.2c1,0,1.9-0.8,1.9-1.9c0-0.8-0.5-1.5-1.1-1.7h0
				c-0.2-0.1-0.5-0.1-0.7-0.1c-0.1,0-0.2,0-0.3,0c0,0,0,0,0,0L144.2,76.9z"/>
		</g>
	</g>
	<g>
		<path class="st0" d="M70.5,93.9c17.3-3.9,20.7-38.6,20.7-39l1.8,0.2c-0.1,1.5-3.5,36.4-22.1,40.6c-5.2,1.2-9.4,1.6-12.7,1.6"/>
	</g>
	<path class="st0" d="M130.5,50.6c0,0,1.5,17.7,13.6,20.8c12.1,3,18.4,9.5,16.4,19c0,0,6.9-11.9,0.9-21s-11.9-21.9-11.9-21.9
		L130.5,50.6z"/>
	<g>
		<path class="st0" d="M148.6,84.3c-1.5,0-3.1-0.3-4.5-1c-8.3-4.1-8.9-26.7-9-27.6l1.8,0c0.2,6.2,1.9,23.1,7.9,26
			c7.2,3.6,17.7-5.6,17.8-5.7l1.2,1.4C163.6,77.6,156,84.3,148.6,84.3z"/>
	</g>
	<path class="st0" d="M82.2,54.9c0,0,1.9,8.9-7.5,13.5S64.5,80.7,64.2,82.2c-0.3,1.5,3.7-24.8,3.7-24.8L82.2,54.9z"/>
	<path class="st13" d="M83.2,56.7c0,0-2.3,30.3-16.9,28.2"/>
	<path class="st0" d="M83,52.6c0,0-0.8,13.8-3.6,15.9c-2.8,2.1-11,1.1-13.5,6.2c-2.4,5-3.7-5.2-3.7-5.2l11.7-18.3L83,52.6z"/>
	<path class="st1" d="M223.5,21.8c0,0-72,38.8-111.2,40.3C73.1,63.8,58.4,64,0,45.5c0,0,37.1-9.6,74.5-15.9l4.2-25.9l64-3.7
		l6.6,22.3C186.3,21.8,223.5,21.8,223.5,21.8z"/>
	<polygon class="st14" points="74.5,29.6 112.3,41.5 149.4,22.3 146.5,13 111,20.8 76.4,17.5 	"/>
	<polygon class="st5" points="111.1,18.7 110,7.2 142.4,0.5 143.2,3.8 	"/>
	<path class="st5" d="M112.3,43.4l1.1,12.7c0,0,62-9.7,87.9-32.1l-55.2,0.3l-33.9,17.3V43.4z"/>
	<path class="st4" d="M148.9,93.2C148.9,93.2,148.9,93.2,148.9,93.2c0.5,0,0.8-0.4,0.8-0.8l-0.4-6.9c0-0.4-0.4-0.8-0.8-0.7
		c-0.4,0-0.8,0.4-0.7,0.8l0.4,6.9C148.2,92.9,148.5,93.2,148.9,93.2z"/>
	<polygon class="st5" points="158.8,238.7 172.7,240.4 168.9,237.1 173.4,231.3 	"/>
</g>
</svg>
