<svg xmlns="http://www.w3.org/2000/svg" xmlns:xlink="http://www.w3.org/1999/xlink" width="918" height="485" viewBox="0 0 918 485">
  <defs>
    <filter id="Rectangle_139" x="405" y="0" width="102" height="251" filterUnits="userSpaceOnUse">
      <feOffset dy="16" input="SourceAlpha"/>
      <feGaussianBlur stdDeviation="12" result="blur"/>
      <feFlood flood-color="#0f2d52" flood-opacity="0.102"/>
      <feComposite operator="in" in2="blur"/>
      <feComposite in="SourceGraphic"/>
    </filter>
    <filter id="Ellipse_3" x="279" y="126" width="154" height="154" filterUnits="userSpaceOnUse">
      <feOffset dy="16" input="SourceAlpha"/>
      <feGaussianBlur stdDeviation="12" result="blur-2"/>
      <feFlood flood-color="#0f2d52" flood-opacity="0.102"/>
      <feComposite operator="in" in2="blur-2"/>
      <feComposite in="SourceGraphic"/>
    </filter>
    <filter id="Ellipse_19" x="301" y="149" width="111" height="111" filterUnits="userSpaceOnUse">
      <feOffset dy="16" input="SourceAlpha"/>
      <feGaussianBlur stdDeviation="12" result="blur-3"/>
      <feFlood flood-color="#0f2d52" flood-opacity="0.102"/>
      <feComposite operator="in" in2="blur-3"/>
      <feComposite in="SourceGraphic"/>
    </filter>
    <clipPath id="clip-path">
      <path id="Path_145" data-name="Path 145" d="M0,0V164.32H76.429V0Z" transform="translate(164.32) rotate(90)" fill="#fff"/>
    </clipPath>
    <filter id="Ellipse_16" x="735" y="302" width="118" height="119" filterUnits="userSpaceOnUse">
      <feOffset dy="16" input="SourceAlpha"/>
      <feGaussianBlur stdDeviation="12" result="blur-4"/>
      <feFlood flood-color="#0f2d52" flood-opacity="0.102"/>
      <feComposite operator="in" in2="blur-4"/>
      <feComposite in="SourceGraphic"/>
    </filter>
    <filter id="Ellipse_17" x="747" y="314" width="95" height="96" filterUnits="userSpaceOnUse">
      <feOffset dy="16" input="SourceAlpha"/>
      <feGaussianBlur stdDeviation="12" result="blur-5"/>
      <feFlood flood-color="#0f2d52" flood-opacity="0.102"/>
      <feComposite operator="in" in2="blur-5"/>
      <feComposite in="SourceGraphic"/>
    </filter>
    <filter id="Rectangle_208" x="815" y="149" width="103" height="251" filterUnits="userSpaceOnUse">
      <feOffset dy="16" input="SourceAlpha"/>
      <feGaussianBlur stdDeviation="12" result="blur-6"/>
      <feFlood flood-color="#0f2d52" flood-opacity="0.102"/>
      <feComposite operator="in" in2="blur-6"/>
      <feComposite in="SourceGraphic"/>
    </filter>
  </defs>
  <g id="Group_3421" data-name="Group 3421" transform="translate(-336 -253)">
    <g id="Group_3419" data-name="Group 3419" transform="translate(336 264)">
      <rect id="Rectangle_267" data-name="Rectangle 267" width="474" height="316" fill="#fff"/>
      <rect id="Rectangle_306" data-name="Rectangle 306" width="108" height="13" rx="6.5" transform="translate(53 90)" fill="rgba(49,59,68,0.2)"/>
      <rect id="Rectangle_141" data-name="Rectangle 141" width="72" height="14" rx="7" transform="translate(201 31)" fill="#f5f5f7"/>
      <rect id="Rectangle_154" data-name="Rectangle 154" width="32" height="14" rx="7" transform="translate(201 62)" fill="rgba(49,59,68,0.2)"/>
      <rect id="Rectangle_155" data-name="Rectangle 155" width="32" height="14" rx="7" transform="translate(241 62)" fill="rgba(49,59,68,0.1)"/>
      <rect id="Rectangle_166" data-name="Rectangle 166" width="89" height="13" rx="6.5" transform="translate(40 8)" fill="rgba(49,59,68,0.1)"/>
      <rect id="Rectangle_156" data-name="Rectangle 156" width="31" height="14" rx="7" transform="translate(282 62)" fill="rgba(49,59,68,0.1)"/>
      <rect id="Rectangle_161" data-name="Rectangle 161" width="31" height="14" rx="7" transform="translate(401 62)" fill="rgba(49,59,68,0.1)"/>
      <path id="Rectangle_144" data-name="Rectangle 144" d="M7.256,1A6.263,6.263,0,0,0,1,7.256,4.75,4.75,0,0,0,5.744,12H65.256A4.75,4.75,0,0,0,70,7.256V5.744A4.75,4.75,0,0,0,65.256,1h-58m0-1h58A5.744,5.744,0,0,1,71,5.744V7.256A5.744,5.744,0,0,1,65.256,13H5.744A5.744,5.744,0,0,1,0,7.256,7.256,7.256,0,0,1,7.256,0Z" transform="translate(363 9)" fill="#f5f5f7"/>
      <rect id="Rectangle_142" data-name="Rectangle 142" width="71" height="14" rx="7" transform="translate(282 31)" fill="#f5f5f7"/>
      <rect id="Rectangle_143" data-name="Rectangle 143" width="71" height="14" rx="7" transform="translate(363 31)" fill="#f5f5f7"/>
      <rect id="Rectangle_139-2" data-name="Rectangle 139" width="31" height="316" fill="#f5f5f7"/>
      <path id="Path_14" data-name="Path 14" d="M59.824,123.258c-.232.809-.472,1.616-.691,2.429-.107.4-.258.64-.749.609-.746-.047-1.5-.008-2.247-.014-.486,0-.662-.225-.544-.683a.4.4,0,0,1,.446-.359c.576.023,1.153,0,1.729.012a.356.356,0,0,0,.416-.311c.363-1.314.752-2.622,1.115-3.936.16-.579.646-.839,1-.47a1.612,1.612,0,0,1,.286.73c.4,1.641.785,3.285,1.176,4.928.187.789.376,1.577.637,2.359.24-.939.483-1.877.717-2.817a.563.563,0,0,1,.663-.5c.748.036,1.5.011,2.247.01.337,0,.644.017.625.487-.018.452-.112.55-.6.551-.533,0-1.066.011-1.6-.005a.336.336,0,0,0-.391.286c-.374,1.443-.743,2.887-1.133,4.326-.076.282-.126.616-.584.591-.421-.023-.54-.256-.623-.607-.411-1.738-.839-3.473-1.257-5.21-.194-.806-.38-1.614-.569-2.422l-.069.015" transform="translate(-45.701 -80.894)" fill="rgba(49,59,68,0.1)"/>
      <path id="Line_127" data-name="Line 127" d="M24.885.5H0v-1H24.885Z" transform="translate(2.963 60.632)" fill="rgba(49,59,68,0.1)"/>
      <path id="Line_128" data-name="Line 128" d="M24.885.5H0v-1H24.885Z" transform="translate(2.963 29.373)" fill="rgba(49,59,68,0.1)"/>
      <path id="Line_127-2" data-name="Line 127" d="M24.885.5H0v-1H24.885Z" transform="translate(2.963 90.257)" fill="rgba(49,59,68,0.1)"/>
      <path id="Line_127-3" data-name="Line 127" d="M24.885.5H0v-1H24.885Z" transform="translate(2.963 119.882)" fill="rgba(49,59,68,0.1)"/>
      <path id="Line_127-4" data-name="Line 127" d="M24.885.5H0v-1H24.885Z" transform="translate(2.963 149.507)" fill="rgba(49,59,68,0.1)"/>
      <path id="Line_130" data-name="Line 130" d="M24.885.5H0v-1H24.885Z" transform="translate(2.963 281.832)" fill="rgba(49,59,68,0.1)"/>
      <path id="Path_24" data-name="Path 24" d="M29.824,127.125a.445.445,0,0,1-.314-.759l3.261-3.261a.444.444,0,0,1,.628.628l-3.26,3.261a.441.441,0,0,1-.314.13" transform="translate(-18.717 -51.707)" fill="rgba(49,59,68,0.1)"/>
      <path id="Path_25" data-name="Path 25" d="M30.713,135.532h-.3a1.039,1.039,0,0,1-1.037-1.037v-1.482a1.039,1.039,0,0,1,1.037-1.037h.3a1.039,1.039,0,0,1,1.037,1.037v1.482a1.039,1.039,0,0,1-1.037,1.037m-.3-2.668a.148.148,0,0,0-.148.148v1.482a.148.148,0,0,0,.148.148h.3a.148.148,0,0,0,.148-.148v-1.482a.148.148,0,0,0-.148-.148Z" transform="translate(-18.717 -55.371)" fill="rgba(49,59,68,0.1)"/>
      <path id="Path_26" data-name="Path 26" d="M36.713,134.31h-.3a1.039,1.039,0,0,1-1.037-1.037v-3.26a1.039,1.039,0,0,1,1.037-1.037h.3a1.039,1.039,0,0,1,1.037,1.037v3.26a1.039,1.039,0,0,1-1.037,1.037m-.3-4.446a.148.148,0,0,0-.148.148v3.26a.148.148,0,0,0,.148.148h.3a.148.148,0,0,0,.148-.148v-3.26a.148.148,0,0,0-.148-.148Z" transform="translate(-21.16 -54.15)" fill="rgba(49,59,68,0.1)"/>
      <path id="Path_27" data-name="Path 27" d="M42.713,131.46h-.3a1.039,1.039,0,0,1-1.037-1.037v-7.41a1.039,1.039,0,0,1,1.037-1.037h.3a1.039,1.039,0,0,1,1.037,1.037v7.41a1.039,1.039,0,0,1-1.037,1.037m-.3-8.6a.148.148,0,0,0-.148.148v7.41a.148.148,0,0,0,.148.148h.3a.148.148,0,0,0,.148-.148v-7.41a.148.148,0,0,0-.148-.148Z" transform="translate(-23.603 -51.3)" fill="rgba(49,59,68,0.1)"/>
      <path id="Path_28" data-name="Path 28" d="M34.9,124.939a.445.445,0,0,1-.445-.445v-1.63h-1.63a.445.445,0,0,1,0-.889H34.9a.445.445,0,0,1,.445.445v2.075a.445.445,0,0,1-.445.445" transform="translate(-19.938 -51.3)" fill="rgba(49,59,68,0.1)"/>
      <path id="Path_34" data-name="Path 34" d="M4.743,102.561a4.743,4.743,0,1,1,4.743-4.743,4.748,4.748,0,0,1-4.743,4.743m0-8.6A3.853,3.853,0,1,0,8.6,97.819a3.858,3.858,0,0,0-3.853-3.853" transform="translate(10.662 7.279)" fill="rgba(49,59,68,0.1)"/>
      <path id="Path_35" data-name="Path 35" d="M5.964,102A2.964,2.964,0,1,1,8.928,99.04,2.967,2.967,0,0,1,5.964,102m0-5.039A2.075,2.075,0,1,0,8.039,99.04a2.077,2.077,0,0,0-2.075-2.075" transform="translate(9.441 6.057)" fill="rgba(49,59,68,0.1)"/>
      <path id="Path_36" data-name="Path 36" d="M7.186,101.447a1.186,1.186,0,1,1,1.186-1.186,1.187,1.187,0,0,1-1.186,1.186m0-1.482a.3.3,0,1,0,.3.3.3.3,0,0,0-.3-.3" transform="translate(8.219 4.835)" fill="rgba(49,59,68,0.1)"/>
      <path id="Path_73" data-name="Path 73" d="M120.523,37.74a.593.593,0,0,1-.593-.593V35.962a.593.593,0,0,1,1.186,0v1.186a.593.593,0,0,1-.593.593" transform="translate(-105.118 99.299)" fill="rgba(49,59,68,0.1)"/>
      <path id="Path_74" data-name="Path 74" d="M120.522,31.369a.593.593,0,1,1-.593.593.593.593,0,0,1,.593-.593" transform="translate(-105.117 100.928)" fill="rgba(49,59,68,0.1)"/>
      <path id="Path_75" data-name="Path 75" d="M117.673,36.854a4.743,4.743,0,1,1,4.743-4.743,4.748,4.748,0,0,1-4.743,4.743m0-8.6a3.853,3.853,0,1,0,3.853,3.853,3.858,3.858,0,0,0-3.853-3.853" transform="translate(-102.268 102.556)" fill="rgba(49,59,68,0.1)"/>
      <path id="Path_69" data-name="Path 69" d="M259.314,29.929h-6.225a1.632,1.632,0,0,0-1.63,1.63V36.6a1.632,1.632,0,0,0,1.63,1.63h6.225a1.632,1.632,0,0,0,1.63-1.63V31.559a1.632,1.632,0,0,0-1.63-1.63m0,.889c.02,0,.037.01.057.011l-3.169,2.8-3.169-2.8c.02,0,.037-.011.057-.011Zm.741,5.78a.742.742,0,0,1-.741.741h-6.225a.742.742,0,0,1-.741-.741V31.559a.678.678,0,0,1,.026-.125l3.533,3.126a.445.445,0,0,0,.589,0l3.533-3.126a.677.677,0,0,1,.026.125Z" transform="translate(-239.991 129.676)" fill="rgba(49,59,68,0.1)"/>
      <g id="Group_1165" data-name="Group 1165" transform="translate(11.556 9.432)">
        <g id="Group_1160" data-name="Group 1160" transform="translate(0 0)">
          <path id="Path_116" data-name="Path 116" d="M4.056,5.088l1.812-.626a.117.117,0,0,1,.158.11l.007,5.273a.117.117,0,0,1-.117.117l-1.813,0a.117.117,0,0,1-.117-.117L3.979,5.2a.118.118,0,0,1,.077-.11M0,6.566l0,3.287a.117.117,0,0,0,.117.117l1.8,0A.117.117,0,0,0,2.04,9.85L2.034,5.956a.117.117,0,0,0-.153-.112L.086,6.454A.117.117,0,0,0,0,6.566M5.955.143l.154.74L.075,2.981A.117.117,0,0,0,0,3.09L0,4.661a.117.117,0,0,0,.157.11L6.535,2.563l.139.605a.117.117,0,0,0,.2.053L9.14.777A.117.117,0,0,0,9.077.583L6.092,0a.117.117,0,0,0-.137.141" transform="translate(0 0)" fill="rgba(0,0,0,0.2)"/>
        </g>
      </g>
      <g id="Group_1164" data-name="Group 1164" transform="translate(421.854 11.995)">
        <path id="Path_51" data-name="Path 51" d="M37.56,65.379a.317.317,0,0,1-.226-.094l-1.42-1.42a2.987,2.987,0,1,1,.452-.452l1.42,1.42a.32.32,0,0,1-.226.546M34.043,59.2a2.345,2.345,0,1,0,2.345,2.345A2.347,2.347,0,0,0,34.043,59.2" transform="translate(-31.059 -58.558)" fill="rgba(49,59,68,0.1)"/>
      </g>
      <g id="Group_3361" data-name="Group 3361" transform="translate(441.034 8.91)">
        <g id="Group_3319" data-name="Group 3319" transform="translate(0 0)">
          <g transform="matrix(1, 0, 0, 1, -441.03, -19.91)" filter="url(#Rectangle_139)">
            <rect id="Rectangle_139-3" data-name="Rectangle 139" width="30" height="179" rx="15" transform="translate(441 20)" fill="#fff"/>
          </g>
          <g id="Group_1178" data-name="Group 1178" transform="translate(2.749 11.062)">
            <path id="Line_127-5" data-name="Line 127" d="M24.885.5H0v-1H24.885Z" transform="translate(0 49.35)" fill="rgba(49,59,68,0.1)"/>
            <path id="Line_129" data-name="Line 129" d="M24.885.5H0v-1H24.885Z" transform="translate(0 19.528)" fill="rgba(49,59,68,0.1)"/>
            <path id="Line_127-6" data-name="Line 127" d="M24.885.5H0v-1H24.885Z" transform="translate(0 78.975)" fill="rgba(49,59,68,0.1)"/>
            <path id="Line_127-7" data-name="Line 127" d="M24.885.5H0v-1H24.885Z" transform="translate(0 108.6)" fill="rgba(49,59,68,0.1)"/>
            <path id="Line_127-8" data-name="Line 127" d="M24.885.5H0v-1H24.885Z" transform="translate(0 138.225)" fill="rgba(49,59,68,0.1)"/>
            <ellipse id="Ellipse_1" data-name="Ellipse 1" cx="10.5" cy="10" rx="10.5" ry="10" transform="translate(2.217 25.028)" fill="#19a4fa"/>
            <g id="Group_1170" data-name="Group 1170" transform="translate(7.699)">
              <path id="Path_42" data-name="Path 42" d="M119.574,102.578h-.152a1.04,1.04,0,0,1-1.027-.9l-.052-.373a.233.233,0,0,0-.157-.166l-.114-.048a.235.235,0,0,0-.229.005l-.182.136a1.041,1.041,0,0,1-1.355-.1l-.111-.111a1.042,1.042,0,0,1-.1-1.356l.136-.182a.234.234,0,0,0,0-.229c-.017-.039-.033-.079-.049-.12a.23.23,0,0,0-.164-.151l-.374-.052a1.042,1.042,0,0,1-.9-1.028V97.76a1.042,1.042,0,0,1,.9-1.028l.374-.052a.234.234,0,0,0,.166-.157c.014-.036.03-.075.048-.115a.234.234,0,0,0-.005-.227L116.1,96a1.043,1.043,0,0,1,.1-1.355l.111-.111a1.041,1.041,0,0,1,1.356-.1l.182.137a.235.235,0,0,0,.229,0l.111-.046a.236.236,0,0,0,.159-.167l.052-.375a1.04,1.04,0,0,1,1.027-.9h.152a1.042,1.042,0,0,1,1.028.9l.052.375a.235.235,0,0,0,.157.167l.113.047a.234.234,0,0,0,.228,0l.183-.137a1.042,1.042,0,0,1,1.356.1l.111.111A1.043,1.043,0,0,1,122.9,96l-.136.182a.236.236,0,0,0,0,.229l.047.112a.235.235,0,0,0,.166.158l.375.052a1.041,1.041,0,0,1,.9,1.028v.152a1.042,1.042,0,0,1-.9,1.028l-.375.052a.234.234,0,0,0-.165.157l-.049.115a.235.235,0,0,0,.006.227l.137.183a1.042,1.042,0,0,1-.1,1.355l-.111.111a1.044,1.044,0,0,1-1.356.1l-.182-.137a.236.236,0,0,0-.228,0l-.111.047a.236.236,0,0,0-.159.167l-.052.375a1.042,1.042,0,0,1-1.028.895m-1.622-2.4a1.187,1.187,0,0,1,.477.1l.087.037a1.117,1.117,0,0,1,.708.87l.052.374a.148.148,0,0,0,.146.128h.152a.148.148,0,0,0,.146-.127l.052-.375a1.119,1.119,0,0,1,.711-.87l.087-.037a1.113,1.113,0,0,1,1.116.11l.181.136a.15.15,0,0,0,.2-.014l.111-.111a.15.15,0,0,0,.014-.194l-.138-.183a1.118,1.118,0,0,1-.108-1.118l.036-.085a1.12,1.12,0,0,1,.871-.711l.375-.052a.148.148,0,0,0,.127-.146V97.76a.149.149,0,0,0-.127-.147l-.375-.052a1.118,1.118,0,0,1-.871-.71l-.034-.083a1.121,1.121,0,0,1,.107-1.12l.137-.182a.15.15,0,0,0-.014-.194l-.111-.111a.151.151,0,0,0-.2-.014l-.181.136a1.115,1.115,0,0,1-1.119.108l-.087-.036a1.118,1.118,0,0,1-.708-.87l-.052-.374h0a.148.148,0,0,0-.146-.128h-.152a.149.149,0,0,0-.146.127l-.052.376a1.119,1.119,0,0,1-.71.87l-.082.034a1.121,1.121,0,0,1-1.122-.106l-.183-.138a.15.15,0,0,0-.193.014l-.111.111a.147.147,0,0,0-.014.193l.138.183a1.121,1.121,0,0,1,.107,1.119l-.033.079a1.12,1.12,0,0,1-.873.716l-.374.052a.15.15,0,0,0-.129.147v.152a.149.149,0,0,0,.129.146l.374.052a1.121,1.121,0,0,1,.871.71l.034.084a1.118,1.118,0,0,1-.106,1.12l-.137.183a.148.148,0,0,0,.014.194l.111.111a.148.148,0,0,0,.193.014l.184-.137a1.066,1.066,0,0,1,.642-.209" transform="translate(-114.755 -93.093)" fill="rgba(49,59,68,0.1)"/>
              <path id="Path_43" data-name="Path 43" d="M121.942,101.464a1.186,1.186,0,1,1,1.186-1.186,1.187,1.187,0,0,1-1.186,1.186m0-1.482a.3.3,0,1,0,.3.3.3.3,0,0,0-.3-.3" transform="translate(-117.198 -95.536)" fill="rgba(49,59,68,0.1)"/>
            </g>
            <g id="Group_1171" data-name="Group 1171" transform="translate(7.966 29.795)">
              <g id="Group_1167" data-name="Group 1167" transform="translate(0 0)">
                <g id="Group_1166" data-name="Group 1166">
                  <g id="Group_1142" data-name="Group 1142">
                    <g id="Group_1144" data-name="Group 1144" transform="translate(0)">
                      <g id="Group_1143" data-name="Group 1143">
                        <g id="Group_1142-2" data-name="Group 1142">
                          <path id="Path_19" data-name="Path 19" d="M121.9,126.718a2.371,2.371,0,1,1,2.371-2.371,2.374,2.374,0,0,1-2.371,2.371m0-3.853a1.482,1.482,0,1,0,1.482,1.482,1.484,1.484,0,0,0-1.482-1.482" transform="translate(-117.423 -121.975)" fill="#fff"/>
                          <path id="Path_20" data-name="Path 20" d="M123.508,135.227H117.4a1.455,1.455,0,0,1-1.254-.666,1.163,1.163,0,0,1-.021-1.167c.522-.989,1.7-2.169,4.33-2.169s3.808,1.179,4.33,2.169a1.162,1.162,0,0,1-.021,1.167,1.455,1.455,0,0,1-1.254.666m-3.054-3.112c-2.189,0-3.135.922-3.544,1.695a.279.279,0,0,0,0,.292.576.576,0,0,0,.492.236h6.108A.576.576,0,0,0,124,134.1a.28.28,0,0,0,0-.293c-.408-.773-1.355-1.695-3.544-1.695" transform="translate(-115.977 -125.741)" fill="#fff"/>
                        </g>
                      </g>
                    </g>
                  </g>
                </g>
              </g>
            </g>
            <path id="Path_117" data-name="Path 117" d="M63.272,102.351a.446.446,0,0,1-.283-.1l-2.237-1.842-2.237,1.842a.445.445,0,0,1-.712-.46l.812-2.975-2.434-1.893a.445.445,0,0,1,.273-.8H59.39l.938-2.951a.445.445,0,0,1,.848,0l.938,2.951h2.936a.445.445,0,0,1,.273.8L62.89,98.815l.812,2.975a.445.445,0,0,1-.429.561m-2.519-2.964a.445.445,0,0,1,.283.1l1.44,1.186-.522-1.911a.445.445,0,0,1,.157-.468l1.644-1.279H61.79a.444.444,0,0,1-.424-.309l-.614-1.929-.614,1.929a.444.444,0,0,1-.424.309H57.751L59.4,98.3a.445.445,0,0,1,.157.468l-.522,1.911,1.44-1.186a.445.445,0,0,1,.283-.1" transform="translate(-48.31 25.777)" fill="rgba(49,59,68,0.1)"/>
            <g id="Group_1173" data-name="Group 1173" transform="translate(9.478 90.258)">
              <path id="Path_57" data-name="Path 57" d="M231.073,61.209a.445.445,0,0,0-.629,0l-6.225,6.225a.445.445,0,0,0,.629.629l6.225-6.225a.445.445,0,0,0,0-.629" transform="translate(-224.089 -61.078)" fill="rgba(49,59,68,0.1)"/>
              <path id="Path_58" data-name="Path 58" d="M233.276,69.078a1.186,1.186,0,1,0,1.186,1.186,1.187,1.187,0,0,0-1.186-1.186m0,1.482a.3.3,0,1,1,.3-.3.3.3,0,0,1-.3.3" transform="translate(-227.347 -64.335)" fill="rgba(49,59,68,0.1)"/>
              <path id="Path_59" data-name="Path 59" d="M225.276,63.449a1.186,1.186,0,1,0-1.186-1.186,1.187,1.187,0,0,0,1.186,1.186m0-1.482a.3.3,0,1,1-.3.3.3.3,0,0,1,.3-.3" transform="translate(-224.09 -61.078)" fill="rgba(49,59,68,0.1)"/>
            </g>
            <g id="Group_1175" data-name="Group 1175" transform="translate(7.699 148.323)">
              <path id="Path_89" data-name="Path 89" d="M188.887,36.149A4.836,4.836,0,0,1,184.144,32a4.785,4.785,0,0,1,9.485,0,4.836,4.836,0,0,1-4.743,4.15m0-7.41A3.978,3.978,0,0,0,185.033,32a3.907,3.907,0,0,0,7.707,0,3.978,3.978,0,0,0-3.853-3.261" transform="translate(-184.144 -27.85)" fill="rgba(49,59,68,0.1)"/>
              <path id="Path_90" data-name="Path 90" d="M190.922,35.407a1.778,1.778,0,1,1,1.778-1.778,1.781,1.781,0,0,1-1.778,1.778m0-2.668a.889.889,0,1,0,.889.889.89.89,0,0,0-.889-.889" transform="translate(-186.18 -29.479)" fill="rgba(49,59,68,0.1)"/>
            </g>
            <g id="Group_1177" data-name="Group 1177" transform="translate(8.293 59.448)">
              <path id="Path_85" data-name="Path 85" d="M90.823,162.428H89.34a1.039,1.039,0,0,1-1.037-1.037v-3.882a.744.744,0,0,0-.162-.462l-2.7-3.38a.445.445,0,0,1,.347-.723h8.6a.445.445,0,0,1,.347.723l-2.705,3.38a.743.743,0,0,0-.162.462v3.882a1.039,1.039,0,0,1-1.037,1.037m-4.114-8.6,2.126,2.658a1.635,1.635,0,0,1,.357,1.018v3.882a.149.149,0,0,0,.148.148h1.483a.148.148,0,0,0,.148-.148v-3.882a1.637,1.637,0,0,1,.357-1.018l2.126-2.658Z" transform="translate(-85.339 -152.943)" fill="rgba(49,59,68,0.1)"/>
            </g>
          </g>
        </g>
      </g>
      <path id="Rectangle_149" data-name="Rectangle 149" d="M19,0H133a19,19,0,0,1,19,19v0a0,0,0,0,1,0,0H0a0,0,0,0,1,0,0v0A19,19,0,0,1,19,0Z" transform="translate(40 61)" fill="#f7f7f9"/>
      <path id="Rectangle_160" data-name="Rectangle 160" d="M20,0H132a20,20,0,0,1,20,20v0a0,0,0,0,1,0,0H0a0,0,0,0,1,0,0v0A20,20,0,0,1,20,0Z" transform="translate(40 144)" fill="#f7f7f9"/>
      <path id="Rectangle_150" data-name="Rectangle 150" d="M24,1A22.98,22.98,0,0,0,1,24V69H151V24A22.98,22.98,0,0,0,128,1H24m0-1H128a24,24,0,0,1,24,24V70H0V24A24,24,0,0,1,24,0Z" transform="translate(40 61)" fill="rgba(49,59,68,0.1)"/>
      <path id="Rectangle_159" data-name="Rectangle 159" d="M24,1A22.98,22.98,0,0,0,1,24V157H151V24A22.98,22.98,0,0,0,128,1H24m0-1H128a24,24,0,0,1,24,24V158H0V24A24,24,0,0,1,24,0Z" transform="translate(40 144)" fill="rgba(49,59,68,0.1)"/>
      <rect id="Rectangle_151" data-name="Rectangle 151" width="232" height="217" rx="24" transform="translate(201 85)" fill="#fff"/>
      <path id="Rectangle_151_-_Outline" data-name="Rectangle 151 - Outline" d="M24,1A22.98,22.98,0,0,0,1,24V193a22.98,22.98,0,0,0,23,23H208a22.98,22.98,0,0,0,23-23V24A22.98,22.98,0,0,0,208,1H24m0-1H208a24,24,0,0,1,24,24V193a24,24,0,0,1-24,24H24A24,24,0,0,1,0,193V24A24,24,0,0,1,24,0Z" transform="translate(201 85)" fill="rgba(49,59,68,0.1)"/>
      <rect id="Rectangle_153" data-name="Rectangle 153" width="71" height="6" rx="3" transform="translate(211 249)" fill="#f5f5f7"/>
      <rect id="Rectangle_164" data-name="Rectangle 164" width="70" height="7" rx="3.5" transform="translate(53 200)" fill="#f5f5f7"/>
      <rect id="Rectangle_165" data-name="Rectangle 165" width="70" height="6" rx="3" transform="translate(53 214)" fill="#f5f5f7"/>
      <rect id="Rectangle_158" data-name="Rectangle 158" width="62" height="6" rx="3" transform="translate(211 263)" fill="#f5f5f7"/>
      <path id="Path_99" data-name="Path 99" d="M89.12,183.281a.445.445,0,0,1,.771-.3l1.6,1.723,1.6-1.723a.445.445,0,0,1,.652.6l-1.927,2.075a.445.445,0,0,1-.652,0l-1.927-2.075a.442.442,0,0,1-.119-.3" transform="translate(327.453 -84.956)" fill="rgba(49,59,68,0.1)"/>
      <g id="Group_1154" data-name="Group 1154" transform="translate(10.663 293.48)">
        <path id="Path_76" data-name="Path 76" d="M196.087,2.347h-5.039a.445.445,0,1,1,0-.889h5.039a.445.445,0,1,1,0,.889" transform="translate(-187.046 -1.458)" fill="rgba(49,59,68,0.1)"/>
        <path id="Path_77" data-name="Path 77" d="M197.308,6.347h-3.261a.445.445,0,1,1,0-.889h3.261a.445.445,0,0,1,0,.889" transform="translate(-188.267 -3.087)" fill="rgba(49,59,68,0.1)"/>
        <path id="Path_78" data-name="Path 78" d="M185.048,9.2a.444.444,0,0,1-.3-.771l1.724-1.6-1.724-1.6a.445.445,0,1,1,.6-.652L187.425,6.5a.445.445,0,0,1,0,.652L185.35,9.082a.442.442,0,0,1-.3.119" transform="translate(-184.603 -2.68)" fill="rgba(49,59,68,0.1)"/>
        <path id="Path_79" data-name="Path 79" d="M196.087,14.847h-5.039a.445.445,0,1,1,0-.889h5.039a.445.445,0,1,1,0,.889" transform="translate(-187.046 -6.548)" fill="rgba(49,59,68,0.1)"/>
        <path id="Path_80" data-name="Path 80" d="M197.308,10.847h-3.261a.445.445,0,1,1,0-.889h3.261a.445.445,0,0,1,0,.889" transform="translate(-188.267 -4.919)" fill="rgba(49,59,68,0.1)"/>
      </g>
      <rect id="Rectangle_162" data-name="Rectangle 162" width="30" height="13" rx="6.5" transform="translate(211 101)" fill="rgba(49,59,68,0.1)"/>
      <rect id="Rectangle_175" data-name="Rectangle 175" width="30" height="14" rx="7" transform="translate(351 276)" fill="rgba(49,59,68,0.1)"/>
      <rect id="Rectangle_176" data-name="Rectangle 176" width="30" height="14" rx="7" transform="translate(391 276)" fill="rgba(49,59,68,0.1)"/>
      <rect id="Rectangle_163" data-name="Rectangle 163" width="115" height="14" rx="7" transform="translate(53 177)" fill="rgba(49,59,68,0.1)"/>
      <g id="Group_1179" data-name="Group 1179" transform="translate(175.748 285.783)">
        <path id="Path_21" data-name="Path 21" d="M196.447,135.532h-5.039a2.226,2.226,0,0,1-2.223-2.223v-.889a.445.445,0,1,1,.889,0v.889a1.336,1.336,0,0,0,1.334,1.334h5.039a1.336,1.336,0,0,0,1.334-1.334v-.889a.445.445,0,0,1,.889,0v.889a2.226,2.226,0,0,1-2.223,2.223" transform="translate(-189.185 -126.053)" fill="rgba(49,59,68,0.1)"/>
        <path id="Path_22" data-name="Path 22" d="M196.88,128.6a.445.445,0,0,1-.445-.445V122.67a.445.445,0,1,1,.889,0v5.484a.445.445,0,0,1-.445.445" transform="translate(-192.137 -122.083)" fill="rgba(49,59,68,0.1)"/>
        <path id="Path_23" data-name="Path 23" d="M197.483,124.943a.446.446,0,0,1-.326-.142l-1.6-1.724-1.6,1.724a.445.445,0,1,1-.652-.6l1.927-2.075a.459.459,0,0,1,.652,0l1.927,2.075a.444.444,0,0,1-.326.747" transform="translate(-190.814 -121.985)" fill="rgba(49,59,68,0.1)"/>
      </g>
      <g id="Group_1180" data-name="Group 1180" transform="translate(175.748 115.143)">
        <path id="Path_21-2" data-name="Path 21" d="M196.447,135.532h-5.039a2.226,2.226,0,0,1-2.223-2.223v-.889a.445.445,0,1,1,.889,0v.889a1.336,1.336,0,0,0,1.334,1.334h5.039a1.336,1.336,0,0,0,1.334-1.334v-.889a.445.445,0,0,1,.889,0v.889a2.226,2.226,0,0,1-2.223,2.223" transform="translate(-189.185 -126.053)" fill="rgba(49,59,68,0.1)"/>
        <path id="Path_22-2" data-name="Path 22" d="M196.88,128.6a.445.445,0,0,1-.445-.445V122.67a.445.445,0,1,1,.889,0v5.484a.445.445,0,0,1-.445.445" transform="translate(-192.137 -122.083)" fill="rgba(49,59,68,0.1)"/>
        <path id="Path_23-2" data-name="Path 23" d="M197.483,124.943a.446.446,0,0,1-.326-.142l-1.6-1.724-1.6,1.724a.445.445,0,1,1-.652-.6l1.927-2.075a.459.459,0,0,1,.652,0l1.927,2.075a.444.444,0,0,1-.326.747" transform="translate(-190.814 -121.985)" fill="rgba(49,59,68,0.1)"/>
      </g>
      <g id="Group_1181" data-name="Group 1181" transform="translate(213.657 226.925)">
        <path id="Path_44" data-name="Path 44" d="M144.3,96.349h1.4a1.77,1.77,0,0,0,3.43,0H152.9a.445.445,0,1,0,0-.889H149.13a1.77,1.77,0,0,0-3.43,0h-1.4a.445.445,0,1,0,0,.889m3.112-1.334a.889.889,0,1,1-.889.889.89.89,0,0,1,.889-.889" transform="translate(-143.858 -94.126)" fill="rgba(49,59,68,0.1)"/>
        <path id="Path_45" data-name="Path 45" d="M152.9,103.46h-.8a1.769,1.769,0,0,0-3.43,0H144.3a.445.445,0,1,0,0,.889h4.361a1.769,1.769,0,0,0,3.43,0h.8a.445.445,0,1,0,0-.889m-2.519,1.334a.889.889,0,1,1,.889-.889.89.89,0,0,1-.889.889" transform="translate(-143.858 -97.383)" fill="rgba(49,59,68,0.1)"/>
      </g>
      <text id="_" data-name=" " transform="translate(177 39)" font-size="3" font-family="'\.AppleSystemUIFont'"><tspan x="0" y="0"> </tspan></text>
      <g transform="matrix(1, 0, 0, 1, 0, -11)" filter="url(#Ellipse_3)">
        <circle id="Ellipse_3-2" data-name="Ellipse 3" cx="41" cy="41" r="41" transform="translate(315 146)" fill="#f5f5f7"/>
      </g>
      <g transform="matrix(1, 0, 0, 1, 0, -11)" filter="url(#Ellipse_19)">
        <circle id="Ellipse_19-2" data-name="Ellipse 19" cx="19.5" cy="19.5" r="19.5" transform="translate(337 169)" fill="#fff"/>
      </g>
      <g id="Group_3312" data-name="Group 3312" transform="translate(351.761 172.827)">
        <g id="Group_3312-2" data-name="Group 3312" transform="translate(0 0)">
          <g id="Group_1173-2" data-name="Group 1173" transform="translate(0 0)">
            <path id="Path_57-2" data-name="Path 57" d="M232.98,61.244a.566.566,0,0,0-.8,0l-7.924,7.924a.566.566,0,0,0,.8.8l7.925-7.925a.566.566,0,0,0,0-.8" transform="translate(-224.089 -61.078)" fill="rgba(49,59,68,0.1)"/>
            <path id="Path_58-2" data-name="Path 58" d="M233.6,69.078a1.509,1.509,0,1,0,1.509,1.509,1.511,1.511,0,0,0-1.509-1.509m0,1.887a.377.377,0,1,1,.377-.377.378.378,0,0,1-.377.377" transform="translate(-226.052 -63.04)" fill="rgba(49,59,68,0.1)"/>
            <path id="Path_59-2" data-name="Path 59" d="M225.6,64.1a1.509,1.509,0,1,0-1.509-1.509A1.511,1.511,0,0,0,225.6,64.1m0-1.887a.377.377,0,1,1-.377.377.378.378,0,0,1,.377-.377" transform="translate(-224.089 -61.078)" fill="rgba(49,59,68,0.1)"/>
          </g>
        </g>
      </g>
      <g id="Group_3357" data-name="Group 3357" transform="translate(211.162 138.992)">
        <rect id="Rectangle_221" data-name="Rectangle 221" width="71" height="10" rx="5" transform="translate(-0.162 0.007)" fill="#f5f5f7"/>
        <rect id="Rectangle_220" data-name="Rectangle 220" width="20" height="6" rx="3" transform="translate(1.838 2.007)" fill="#fdc90f"/>
      </g>
      <g id="Group_3358" data-name="Group 3358" transform="translate(211.162 153.248)">
        <rect id="Rectangle_221-2" data-name="Rectangle 221" width="71" height="10" rx="5" transform="translate(-0.162 -0.248)" fill="#f5f5f7"/>
        <rect id="Rectangle_220-2" data-name="Rectangle 220" width="12" height="6" rx="3" transform="translate(1.838 1.752)" fill="#fdc90f"/>
      </g>
      <g id="Group_3359" data-name="Group 3359" transform="translate(211.162 167.504)">
        <rect id="Rectangle_221-3" data-name="Rectangle 221" width="71" height="10" rx="5" transform="translate(-0.162 0.496)" fill="#f5f5f7"/>
        <rect id="Rectangle_220-3" data-name="Rectangle 220" width="9" height="6" rx="3" transform="translate(1.838 2.496)" fill="#fdc90f"/>
      </g>
      <g id="Group_3360" data-name="Group 3360" transform="translate(211.162 182.65)">
        <rect id="Rectangle_221-4" data-name="Rectangle 221" width="71" height="9" rx="4.5" transform="translate(-0.162 0.35)" fill="#f5f5f7"/>
        <rect id="Rectangle_220-4" data-name="Rectangle 220" width="28" height="7" rx="3.5" transform="translate(1.838 1.35)" fill="#fdc90f"/>
      </g>
      <g id="Mask_Group_2" data-name="Mask Group 2" transform="translate(274.13 106.061)" clip-path="url(#clip-path)">
        <path id="Path_144" data-name="Path 144" d="M65.57,20a45.57,45.57,0,1,0,45.57,45.57A45.622,45.622,0,0,0,65.57,20m0-20A65.57,65.57,0,1,1,0,65.57,65.57,65.57,0,0,1,65.57,0Z" transform="translate(16.59 4.144)" fill="#fdc90f"/>
      </g>
    </g>
    <g id="Group_3418" data-name="Group 3418" transform="translate(744 421.667)">
      <g id="Group_3390" data-name="Group 3390" transform="translate(0 0.333)">
        <rect id="Rectangle_145" data-name="Rectangle 145" width="474" height="316" transform="translate(0 0)" fill="#fff"/>
        <rect id="Rectangle_140" data-name="Rectangle 140" width="110" height="13" rx="6.5" transform="translate(42 31)" fill="rgba(49,59,68,0.2)"/>
        <rect id="Rectangle_141-2" data-name="Rectangle 141" width="72" height="13" rx="6.5" transform="translate(201 31)" fill="#f5f5f7"/>
        <rect id="Rectangle_154-2" data-name="Rectangle 154" width="31" height="13" rx="6.5" transform="translate(201 62)" fill="rgba(49,59,68,0.2)"/>
        <rect id="Rectangle_155-2" data-name="Rectangle 155" width="31" height="13" rx="6.5" transform="translate(242 62)" fill="rgba(49,59,68,0.1)"/>
        <rect id="Rectangle_166-2" data-name="Rectangle 166" width="88" height="14" rx="7" transform="translate(41 7)" fill="rgba(49,59,68,0.1)"/>
        <rect id="Rectangle_156-2" data-name="Rectangle 156" width="31" height="13" rx="6.5" transform="translate(282 62)" fill="rgba(49,59,68,0.1)"/>
        <rect id="Rectangle_161-2" data-name="Rectangle 161" width="31" height="13" rx="6.5" transform="translate(401 62)" fill="rgba(49,59,68,0.1)"/>
        <path id="Rectangle_144-2" data-name="Rectangle 144" d="M7.814,1A6.822,6.822,0,0,0,1,7.814,5.192,5.192,0,0,0,6.186,13H63.814A5.192,5.192,0,0,0,69,7.814V6.186A5.192,5.192,0,0,0,63.814,1h-56m0-1h56A6.186,6.186,0,0,1,70,6.186V7.814A6.186,6.186,0,0,1,63.814,14H6.186A6.186,6.186,0,0,1,0,7.814,7.814,7.814,0,0,1,7.814,0Z" transform="translate(363 8)" fill="#f5f5f7"/>
        <rect id="Rectangle_142-2" data-name="Rectangle 142" width="71" height="13" rx="6.5" transform="translate(282 31)" fill="#f5f5f7"/>
        <rect id="Rectangle_143-2" data-name="Rectangle 143" width="70" height="13" rx="6.5" transform="translate(363 31)" fill="#f5f5f7"/>
        <rect id="Rectangle_139-4" data-name="Rectangle 139" width="31" height="316" transform="translate(0 0)" fill="#f5f5f7"/>
        <path id="Path_14-2" data-name="Path 14" d="M59.824,123.258c-.232.809-.472,1.616-.691,2.429-.107.4-.258.64-.749.609-.746-.047-1.5-.008-2.247-.014-.486,0-.662-.225-.544-.683a.4.4,0,0,1,.446-.359c.576.023,1.153,0,1.729.012a.356.356,0,0,0,.416-.311c.363-1.314.752-2.622,1.114-3.936.16-.579.646-.839,1-.47a1.612,1.612,0,0,1,.286.73c.4,1.641.785,3.285,1.176,4.928.187.789.376,1.577.637,2.359.24-.939.483-1.877.717-2.817a.563.563,0,0,1,.663-.5c.748.036,1.5.011,2.247.01.337,0,.644.017.625.487-.018.452-.112.55-.6.551-.533,0-1.066.011-1.6-.005a.336.336,0,0,0-.391.286c-.374,1.443-.743,2.887-1.133,4.326-.076.282-.126.616-.584.591-.422-.023-.54-.256-.623-.607-.411-1.738-.839-3.473-1.257-5.21-.194-.806-.38-1.614-.569-2.422l-.069.015" transform="translate(-45.701 -81.17)" fill="rgba(49,59,68,0.1)"/>
        <path id="Line_127-9" data-name="Line 127" d="M24.885.5H0v-1H24.885Z" transform="translate(2.963 60.356)" fill="rgba(49,59,68,0.1)"/>
        <path id="Line_128-2" data-name="Line 128" d="M24.885.5H0v-1H24.885Z" transform="translate(2.963 29.097)" fill="rgba(49,59,68,0.1)"/>
        <path id="Line_127-10" data-name="Line 127" d="M24.885.5H0v-1H24.885Z" transform="translate(2.963 89.981)" fill="rgba(49,59,68,0.1)"/>
        <path id="Line_127-11" data-name="Line 127" d="M24.885.5H0v-1H24.885Z" transform="translate(2.963 119.606)" fill="rgba(49,59,68,0.1)"/>
        <path id="Line_127-12" data-name="Line 127" d="M24.885.5H0v-1H24.885Z" transform="translate(2.963 149.231)" fill="rgba(49,59,68,0.1)"/>
        <path id="Line_130-2" data-name="Line 130" d="M24.885.5H0v-1H24.885Z" transform="translate(2.963 281.556)" fill="rgba(49,59,68,0.1)"/>
        <path id="Path_24-2" data-name="Path 24" d="M29.824,127.125a.445.445,0,0,1-.314-.759l3.261-3.26a.444.444,0,0,1,.628.628l-3.261,3.26a.441.441,0,0,1-.314.13" transform="translate(-18.717 -51.983)" fill="rgba(49,59,68,0.1)"/>
        <path id="Path_25-2" data-name="Path 25" d="M30.713,135.532h-.3a1.039,1.039,0,0,1-1.037-1.037v-1.482a1.039,1.039,0,0,1,1.037-1.037h.3a1.039,1.039,0,0,1,1.037,1.037v1.482a1.039,1.039,0,0,1-1.037,1.037m-.3-2.668a.148.148,0,0,0-.148.148v1.482a.148.148,0,0,0,.148.148h.3a.148.148,0,0,0,.148-.148v-1.482a.148.148,0,0,0-.148-.148Z" transform="translate(-18.717 -55.648)" fill="rgba(49,59,68,0.1)"/>
        <path id="Path_26-2" data-name="Path 26" d="M36.713,134.31h-.3a1.039,1.039,0,0,1-1.037-1.037v-3.261a1.039,1.039,0,0,1,1.037-1.037h.3a1.039,1.039,0,0,1,1.037,1.037v3.261a1.039,1.039,0,0,1-1.037,1.037m-.3-4.446a.148.148,0,0,0-.148.148v3.261a.148.148,0,0,0,.148.148h.3a.148.148,0,0,0,.148-.148v-3.261a.148.148,0,0,0-.148-.148Z" transform="translate(-21.16 -54.426)" fill="rgba(49,59,68,0.1)"/>
        <path id="Path_27-2" data-name="Path 27" d="M42.713,131.46h-.3a1.039,1.039,0,0,1-1.037-1.037v-7.41a1.039,1.039,0,0,1,1.037-1.037h.3a1.039,1.039,0,0,1,1.037,1.037v7.41a1.039,1.039,0,0,1-1.037,1.037m-.3-8.6a.148.148,0,0,0-.148.148v7.41a.148.148,0,0,0,.148.148h.3a.148.148,0,0,0,.148-.148v-7.41a.148.148,0,0,0-.148-.148Z" transform="translate(-23.603 -51.576)" fill="rgba(49,59,68,0.1)"/>
        <path id="Path_28-2" data-name="Path 28" d="M34.9,124.939a.445.445,0,0,1-.445-.445v-1.63h-1.63a.445.445,0,1,1,0-.889H34.9a.445.445,0,0,1,.445.445v2.075a.445.445,0,0,1-.445.445" transform="translate(-19.938 -51.576)" fill="rgba(49,59,68,0.1)"/>
        <path id="Path_34-2" data-name="Path 34" d="M4.743,102.561a4.743,4.743,0,1,1,4.743-4.743,4.748,4.748,0,0,1-4.743,4.743m0-8.6A3.853,3.853,0,1,0,8.6,97.819a3.858,3.858,0,0,0-3.853-3.853" transform="translate(10.662 7.002)" fill="rgba(49,59,68,0.1)"/>
        <path id="Path_35-2" data-name="Path 35" d="M5.964,102A2.964,2.964,0,1,1,8.928,99.04,2.967,2.967,0,0,1,5.964,102m0-5.039A2.075,2.075,0,1,0,8.039,99.04a2.077,2.077,0,0,0-2.075-2.075" transform="translate(9.441 5.781)" fill="rgba(49,59,68,0.1)"/>
        <path id="Path_36-2" data-name="Path 36" d="M7.186,101.447a1.186,1.186,0,1,1,1.186-1.186,1.187,1.187,0,0,1-1.186,1.186m0-1.482a.3.3,0,1,0,.3.3.3.3,0,0,0-.3-.3" transform="translate(8.219 4.559)" fill="rgba(49,59,68,0.1)"/>
        <path id="Path_73-2" data-name="Path 73" d="M120.523,37.74a.593.593,0,0,1-.593-.593V35.962a.593.593,0,0,1,1.186,0v1.186a.593.593,0,0,1-.593.593" transform="translate(-105.118 99.023)" fill="rgba(49,59,68,0.1)"/>
        <path id="Path_74-2" data-name="Path 74" d="M120.522,31.369a.593.593,0,1,1-.593.593.593.593,0,0,1,.593-.593" transform="translate(-105.117 100.651)" fill="rgba(49,59,68,0.1)"/>
        <path id="Path_75-2" data-name="Path 75" d="M117.673,36.854a4.743,4.743,0,1,1,4.743-4.743,4.748,4.748,0,0,1-4.743,4.743m0-8.6a3.853,3.853,0,1,0,3.853,3.853,3.858,3.858,0,0,0-3.853-3.853" transform="translate(-102.268 102.28)" fill="rgba(49,59,68,0.1)"/>
        <path id="Path_69-2" data-name="Path 69" d="M259.314,29.929h-6.225a1.632,1.632,0,0,0-1.63,1.63V36.6a1.632,1.632,0,0,0,1.63,1.63h6.225a1.632,1.632,0,0,0,1.63-1.63V31.559a1.632,1.632,0,0,0-1.63-1.63m0,.889c.02,0,.037.01.057.011l-3.169,2.8-3.169-2.8c.02,0,.037-.011.057-.011Zm.741,5.78a.742.742,0,0,1-.741.741h-6.225a.742.742,0,0,1-.741-.741V31.559a.678.678,0,0,1,.025-.125l3.533,3.126a.445.445,0,0,0,.589,0l3.533-3.126a.682.682,0,0,1,.025.125Z" transform="translate(-239.991 129.399)" fill="rgba(49,59,68,0.1)"/>
        <g id="Group_1165-2" data-name="Group 1165" transform="translate(11.556 9.156)">
          <g id="Group_1160-2" data-name="Group 1160" transform="translate(0 0)">
            <path id="Path_116-2" data-name="Path 116" d="M4.056,5.088l1.812-.626a.117.117,0,0,1,.158.11l.007,5.273a.117.117,0,0,1-.117.117l-1.813,0a.117.117,0,0,1-.117-.117L3.979,5.2a.118.118,0,0,1,.077-.11M0,6.566l0,3.287a.117.117,0,0,0,.117.117l1.8,0A.117.117,0,0,0,2.04,9.85L2.034,5.956a.117.117,0,0,0-.153-.112L.086,6.454A.117.117,0,0,0,0,6.566M5.955.143l.154.74L.075,2.981A.117.117,0,0,0,0,3.09L0,4.661a.117.117,0,0,0,.157.11L6.535,2.563l.139.605a.117.117,0,0,0,.2.053L9.14.777A.117.117,0,0,0,9.077.583L6.092,0a.117.117,0,0,0-.137.141" transform="translate(0 0)" fill="rgba(0,0,0,0.2)"/>
          </g>
        </g>
        <g id="Group_1164-2" data-name="Group 1164" transform="translate(421.854 11.718)">
          <path id="Path_51-2" data-name="Path 51" d="M37.56,65.379a.317.317,0,0,1-.226-.094l-1.42-1.42a2.987,2.987,0,1,1,.452-.452l1.42,1.42a.32.32,0,0,1-.226.546M34.043,59.2a2.345,2.345,0,1,0,2.345,2.345A2.347,2.347,0,0,0,34.043,59.2" transform="translate(-31.059 -58.558)" fill="rgba(49,59,68,0.1)"/>
        </g>
        <rect id="Rectangle_151-2" data-name="Rectangle 151" width="392" height="160" rx="24" transform="translate(41 142)" fill="#fff"/>
        <path id="Rectangle_151_-_Outline-2" data-name="Rectangle 151 - Outline" d="M24,1A22.98,22.98,0,0,0,1,24V136a22.98,22.98,0,0,0,23,23H368a22.98,22.98,0,0,0,23-23V24A22.98,22.98,0,0,0,368,1H24m0-1H368a24,24,0,0,1,24,24V136a24,24,0,0,1-24,24H24A24,24,0,0,1,0,136V24A24,24,0,0,1,24,0Z" transform="translate(41 142)" fill="rgba(49,59,68,0.1)"/>
        <rect id="Rectangle_227" data-name="Rectangle 227" width="10" height="6" rx="3" transform="translate(66 282)" fill="#f5f5f7"/>
        <rect id="Rectangle_228" data-name="Rectangle 228" width="10" height="6" rx="3" transform="translate(89 282)" fill="#f5f5f7"/>
        <rect id="Rectangle_229" data-name="Rectangle 229" width="9" height="6" rx="3" transform="translate(110 282)" fill="#f5f5f7"/>
        <rect id="Rectangle_230" data-name="Rectangle 230" width="10" height="6" rx="3" transform="translate(130 282)" fill="#f5f5f7"/>
        <rect id="Rectangle_231" data-name="Rectangle 231" width="10" height="6" rx="3" transform="translate(150 282)" fill="#f5f5f7"/>
        <rect id="Rectangle_232" data-name="Rectangle 232" width="10" height="6" rx="3" transform="translate(171 282)" fill="#f5f5f7"/>
        <rect id="Rectangle_233" data-name="Rectangle 233" width="10" height="6" rx="3" transform="translate(191 282)" fill="#f5f5f7"/>
        <path id="Path_99-2" data-name="Path 99" d="M89.12,183.281a.445.445,0,0,1,.771-.3l1.6,1.723,1.6-1.723a.445.445,0,0,1,.652.6l-1.927,2.075a.445.445,0,0,1-.652,0l-1.927-2.075a.442.442,0,0,1-.119-.3" transform="translate(327.605 -30.939)" fill="rgba(49,59,68,0.1)"/>
        <g id="Group_1154-2" data-name="Group 1154" transform="translate(10.663 293.204)">
          <path id="Path_76-2" data-name="Path 76" d="M196.087,2.347h-5.039a.445.445,0,0,1,0-.889h5.039a.445.445,0,1,1,0,.889" transform="translate(-187.046 -1.458)" fill="rgba(49,59,68,0.1)"/>
          <path id="Path_77-2" data-name="Path 77" d="M197.308,6.347h-3.26a.445.445,0,0,1,0-.889h3.26a.445.445,0,1,1,0,.889" transform="translate(-188.267 -3.087)" fill="rgba(49,59,68,0.1)"/>
          <path id="Path_78-2" data-name="Path 78" d="M185.048,9.2a.444.444,0,0,1-.3-.771l1.724-1.6-1.724-1.6a.445.445,0,1,1,.6-.652L187.425,6.5a.445.445,0,0,1,0,.652L185.35,9.082a.442.442,0,0,1-.3.119" transform="translate(-184.603 -2.68)" fill="rgba(49,59,68,0.1)"/>
          <path id="Path_79-2" data-name="Path 79" d="M196.087,14.847h-5.039a.445.445,0,0,1,0-.889h5.039a.445.445,0,1,1,0,.889" transform="translate(-187.046 -6.548)" fill="rgba(49,59,68,0.1)"/>
          <path id="Path_80-2" data-name="Path 80" d="M197.308,10.847h-3.26a.445.445,0,0,1,0-.889h3.26a.445.445,0,1,1,0,.889" transform="translate(-188.267 -4.919)" fill="rgba(49,59,68,0.1)"/>
        </g>
        <rect id="Rectangle_175-2" data-name="Rectangle 175" width="30" height="14" rx="7" transform="translate(351 276)" fill="rgba(49,59,68,0.1)"/>
        <rect id="Rectangle_176-2" data-name="Rectangle 176" width="31" height="14" rx="7" transform="translate(391 276)" fill="rgba(49,59,68,0.1)"/>
        <path id="Rectangle_149-2" data-name="Rectangle 149" d="M20,0H131a20,20,0,0,1,20,20v0a0,0,0,0,1,0,0H0a0,0,0,0,1,0,0v0A20,20,0,0,1,20,0Z" transform="translate(41 60)" fill="#f7f7f9"/>
        <path id="Rectangle_150-2" data-name="Rectangle 150" d="M24,1A22.98,22.98,0,0,0,1,24V69H150V24A22.98,22.98,0,0,0,127,1H24m0-1H127a24,24,0,0,1,24,24V70H0V24A24,24,0,0,1,24,0Z" transform="translate(41 60)" fill="rgba(49,59,68,0.1)"/>
        <rect id="Rectangle_179" data-name="Rectangle 179" width="71" height="6" rx="3" transform="translate(52 109)" fill="#f5f5f7"/>
        <rect id="Rectangle_178" data-name="Rectangle 178" width="115" height="15" rx="7.5" transform="translate(52 89)" fill="rgba(49,59,68,0.1)"/>
        <rect id="Rectangle_234" data-name="Rectangle 234" width="192" height="15" rx="7.5" transform="translate(202 89)" fill="rgba(49,59,68,0.1)"/>
        <rect id="Rectangle_235" data-name="Rectangle 235" width="102" height="14" rx="7" transform="translate(202 114)" fill="rgba(49,59,68,0.1)"/>
        <rect id="Rectangle_236" data-name="Rectangle 236" width="101" height="14" rx="7" transform="translate(248 163)" fill="rgba(49,59,68,0.1)"/>
        <rect id="Rectangle_237" data-name="Rectangle 237" width="49" height="13" rx="6.5" transform="translate(248 183)" fill="rgba(49,59,68,0.1)"/>
        <rect id="Rectangle_238" data-name="Rectangle 238" width="89" height="13" rx="6.5" transform="translate(248 203)" fill="rgba(49,59,68,0.1)"/>
        <g id="Group_1180-2" data-name="Group 1180" transform="translate(175.748 114.867)">
          <path id="Path_21-3" data-name="Path 21" d="M196.447,135.532h-5.039a2.226,2.226,0,0,1-2.223-2.223v-.889a.445.445,0,1,1,.889,0v.889a1.336,1.336,0,0,0,1.334,1.334h5.039a1.336,1.336,0,0,0,1.334-1.334v-.889a.445.445,0,0,1,.889,0v.889a2.226,2.226,0,0,1-2.223,2.223" transform="translate(-189.185 -126.053)" fill="rgba(49,59,68,0.1)"/>
          <path id="Path_22-3" data-name="Path 22" d="M196.88,128.6a.445.445,0,0,1-.445-.445V122.67a.445.445,0,1,1,.889,0v5.484a.445.445,0,0,1-.445.445" transform="translate(-192.137 -122.083)" fill="rgba(49,59,68,0.1)"/>
          <path id="Path_23-3" data-name="Path 23" d="M197.483,124.943a.446.446,0,0,1-.326-.142l-1.6-1.724-1.6,1.724a.445.445,0,1,1-.652-.6l1.927-2.075a.459.459,0,0,1,.652,0l1.927,2.075a.444.444,0,0,1-.326.747" transform="translate(-190.814 -121.985)" fill="rgba(49,59,68,0.1)"/>
        </g>
        <path id="Path_119" data-name="Path 119" d="M64.027,8.562a.442.442,0,0,1-.3-.119L61.65,6.517a.445.445,0,0,1,0-.652l2.075-1.927a.445.445,0,1,1,.6.652l-1.724,1.6,1.724,1.6a.444.444,0,0,1-.3.771" transform="translate(6.95 233.745)" fill="#fff"/>
        <path id="Line_131" data-name="Line 131" d="M169.455.5H0v-1H169.455Z" transform="translate(241.938 141.951)" fill="rgba(49,59,68,0.1)"/>
        <path id="Line_137" data-name="Line 137" d="M169.455.5H0v-1H169.455Z" transform="translate(53.224 202.386)" fill="rgba(49,59,68,0.1)"/>
        <path id="Line_155" data-name="Line 155" d="M169.455.5H0v-1H169.455Z" transform="translate(53.224 252.946)" fill="rgba(49,59,68,0.1)"/>
        <path id="Line_159" data-name="Line 159" d="M169.455.5H0v-1H169.455Z" transform="translate(53.224 303.506)" fill="rgba(49,59,68,0.1)"/>
        <path id="Line_152" data-name="Line 152" d="M169.455.5H0v-1H169.455Z" transform="translate(53.224 189.746)" fill="rgba(49,59,68,0.1)"/>
        <path id="Line_156" data-name="Line 156" d="M169.455.5H0v-1H169.455Z" transform="translate(53.224 240.306)" fill="rgba(49,59,68,0.1)"/>
        <path id="Line_153" data-name="Line 153" d="M169.455.5H0v-1H169.455Z" transform="translate(53.224 177.106)" fill="rgba(49,59,68,0.1)"/>
        <path id="Line_157" data-name="Line 157" d="M169.455.5H0v-1H169.455Z" transform="translate(53.224 227.666)" fill="rgba(49,59,68,0.1)"/>
        <path id="Line_154" data-name="Line 154" d="M169.455.5H0v-1H169.455Z" transform="translate(53.224 164.466)" fill="rgba(49,59,68,0.1)"/>
        <path id="Line_158" data-name="Line 158" d="M169.455.5H0v-1H169.455Z" transform="translate(53.224 215.026)" fill="rgba(49,59,68,0.1)"/>
        <path id="Line_162" data-name="Line 162" d="M169.455.5H0v-1H169.455Z" transform="translate(53.224 265.586)" fill="rgba(49,59,68,0.1)"/>
        <g id="Group_3292" data-name="Group 3292" transform="translate(66.167 276.224) rotate(-90)">
          <rect id="Rectangle_218" data-name="Rectangle 218" width="122.028" height="9.875" rx="4.938" fill="#f5f5f7"/>
          <rect id="Rectangle_219" data-name="Rectangle 219" width="6.209" height="6.32" rx="3.104" transform="translate(2.37 1.975)" fill="#fdc90f"/>
        </g>
        <g id="Group_3294" data-name="Group 3294" transform="translate(89.128 276.224) rotate(-90)">
          <rect id="Rectangle_218-2" data-name="Rectangle 218" width="122.028" height="9.875" rx="4.938" fill="#f5f5f7"/>
          <rect id="Rectangle_219-2" data-name="Rectangle 219" width="26.448" height="6.32" rx="3.16" transform="translate(2.37 1.975)" fill="#fdc90f"/>
        </g>
        <g id="Group_3299" data-name="Group 3299" transform="translate(150.596 276.224) rotate(-90)">
          <rect id="Rectangle_218-3" data-name="Rectangle 218" width="122.028" height="9.875" rx="4.938" fill="#f5f5f7"/>
          <rect id="Rectangle_219-3" data-name="Rectangle 219" width="62.948" height="6.32" rx="3.16" transform="translate(2.37 1.975)" fill="#69be5a"/>
        </g>
        <g id="Group_3295" data-name="Group 3295" transform="translate(109.617 276.224) rotate(-90)">
          <rect id="Rectangle_218-4" data-name="Rectangle 218" width="122.028" height="9.875" rx="4.938" fill="#f5f5f7"/>
          <rect id="Rectangle_219-4" data-name="Rectangle 219" width="17.741" height="6.32" rx="3.16" transform="translate(2.37 1.975)" fill="#fdc90f"/>
        </g>
        <g id="Group_3298" data-name="Group 3298" transform="translate(171.086 276.224) rotate(-90)">
          <rect id="Rectangle_218-5" data-name="Rectangle 218" width="122.028" height="9.875" rx="4.938" fill="#f5f5f7"/>
          <rect id="Rectangle_219-5" data-name="Rectangle 219" width="67.792" height="6.32" rx="3.16" transform="translate(2.37 1.975)" fill="#69be5a"/>
        </g>
        <g id="Group_3296" data-name="Group 3296" transform="translate(130.107 276.224) rotate(-90)">
          <rect id="Rectangle_218-6" data-name="Rectangle 218" width="122.028" height="9.875" rx="4.938" fill="#f5f5f7"/>
          <rect id="Rectangle_219-6" data-name="Rectangle 219" width="14.769" height="6.32" rx="3.16" transform="translate(2.37 1.975)" fill="#fdc90f"/>
        </g>
        <g id="Group_3297" data-name="Group 3297" transform="translate(191.575 276.224) rotate(-90)">
          <rect id="Rectangle_218-7" data-name="Rectangle 218" width="122.028" height="9.875" rx="4.938" fill="#f5f5f7"/>
          <rect id="Rectangle_219-7" data-name="Rectangle 219" width="90" height="6" rx="3" transform="translate(3.224 2.425)" fill="#69be5a"/>
        </g>
        <g id="Group_3301" data-name="Group 3301" transform="translate(241.938 212.578)">
          <g id="Group_3300" data-name="Group 3300" transform="translate(0 15.01)">
            <path id="Line_166" data-name="Line 166" d="M179.917.5H0v-1H179.917Z" transform="translate(0 37.92)" fill="rgba(49,59,68,0.1)"/>
            <path id="Line_165" data-name="Line 165" d="M179.917.5H0v-1H179.917Z" transform="translate(0 25.28)" fill="rgba(49,59,68,0.1)"/>
            <path id="Line_164" data-name="Line 164" d="M179.917.5H0v-1H179.917Z" transform="translate(0 12.64)" fill="rgba(49,59,68,0.1)"/>
            <path id="Line_163" data-name="Line 163" d="M179.917.5H0v-1H179.917Z" fill="rgba(49,59,68,0.1)"/>
          </g>
          <path id="Fill_25" data-name="Fill 25" d="M147.834,32.38l-10.1-47.3a8.431,8.431,0,0,0-15.887-.2l-6.1,29.459a8.432,8.432,0,0,1-14.48,2.362l-4.249-5.284A8.431,8.431,0,0,0,85.475,9.9l-9.9,7.239A8.433,8.433,0,0,1,70.6,18.762H58.007a8.43,8.43,0,0,0-4.977,1.626L43.66,27.241a8.431,8.431,0,0,1-11.938-2.048l-8.8-12.865q-.168-.245-.35-.476c-3.53-4.469-10.6-3.524-13.167,1.561L0,32.078s147.834-.3,147.834.3" transform="translate(15.602 20.628)" fill="#19a4fa"/>
        </g>
        <g id="Group_3302" data-name="Group 3302" transform="translate(242.887 278.789)">
          <g id="Group_1181-2" data-name="Group 1181" transform="translate(0 0)">
            <path id="Path_44-2" data-name="Path 44" d="M144.3,96.349h1.4a1.77,1.77,0,0,0,3.43,0H152.9a.445.445,0,1,0,0-.889H149.13a1.77,1.77,0,0,0-3.43,0h-1.4a.445.445,0,1,0,0,.889m3.112-1.334a.889.889,0,1,1-.889.889.89.89,0,0,1,.889-.889" transform="translate(-143.858 -94.126)" fill="rgba(49,59,68,0.1)"/>
            <path id="Path_45-2" data-name="Path 45" d="M152.9,103.46h-.8a1.769,1.769,0,0,0-3.43,0H144.3a.445.445,0,1,0,0,.889h4.361a1.769,1.769,0,0,0,3.43,0h.8a.445.445,0,0,0,0-.889m-2.519,1.334a.889.889,0,1,1,.889-.889.89.89,0,0,1-.889.889" transform="translate(-143.858 -97.383)" fill="rgba(49,59,68,0.1)"/>
          </g>
        </g>
        <g id="Group_3304" data-name="Group 3304" transform="translate(362.958 153.304)">
          <g transform="matrix(1, 0, 0, 1, -770.96, -322.3)" filter="url(#Ellipse_16)">
            <ellipse id="Ellipse_16-2" data-name="Ellipse 16" cx="23" cy="23.5" rx="23" ry="23.5" transform="translate(771 322)" fill="#f5f5f7"/>
          </g>
          <g transform="matrix(1, 0, 0, 1, -770.96, -322.3)" filter="url(#Ellipse_17)">
            <ellipse id="Ellipse_17-2" data-name="Ellipse 17" cx="11.5" cy="12" rx="11.5" ry="12" transform="translate(783 334)" fill="#69be5a"/>
          </g>
        </g>
        <g id="Group_3320" data-name="Group 3320" transform="translate(443.339)">
          <g transform="matrix(1, 0, 0, 1, -851.34, -169)" filter="url(#Rectangle_208)">
            <rect id="Rectangle_208-2" data-name="Rectangle 208" width="31" height="179" rx="15.5" transform="translate(851 169)" fill="#fff"/>
          </g>
          <path id="Line_146" data-name="Line 146" d="M24.885.5H0v-1H24.885Z" transform="translate(2.813 60.356)" fill="rgba(49,59,68,0.1)"/>
          <path id="Line_147" data-name="Line 147" d="M24.885.5H0v-1H24.885Z" transform="translate(2.813 30.534)" fill="rgba(49,59,68,0.1)"/>
          <path id="Line_148" data-name="Line 148" d="M24.885.5H0v-1H24.885Z" transform="translate(2.813 89.981)" fill="rgba(49,59,68,0.1)"/>
          <path id="Line_149" data-name="Line 149" d="M24.885.5H0v-1H24.885Z" transform="translate(2.813 119.606)" fill="rgba(49,59,68,0.1)"/>
          <path id="Line_150" data-name="Line 150" d="M24.885.5H0v-1H24.885Z" transform="translate(2.813 149.231)" fill="rgba(49,59,68,0.1)"/>
          <path id="Path_125" data-name="Path 125" d="M119.574,102.578h-.152a1.04,1.04,0,0,1-1.027-.9l-.052-.373a.233.233,0,0,0-.157-.166l-.114-.048a.235.235,0,0,0-.229.005l-.182.136a1.041,1.041,0,0,1-1.355-.1l-.111-.111a1.042,1.042,0,0,1-.1-1.356l.136-.182a.234.234,0,0,0,0-.229c-.017-.039-.033-.079-.049-.12a.23.23,0,0,0-.164-.151l-.374-.052a1.042,1.042,0,0,1-.9-1.028V97.76a1.042,1.042,0,0,1,.9-1.028l.374-.052a.234.234,0,0,0,.166-.157c.014-.036.03-.075.048-.115a.234.234,0,0,0-.005-.227L116.1,96a1.043,1.043,0,0,1,.1-1.355l.111-.111a1.041,1.041,0,0,1,1.356-.1l.182.137a.235.235,0,0,0,.229,0l.111-.046a.236.236,0,0,0,.159-.167l.052-.375a1.04,1.04,0,0,1,1.027-.9h.152a1.042,1.042,0,0,1,1.028.9l.052.375a.235.235,0,0,0,.157.167l.113.047a.233.233,0,0,0,.228,0l.183-.137a1.042,1.042,0,0,1,1.356.1l.111.111A1.043,1.043,0,0,1,122.9,96l-.136.182a.236.236,0,0,0,0,.229l.047.112a.235.235,0,0,0,.166.158l.375.052a1.041,1.041,0,0,1,.9,1.028v.152a1.042,1.042,0,0,1-.9,1.028l-.375.052a.234.234,0,0,0-.165.157l-.049.115a.235.235,0,0,0,.006.227l.137.183a1.042,1.042,0,0,1-.1,1.355l-.111.111a1.044,1.044,0,0,1-1.356.1l-.182-.137a.236.236,0,0,0-.228,0l-.111.047a.236.236,0,0,0-.159.167l-.052.375a1.042,1.042,0,0,1-1.028.895m-1.622-2.4a1.187,1.187,0,0,1,.477.1l.087.037a1.117,1.117,0,0,1,.708.87l.052.374a.148.148,0,0,0,.146.128h.152a.148.148,0,0,0,.146-.127l.052-.375a1.119,1.119,0,0,1,.711-.87l.087-.037a1.113,1.113,0,0,1,1.116.11l.181.136a.15.15,0,0,0,.2-.014l.111-.111a.15.15,0,0,0,.014-.194l-.138-.183a1.118,1.118,0,0,1-.108-1.118l.036-.085a1.12,1.12,0,0,1,.871-.711l.375-.052a.148.148,0,0,0,.127-.146V97.76a.149.149,0,0,0-.127-.147l-.375-.052a1.118,1.118,0,0,1-.871-.71l-.034-.083a1.121,1.121,0,0,1,.107-1.12l.137-.182a.15.15,0,0,0-.014-.194l-.111-.111a.151.151,0,0,0-.2-.014l-.181.136a1.115,1.115,0,0,1-1.119.108l-.087-.036a1.118,1.118,0,0,1-.708-.87l-.052-.374h0a.148.148,0,0,0-.146-.128h-.152a.149.149,0,0,0-.146.127l-.052.376a1.119,1.119,0,0,1-.71.87l-.082.034a1.121,1.121,0,0,1-1.122-.106l-.183-.138a.15.15,0,0,0-.193.014l-.111.111a.147.147,0,0,0-.014.193l.138.183a1.121,1.121,0,0,1,.107,1.119l-.033.079a1.12,1.12,0,0,1-.873.716l-.374.052a.15.15,0,0,0-.129.147v.152a.149.149,0,0,0,.129.146l.374.052a1.121,1.121,0,0,1,.871.71l.034.084a1.118,1.118,0,0,1-.106,1.12l-.137.183a.148.148,0,0,0,.014.194l.111.111a.148.148,0,0,0,.193.014l.184-.137a1.066,1.066,0,0,1,.642-.209" transform="translate(-104.242 -82.087)" fill="rgba(49,59,68,0.1)"/>
          <path id="Path_126" data-name="Path 126" d="M121.942,101.464a1.186,1.186,0,1,1,1.186-1.186,1.187,1.187,0,0,1-1.186,1.186m0-1.482a.3.3,0,1,0,.3.3.3.3,0,0,0-.3-.3" transform="translate(-106.686 -84.53)" fill="rgba(49,59,68,0.1)"/>
          <g id="Group_3274" data-name="Group 3274" transform="translate(10.779 40.801)">
            <g id="Group_1166-2" data-name="Group 1166" transform="translate(0 0)">
              <g id="Group_1142-3" data-name="Group 1142" transform="translate(0)">
                <g id="Group_1144-2" data-name="Group 1144" transform="translate(0)">
                  <g id="Group_1143-2" data-name="Group 1143">
                    <g id="Group_1142-4" data-name="Group 1142">
                      <path id="Path_19-2" data-name="Path 19" d="M121.9,126.718a2.371,2.371,0,1,1,2.371-2.371,2.374,2.374,0,0,1-2.371,2.371m0-3.853a1.482,1.482,0,1,0,1.482,1.482,1.484,1.484,0,0,0-1.482-1.482" transform="translate(-117.423 -121.975)" fill="rgba(15,45,82,0.1)"/>
                      <path id="Path_20-2" data-name="Path 20" d="M123.508,135.227H117.4a1.455,1.455,0,0,1-1.254-.666,1.163,1.163,0,0,1-.021-1.167c.522-.989,1.7-2.169,4.33-2.169s3.808,1.179,4.33,2.169a1.162,1.162,0,0,1-.021,1.167,1.455,1.455,0,0,1-1.254.666m-3.054-3.112c-2.189,0-3.135.922-3.544,1.695a.279.279,0,0,0,0,.292.576.576,0,0,0,.492.236h6.108A.576.576,0,0,0,124,134.1a.28.28,0,0,0,0-.293c-.408-.773-1.355-1.695-3.544-1.695" transform="translate(-115.977 -125.741)" fill="rgba(15,45,82,0.1)"/>
                    </g>
                  </g>
                </g>
              </g>
            </g>
          </g>
          <path id="Path_127" data-name="Path 127" d="M63.272,102.351a.446.446,0,0,1-.283-.1l-2.237-1.842-2.237,1.842a.445.445,0,0,1-.712-.46l.812-2.975-2.434-1.893a.445.445,0,0,1,.273-.8H59.39l.938-2.951a.445.445,0,0,1,.848,0l.938,2.951h2.936a.445.445,0,0,1,.273.8L62.89,98.815l.812,2.975a.445.445,0,0,1-.429.561m-2.519-2.964a.445.445,0,0,1,.283.1l1.44,1.186-.522-1.911a.445.445,0,0,1,.157-.468l1.644-1.279H61.79a.444.444,0,0,1-.424-.309l-.614-1.929-.614,1.929a.444.444,0,0,1-.424.309H57.751L59.4,98.3a.445.445,0,0,1,.157.468l-.522,1.911,1.44-1.186a.445.445,0,0,1,.283-.1" transform="translate(-45.497 36.783)" fill="rgba(49,59,68,0.1)"/>
          <g id="Group_3275" data-name="Group 3275" transform="translate(12.291 100.814)">
            <path id="Path_128" data-name="Path 128" d="M231.073,61.209a.445.445,0,0,0-.629,0l-6.225,6.225a.445.445,0,0,0,.629.629l6.225-6.225a.445.445,0,0,0,0-.629" transform="translate(-224.089 -60.629)" fill="rgba(49,59,68,0.1)"/>
            <path id="Path_129" data-name="Path 129" d="M233.276,69.078a1.186,1.186,0,1,0,1.186,1.186,1.187,1.187,0,0,0-1.186-1.186m0,1.482a.3.3,0,1,1,.3-.3.3.3,0,0,1-.3.3" transform="translate(-227.346 -63.886)" fill="rgba(49,59,68,0.1)"/>
            <path id="Path_133" data-name="Path 133" d="M233.276,69.078a1.186,1.186,0,1,0,1.186,1.186,1.187,1.187,0,0,0-1.186-1.186m0,1.482a.3.3,0,1,1,.3-.3.3.3,0,0,1-.3.3" transform="translate(-232.09 -69.078)" fill="rgba(49,59,68,0.1)"/>
          </g>
          <ellipse id="Ellipse_7" data-name="Ellipse 7" cx="10.5" cy="10" rx="10.5" ry="10" transform="translate(4.661 65)" fill="#19a4fa"/>
          <g id="Group_3277" data-name="Group 3277" transform="translate(10.908 159.328)">
            <g id="Group_3276" data-name="Group 3276" transform="translate(0 0)">
              <path id="Path_130" data-name="Path 130" d="M188.887,36.149A4.836,4.836,0,0,1,184.144,32a4.785,4.785,0,0,1,9.485,0,4.836,4.836,0,0,1-4.743,4.15m0-7.41A3.978,3.978,0,0,0,185.033,32a3.907,3.907,0,0,0,7.707,0,3.978,3.978,0,0,0-3.853-3.261" transform="translate(-184.144 -27.85)" fill="rgba(49,59,68,0.1)"/>
              <path id="Path_131" data-name="Path 131" d="M190.922,35.407a1.778,1.778,0,1,1,1.778-1.778,1.781,1.781,0,0,1-1.778,1.778m0-2.668a.889.889,0,1,0,.889.889.89.89,0,0,0-.889-.889" transform="translate(-186.18 -29.479)" fill="rgba(49,59,68,0.1)"/>
            </g>
          </g>
          <path id="Path_140" data-name="Path 140" d="M90.823,162.428H89.34a1.039,1.039,0,0,1-1.037-1.037v-3.882a.744.744,0,0,0-.162-.462l-2.7-3.38a.445.445,0,0,1,.347-.723h8.6a.445.445,0,0,1,.347.723l-2.705,3.38a.743.743,0,0,0-.162.462v3.882a1.039,1.039,0,0,1-1.037,1.037m-4.114-8.6,2.126,2.658a1.635,1.635,0,0,1,.357,1.018v3.882a.149.149,0,0,0,.148.148h1.483a.148.148,0,0,0,.148-.148v-3.882a1.637,1.637,0,0,1,.357-1.018l2.126-2.658Z" transform="translate(-74.826 -82.319)" fill="#fff"/>
        </g>
        <g id="Group_3321" data-name="Group 3321" transform="translate(381.565 171.941)">
          <path id="Path_54" data-name="Path 54" d="M89.343,59.857A4.743,4.743,0,1,0,94.085,64.6a4.748,4.748,0,0,0-4.743-4.743M93.181,64.3h-2.8a.742.742,0,0,1-.741-.741v-2.8A3.856,3.856,0,0,1,93.181,64.3m-3.839,4.15A3.851,3.851,0,0,1,88.75,60.8v2.766a1.632,1.632,0,0,0,1.63,1.63h2.766a3.856,3.856,0,0,1-3.8,3.261" transform="translate(-84.6 -59.857)" fill="#fff"/>
        </g>
      </g>
    </g>
  </g>
</svg>
