<svg xmlns="http://www.w3.org/2000/svg" xmlns:xlink="http://www.w3.org/1999/xlink" width="150" height="526" viewBox="0 0 150 526">
  <defs>
    <filter id="Rectangle_139" x="0" y="0" width="150" height="526" filterUnits="userSpaceOnUse">
      <feOffset dy="16" input="SourceAlpha"/>
      <feGaussianBlur stdDeviation="12" result="blur"/>
      <feFlood flood-color="#0f2d52" flood-opacity="0.102"/>
      <feComposite operator="in" in2="blur"/>
      <feComposite in="SourceGraphic"/>
    </filter>
  </defs>
  <g id="Group_3414" data-name="Group 3414" transform="translate(-1080 -2)">
    <g transform="matrix(1, 0, 0, 1, 1080, 2)" filter="url(#Rectangle_139)">
      <rect id="Rectangle_139-2" data-name="Rectangle 139" width="78" height="454" rx="39" transform="translate(36 20)" fill="#fff"/>
    </g>
    <path id="Line_127" data-name="Line 127" d="M63,.5H0v-1H63Z" transform="translate(1123.5 175.5)" fill="rgba(49,59,68,0.1)"/>
    <path id="Line_129" data-name="Line 129" d="M63,.5H0v-1H63Z" transform="translate(1123.5 100)" fill="rgba(49,59,68,0.1)"/>
    <path id="Line_127-2" data-name="Line 127" d="M63,.5H0v-1H63Z" transform="translate(1123.5 250.5)" fill="rgba(49,59,68,0.1)"/>
    <path id="Line_127-3" data-name="Line 127" d="M63,.5H0v-1H63Z" transform="translate(1123.5 325.5)" fill="rgba(49,59,68,0.1)"/>
    <path id="Line_127-4" data-name="Line 127" d="M63,.5H0v-1H63Z" transform="translate(1123.5 400.5)" fill="rgba(49,59,68,0.1)"/>
    <circle id="Ellipse_1" data-name="Ellipse 1" cx="26" cy="26" r="26" transform="translate(1129 337)" fill="#19a4fa"/>
    <path id="Path_42" data-name="Path 42" d="M126.955,117.106h-.386a2.633,2.633,0,0,1-2.6-2.269l-.132-.944a.59.59,0,0,0-.4-.42l-.288-.122a.6.6,0,0,0-.581.013l-.461.345a2.635,2.635,0,0,1-3.431-.245l-.282-.281a2.639,2.639,0,0,1-.243-3.434l.345-.461a.593.593,0,0,0,.011-.579c-.042-.1-.084-.2-.125-.3a.582.582,0,0,0-.414-.381l-.947-.131a2.639,2.639,0,0,1-2.269-2.6v-.386a2.639,2.639,0,0,1,2.269-2.6l.947-.131a.592.592,0,0,0,.42-.4c.035-.09.077-.191.122-.291a.592.592,0,0,0-.014-.575l-.347-.462a2.64,2.64,0,0,1,.245-3.431l.282-.282a2.635,2.635,0,0,1,3.432-.245l.461.347a.594.594,0,0,0,.579.01l.282-.117a.6.6,0,0,0,.4-.422l.132-.95a2.633,2.633,0,0,1,2.6-2.266h.386a2.638,2.638,0,0,1,2.6,2.266l.132.949a.594.594,0,0,0,.4.422l.287.119a.591.591,0,0,0,.576-.01l.462-.347a2.639,2.639,0,0,1,3.434.245l.282.281a2.641,2.641,0,0,1,.243,3.434l-.345.461a.6.6,0,0,0-.012.579l.119.284a.6.6,0,0,0,.42.4l.948.131a2.636,2.636,0,0,1,2.266,2.6v.386a2.638,2.638,0,0,1-2.266,2.6l-.948.131a.593.593,0,0,0-.419.4l-.123.291a.6.6,0,0,0,.015.575l.347.462a2.638,2.638,0,0,1-.245,3.431l-.282.282a2.642,2.642,0,0,1-3.434.245l-.461-.347a.6.6,0,0,0-.578-.012l-.282.119a.6.6,0,0,0-.4.422l-.132.95a2.638,2.638,0,0,1-2.6,2.265m-4.106-6.072a3.005,3.005,0,0,1,1.207.255l.219.093a2.827,2.827,0,0,1,1.793,2.2l.131.947a.375.375,0,0,0,.371.324h.386a.374.374,0,0,0,.371-.323l.132-.95a2.832,2.832,0,0,1,1.8-2.2l.221-.093a2.819,2.819,0,0,1,2.825.278l.459.345a.381.381,0,0,0,.494-.035l.281-.282a.379.379,0,0,0,.036-.491l-.348-.462a2.831,2.831,0,0,1-.273-2.831l.09-.215a2.836,2.836,0,0,1,2.2-1.8l.948-.131a.374.374,0,0,0,.323-.371v-.386a.376.376,0,0,0-.323-.372l-.948-.131a2.832,2.832,0,0,1-2.2-1.8l-.087-.21a2.837,2.837,0,0,1,.27-2.837l.347-.461a.379.379,0,0,0-.035-.492l-.281-.281a.382.382,0,0,0-.494-.035l-.459.345a2.823,2.823,0,0,1-2.832.273l-.219-.092a2.831,2.831,0,0,1-1.793-2.2l-.132-.947h0a.375.375,0,0,0-.371-.324h-.386a.376.376,0,0,0-.371.323l-.131.952a2.833,2.833,0,0,1-1.8,2.2l-.207.087a2.838,2.838,0,0,1-2.84-.269l-.464-.348a.381.381,0,0,0-.489.036l-.281.282a.371.371,0,0,0-.036.489l.348.462a2.837,2.837,0,0,1,.272,2.832l-.084.2a2.836,2.836,0,0,1-2.211,1.811l-.947.131a.379.379,0,0,0-.326.372v.386a.376.376,0,0,0,.326.371l.947.131a2.837,2.837,0,0,1,2.206,1.8l.086.212a2.831,2.831,0,0,1-.269,2.835l-.347.462a.375.375,0,0,0,.035.491l.281.282a.375.375,0,0,0,.488.035l.465-.347a2.7,2.7,0,0,1,1.625-.528" transform="translate(1028.237 -42.531)" fill="rgba(49,59,68,0.1)"/>
    <path id="Path_43" data-name="Path 43" d="M123.758,105.1a3,3,0,1,1,3-3,3,3,0,0,1-3,3m0-3.752a.75.75,0,1,0,.75.75.752.752,0,0,0-.75-.75" transform="translate(1031.242 -39.526)" fill="rgba(49,59,68,0.1)"/>
    <g id="Group_1142" data-name="Group 1142" transform="translate(554.998 -194.752)">
      <g id="Group_1144" data-name="Group 1144">
        <g id="Group_1143" data-name="Group 1143" transform="translate(-494.578 192)">
          <g id="Group_1142-2" data-name="Group 1142" transform="translate(486 285)">
            <path id="Path_19" data-name="Path 19" d="M125.531,133.981a6,6,0,1,1,6-6,6.009,6.009,0,0,1-6,6m0-9.755a3.752,3.752,0,1,0,3.752,3.752,3.756,3.756,0,0,0-3.752-3.752" transform="translate(483.046 -278.23)" fill="rgba(15,45,82,0.1)"/>
            <path id="Path_20" data-name="Path 20" d="M135.042,141.355H119.577a3.684,3.684,0,0,1-3.176-1.687,2.945,2.945,0,0,1-.054-2.954c1.322-2.5,4.3-5.49,10.962-5.49s9.64,2.985,10.962,5.49a2.941,2.941,0,0,1-.054,2.954,3.684,3.684,0,0,1-3.176,1.687m-7.732-7.879c-5.541,0-7.938,2.334-8.972,4.291a.706.706,0,0,0-.006.74,1.457,1.457,0,0,0,1.246.6h15.464a1.458,1.458,0,0,0,1.246-.6.708.708,0,0,0-.006-.741c-1.034-1.957-3.431-4.291-8.972-4.291" transform="translate(481.268 -273.597)" fill="rgba(15,45,82,0.1)"/>
          </g>
        </g>
      </g>
    </g>
    <path id="Path_117" data-name="Path 117" d="M74.395,116.879a1.129,1.129,0,0,1-.716-.257l-5.663-4.663-5.663,4.663a1.126,1.126,0,0,1-1.8-1.165l2.055-7.531-6.161-4.792a1.126,1.126,0,0,1,.69-2.014h7.432l2.376-7.471a1.127,1.127,0,0,1,2.146,0l2.376,7.471H78.9a1.126,1.126,0,0,1,.69,2.014l-6.161,4.792,2.055,7.531a1.126,1.126,0,0,1-1.087,1.421m-6.378-7.5a1.127,1.127,0,0,1,.716.257l3.645,3-1.321-4.839a1.127,1.127,0,0,1,.4-1.184l4.163-3.239H70.643a1.125,1.125,0,0,1-1.073-.783L68.016,97.7l-1.553,4.884a1.125,1.125,0,0,1-1.073.783H60.416l4.163,3.239a1.127,1.127,0,0,1,.4,1.184l-1.321,4.839,3.645-3a1.127,1.127,0,0,1,.716-.257" transform="translate(1086.984 258.058)" fill="#fff"/>
    <path id="Path_57" data-name="Path 57" d="M241.77,61.408a1.126,1.126,0,0,0-1.592,0L224.419,77.167a1.126,1.126,0,0,0,1.592,1.592L241.77,63a1.126,1.126,0,0,0,0-1.592" transform="translate(923.406 217.984)" fill="rgba(49,59,68,0.1)"/>
    <path id="Path_58" data-name="Path 58" d="M235.092,69.078a3,3,0,1,0,3,3,3,3,0,0,0-3-3m0,3.752a.75.75,0,1,1,.75-.75.752.752,0,0,1-.75.75" transform="translate(927.413 221.991)" fill="rgba(49,59,68,0.1)"/>
    <path id="Path_59" data-name="Path 59" d="M227.092,67.081a3,3,0,1,0-3-3,3,3,0,0,0,3,3m0-3.752a.75.75,0,1,1-.75.75.752.752,0,0,1,.75-.75" transform="translate(923.407 217.984)" fill="rgba(49,59,68,0.1)"/>
    <path id="Path_89" data-name="Path 89" d="M196.15,48.861c-8.873,0-12.006-8.367-12.006-10.506S187.278,27.85,196.15,27.85s12.006,8.367,12.006,10.506-3.134,10.506-12.006,10.506m0-18.76c-7.632,0-9.755,7.412-9.755,8.254s2.124,8.254,9.755,8.254,9.755-7.412,9.755-8.254S203.782,30.1,196.15,30.1" transform="translate(958.848 398.212)" fill="rgba(49,59,68,0.1)"/>
    <path id="Path_90" data-name="Path 90" d="M193.646,40.855a4.5,4.5,0,1,1,4.5-4.5,4.508,4.508,0,0,1-4.5,4.5m0-6.754a2.251,2.251,0,1,0,2.251,2.251,2.254,2.254,0,0,0-2.251-2.251" transform="translate(961.352 400.215)" fill="rgba(49,59,68,0.1)"/>
    <path id="Path_85" data-name="Path 85" d="M99.222,176.956H95.468a2.63,2.63,0,0,1-2.626-2.626V164.5a1.883,1.883,0,0,0-.41-1.171l-6.847-8.558a1.126,1.126,0,0,1,.878-1.83h21.763a1.126,1.126,0,0,1,.879,1.83l-6.848,8.558a1.88,1.88,0,0,0-.41,1.171v9.829a2.629,2.629,0,0,1-2.626,2.626M88.806,155.194l5.383,6.728a4.139,4.139,0,0,1,.9,2.578v9.829a.376.376,0,0,0,.375.375h3.754a.375.375,0,0,0,.375-.375V164.5a4.144,4.144,0,0,1,.9-2.577l5.383-6.73Z" transform="translate(1059.155 48.12)" fill="rgba(49,59,68,0.1)"/>
  </g>
</svg>
