<?xml version="1.0" encoding="utf-8"?>
<!-- Generator: Adobe Illustrator 27.5.0, SVG Export Plug-In . SVG Version: 6.00 Build 0)  -->
<svg version="1.1" id="Layer_1" xmlns="http://www.w3.org/2000/svg" xmlns:xlink="http://www.w3.org/1999/xlink" x="0px" y="0px"
	 viewBox="0 0 12 16" style="enable-background:new 0 0 12 16;" xml:space="preserve">
<path d="M11.8,5.7L6.5,0.2c-0.3-0.3-0.8-0.3-1.1,0L0.2,5.7c-0.3,0.3-0.3,0.8,0,1.1c0.3,0.3,0.8,0.3,1.1,0l4-4.1v12.6
	C5.3,15.7,5.6,16,6,16s0.8-0.3,0.8-0.8V2.6l4,4.1C10.9,6.9,11.1,7,11.3,7c0.2,0,0.4-0.1,0.5-0.2C12.1,6.5,12.1,6,11.8,5.7z"/>
</svg>
