<?xml version="1.0" encoding="utf-8"?>
<!-- Generator: Adobe Illustrator 27.5.0, SVG Export Plug-In . SVG Version: 6.00 Build 0)  -->
<svg version="1.1" id="Layer_1" xmlns="http://www.w3.org/2000/svg" xmlns:xlink="http://www.w3.org/1999/xlink" x="0px" y="0px"
	 viewBox="0 0 397.3 43.6" style="enable-background:new 0 0 397.3 43.6;" xml:space="preserve">
<style type="text/css">
	.st0{fill:#0B253A;}
</style>
<g>
	<g>
		<path class="st0" d="M33.6,22.4c-3,12-8.3,14.2-19.5,14.2c-11.9,0-16-3.4-13.2-14.5C3.8,10.1,9.1,8,20.4,8
			C32.3,8,36.4,11.1,33.6,22.4z M4.8,29.9c0.6-2.2,1.1-4.4,2-7.6c0.8-3.1,1.3-5.4,1.8-7.6c-1.7,1.6-2.8,4-3.7,7.6
			C4,25.8,3.9,28.3,4.8,29.9z M6.4,31.5c1.6,1,4.3,1.3,8.1,1.3c3.8,0,6.6-0.4,8.8-1.3h-5.5c-1.6,0-2.1-0.4-1.7-1.8
			c0.8-3.5,0.7-4-0.1-4h-0.3c-0.5,2.4-0.9,4.5-1.1,5.8H6.4z M23.2,23.8c2.7,0.4,3.7,1.3,3.2,3.9c-0.1,0.5-0.2,1.1-0.3,1.7
			c1.5-1.6,2.6-3.9,3.4-7.2c2.1-8.3-0.5-10.4-9.8-10.4c-3.7,0-6.5,0.3-8.6,1.2h10.5c5.8,0,8.3,1.3,7.1,6c-0.8,3-2.2,4.2-5.5,4.6
			L23.2,23.8z M16.7,21.7c0.2,0,0.4,0,0.7,0c0.7,0,1-0.4,1.5-2.1c0.4-1.6,0.3-2-0.5-2c-0.2,0-0.4,0-0.8,0
			C17.3,19.1,17,20.4,16.7,21.7z"/>
	</g>
	<g>
		<path class="st0" d="M57.6,31.2c0.5-2.3,0.1-3.5-4.6-4.4c-10.8-2.1-12.3-5.9-10.4-13.5C45.1,3.3,50.6,0,64.3,0
			c16,0,19.9,3.8,18,11.5c-0.2,0.9-0.6,2-0.9,3.1C78.7,14.2,74,14,70.3,14c-1.9,0-3.5,0-4.6,0.1c0.2-0.4,0.2-0.8,0.3-1.1
			c0.4-1.7,0.2-2.6-1.1-2.6c-1,0-1.7,0.7-2.1,2c-0.6,2.2-0.2,3.1,5.2,4.3c9.8,2.2,12.2,5.1,10,14c-2.4,9.4-6.6,13-21.6,13
			C40,43.6,36.2,40,38.2,32.3c0.3-1.2,0.7-2.4,1.1-3.8c3.2,0.2,7.7,0.5,12,0.5c1.4,0,2.8,0,3.6-0.1c-0.2,0.5-0.3,1-0.4,1.4
			c-0.4,1.8-0.2,2.7,1.1,2.7C56.6,33.1,57.2,32.7,57.6,31.2z"/>
	</g>
	<g>
		<path class="st0" d="M127.9,0.7c-0.7,5.4-3.8,31.5-4.4,42.1h-22.1c0.5-1.7,1.2-4.2,2-7.1h-1.7h-2c-0.7,2.9-1.2,5.4-1.6,7.1H76.9
			C81.5,32.1,91.3,6,92.9,0.7H127.9z M105.8,25.3c0.7-3.6,1.4-7.2,1.9-10.7c0.2-1.9,0.6-4.5,0.9-6.7h-0.3l-2.3,6.7
			c-1.2,3.5-2.4,7.1-3.5,10.7h1.8H105.8z"/>
	</g>
	<g>
		<path class="st0" d="M166.5,0.7c8.2,0,12.8,3.9,10.7,11.9c-1.2,4.4-2.9,6.3-7.6,7.7c-1,0.3-2.2,0.4-3.7,0.6l-0.1,0.2
			c1,0.1,1.7,0.2,2.4,0.4c4.8,1.3,5.7,5.3,4.4,10.5c-2.1,8.3-5.9,10.8-16,10.8h-30.3c1.7-6.1,3.3-12.1,5.5-21.1
			c2.2-8.9,3.7-15,5-21.1H166.5z M151.9,24.8c-0.4,0-1,0-1.5,0.1c-0.7,2.9-1.4,5.7-2,8.1c0.4,0,0.9,0,1.3,0c1.6,0,2.6-0.9,3.3-3.6
			C154,25.9,153.3,24.8,151.9,24.8z M155.6,9.7c-0.4,0-1,0-1.5,0c-0.6,2.2-1.3,5.1-2.1,8.2c0.4,0,0.9,0,1.3,0c1.6-0.1,2.8-1,3.5-3.9
			C157.8,10.7,157,9.7,155.6,9.7z"/>
	</g>
	<g>
		<path class="st0" d="M198.1,43.5c-19.6,0-23.6-7.2-19.3-24.7c3.8-15.4,11.5-18.8,25.8-18.8c18,0,23.7,5.1,19.3,22.8
			C220.1,38.4,213.3,43.5,198.1,43.5z M203,20.9c1.7-6.9,1.6-7.9,0.1-7.9c-1.3,0-2.1,1-3.6,7.1c-1.8,7.4-1.6,8.6-0.1,8.6
			C200.7,28.8,201.4,27.5,203,20.9z"/>
	</g>
	<g>
		<path class="st0" d="M266.3,0.7c-0.7,2.4-1.6,6.1-2.4,9.4c-0.9,3.3-1.9,7.2-2.4,9.8l-5.6-0.1c-2.6,10.8-5,20.6-5.5,23.1
			c-3-0.2-7.9-0.2-11.5-0.2c-3.6,0-8.4,0-11.5,0.2c0.7-2.5,3.3-12.2,6-23.1l-5.6,0.1c0.7-2.6,1.7-6.5,2.5-9.8c0.8-3.3,1.7-7,2.2-9.4
			H266.3z"/>
	</g>
	<g>
		<path class="st0" d="M305,0.7c-0.4,1.6-1.2,4.1-1.7,6.3c-0.6,2.3-1.1,4.8-1.5,6.4c-4.9-0.1-10-0.1-14.2-0.1l-0.6,2.5
			c4.8,0,9.7-0.1,13.9-0.2c-0.7,2.5-2,7.7-2.7,10.6c-4-0.2-8.9-0.3-13.7-0.3l-0.7,2.6c4.4,0,9.9-0.1,14.3-0.1
			c-0.5,1.9-1.2,4.7-1.9,7.2c-0.6,2.4-1.3,5.2-1.7,7.1h-34.9c1.7-6.1,3.3-12.1,5.4-21.1c2.2-8.9,3.7-15,5.1-21.1H305z"/>
	</g>
	<g>
		<path class="st0" d="M352.9,0.7c-1.2,4-2.2,8.1-3.7,14.1c-1,3.6-2.3,9.5-3.4,13.6c-2.3,9.5-7.8,15.2-23.1,15.2
			c-19.7,0-22.5-6.7-20-16.6c0.8-3.4,2.3-8.8,3.1-12.1c1.5-6,2.4-10.1,3.3-14.1H330c-2.1,8-4.8,18.1-6.4,24.7
			c-0.4,1.8-0.2,2.6,1,2.6c1,0,1.6-0.8,2-2.6c1.6-6.6,4-16.7,6-24.7H352.9z"/>
	</g>
	<g>
		<path class="st0" d="M384.1,0.7c9.9,0,15,4.2,12.6,14c-1.7,7-5.2,9.4-12.7,10.1l-0.1,0.3c6.3,0.9,8.5,2.9,7.6,9.2
			c-0.3,2.3-1.1,6.4-1.3,8.5h-16.7c-2.9,0-3.5-1.1-2.9-3.9c1.6-7.8,1.6-9.4-0.4-9.4h-0.3c-1.2,5.4-2.1,10.1-2.5,13.4h-20.6
			c1.6-6.1,3.3-12.1,5.4-21.1c2.2-8.9,3.7-15,5.1-21.1H384.1z M375.2,11.3c-0.3,0-0.7,0-1.1,0.1c-0.7,3-1.5,6.1-2.2,9
			c0.4,0,0.9,0,1.4,0c1.7,0,2.5-1.2,3.3-4.1C377.6,12.2,377,11.3,375.2,11.3z"/>
	</g>
</g>
</svg>
