<?xml version="1.0" encoding="utf-8"?>
<!-- Generator: Adobe Illustrator 27.5.0, SVG Export Plug-In . SVG Version: 6.00 Build 0)  -->
<svg version="1.1" id="Layer_1" xmlns="http://www.w3.org/2000/svg" xmlns:xlink="http://www.w3.org/1999/xlink" x="0px" y="0px"
	 viewBox="0 0 1117.33 278.62" style="enable-background:new 0 0 1117.33 278.62;" xml:space="preserve">
<g>
	<path d="M277.43,67.07l-39.44,7.87c0-3.73,0.42-7.45,0.42-10.35c0-18.22-3.36-21.11-7.97-21.11c-3.36,0-10.49,6.62-10.49,30.22
		c0,38.5,42.37,57.13,42.37,114.68c0,57.13-28.11,90.25-64.61,90.25c-25.59,0-44.89-20.29-44.89-58.37c0-3.73,0-7.45,0.42-11.59
		l41.53-7.45v6.21c0,24.01,4.62,28.15,8.39,28.15c5.45,0,9.65-9.52,9.65-32.71c0-48.85-41.95-66.24-41.95-119.23
		C170.86,39.74,195.2,0,232.54,0C266.94,0,277.43,25.25,277.43,67.07z"/>
	<path d="M303.44,274.89h-48.67L322.32,3.73h61.67v271.17h-50.34l2.94-58.37h-21.82L303.44,274.89z M338.26,178.84l5.87-107.64
		h-0.84l-20.98,107.64H338.26z"/>
	<path d="M496.42,133.31v0.83c12.59,4.55,18.88,18.22,18.88,40.98c0,5.8-0.42,12.83-1.26,19.87c-5.45,45.95-13.85,79.9-64.61,79.9
		h-57.06L425.94,3.73h52.02c33.98,0,48.25,20.7,48.25,55.48c0,6.21-0.42,13.25-1.26,20.29
		C520.76,110.95,511.53,126.27,496.42,133.31z M445.66,229.77h8.81c5.87,0,7.97-5.8,11.75-36.02c2.1-16.97,3.36-26.08,3.36-31.05
		c0-6.62-1.68-6.62-5.45-6.62h-8.81L445.66,229.77z M459.92,117.99h7.13c5.87,0,7.97-8.69,11.33-35.6c1.26-11.18,2.1-18.63,2.1-23.6
		c0-8.28-1.68-9.94-5.03-9.94h-7.13L459.92,117.99z"/>
	<path d="M656.69,53.82c0,6.21-0.42,13.25-1.26,20.7L639.07,204.1c-6.71,51.34-27.27,74.52-66.71,74.52
		c-33.56,0-49.09-16.56-49.09-53.41c0-6.21,0.42-13.66,1.26-21.11l16.36-129.58C547.19,23.18,567.74,0,607.18,0
		C640.74,0,656.69,16.97,656.69,53.82z M606.34,74.52c1.26-9.94,1.68-16.56,1.68-21.11c0-7.87-1.68-9.52-5.45-9.52
		c-6.29,0-9.65,3.73-13.01,30.64L573.2,204.1c-1.26,9.11-1.68,15.32-1.68,19.87c0,9.11,2.1,11.18,6.29,11.18
		c6.29,0,8.81-4.55,12.17-31.05L606.34,74.52z"/>
	<path d="M772.9,3.73l-5.87,45.13H740.6l-27.69,226.04H663.4l27.69-226.04h-26.43l5.87-45.13H772.9z"/>
	<path d="M872.33,3.73l-5.45,45.13h-39.86l-8.39,63.75h29.79l-4.62,40.16h-30.21l-9.65,77.42h40.7l-5.03,44.71h-90.2L782.97,3.73
		H872.33z"/>
	<path d="M998.61,3.73l-24.75,199.96c-6.71,54.23-31.05,74.93-66.71,74.93c-31.88,0-49.51-14.9-49.51-53.41
		c0-6.21,0.42-12.83,1.26-20.29l25.17-201.2h48.67l-24.75,201.2c-0.84,7.45-1.68,12.83-1.68,16.56c0,8.28,2.52,10.35,6.71,10.35
		c5.45,0,8.81-3.73,11.75-26.91l25.17-201.2H998.61z"/>
	<path d="M1047.27,163.94h-2.94l-13.84,110.95h-49.51l33.56-271.17h59.16c28.53,0,43.63,15.73,43.63,53.41
		c0,52.16-13.43,80.73-26.01,90.25l6.29,127.51h-48.67L1047.27,163.94z M1048.95,123.78h4.61c5.87,0,9.23-2.9,13.84-36.43
		c1.68-11.59,2.1-19.87,2.1-25.67c0-12.01-2.94-13.25-7.13-13.25h-3.78L1048.95,123.78z"/>
	<path d="M130.48,162.74c-3.81,42.99-28.78,71.2-70.98,71.2c-42.88,0-62.85-28.21-59.04-71.2l4.05-45.68
		c3.75-42.32,28.48-67.84,71.36-67.84c42.21,0,62.41,25.52,58.65,67.84L130.48,162.74z M20.2,162.74
		c-3.04,34.26,9.77,51.05,40.4,51.05c31.31,0,47.1-16.79,50.14-51.05l4.11-46.35c2.86-32.24-10.01-48.36-41.32-48.36
		c-30.63,0-46.36,16.12-49.21,48.36L20.2,162.74z M64.78,151.32H64.1l-3.87,43.66H32.32l9.95-112.18h32.67
		c22.46,0,31.04,10.75,29.02,33.59c-1.25,14.11-5.43,22.84-13.33,27.54l7.73,51.05H69.08L64.78,151.32z M65.89,131.17h4.08
		c2.72,0,4.14-0.67,5.22-12.76c1.13-12.76-0.85-13.43-4.26-13.43h-2.72L65.89,131.17z"/>
</g>
</svg>
