<?xml version="1.0" encoding="utf-8"?>
<!-- Generator: Adobe Illustrator 27.5.0, SVG Export Plug-In . SVG Version: 6.00 Build 0)  -->
<svg version="1.1" id="Layer_1" xmlns="http://www.w3.org/2000/svg" xmlns:xlink="http://www.w3.org/1999/xlink" x="0px" y="0px"
	 viewBox="0 0 300 300" style="enable-background:new 0 0 300 300;" xml:space="preserve">
<style type="text/css">
	.st0{fill:none;}
	.st1{fill:#0B253A;}
</style>
<path class="st0" d="M147.2,35.7c-2.2,0.1-3.9,0.9-5.2,2.6c-1.3,1.7-1.9,4-1.8,7c0.1,3,0.8,5.3,2.2,6.9c1.4,1.6,3.1,2.4,5.3,2.3
	c2.2-0.1,3.9-0.9,5.2-2.6c1.2-1.7,1.8-4,1.8-7c-0.1-3-0.8-5.3-2.1-6.9C151.2,36.4,149.4,35.6,147.2,35.7z"/>
<path class="st0" d="M245.2,101.2c1,0.7,2.1,0.7,3.4,0c1.4-0.8,2.1-1.8,2-3c0-0.7-0.3-1.5-0.9-2.6l-3.2-5.6l-6.2,3.5l3.1,5.5
	C244,100,244.6,100.8,245.2,101.2z"/>
<path class="st0" d="M246.1,192.6c-2.4-1.3-4.5-1.7-6.4-1.3c-1.9,0.4-3.2,1.4-4.2,3.2c-0.9,1.8-1,3.5-0.3,5.3
	c0.8,1.7,2.3,3.2,4.7,4.5c2.4,1.3,4.5,1.7,6.4,1.3c1.9-0.4,3.2-1.4,4.2-3.2c0.9-1.8,1-3.5,0.2-5.2
	C250.1,195.3,248.5,193.8,246.1,192.6z"/>
<path class="st0" d="M57.2,110.8c1.6,0.8,3.3,0.9,5,0.4c1.7-0.6,2.9-1.6,3.7-3.2c0.8-1.6,0.9-3.2,0.3-4.9c-0.6-1.7-1.7-2.9-3.3-3.7
	c-1.5-0.8-3.2-0.9-4.9-0.3c-1.7,0.5-3,1.6-3.8,3.2c-0.8,1.6-0.9,3.3-0.3,5C54.6,108.8,55.7,110,57.2,110.8z M55.8,104
	c0.5-1,0.8-1.5,0.8-1.6c0.3-0.6,0.7-1,1.2-1.3c0.7-0.5,1.5-0.5,2.4-0.1c0.6,0.3,1,0.7,1.1,1.2c0.1,0.5,0.1,1-0.1,1.6
	c0.3-0.4,0.7-0.7,1-0.9c0.6-0.3,1.3-0.2,2.1,0.2l0.7,0.3c0.1,0,0.2,0.1,0.2,0.1c0.1,0,0.2,0,0.3,0.1l0.2,0l-1,1.9
	c-0.3-0.1-0.7-0.2-1.1-0.4c-0.5-0.2-0.8-0.3-1-0.3c-0.3,0-0.6,0.1-0.8,0.3c-0.1,0.1-0.3,0.3-0.5,0.6l-0.3,0.4l-0.2,0.4l2.7,1.4l-1,2
	l-7.7-3.9C55,105.7,55.3,105,55.8,104z"/>
<path class="st0" d="M63.2,146.1h-1.7v5.8h1.7c0.9,0,1.5-0.4,1.8-1.3c0.2-0.5,0.3-1,0.3-1.7c0-0.9-0.1-1.6-0.4-2.1
	C64.6,146.4,64,146.1,63.2,146.1z"/>
<polygon class="st0" points="95.2,64.3 86.5,57.5 89.6,68.1 "/>
<path class="st0" d="M150,10.5C73.1,10.5,10.5,73.1,10.5,150S73.1,289.5,150,289.5c76.9,0,139.5-62.6,139.5-139.5
	S226.9,10.5,150,10.5z M254.4,94.3c0.9,1.6,1.4,3,1.5,4.1c0.1,1.1,0,2.1-0.4,3.1c-0.3,0.8-0.7,1.6-1.3,2.3c-0.5,0.7-1.3,1.3-2.2,1.8
	c-1.1,0.6-2.3,1-3.7,1c-1.4,0-2.7-0.4-3.8-1.5c0.2,1.3,0,2.4-0.6,3.3c-0.5,0.9-1.6,1.8-3.3,2.7l-1.6,0.9c-1.1,0.6-1.8,1-2.1,1.3
	c-0.5,0.5-0.8,1-0.8,1.6l-0.6,0.3l-3-5.3c0.4-0.4,0.8-0.8,1.1-1c0.6-0.5,1.2-0.9,1.9-1.3l2.1-1.2c1.5-0.9,2.3-1.7,2.5-2.5
	c0.2-0.8-0.1-1.9-0.9-3.3l-2.8-5l-9.1,5.1l-2.7-4.7l23.2-13.1L254.4,94.3z M215.8,51.2l-2.3,4.1l-12.4-6.8l-2.7,5l11.4,6.2l-2.2,4.1
	l-11.4-6.2l-3.3,6l12.9,7.1l-2.3,4.2l-17.7-9.7l12.8-23.4L215.8,51.2z M168.5,32.7l21,5.3l-1.2,4.6l-7.7-1.9l-5.4,21.3l-5.4-1.4
	l5.4-21.3l-7.8-2L168.5,32.7z M115.2,36.9c3.1-1,5.6-0.8,7.5,0.5c1.1,0.8,2,2,2.4,3.5c0.5,1.5,0.5,2.9,0.1,4.1
	c-0.3,0.7-0.7,1.4-1.4,2.1c1.5,0,2.7,0.5,3.7,1.3c1,0.8,1.7,1.9,2.2,3.4c0.5,1.5,0.6,3,0.2,4.4c-0.2,0.9-0.6,1.8-1.1,2.6
	c-0.6,0.9-1.4,1.6-2.5,2.2c-1,0.6-2.2,1.1-3.5,1.5l-11.5,3.8L102.9,41L115.2,36.9z M85.7,50.7l22.9,16.6l-5,3.4l-4.5-3.5L91,72.8
	l1.6,5.6l-4.8,3.3l-7.3-27.4L85.7,50.7z M58.4,74c1.8-2.2,3.9-3.5,6.3-4.1c2.4-0.6,4.7,0,7,1.8l-3.4,4.1c-1.3-1-2.6-1.1-4-0.6
	c-0.9,0.4-1.8,1.1-2.6,2.1c-0.9,1.1-1.4,2.2-1.5,3.2c-0.1,1,0.2,1.9,1,2.5c0.7,0.6,1.5,0.7,2.5,0.4c0.6-0.2,1.6-0.9,3.1-2l3.8-2.8
	c1.7-1.2,3.1-2,4.4-2.3c2-0.4,3.9,0.1,5.7,1.7c1.9,1.6,2.8,3.6,2.9,6c0,2.5-1,5-3.2,7.6c-2.2,2.7-4.6,4.3-7.1,4.8s-4.8-0.1-6.9-1.9
	l3.4-4.1c1,0.7,2,1,2.7,1c1.4,0,2.8-0.8,4.2-2.5c0.8-1,1.4-1.9,1.7-2.7c0.6-1.6,0.3-2.8-0.9-3.8c-0.7-0.6-1.4-0.7-2.3-0.4
	c-0.9,0.3-2,1-3.3,2l-2.3,1.8c-2.3,1.7-4,2.8-5.3,3.1c-2.1,0.6-4.2,0.1-6.2-1.6c-1.8-1.5-2.8-3.5-2.9-5.8C55.2,79,56.3,76.6,58.4,74
	z M53.1,101.5c1-1.9,2.5-3.2,4.5-3.9c2-0.7,4-0.5,5.9,0.4c2,1,3.3,2.5,3.9,4.6c0.6,2,0.5,4-0.5,5.9c-1,2-2.5,3.3-4.5,3.9
	s-4,0.5-6-0.5c-2-1-3.4-2.6-4-4.7C52.1,105.3,52.2,103.4,53.1,101.5z M24.4,134.1H73v4.4H24.4V134.1z M67.2,148.8
	c0,1.2-0.2,2.2-0.7,3c-0.6,1.1-1.6,1.7-3,1.7h-3.8v-8.9h3.8c0.6,0,1,0.1,1.4,0.2c0.6,0.2,1.1,0.6,1.5,1.1c0.3,0.4,0.5,0.9,0.6,1.4
	C67.1,147.9,67.2,148.3,67.2,148.8z M49.1,146.2v-1.6h7.2v1.6h-2.7v7.3h-1.9v-7.3H49.1z M44.1,150.3c-0.3-0.2-0.7-0.3-1.2-0.4
	l-0.9-0.2c-0.9-0.2-1.6-0.4-1.9-0.7c-0.6-0.4-0.9-1.1-0.9-1.9c0-0.8,0.3-1.5,0.9-2s1.4-0.8,2.6-0.8c0.9,0,1.7,0.2,2.4,0.7
	c0.7,0.5,1,1.2,1,2.2h-1.8c0-0.5-0.3-0.9-0.7-1.1c-0.3-0.1-0.6-0.2-1.1-0.2c-0.5,0-0.9,0.1-1.1,0.3c-0.3,0.2-0.4,0.5-0.4,0.8
	c0,0.3,0.1,0.6,0.4,0.7c0.2,0.1,0.6,0.2,1.2,0.4l1.5,0.4c0.7,0.2,1.2,0.4,1.5,0.6c0.5,0.4,0.8,1,0.8,1.8c0,0.8-0.3,1.5-0.9,2
	c-0.6,0.5-1.5,0.8-2.6,0.8c-1.2,0-2.1-0.3-2.7-0.8c-0.7-0.5-1-1.3-1-2.2h1.8c0.1,0.4,0.2,0.7,0.3,0.9c0.3,0.4,0.8,0.5,1.5,0.5
	c0.4,0,0.8,0,1.1-0.1c0.5-0.2,0.8-0.5,0.8-1C44.5,150.7,44.4,150.5,44.1,150.3z M35.1,148v1.5h-4.3v2.3h4.9v1.6H29v-8.9h6.5v1.6
	h-4.7v1.9H35.1z M24.4,160.6H73v4.4H24.4V160.6z M50.7,208.9c-2.3-0.9-4.1-2.5-5.3-5c-1.6-3.1-1.8-6-0.7-8.8
	c1.1-2.8,3.4-5.1,6.8-6.8c3.8-1.9,7.2-2.4,10.2-1.4c2.7,0.8,4.7,2.6,6.1,5.3c1.8,3.6,2,6.9,0.5,9.8c-0.9,1.6-1.9,2.8-3.3,3.5
	l-2.3-4.5c0.9-0.8,1.5-1.6,1.8-2.3c0.5-1.3,0.4-2.7-0.5-4.3c-0.8-1.6-2.2-2.6-3.9-2.9c-1.8-0.3-3.9,0.2-6.3,1.4s-4,2.7-4.7,4.3
	c-0.7,1.6-0.6,3.2,0.1,4.7c0.8,1.6,1.9,2.5,3.4,2.8c0.8,0.2,1.8,0.1,3.1-0.1L58,209C55.4,209.8,53,209.8,50.7,208.9z M66.8,232.8
	l-11-13l18.4-15.6l3.3,3.8l-15.1,12.8l7.7,9.1L66.8,232.8z M98,241.9c-2.5,3.5-5.5,5.5-8.8,5.9c-2.6,0.5-5.3-0.3-8.1-2.4
	c-2.8-2-4.4-4.3-4.8-6.9c-0.6-3.3,0.3-6.7,2.9-10.2c2.6-3.6,5.5-5.6,8.8-5.9c2.6-0.4,5.3,0.3,8.1,2.4c2.8,2,4.4,4.3,4.8,6.9
	C101.6,234.9,100.6,238.3,98,241.9z M93.3,209.1c-4.3-1.3-7.2-5.2-7.2-9.7v-93.7c0-0.6,0.3-1.2,0.9-1.5l13.7-7.4
	c1.1-0.6,2.5,0.2,2.5,1.5v96l22,6.6V87.1c0-2.2,1.2-4.1,3.1-5.2l9.1-4.9c2.2-1.2,4.8,0.4,4.8,2.9v133.5c0,5.1-5,8.8-9.9,7.4
	l-7.1-2.1l-22-6.6L93.3,209.1z M115.9,241l-7.5,18.4l-4.7-1.9l7.5-18.4l-6.7-2.7l1.6-4l18.1,7.4l-1.6,4L115.9,241z M141.9,267.1
	l-5-0.8l1.6-10.7l-9.3-1.4l-1.6,10.7l-4.9-0.8l3.7-23.9l4.9,0.8l-1.4,9.1l9.3,1.4l1.4-9.1l5,0.8L141.9,267.1z M150.5,267l-0.6-24.1
	l5-0.1l0.6,24.1L150.5,267z M147.8,59.2c-3.8,0.1-6.8-0.9-8.8-2.9c-2.8-2.5-4.2-6.1-4.3-10.9c-0.1-4.9,1.1-8.6,3.8-11.1
	c2-2.1,4.8-3.2,8.7-3.3c3.8-0.1,6.8,0.9,8.8,2.9c2.8,2.4,4.2,6,4.3,10.9c0.1,4.8-1.1,8.5-3.7,11.1C154.5,58,151.6,59.1,147.8,59.2z
	 M178.6,263.6l-13.1-14.8l3.5,16.8l-4.6,1l-4.9-23.6l5.2-1.1l12.8,14.6l-3.4-16.5l4.6-1l4.9,23.6L178.6,263.6z M209,251.3l-1.8-2.5
	c-0.4,1.5-0.8,2.6-1.3,3.3c-0.8,1.3-2.1,2.4-3.8,3.3c-2.9,1.4-5.7,1.6-8.5,0.6c-2.9-1-5.2-3.3-7-6.7c-1.8-3.5-2.2-6.8-1.3-9.9
	c0.9-3.1,2.9-5.4,6-7c2.7-1.4,5.3-1.8,7.7-1.2c2.4,0.6,4.2,1.8,5.5,3.8l-4.4,2.2c-1.1-1.3-2.4-1.9-4.1-1.8c-0.9,0.1-1.8,0.3-2.7,0.8
	c-1.7,0.9-2.8,2.2-3.3,4.1c-0.5,1.9,0,4.1,1.3,6.8c1.3,2.7,2.9,4.2,4.6,4.7c1.8,0.5,3.4,0.4,5-0.4c1.5-0.8,2.5-1.8,3.1-3.2
	c0.5-1.4,0.5-2.8,0.1-4.3l-5,2.5l-1.8-3.6l9-4.5l5.8,11.6L209,251.3z M212.9,133.6l-17-9.2v-9.6l-22-11.9v18.8
	c0,3.8,2.1,7.3,5.4,9.1l16.6,9l12.3,6.7c2.9,1.6,4.7,4.6,4.7,7.9v44.1c0,5-3.3,9.4-8.1,10.9l-8.9,2.7l-22,6.6l-9.7,2.9
	c-3.6,1.1-7.3-1.6-7.3-5.4v-28l17-5.1v17.9l14.6-4.4c4.4-1.3,7.4-5.4,7.4-10v-21.8c0-3.4-1.9-6.6-4.9-8.2l-17.1-9.3l-11.8-6.3
	c-3.2-1.8-5.3-5.1-5.3-8.8V84.5c0-4.5,4.9-7.4,8.9-5.3l8.2,4.4l22,11.9l11,5.9c3.7,2,6,5.9,6,10.1V133.6z M210,75.5
	c0.5-1.7,1.7-3.6,3.7-5.7l11.5-11.7l4,4l-11.5,11.7c-1.3,1.3-2.1,2.4-2.3,3.3c-0.6,1.5,0,3.1,1.6,4.7c1.6,1.6,3.2,2.1,4.7,1.5
	c0.9-0.3,2-1.1,3.3-2.4l11.5-11.7l4,4L229,84.9c-2,2-3.8,3.3-5.6,3.8c-3.2,0.9-6.4-0.2-9.8-3.5C210.4,82,209.2,78.7,210,75.5z
	 M237.3,228.9c-2.3,2.6-5,3.8-8,3.8c-3,0-5.9-1.4-8.8-4c-3.1-2.8-4.7-5.9-4.9-9.1c-0.1-2.8,0.8-5.3,2.9-7.5c2.7-3,5.7-4.3,9-3.9
	c1.8,0.2,3.3,0.8,4.5,1.8l-3.4,3.7c-1.1-0.5-2-0.8-2.8-0.8c-1.4,0-2.7,0.6-3.9,2c-1.2,1.4-1.7,2.9-1.3,4.7c0.4,1.8,1.6,3.6,3.6,5.4
	c2,1.8,3.9,2.8,5.6,2.9c1.8,0.1,3.2-0.5,4.4-1.8c1.2-1.3,1.7-2.7,1.4-4.2c-0.1-0.8-0.5-1.7-1.2-2.8l3.4-3.7c1.6,2.1,2.5,4.4,2.5,6.8
	C240.1,224.6,239.2,226.8,237.3,228.9z M254.4,204.3c-1.6,3.1-3.7,5-6.2,5.7c-3.2,1.1-6.7,0.6-10.5-1.4c-3.9-2-6.3-4.7-7.1-7.9
	c-0.8-2.5-0.4-5.3,1.2-8.3c1.6-3.1,3.7-5,6.2-5.7c3.1-1.1,6.6-0.7,10.5,1.4c3.8,2,6.2,4.6,7.1,7.9
	C256.4,198.4,256,201.2,254.4,204.3z M273.7,165h-48.6v-4.4h48.6V165z M233.8,153.5H232l-1.7-7.5c0,0.2,0,0.4,0,0.7
	c0,0.3,0,0.6,0,0.7v6h-1.7v-8.9h2.7l1.6,7l1.6-7h2.7v8.9h-1.7v-6c0-0.2,0-0.4,0-0.7c0-0.3,0-0.6,0-0.7L233.8,153.5z M245.6,153.5
	h-1.8l-1.7-7.5c0,0.2,0,0.4,0,0.7c0,0.3,0,0.6,0,0.7v6h-1.7v-8.9h2.7l1.6,7l1.6-7h2.7v8.9h-1.7v-6c0-0.2,0-0.4,0-0.7
	c0-0.3,0-0.6,0-0.7L245.6,153.5z M251.6,144.6h2.2l1.6,2.9l1.6-2.9h2.1l-2.7,4.3l2.9,4.6h-2.3l-1.7-3l-1.8,3h-2.2l2.9-4.5
	L251.6,144.6z M261.3,144.6h2.2l1.6,2.9l1.6-2.9h2.1l-2.7,4.3l2.9,4.6h-2.3l-1.7-3l-1.8,3h-2.2l2.9-4.5L261.3,144.6z M225.1,138.5
	v-4.4h48.6v4.4H225.1z"/>
<path class="st0" d="M59.3,103c-0.4-0.2-0.8-0.1-1.2,0.2c-0.2,0.2-0.5,0.6-0.7,1.1l-0.2,0.5l2.2,1.1l0.4-0.8
	c0.2-0.5,0.3-0.9,0.3-1.2S59.7,103.3,59.3,103z"/>
<path class="st0" d="M112.6,53.5l2.2,6.8l6.2-2.1c1.1-0.4,1.9-0.8,2.4-1.3c0.9-0.9,1.2-2.2,0.6-3.7c-0.4-1.3-1.3-2-2.5-2.2
	c-0.7-0.1-1.6,0.1-2.7,0.4L112.6,53.5z"/>
<path class="st0" d="M120,45.7c0.6-0.6,0.6-1.5,0.3-2.6c-0.4-1.2-1.1-1.8-2.1-1.9c-0.9,0-1.9,0.2-3.2,0.6l-5.6,1.8l1.8,5.6l6.2-2.1
	C118.6,46.9,119.4,46.4,120,45.7z"/>
<path class="st0" d="M93.7,228.2c-1.6-1.2-3.3-1.5-5.2-1c-1.8,0.5-3.5,1.8-5.1,4c-1.6,2.2-2.3,4.2-2.2,6.1c0.1,1.9,1,3.4,2.6,4.6
	c1.6,1.2,3.3,1.5,5.2,1c1.8-0.5,3.5-1.9,5.1-4.1c1.6-2.2,2.3-4.2,2.3-6.1C96.1,230.9,95.3,229.4,93.7,228.2z"/>
<path class="st1" d="M132.2,220.8c4.9,1.5,9.9-2.2,9.9-7.4V79.9c0-2.5-2.6-4.1-4.8-2.9l-9.1,4.9c-1.9,1-3.1,3-3.1,5.2v113.8l-22-6.6
	v-96c0-1.3-1.4-2.1-2.5-1.5l-13.7,7.4c-0.5,0.3-0.9,0.9-0.9,1.5v93.7c0,4.5,2.9,8.4,7.2,9.7l9.8,2.9l22,6.6L132.2,220.8z"/>
<path class="st1" d="M206.9,101.4l-11-5.9l-22-11.9l-8.2-4.4c-4-2.2-8.9,0.7-8.9,5.3v47.7c0,3.7,2,7.1,5.3,8.8l11.8,6.3l17.1,9.3
	c3,1.6,4.9,4.8,4.9,8.2v21.8c0,4.6-3,8.7-7.4,10l-14.6,4.4V183l-17,5.1v28c0,3.8,3.7,6.5,7.3,5.4l9.7-2.9l22-6.6l8.9-2.7
	c4.8-1.4,8.1-5.9,8.1-10.9v-44.1c0-3.3-1.8-6.3-4.7-7.9l-12.3-6.7l-16.6-9c-3.3-1.8-5.4-5.3-5.4-9.1V103l22,11.9v9.6l17,9.2v-22
	C212.9,107.3,210.6,103.4,206.9,101.4z"/>
<path class="st1" d="M150,1.7C68.2,1.7,1.7,68.2,1.7,150c0,81.8,66.5,148.3,148.3,148.3S298.3,231.8,298.3,150
	C298.3,68.2,231.8,1.7,150,1.7z M150,289.5c-76.9,0-139.5-62.6-139.5-139.5S73.1,10.5,150,10.5c76.9,0,139.5,62.6,139.5,139.5
	S226.9,289.5,150,289.5z"/>
<path class="st1" d="M56.6,112c2,1,3.9,1.1,6,0.5s3.5-2,4.5-3.9c0.9-1.9,1.1-3.8,0.5-5.9c-0.7-2.1-2-3.6-3.9-4.6
	c-1.9-1-3.9-1.1-5.9-0.4c-2,0.7-3.5,2-4.5,3.9c-0.9,1.8-1.1,3.7-0.5,5.7C53.3,109.4,54.6,111,56.6,112z M54.3,102.1
	c0.8-1.6,2-2.6,3.8-3.2c1.7-0.5,3.3-0.4,4.9,0.3c1.6,0.8,2.7,2,3.3,3.7c0.6,1.7,0.5,3.3-0.3,4.9c-0.8,1.6-2,2.7-3.7,3.2
	c-1.7,0.6-3.3,0.4-5-0.4c-1.6-0.8-2.6-2-3.2-3.7C53.4,105.4,53.5,103.7,54.3,102.1z"/>
<path class="st1" d="M63.5,108l-2.7-1.4l0.2-0.4l0.3-0.4c0.2-0.3,0.3-0.5,0.5-0.6c0.2-0.2,0.5-0.3,0.8-0.3c0.2,0,0.5,0.1,1,0.3
	c0.5,0.2,0.9,0.4,1.1,0.4l1-1.9l-0.2,0c-0.1,0-0.2,0-0.3-0.1c-0.1,0-0.2-0.1-0.2-0.1l-0.7-0.3c-0.8-0.4-1.5-0.5-2.1-0.2
	c-0.3,0.1-0.6,0.4-1,0.9c0.2-0.6,0.3-1.1,0.1-1.6c-0.1-0.5-0.5-0.9-1.1-1.2c-0.8-0.4-1.6-0.4-2.4,0.1c-0.4,0.3-0.8,0.7-1.2,1.3
	c-0.1,0.1-0.3,0.6-0.8,1.6c-0.5,1-0.8,1.7-1.1,2.1l7.7,3.9L63.5,108z M59.7,105.1l-0.4,0.8l-2.2-1.1l0.2-0.5
	c0.3-0.5,0.5-0.9,0.7-1.1c0.4-0.3,0.8-0.4,1.2-0.2c0.4,0.2,0.7,0.5,0.7,0.9S60,104.7,59.7,105.1z"/>
<path class="st1" d="M58.3,87.2c2,1.7,4.1,2.2,6.2,1.6c1.2-0.3,3-1.4,5.3-3.1l2.3-1.8c1.3-1,2.4-1.7,3.3-2c0.9-0.3,1.6-0.1,2.3,0.4
	c1.2,1,1.5,2.2,0.9,3.8c-0.3,0.8-0.9,1.7-1.7,2.7c-1.4,1.7-2.8,2.5-4.2,2.5c-0.8,0-1.7-0.3-2.7-1l-3.4,4.1c2.1,1.8,4.4,2.4,6.9,1.9
	s4.9-2.1,7.1-4.8c2.2-2.6,3.2-5.2,3.2-7.6c0-2.5-1-4.5-2.9-6c-1.8-1.5-3.7-2.1-5.7-1.7c-1.3,0.3-2.7,1-4.4,2.3l-3.8,2.8
	c-1.5,1.1-2.5,1.7-3.1,2c-0.9,0.3-1.7,0.2-2.5-0.4c-0.8-0.7-1.1-1.5-1-2.5c0.1-1,0.6-2.1,1.5-3.2c0.8-1,1.7-1.7,2.6-2.1
	c1.4-0.6,2.7-0.4,4,0.6l3.4-4.1c-2.2-1.7-4.6-2.3-7-1.8c-2.4,0.6-4.5,1.9-6.3,4.1c-2.2,2.6-3.2,5.1-3.1,7.4
	C55.5,83.7,56.4,85.7,58.3,87.2z"/>
<path class="st1" d="M92.6,78.3L91,72.8l8.1-5.6l4.5,3.5l5-3.4L85.7,50.7l-5.2,3.6l7.3,27.4L92.6,78.3z M95.2,64.3l-5.6,3.8
	l-3.1-10.6L95.2,64.3z"/>
<path class="st1" d="M122.7,62.6c1.3-0.4,2.5-0.9,3.5-1.5c1-0.6,1.8-1.3,2.5-2.2c0.5-0.8,0.9-1.6,1.1-2.6c0.4-1.4,0.3-2.9-0.2-4.4
	c-0.5-1.5-1.2-2.6-2.2-3.4c-1-0.8-2.2-1.2-3.7-1.3c0.7-0.7,1.2-1.4,1.4-2.1c0.5-1.2,0.4-2.6-0.1-4.1c-0.5-1.5-1.3-2.7-2.4-3.5
	c-1.9-1.3-4.4-1.5-7.5-0.5L102.9,41l8.4,25.3L122.7,62.6z M121.6,51c1.3,0.1,2.1,0.9,2.5,2.2c0.5,1.6,0.3,2.8-0.6,3.7
	c-0.5,0.5-1.3,0.9-2.4,1.3l-6.2,2.1l-2.2-6.8l6.3-2.1C120,51.1,120.9,50.9,121.6,51z M109.4,43.7l5.6-1.8c1.2-0.4,2.3-0.6,3.2-0.6
	c1,0.1,1.8,0.7,2.1,1.9c0.4,1.1,0.3,1.9-0.3,2.6c-0.6,0.7-1.4,1.2-2.5,1.5l-6.2,2.1L109.4,43.7z"/>
<path class="st1" d="M155.9,33.9c-2.1-2-5-3-8.8-2.9c-3.8,0.1-6.7,1.2-8.7,3.3c-2.6,2.5-3.9,6.2-3.8,11.1c0.1,4.8,1.6,8.4,4.3,10.9
	c2.1,2,5,3,8.8,2.9c3.8-0.1,6.7-1.2,8.7-3.3c2.6-2.6,3.9-6.3,3.7-11.1C160.1,39.9,158.6,36.2,155.9,33.9z M152.9,51.9
	c-1.3,1.7-3,2.5-5.2,2.6c-2.2,0.1-4-0.7-5.3-2.3c-1.4-1.6-2.1-3.9-2.2-6.9c-0.1-3,0.5-5.3,1.8-7c1.3-1.7,3-2.5,5.2-2.6
	c2.2-0.1,4,0.7,5.3,2.3c1.3,1.6,2,3.9,2.1,6.9C154.7,47.9,154.1,50.2,152.9,51.9z"/>
<polygon class="st1" points="169.8,60.5 175.2,61.9 180.6,40.6 188.3,42.6 189.5,38 168.5,32.7 167.4,37.3 175.1,39.2 "/>
<polygon class="st1" points="203.5,74.9 205.8,70.7 192.8,63.6 196.1,57.6 207.5,63.8 209.7,59.7 198.4,53.5 201.1,48.5 213.5,55.3 
	215.8,51.2 198.6,41.8 185.8,65.2 "/>
<path class="st1" d="M223.5,88.7c1.7-0.5,3.6-1.8,5.6-3.8l11.5-11.7l-4-4L225,80.9c-1.3,1.3-2.4,2.1-3.3,2.4
	c-1.5,0.6-3.1,0.1-4.7-1.5c-1.6-1.6-2.1-3.2-1.6-4.7c0.3-0.9,1.1-2,2.3-3.3l11.5-11.7l-4-4l-11.5,11.7c-2,2-3.2,3.9-3.7,5.7
	c-0.8,3.2,0.4,6.5,3.7,9.7C217,88.4,220.3,89.6,223.5,88.7z"/>
<path class="st1" d="M227.4,100.8l9.1-5.1l2.8,5c0.8,1.4,1.1,2.5,0.9,3.3c-0.2,0.8-1,1.6-2.5,2.5l-2.1,1.2c-0.7,0.4-1.3,0.8-1.9,1.3
	c-0.3,0.2-0.6,0.6-1.1,1l3,5.3l0.6-0.3c0-0.6,0.3-1.2,0.8-1.6c0.3-0.3,1-0.7,2.1-1.3l1.6-0.9c1.6-0.9,2.7-1.8,3.3-2.7
	c0.5-0.9,0.7-2,0.6-3.3c1.2,1,2.4,1.5,3.8,1.5c1.4,0,2.6-0.4,3.7-1c0.9-0.5,1.6-1.1,2.2-1.8c0.5-0.7,1-1.5,1.3-2.3
	c0.4-1,0.5-2.1,0.4-3.1c-0.1-1.1-0.6-2.5-1.5-4.1l-6.4-11.4L224.7,96L227.4,100.8z M246.6,89.9l3.2,5.6c0.6,1.1,0.9,1.9,0.9,2.6
	c0,1.2-0.6,2.2-2,3c-1.3,0.7-2.4,0.7-3.4,0c-0.6-0.4-1.1-1.2-1.8-2.2l-3.1-5.5L246.6,89.9z"/>
<path class="st1" d="M55.7,204.6c-1.3,0.3-2.3,0.3-3.1,0.1c-1.5-0.3-2.6-1.2-3.4-2.8c-0.8-1.5-0.8-3.1-0.1-4.7
	c0.7-1.6,2.2-3,4.7-4.3s4.5-1.7,6.3-1.4c1.8,0.3,3.1,1.2,3.9,2.9c0.8,1.6,1,3.1,0.5,4.3c-0.3,0.7-0.9,1.5-1.8,2.3l2.3,4.5
	c1.3-0.8,2.4-1.9,3.3-3.5c1.5-2.9,1.4-6.1-0.5-9.8c-1.4-2.7-3.4-4.5-6.1-5.3c-3.1-1-6.5-0.5-10.2,1.4c-3.5,1.8-5.8,4.1-6.8,6.8
	c-1.1,2.8-0.8,5.7,0.7,8.8c1.3,2.5,3.1,4.2,5.3,5c2.3,0.8,4.7,0.9,7.2,0.1L55.7,204.6z"/>
<polygon class="st1" points="77.5,208 74.2,204.2 55.8,219.8 66.8,232.8 70.1,229.9 62.4,220.8 "/>
<path class="st1" d="M96.2,224.7c-2.8-2-5.5-2.8-8.1-2.4c-3.3,0.4-6.2,2.3-8.8,5.9c-2.5,3.5-3.5,6.9-2.9,10.2c0.4,2.6,2,4.9,4.8,6.9
	c2.8,2,5.5,2.8,8.1,2.4c3.3-0.4,6.3-2.4,8.8-5.9c2.6-3.6,3.6-7,2.9-10.2C100.5,229.1,99,226.8,96.2,224.7z M94,238.9
	c-1.6,2.2-3.3,3.6-5.1,4.1c-1.8,0.5-3.5,0.2-5.2-1c-1.6-1.2-2.5-2.7-2.6-4.6c-0.1-1.9,0.6-3.9,2.2-6.1c1.6-2.2,3.3-3.5,5.1-4
	c1.8-0.5,3.6-0.2,5.2,1c1.6,1.2,2.5,2.7,2.5,4.6C96.3,234.7,95.5,236.7,94,238.9z"/>
<polygon class="st1" points="106.1,232.4 104.5,236.4 111.2,239.1 103.8,257.5 108.5,259.4 115.9,241 122.6,243.7 124.2,239.8 "/>
<polygon class="st1" points="139.2,251.6 129.9,250.2 131.3,241.1 126.3,240.3 122.7,264.2 127.6,264.9 129.3,254.3 138.6,255.7 
	137,266.4 141.9,267.1 145.6,243.3 140.6,242.5 "/>
<rect x="150.2" y="242.8" transform="matrix(0.9997 -2.549444e-02 2.549444e-02 0.9997 -6.4482 3.9768)" class="st1" width="5" height="24.1"/>
<polygon class="st1" points="174.1,239.8 177.5,256.3 164.7,241.8 159.5,242.9 164.4,266.5 169,265.5 165.5,248.8 178.6,263.6 
	183.6,262.5 178.7,238.9 "/>
<path class="st1" d="M197.2,242.7l1.8,3.6l5-2.5c0.5,1.5,0.5,3-0.1,4.3c-0.5,1.4-1.5,2.4-3.1,3.2c-1.5,0.8-3.2,0.9-5,0.4
	c-1.8-0.5-3.3-2.1-4.6-4.7c-1.3-2.6-1.8-4.9-1.3-6.8c0.5-1.9,1.6-3.2,3.3-4.1c0.9-0.5,1.8-0.7,2.7-0.8c1.6-0.1,3,0.5,4.1,1.8
	l4.4-2.2c-1.3-2-3.1-3.2-5.5-3.8c-2.4-0.6-4.9-0.1-7.7,1.2c-3.2,1.6-5.2,3.9-6,7c-0.9,3.1-0.4,6.4,1.3,9.9c1.7,3.5,4.1,5.7,7,6.7
	c2.8,1.1,5.7,0.9,8.5-0.6c1.7-0.9,3-2,3.8-3.3c0.5-0.8,0.9-1.9,1.3-3.3l1.8,2.5l3-1.5l-5.8-11.6L197.2,242.7z"/>
<path class="st1" d="M234.3,219c0.7,1.1,1.1,2,1.2,2.8c0.2,1.5-0.3,2.9-1.4,4.2c-1.2,1.3-2.6,1.9-4.4,1.8c-1.8-0.1-3.6-1-5.6-2.9
	c-2-1.8-3.2-3.6-3.6-5.4c-0.4-1.8,0.1-3.3,1.3-4.7c1.2-1.3,2.5-2,3.9-2c0.8,0,1.7,0.3,2.8,0.8l3.4-3.7c-1.2-1-2.6-1.6-4.5-1.8
	c-3.2-0.4-6.2,0.9-9,3.9c-2,2.2-3,4.8-2.9,7.5c0.2,3.2,1.8,6.2,4.9,9.1c2.9,2.6,5.8,4,8.8,4c3,0,5.6-1.2,8-3.8
	c1.9-2.1,2.8-4.3,2.8-6.8c0-2.4-0.8-4.7-2.5-6.8L234.3,219z"/>
<path class="st1" d="M248.4,188.1c-3.9-2-7.4-2.5-10.5-1.4c-2.5,0.7-4.6,2.6-6.2,5.7c-1.6,3.1-2,5.8-1.2,8.3
	c0.8,3.2,3.2,5.8,7.1,7.9c3.8,2,7.3,2.5,10.5,1.4c2.5-0.7,4.6-2.6,6.2-5.7c1.6-3.1,2-5.8,1.2-8.3
	C254.7,192.7,252.3,190.1,248.4,188.1z M250.6,202.3c-0.9,1.8-2.3,2.8-4.2,3.2c-1.9,0.4-4-0.1-6.4-1.3c-2.4-1.3-4-2.8-4.7-4.5
	c-0.8-1.7-0.7-3.5,0.3-5.3c0.9-1.8,2.3-2.8,4.2-3.2c1.9-0.4,4,0.1,6.4,1.3c2.4,1.3,4,2.7,4.8,4.5
	C251.6,198.8,251.5,200.5,250.6,202.3z"/>
<polygon class="st1" points="35.5,146.2 35.5,144.6 29,144.6 29,153.5 35.7,153.5 35.7,151.9 30.8,151.9 30.8,149.6 35.1,149.6 
	35.1,148 30.8,148 30.8,146.2 "/>
<path class="st1" d="M43.7,152c-0.3,0.1-0.6,0.1-1.1,0.1c-0.7,0-1.2-0.2-1.5-0.5c-0.2-0.2-0.3-0.5-0.3-0.9H39c0,0.9,0.3,1.7,1,2.2
	c0.7,0.5,1.6,0.8,2.7,0.8c1.1,0,2-0.3,2.6-0.8c0.6-0.5,0.9-1.2,0.9-2c0-0.8-0.3-1.4-0.8-1.8c-0.3-0.3-0.8-0.5-1.5-0.6l-1.5-0.4
	c-0.6-0.1-1-0.3-1.2-0.4c-0.3-0.2-0.4-0.4-0.4-0.7c0-0.3,0.1-0.6,0.4-0.8c0.3-0.2,0.7-0.3,1.1-0.3c0.4,0,0.8,0.1,1.1,0.2
	c0.4,0.2,0.7,0.6,0.7,1.1H46c0-0.9-0.4-1.7-1-2.2c-0.7-0.5-1.5-0.7-2.4-0.7c-1.1,0-2,0.3-2.6,0.8s-0.9,1.2-0.9,2
	c0,0.9,0.3,1.5,0.9,1.9c0.4,0.2,1,0.5,1.9,0.7l0.9,0.2c0.6,0.1,1,0.3,1.2,0.4c0.3,0.2,0.4,0.4,0.4,0.7
	C44.5,151.5,44.2,151.9,43.7,152z"/>
<polygon class="st1" points="53.7,153.5 53.7,146.2 56.3,146.2 56.3,144.6 49.1,144.6 49.1,146.2 51.8,146.2 51.8,153.5 "/>
<path class="st1" d="M64.8,144.8c-0.4-0.1-0.8-0.2-1.4-0.2h-3.8v8.9h3.8c1.3,0,2.3-0.6,3-1.7c0.5-0.8,0.7-1.8,0.7-3
	c0-0.5-0.1-1-0.2-1.5c-0.1-0.5-0.3-1-0.6-1.4C66,145.4,65.5,145,64.8,144.8z M65,150.6c-0.3,0.9-1,1.3-1.8,1.3h-1.7v-5.8h1.7
	c0.8,0,1.4,0.2,1.7,0.7c0.3,0.5,0.4,1.2,0.4,2.1C65.3,149.6,65.2,150.2,65,150.6z"/>
<rect x="24.4" y="134.1" class="st1" width="48.6" height="4.4"/>
<rect x="24.4" y="160.6" class="st1" width="48.6" height="4.4"/>
<path class="st1" d="M235.5,147.5v6h1.7v-8.9h-2.7l-1.6,7l-1.6-7h-2.7v8.9h1.7v-6c0-0.2,0-0.4,0-0.7c0-0.3,0-0.6,0-0.7l1.7,7.5h1.8
	l1.7-7.5c0,0.2,0,0.4,0,0.7C235.5,147,235.5,147.3,235.5,147.5z"/>
<path class="st1" d="M247.2,147.5v6h1.7v-8.9h-2.7l-1.6,7l-1.6-7h-2.7v8.9h1.7v-6c0-0.2,0-0.4,0-0.7c0-0.3,0-0.6,0-0.7l1.7,7.5h1.8
	l1.7-7.5c0,0.2,0,0.4,0,0.7C247.2,147,247.2,147.3,247.2,147.5z"/>
<polygon class="st1" points="253.6,153.5 255.4,150.4 257.1,153.5 259.3,153.5 256.4,148.9 259.2,144.6 257,144.6 255.4,147.5 
	253.8,144.6 251.6,144.6 254.3,148.9 251.4,153.5 "/>
<polygon class="st1" points="263.3,153.5 265.1,150.4 266.8,153.5 269,153.5 266.2,148.9 268.9,144.6 266.7,144.6 265.1,147.5 
	263.5,144.6 261.3,144.6 264,148.9 261.2,153.5 "/>
<rect x="225.1" y="134.1" class="st1" width="48.6" height="4.4"/>
<rect x="225.1" y="160.6" class="st1" width="48.6" height="4.4"/>
</svg>
