<?xml version="1.0" encoding="utf-8"?>
<!-- Generator: Adobe Illustrator 27.5.0, SVG Export Plug-In . SVG Version: 6.00 Build 0)  -->
<svg version="1.1" id="Layer_1" xmlns="http://www.w3.org/2000/svg" xmlns:xlink="http://www.w3.org/1999/xlink" x="0px" y="0px"
	 viewBox="0 0 60 60" style="enable-background:new 0 0 60 60;" xml:space="preserve">
<style type="text/css">
	.st0{fill:#0B253A;}
	.st1{fill:#FF5511;}
</style>
<g>
	<g>
		<path class="st0" d="M35.9,30c1.5-0.8,2.4-1.9,2.4-3.1c0-2.5-3.6-4.4-8.3-4.4c-4.6,0-8.3,1.9-8.3,4.4c0,1.2,0.9,2.3,2.4,3.1
			c-1.5,0.8-2.4,1.9-2.4,3.1c0,2.5,3.6,4.4,8.3,4.4c4.6,0,8.3-1.9,8.3-4.4C38.3,31.9,37.4,30.8,35.9,30z M22.6,26.9
			c0-1.9,3.4-3.5,7.4-3.5c4,0,7.4,1.6,7.4,3.5c0,1-1,2-2.6,2.6c-1.3-0.5-3-0.8-4.8-0.8c-1.8,0-3.4,0.3-4.8,0.8
			C23.7,28.9,22.6,27.9,22.6,26.9z M33.2,30c-1,0.2-2.1,0.4-3.2,0.4c-1.1,0-2.2-0.1-3.2-0.4c1-0.2,2.1-0.4,3.2-0.4
			C31.1,29.6,32.2,29.8,33.2,30z M30,36.6c-4,0-7.4-1.6-7.4-3.5c0-1,1-2,2.6-2.6c1.3,0.5,3,0.8,4.8,0.8c1.8,0,3.4-0.3,4.8-0.8
			c1.6,0.6,2.6,1.6,2.6,2.6C37.4,35,34,36.6,30,36.6z"/>
	</g>
	<g>
		<path class="st1" d="M27.7,33.2c0.1-0.1,0.1-0.3,0.1-0.5c0-0.2,0-0.3-0.1-0.5c-0.1-0.1-0.2-0.2-0.3-0.3c-0.2-0.1-0.3-0.1-0.5-0.1
			H25v3h1v-1.1h0.4l0.5,1.1h1.1l-0.7-1.2C27.4,33.4,27.6,33.3,27.7,33.2z M26.8,32.9C26.7,33,26.6,33,26.6,33h-0.6v-0.5h0.6
			c0.1,0,0.1,0,0.2,0.1c0.1,0.1,0.1,0.1,0.1,0.2C26.8,32.8,26.8,32.9,26.8,32.9z"/>
	</g>
	<g>
		<path class="st1" d="M30.5,33.8c0,0.3-0.2,0.4-0.6,0.4c-0.2,0-0.4,0-0.5-0.1c-0.1-0.1-0.1-0.2-0.1-0.3c0-0.1,0-0.2,0.1-0.2
			c0.1-0.1,0.1-0.1,0.2-0.1h0.5V33h-0.4c-0.1,0-0.2,0-0.2-0.1c-0.1,0-0.1-0.1-0.1-0.2c0-0.1,0-0.2,0.1-0.3c0.1-0.1,0.2-0.1,0.4-0.1
			c0.2,0,0.3,0,0.5,0.1c0.1,0.1,0.2,0.1,0.2,0.2h0.8v-0.1c0-0.1-0.1-0.3-0.2-0.4c-0.1-0.1-0.3-0.2-0.5-0.3c-0.2-0.1-0.5-0.1-0.8-0.1
			c-0.3,0-0.5,0-0.8,0.1c-0.2,0.1-0.4,0.2-0.5,0.3c-0.1,0.1-0.2,0.3-0.2,0.4c0,0.1,0,0.3,0.1,0.4c0.1,0.1,0.2,0.2,0.3,0.2v0
			c-0.2,0.1-0.3,0.1-0.4,0.3c-0.1,0.1-0.1,0.3-0.1,0.4c0,0.3,0.1,0.5,0.4,0.6c0.2,0.2,0.6,0.2,1.1,0.2c0.5,0,0.8-0.1,1.1-0.3
			c0.2-0.2,0.3-0.4,0.3-0.7v-0.3h0.6V33h-1.4V33.8z"/>
	</g>
	<g>
		<path class="st1" d="M33.4,31.8h-1.3v3h1.3c1,0,1.6-0.5,1.6-1.5C35,32.3,34.5,31.8,33.4,31.8z M34,33.4c0,0.4-0.2,0.6-0.6,0.6
			h-0.3v-1.5h0.3c0.4,0,0.6,0.2,0.6,0.6V33.4z"/>
	</g>
	<g>
		<path class="st0" d="M27,27.5C27,27.5,27,27.5,27,27.5L27,26.1h0.2v0.2c0,0,0,0,0,0H27v1h0.5c0.3,0,0.5-0.2,0.5-0.5v-1.6h-1.9
			c0,0,0,0,0,0h-1.1c0,0.1,0,0.1,0,0.2c-0.1-0.1-0.3-0.1-0.4-0.2v0.9c0.1,0,0.1,0.1,0.1,0.1c0,0-0.1,0.1-0.1,0.1v0.8
			c0.2-0.1,0.3-0.1,0.5-0.2c0,0,0,0.1,0,0.1c-0.2,0.1-0.4,0.2-0.5,0.2v1.5h0.5c0.8,0,0.9-0.5,0.9-1.3c0-0.5-0.1-0.9-0.2-1.2
			c0.1-0.2,0.2-0.4,0.3-0.6v2.4c0,0.4,0.2,0.7,0.7,0.7h0.6c0.2,0,0.5,0,0.7-0.1v-1.1c-0.2,0.1-0.4,0.2-0.7,0.2H27z M24.8,27.7
			L24.8,27.7c0.1-0.1,0.2-0.1,0.3-0.2C25.1,27.7,25,27.7,24.8,27.7z"/>
	</g>
	<g>
		<path class="st0" d="M30,27.3c0,0-0.1,0-0.1,0.1v-1h0.2v2.2h1v-0.3h0.6v-0.6h-0.6v-0.1h0.6V27h-0.6V27h0.6v-0.6h-0.6v-0.1h0.6
			v-1.2h-3.3v1.2h0.6v0.1h-0.6V27h0.6V27h-0.6v0.5h0.5c0,0,0,0,0,0.1c-0.2,0-0.4,0-0.6,0v0.7c0.2,0,0.3,0,0.4,0
			c0,0.1-0.1,0.1-0.1,0.2h1.1c0.1-0.1,0.1-0.2,0.1-0.3c0.1,0,0.2,0,0.2-0.1V27.3z M30.6,25.6h0.2v0.2h-0.2V25.6z M29.9,25.6h0.1v0.2
			h-0.1V25.6z M29.4,25.8h-0.2v-0.2h0.2V25.8z"/>
	</g>
	<g>
		<path class="st0" d="M33.7,27.2C33.7,27.2,33.8,27.2,33.7,27.2l0.1,0.2h0.7l-0.1-0.9h-0.1c0-0.1,0.1-0.2,0.1-0.3h0.1v1.2
			c0,0.1-0.1,0.1-0.1,0.1h-0.3v1h0.5c0.6,0,0.8-0.2,0.8-1v-2.3h-0.7l0,0l0-0.1h-0.9c0,0.4,0,0.6-0.1,0.8v-0.5h-0.4l0.1-0.2h-0.9
			l0,0.2H32v3.2h1.7V27.2z M32.9,27.7h-0.1v-0.4h0.1V27.7z M32.9,26.5h-0.1v-0.4h0.1V26.5z"/>
	</g>
</g>
</svg>
