<?xml version="1.0" encoding="utf-8"?>
<!-- Generator: Adobe Illustrator 27.5.0, SVG Export Plug-In . SVG Version: 6.00 Build 0)  -->
<svg version="1.1" id="Layer_1" xmlns="http://www.w3.org/2000/svg" xmlns:xlink="http://www.w3.org/1999/xlink" x="0px" y="0px"
	 viewBox="0 0 16 14" style="enable-background:new 0 0 16 14;" xml:space="preserve">
<style type="text/css">
	.st0{fill:#FFFFFF;}
</style>
<g>
	<path class="st0" d="M8,14c-5.9,0-8-5.6-8-7s2.1-7,8-7s8,5.6,8,7S13.9,14,8,14z M8,1.5C2.9,1.5,1.5,6.4,1.5,7s1.4,5.5,6.5,5.5
		c5.1,0,6.5-4.9,6.5-5.5S13.1,1.5,8,1.5z"/>
</g>
<g>
	<path class="st0" d="M8,10c-1.7,0-3-1.3-3-3s1.3-3,3-3s3,1.3,3,3S9.7,10,8,10z M8,5.5C7.2,5.5,6.5,6.2,6.5,7S7.2,8.5,8,8.5
		S9.5,7.8,9.5,7S8.8,5.5,8,5.5z"/>
</g>
</svg>
