<svg xmlns="http://www.w3.org/2000/svg" xmlns:xlink="http://www.w3.org/1999/xlink" width="804" height="676" viewBox="0 0 804 676">
  <defs>
    <filter id="Rectangle_151" x="270" y="275" width="424" height="401" filterUnits="userSpaceOnUse">
      <feOffset dy="16" input="SourceAlpha"/>
      <feGaussianBlur stdDeviation="12" result="blur"/>
      <feFlood flood-color="#0f2d52" flood-opacity="0.102"/>
      <feComposite operator="in" in2="blur"/>
      <feComposite in="SourceGraphic"/>
    </filter>
    <filter id="Ellipse_3" x="443" y="350" width="199" height="197" filterUnits="userSpaceOnUse">
      <feOffset dy="16" input="SourceAlpha"/>
      <feGaussianBlur stdDeviation="12" result="blur-2"/>
      <feFlood flood-color="#0f2d52" flood-opacity="0.102"/>
      <feComposite operator="in" in2="blur-2"/>
      <feComposite in="SourceGraphic"/>
    </filter>
    <filter id="Ellipse_14" x="433" y="340" width="217" height="218" filterUnits="userSpaceOnUse">
      <feOffset dy="16" input="SourceAlpha"/>
      <feGaussianBlur stdDeviation="12" result="blur-3"/>
      <feFlood flood-color="#0f2d52" flood-opacity="0.102"/>
      <feComposite operator="in" in2="blur-3"/>
      <feComposite in="SourceGraphic"/>
    </filter>
    <filter id="Ellipse_15" x="414" y="321" width="256" height="256" filterUnits="userSpaceOnUse">
      <feOffset dy="16" input="SourceAlpha"/>
      <feGaussianBlur stdDeviation="12" result="blur-4"/>
      <feFlood flood-color="#0f2d52" flood-opacity="0.102"/>
      <feComposite operator="in" in2="blur-4"/>
      <feComposite in="SourceGraphic"/>
    </filter>
    <clipPath id="clip-path">
      <path id="Path_134" data-name="Path 134" d="M3278,69.062v177.93h171.829" transform="translate(-3278 -69.062)" fill="#fff"/>
    </clipPath>
    <filter id="Ellipse_16" x="561" y="291" width="93" height="94" filterUnits="userSpaceOnUse">
      <feOffset dy="16" input="SourceAlpha"/>
      <feGaussianBlur stdDeviation="12" result="blur-5"/>
      <feFlood flood-color="#0f2d52" flood-opacity="0.102"/>
      <feComposite operator="in" in2="blur-5"/>
      <feComposite in="SourceGraphic"/>
    </filter>
    <filter id="Ellipse_17" x="566" y="298" width="83" height="82" filterUnits="userSpaceOnUse">
      <feOffset dy="16" input="SourceAlpha"/>
      <feGaussianBlur stdDeviation="12" result="blur-6"/>
      <feFlood flood-color="#0f2d52" flood-opacity="0.102"/>
      <feComposite operator="in" in2="blur-6"/>
      <feComposite in="SourceGraphic"/>
    </filter>
    <filter id="Ellipse_18" x="476" y="386" width="131" height="131" filterUnits="userSpaceOnUse">
      <feOffset dy="16" input="SourceAlpha"/>
      <feGaussianBlur stdDeviation="12" result="blur-7"/>
      <feFlood flood-color="#0f2d52" flood-opacity="0.102"/>
      <feComposite operator="in" in2="blur-7"/>
      <feComposite in="SourceGraphic"/>
    </filter>
    <filter id="Rectangle_139" x="653" y="0" width="151" height="532" filterUnits="userSpaceOnUse">
      <feOffset dy="16" input="SourceAlpha"/>
      <feGaussianBlur stdDeviation="12" result="blur-8"/>
      <feFlood flood-color="#0f2d52" flood-opacity="0.102"/>
      <feComposite operator="in" in2="blur-8"/>
      <feComposite in="SourceGraphic"/>
    </filter>
  </defs>
  <g id="Group_3418" data-name="Group 3418" transform="translate(-336 -12)">
    <g id="Group_3416" data-name="Group 3416" transform="translate(336 177.333)">
      <g id="Group_3415" data-name="Group 3415">
        <rect id="Rectangle_145" data-name="Rectangle 145" width="721" height="481" transform="translate(0 -0.333)" fill="#fff"/>
        <rect id="Rectangle_140" data-name="Rectangle 140" width="167" height="21" rx="10.5" transform="translate(64 46.667)" fill="rgba(49,59,68,0.2)"/>
        <rect id="Rectangle_141" data-name="Rectangle 141" width="109" height="21" rx="10.5" transform="translate(306 46.667)" fill="#f5f5f7"/>
        <rect id="Rectangle_154" data-name="Rectangle 154" width="47" height="21" rx="10.5" transform="translate(306 94.667)" fill="rgba(49,59,68,0.2)"/>
        <rect id="Rectangle_155" data-name="Rectangle 155" width="47" height="21" rx="10.5" transform="translate(368 94.667)" fill="rgba(49,59,68,0.1)"/>
        <rect id="Rectangle_166" data-name="Rectangle 166" width="136" height="20" rx="10" transform="translate(61 12.667)" fill="rgba(49,59,68,0.1)"/>
        <rect id="Rectangle_156" data-name="Rectangle 156" width="47" height="21" rx="10.5" transform="translate(429 94.667)" fill="rgba(49,59,68,0.1)"/>
        <rect id="Rectangle_161" data-name="Rectangle 161" width="47" height="21" rx="10.5" transform="translate(610 94.667)" fill="rgba(49,59,68,0.1)"/>
        <g id="Rectangle_144" data-name="Rectangle 144" transform="translate(551 13.667)" fill="none" stroke="#f5f5f7" stroke-width="1">
          <path d="M11.163,0h89A8.837,8.837,0,0,1,109,8.837v2.326A8.837,8.837,0,0,1,100.163,20H8.837A8.837,8.837,0,0,1,0,11.163v0A11.163,11.163,0,0,1,11.163,0Z" stroke="none"/>
          <path d="M11.131.5h89A8.369,8.369,0,0,1,108.5,8.869v2.262a8.369,8.369,0,0,1-8.369,8.369H8.869A8.369,8.369,0,0,1,.5,11.131v0A10.631,10.631,0,0,1,11.131.5Z" fill="none"/>
        </g>
        <rect id="Rectangle_142" data-name="Rectangle 142" width="108" height="21" rx="10.5" transform="translate(429 46.667)" fill="#f5f5f7"/>
        <rect id="Rectangle_143" data-name="Rectangle 143" width="109" height="21" rx="10.5" transform="translate(551 46.667)" fill="#f5f5f7"/>
        <rect id="Rectangle_139-2" data-name="Rectangle 139" width="47" height="481" transform="translate(0 -0.333)" fill="#f5f5f7"/>
        <path id="Path_14" data-name="Path 14" d="M62.047,124.766c-.353,1.231-.719,2.458-1.051,3.7-.162.6-.393.974-1.139.927-1.134-.072-2.278-.012-3.418-.022-.739-.007-1.007-.342-.828-1.039a.61.61,0,0,1,.679-.546c.876.035,1.754-.006,2.629.018a.541.541,0,0,0,.633-.473c.553-2,1.143-3.988,1.7-5.988.243-.88.983-1.276,1.528-.715a2.452,2.452,0,0,1,.435,1.11c.607,2.5,1.194,5,1.788,7.5.285,1.2.572,2.4.968,3.589.365-1.428.734-2.855,1.091-4.285a.857.857,0,0,1,1.009-.757c1.137.055,2.279.017,3.418.015.512,0,.979.026.951.74-.027.688-.17.836-.919.838-.811,0-1.622.017-2.433-.008a.51.51,0,0,0-.594.436c-.569,2.195-1.131,4.391-1.724,6.58-.116.428-.191.937-.888.9-.641-.035-.821-.39-.948-.923-.626-2.644-1.276-5.283-1.913-7.925-.295-1.226-.578-2.455-.866-3.684l-.1.023" transform="translate(-40.565 -60.326)" fill="rgba(49,59,68,0.1)"/>
        <line id="Line_127" data-name="Line 127" x2="37.852" transform="translate(4.506 92.228)" fill="none" stroke="rgba(49,59,68,0.1)" stroke-width="1"/>
        <line id="Line_128" data-name="Line 128" x2="37.852" transform="translate(4.506 44.68)" fill="none" stroke="rgba(49,59,68,0.1)" stroke-width="1"/>
        <line id="Line_127-2" data-name="Line 127" x2="37.852" transform="translate(4.506 137.29)" fill="none" stroke="rgba(49,59,68,0.1)" stroke-width="1"/>
        <line id="Line_127-3" data-name="Line 127" x2="37.852" transform="translate(4.506 182.353)" fill="none" stroke="rgba(49,59,68,0.1)" stroke-width="1"/>
        <line id="Line_127-4" data-name="Line 127" x2="37.852" transform="translate(4.506 227.415)" fill="none" stroke="rgba(49,59,68,0.1)" stroke-width="1"/>
        <line id="Line_130" data-name="Line 130" x2="37.852" transform="translate(4.506 428.695)" fill="none" stroke="rgba(49,59,68,0.1)" stroke-width="1"/>
        <path id="Path_24" data-name="Path 24" d="M30.055,129.287a.676.676,0,0,1-.478-1.154l4.96-4.96a.676.676,0,1,1,.956.956l-4.96,4.96a.671.671,0,0,1-.478.2" transform="translate(-13.16 -14.569)" fill="rgba(49,59,68,0.1)"/>
        <path id="Path_25" data-name="Path 25" d="M31.408,137.385h-.451a1.58,1.58,0,0,1-1.578-1.578v-2.254a1.58,1.58,0,0,1,1.578-1.578h.451a1.58,1.58,0,0,1,1.578,1.578v2.254a1.58,1.58,0,0,1-1.578,1.578m-.451-4.058a.226.226,0,0,0-.225.225v2.254a.226.226,0,0,0,.225.225h.451a.226.226,0,0,0,.225-.225v-2.254a.226.226,0,0,0-.225-.225Z" transform="translate(-13.16 -15.454)" fill="rgba(49,59,68,0.1)"/>
        <path id="Path_26" data-name="Path 26" d="M37.408,137.091h-.451a1.58,1.58,0,0,1-1.578-1.578v-4.96a1.58,1.58,0,0,1,1.578-1.578h.451a1.58,1.58,0,0,1,1.578,1.578v4.96a1.58,1.58,0,0,1-1.578,1.578m-.451-6.763a.226.226,0,0,0-.225.225v4.96a.225.225,0,0,0,.225.225h.451a.225.225,0,0,0,.225-.225v-4.96a.226.226,0,0,0-.225-.225Z" transform="translate(-13.75 -15.159)" fill="rgba(49,59,68,0.1)"/>
        <path id="Path_27" data-name="Path 27" d="M43.408,136.4h-.451a1.58,1.58,0,0,1-1.578-1.578V123.553a1.58,1.58,0,0,1,1.578-1.578h.451a1.58,1.58,0,0,1,1.578,1.578v11.272a1.58,1.58,0,0,1-1.578,1.578m-.451-13.075a.226.226,0,0,0-.225.225v11.272a.226.226,0,0,0,.225.225h.451a.226.226,0,0,0,.225-.225V123.553a.226.226,0,0,0-.225-.225Z" transform="translate(-14.34 -14.471)" fill="rgba(49,59,68,0.1)"/>
        <path id="Path_28" data-name="Path 28" d="M36.211,126.484a.677.677,0,0,1-.676-.676v-2.48h-2.48a.676.676,0,0,1,0-1.353h3.156a.677.677,0,0,1,.676.676v3.156a.677.677,0,0,1-.676.676" transform="translate(-13.455 -14.471)" fill="rgba(49,59,68,0.1)"/>
        <path id="Path_34" data-name="Path 34" d="M7.214,107.5a7.214,7.214,0,1,1,7.214-7.214A7.222,7.222,0,0,1,7.214,107.5m0-13.075a5.861,5.861,0,1,0,5.861,5.861,5.868,5.868,0,0,0-5.861-5.861" transform="translate(16.219 59.573)" fill="rgba(49,59,68,0.1)"/>
        <path id="Path_35" data-name="Path 35" d="M7.509,105.093a4.509,4.509,0,1,1,4.509-4.509,4.514,4.514,0,0,1-4.509,4.509m0-7.665a3.156,3.156,0,1,0,3.156,3.156,3.16,3.16,0,0,0-3.156-3.156" transform="translate(15.924 59.278)" fill="rgba(49,59,68,0.1)"/>
        <path id="Path_36" data-name="Path 36" d="M7.8,102.683a1.8,1.8,0,1,1,1.8-1.8,1.805,1.805,0,0,1-1.8,1.8m0-2.254a.451.451,0,1,0,.451.451.451.451,0,0,0-.451-.451" transform="translate(15.629 58.983)" fill="rgba(49,59,68,0.1)"/>
        <path id="Path_73" data-name="Path 73" d="M120.832,38.976a.9.9,0,0,1-.9-.9v-1.8a.9.9,0,1,1,1.8,0v1.8a.9.9,0,0,1-.9.9" transform="translate(-97.399 169.474)" fill="rgba(49,59,68,0.1)"/>
        <path id="Path_74" data-name="Path 74" d="M120.831,31.369a.9.9,0,1,1-.9.9.9.9,0,0,1,.9-.9" transform="translate(-97.399 169.867)" fill="rgba(49,59,68,0.1)"/>
        <path id="Path_75" data-name="Path 75" d="M120.144,41.8a7.214,7.214,0,1,1,7.214-7.214,7.222,7.222,0,0,1-7.214,7.214m0-13.075a5.861,5.861,0,1,0,5.861,5.861,5.868,5.868,0,0,0-5.861-5.861" transform="translate(-96.711 170.26)" fill="rgba(49,59,68,0.1)"/>
        <path id="Path_69" data-name="Path 69" d="M263.407,29.929h-9.468a2.482,2.482,0,0,0-2.48,2.48v7.665a2.482,2.482,0,0,0,2.48,2.48h9.468a2.482,2.482,0,0,0,2.48-2.48V32.409a2.482,2.482,0,0,0-2.48-2.48m0,1.353c.031,0,.057.015.087.017l-4.821,4.265L253.852,31.3c.03,0,.056-.017.087-.017Zm1.127,8.792a1.129,1.129,0,0,1-1.127,1.127h-9.468a1.129,1.129,0,0,1-1.127-1.127V32.409a1.031,1.031,0,0,1,.039-.19l5.374,4.755a.677.677,0,0,0,.9,0l5.374-4.755a1.032,1.032,0,0,1,.039.19Z" transform="translate(-234.014 212.845)" fill="rgba(49,59,68,0.1)"/>
        <g id="Group_1165" data-name="Group 1165" transform="translate(17.578 14.348)">
          <g id="Group_1160" data-name="Group 1160" transform="translate(0 0)">
            <path id="Path_116" data-name="Path 116" d="M6.169,7.739l2.756-.953a.178.178,0,0,1,.24.167l.011,8.021A.178.178,0,0,1,9,15.153l-2.757,0a.179.179,0,0,1-.179-.179l-.01-7.072a.179.179,0,0,1,.117-.168M.008,9.987l.007,5a.178.178,0,0,0,.179.178l2.731,0a.178.178,0,0,0,.178-.179L3.095,9.06a.178.178,0,0,0-.233-.17l-2.73.927a.178.178,0,0,0-.124.171M9.058.218l.234,1.126L.114,4.534A.178.178,0,0,0,0,4.7L0,7.09a.178.178,0,0,0,.238.168L9.94,3.9l.212.921a.179.179,0,0,0,.305.081L13.9,1.183a.178.178,0,0,0-.1-.3L9.267,0a.179.179,0,0,0-.209.215" transform="translate(0 0)" fill="rgba(0,0,0,0.2)"/>
          </g>
        </g>
        <g id="Group_1164" data-name="Group 1164" transform="translate(641.682 18.245)">
          <path id="Path_51" data-name="Path 51" d="M40.948,68.933a.482.482,0,0,1-.344-.143l-2.16-2.159a4.543,4.543,0,1,1,.688-.688l2.159,2.16a.486.486,0,0,1-.344.83m-5.35-9.4A3.567,3.567,0,1,0,39.165,63.1,3.57,3.57,0,0,0,35.6,59.531" transform="translate(-31.059 -58.558)" fill="rgba(49,59,68,0.1)"/>
        </g>
        <g id="Group_1154" data-name="Group 1154" transform="translate(16.219 446.412)">
          <path id="Path_76" data-name="Path 76" d="M198.944,2.811h-7.665a.676.676,0,0,1,0-1.353h7.665a.676.676,0,1,1,0,1.353" transform="translate(-185.192 -1.458)" fill="rgba(49,59,68,0.1)"/>
          <path id="Path_77" data-name="Path 77" d="M199.239,6.811h-4.96a.676.676,0,1,1,0-1.353h4.96a.676.676,0,1,1,0,1.353" transform="translate(-185.487 -1.851)" fill="rgba(49,59,68,0.1)"/>
          <path id="Path_78" data-name="Path 78" d="M185.279,11.672a.676.676,0,0,1-.46-1.172l2.622-2.435L184.819,5.63a.676.676,0,1,1,.92-.992L188.9,7.569a.677.677,0,0,1,0,.992l-3.156,2.931a.672.672,0,0,1-.46.18" transform="translate(-184.603 -1.753)" fill="rgba(49,59,68,0.1)"/>
          <path id="Path_79" data-name="Path 79" d="M198.944,15.311h-7.665a.676.676,0,0,1,0-1.353h7.665a.676.676,0,1,1,0,1.353" transform="translate(-185.192 -2.686)" fill="rgba(49,59,68,0.1)"/>
          <path id="Path_80" data-name="Path 80" d="M199.239,11.311h-4.96a.676.676,0,1,1,0-1.353h4.96a.676.676,0,1,1,0,1.353" transform="translate(-185.487 -2.293)" fill="rgba(49,59,68,0.1)"/>
        </g>
        <g id="Group_3273" data-name="Group 3273" transform="translate(60.744 353.017)">
          <path id="Rectangle_149" data-name="Rectangle 149" d="M24,0H207a24,24,0,0,1,24,24v6a0,0,0,0,1,0,0H0a0,0,0,0,1,0,0V24A24,24,0,0,1,24,0Z" transform="translate(0.256 -0.35)" fill="#f7f7f9"/>
          <g id="Rectangle_150" data-name="Rectangle 150" transform="translate(0.256 -0.35)" fill="none" stroke="rgba(49,59,68,0.1)" stroke-width="1">
            <path d="M24,0H207a24,24,0,0,1,24,24v82a0,0,0,0,1,0,0H0a0,0,0,0,1,0,0V24A24,24,0,0,1,24,0Z" stroke="none"/>
            <path d="M24,.5H207A23.5,23.5,0,0,1,230.5,24v81.5a0,0,0,0,1,0,0H.5a0,0,0,0,1,0,0V24A23.5,23.5,0,0,1,24,.5Z" fill="none"/>
          </g>
          <g id="Group_1180" data-name="Group 1180" transform="translate(206.585 82.287)">
            <path id="Path_21" data-name="Path 21" d="M200.231,137.385h-7.665A3.386,3.386,0,0,1,189.185,134v-1.353a.676.676,0,0,1,1.353,0V134a2.032,2.032,0,0,0,2.029,2.029h7.665A2.032,2.032,0,0,0,202.26,134v-1.353a.676.676,0,1,1,1.353,0V134a3.386,3.386,0,0,1-3.382,3.382" transform="translate(-189.185 -122.967)" fill="rgba(49,59,68,0.1)"/>
            <path id="Path_22" data-name="Path 22" d="M197.111,131.919a.677.677,0,0,1-.676-.676V122.9a.676.676,0,0,1,1.353,0v8.341a.677.677,0,0,1-.676.676" transform="translate(-189.897 -122.009)" fill="rgba(49,59,68,0.1)"/>
            <path id="Path_23" data-name="Path 23" d="M199.723,126.485a.678.678,0,0,1-.5-.216l-2.435-2.622-2.435,2.622a.676.676,0,1,1-.992-.92l2.931-3.156a.7.7,0,0,1,.992,0l2.931,3.156a.676.676,0,0,1-.5,1.136" transform="translate(-189.578 -121.985)" fill="rgba(49,59,68,0.1)"/>
          </g>
        </g>
        <path id="Rectangle_160" data-name="Rectangle 160" d="M24,0H207a24,24,0,0,1,24,24v6a0,0,0,0,1,0,0H0a0,0,0,0,1,0,0V24A24,24,0,0,1,24,0Z" transform="translate(61 93.667)" fill="#f7f7f9"/>
        <g id="Rectangle_159" data-name="Rectangle 159" transform="translate(61 93.667)" fill="none" stroke="rgba(49,59,68,0.1)" stroke-width="1">
          <path d="M24,0H207a24,24,0,0,1,24,24V240a0,0,0,0,1,0,0H0a0,0,0,0,1,0,0V24A24,24,0,0,1,24,0Z" stroke="none"/>
          <path d="M24,.5H207A23.5,23.5,0,0,1,230.5,24V239.5a0,0,0,0,1,0,0H.5a0,0,0,0,1,0,0V24A23.5,23.5,0,0,1,24,.5Z" fill="none"/>
        </g>
        <rect id="Rectangle_164" data-name="Rectangle 164" width="109" height="11" rx="5.5" transform="translate(79 178.667)" fill="#f5f5f7"/>
        <rect id="Rectangle_165" data-name="Rectangle 165" width="109" height="9" rx="4.5" transform="translate(79 199.667)" fill="#f5f5f7"/>
        <rect id="Rectangle_206" data-name="Rectangle 206" width="43" height="10" rx="5" transform="translate(79 290.667)" fill="#f5f5f7"/>
        <rect id="Rectangle_207" data-name="Rectangle 207" width="43" height="10" rx="5" transform="translate(134 290.667)" fill="#f5f5f7"/>
        <rect id="Rectangle_163" data-name="Rectangle 163" width="176" height="20" rx="10" transform="translate(79 143.667)" fill="rgba(49,59,68,0.1)"/>
        <rect id="Rectangle_204" data-name="Rectangle 204" width="91" height="21" rx="10.5" transform="translate(79 395.667)" fill="rgba(49,59,68,0.1)"/>
        <rect id="Rectangle_205" data-name="Rectangle 205" width="135" height="21" rx="10.5" transform="translate(79 426.667)" fill="rgba(49,59,68,0.1)"/>
        <g id="Group_1179" data-name="Group 1179" transform="translate(267.329 308.528)">
          <path id="Path_21-2" data-name="Path 21" d="M200.231,137.385h-7.665A3.386,3.386,0,0,1,189.185,134v-1.353a.676.676,0,0,1,1.353,0V134a2.032,2.032,0,0,0,2.029,2.029h7.665A2.032,2.032,0,0,0,202.26,134v-1.353a.676.676,0,1,1,1.353,0V134a3.386,3.386,0,0,1-3.382,3.382" transform="translate(-189.185 -122.967)" fill="rgba(49,59,68,0.1)"/>
          <path id="Path_22-2" data-name="Path 22" d="M197.111,131.919a.677.677,0,0,1-.676-.676V122.9a.676.676,0,0,1,1.353,0v8.341a.677.677,0,0,1-.676.676" transform="translate(-189.897 -122.009)" fill="rgba(49,59,68,0.1)"/>
          <path id="Path_23-2" data-name="Path 23" d="M199.723,126.485a.678.678,0,0,1-.5-.216l-2.435-2.622-2.435,2.622a.676.676,0,1,1-.992-.92l2.931-3.156a.7.7,0,0,1,.992,0l2.931,3.156a.676.676,0,0,1-.5,1.136" transform="translate(-189.578 -121.985)" fill="rgba(49,59,68,0.1)"/>
        </g>
        <line id="Line_142" data-name="Line 142" x2="190.765" transform="translate(83.516 270.859)" fill="none" stroke="rgba(49,59,68,0.1)" stroke-width="1"/>
        <line id="Line_143" data-name="Line 143" x2="190.765" transform="translate(83.516 260.044)" fill="none" stroke="rgba(49,59,68,0.1)" stroke-width="1"/>
        <line id="Line_144" data-name="Line 144" x2="190.765" transform="translate(83.516 249.086)" fill="none" stroke="rgba(49,59,68,0.1)" stroke-width="1"/>
        <line id="Line_145" data-name="Line 145" x2="190.765" transform="translate(83.516 238.271)" fill="none" stroke="rgba(49,59,68,0.1)" stroke-width="1"/>
        <path id="Fill_27" data-name="Fill 27" d="M190.006,30.526,178.671,18.035a44.331,44.331,0,0,1-2.883-3.448,10.107,10.107,0,0,0-8.22-3.833,11.011,11.011,0,0,0-8.529,3.833c-.2.245-8.764,7.205-8.764,7.205-4.347,3.649-7.342,5.14-9.981,5.14-2.148,0-4.061-.99-6.273-2.608l-12.016-8.789a10.814,10.814,0,0,0-6.383-2.085h-8.241A35.018,35.018,0,0,1,86.71,6.7L80.4,2.085A10.812,10.812,0,0,0,65.6,4.036l-5.449,6.775c-4.694,6.274-8.835,8.2-12.866,8.2-3.226,0-6.381-1.239-9.69-2.476s-6.772-2.476-10.616-2.476c-3.688,0-7.728,1.141-12.316,4.515L0,30.512c.621-.249,21.451-.333,49.122-.333,53.412,0,132.277.312,140.23.344l.653,0" transform="translate(84.537 251.148)" fill="#19a4fa"/>
        <line id="Line_134" data-name="Line 134" x2="190.765" transform="translate(83.516 281.674)" fill="none" stroke="rgba(49,59,68,0.1)" stroke-width="1"/>
        <g transform="matrix(1, 0, 0, 1, 0, -165.33)" filter="url(#Rectangle_151)">
          <g id="Rectangle_151-2" data-name="Rectangle 151" transform="translate(306 295)" fill="#fff" stroke="rgba(49,59,68,0.1)" stroke-width="1">
            <rect width="352" height="329" rx="24" stroke="none"/>
            <rect x="0.5" y="0.5" width="351" height="328" rx="23.5" fill="none"/>
          </g>
        </g>
        <rect id="Rectangle_153" data-name="Rectangle 153" width="108" height="9" rx="4.5" transform="translate(321 378.667)" fill="#f5f5f7"/>
        <rect id="Rectangle_223" data-name="Rectangle 223" width="108" height="15" rx="7.5" transform="translate(321 252.667)" fill="#f5f5f7"/>
        <rect id="Rectangle_225" data-name="Rectangle 225" width="108" height="16" rx="8" transform="translate(321 274.667)" fill="#f5f5f7"/>
        <rect id="Rectangle_158" data-name="Rectangle 158" width="94" height="10" rx="5" transform="translate(321 399.667)" fill="#f5f5f7"/>
        <g transform="matrix(1, 0, 0, 1, 0, -165.33)" filter="url(#Ellipse_3)">
          <ellipse id="Ellipse_3-2" data-name="Ellipse 3" cx="63.5" cy="62.5" rx="63.5" ry="62.5" transform="translate(479 370)" fill="#f5f5f7"/>
        </g>
        <path id="Path_99" data-name="Path 99" d="M89.12,183.512a.676.676,0,0,1,1.172-.46l2.435,2.621,2.435-2.621a.676.676,0,0,1,.992.92l-2.931,3.156a.676.676,0,0,1-.992,0L89.3,183.972a.672.672,0,0,1-.18-.46" transform="translate(544.528 -33.951)" fill="rgba(49,59,68,0.1)"/>
        <rect id="Rectangle_162" data-name="Rectangle 162" width="47" height="20" rx="10" transform="translate(321 153.667)" fill="rgba(49,59,68,0.1)"/>
        <rect id="Rectangle_175" data-name="Rectangle 175" width="47" height="20" rx="10" transform="translate(533 420.667)" fill="rgba(49,59,68,0.1)"/>
        <rect id="Rectangle_226" data-name="Rectangle 226" width="47" height="20" rx="10" transform="translate(382 305.667)" fill="rgba(49,59,68,0.1)"/>
        <rect id="Rectangle_176" data-name="Rectangle 176" width="48" height="20" rx="10" transform="translate(594 420.667)" fill="rgba(49,59,68,0.1)"/>
        <g id="Group_1181" data-name="Group 1181" transform="translate(324.993 345.175)">
          <path id="Path_44" data-name="Path 44" d="M144.534,97.507h2.125a2.692,2.692,0,0,0,5.217,0h5.732a.676.676,0,0,0,0-1.353h-5.732a2.692,2.692,0,0,0-5.217,0h-2.125a.676.676,0,1,0,0,1.353m4.734-2.029a1.353,1.353,0,1,1-1.353,1.353,1.354,1.354,0,0,1,1.353-1.353" transform="translate(-143.858 -94.126)" fill="rgba(49,59,68,0.1)"/>
          <path id="Path_45" data-name="Path 45" d="M157.609,104.155h-1.224a2.692,2.692,0,0,0-5.217,0h-6.634a.676.676,0,1,0,0,1.353h6.634a2.692,2.692,0,0,0,5.217,0h1.224a.676.676,0,0,0,0-1.353m-3.832,2.029a1.353,1.353,0,1,1,1.353-1.353,1.354,1.354,0,0,1-1.353,1.353" transform="translate(-143.858 -94.912)" fill="rgba(49,59,68,0.1)"/>
        </g>
        <g id="Group_3356" data-name="Group 3356" transform="translate(321.325 230.65)">
          <rect id="Rectangle_221" data-name="Rectangle 221" width="108" height="15" rx="7.5" transform="translate(-0.325 0.017)" fill="#f5f5f7"/>
          <rect id="Rectangle_220" data-name="Rectangle 220" width="28" height="10" rx="5" transform="translate(3.675 3.017)" fill="#fdc90f"/>
        </g>
        <rect id="Rectangle_222" data-name="Rectangle 222" width="62" height="10" rx="5" transform="translate(325 255.667)" fill="#69be5a"/>
        <rect id="Rectangle_224" data-name="Rectangle 224" width="19" height="9" rx="4.5" transform="translate(325 278.667)" fill="#fdc90f"/>
        <g transform="matrix(1, 0, 0, 1, 0, -165.33)" filter="url(#Ellipse_14)">
          <g id="Ellipse_14-2" data-name="Ellipse 14" transform="translate(469 360)" fill="none" stroke="#fbfbfd" stroke-width="5">
            <ellipse cx="72.5" cy="73" rx="72.5" ry="73" stroke="none"/>
            <ellipse cx="72.5" cy="73" rx="70" ry="70.5" fill="none"/>
          </g>
        </g>
        <g transform="matrix(1, 0, 0, 1, 0, -165.33)" filter="url(#Ellipse_15)">
          <g id="Ellipse_15-2" data-name="Ellipse 15" transform="translate(450 341)" fill="none" stroke="#fbfbfd" stroke-width="5">
            <circle cx="92" cy="92" r="92" stroke="none"/>
            <circle cx="92" cy="92" r="89.5" fill="none"/>
          </g>
        </g>
        <g id="Mask_Group_3" data-name="Mask Group 3" transform="translate(541.952 105.747)" clip-path="url(#clip-path)">
          <g id="Ellipse_2" data-name="Ellipse 2" transform="translate(-99.952 61.92)" fill="none" stroke="#69be5a" stroke-width="20">
            <ellipse cx="100" cy="99.5" rx="100" ry="99.5" stroke="none"/>
            <ellipse cx="100" cy="99.5" rx="90" ry="89.5" fill="none"/>
          </g>
        </g>
        <g id="Group_3303" data-name="Group 3303" transform="translate(596.872 146.137)">
          <g transform="matrix(1, 0, 0, 1, -596.87, -311.47)" filter="url(#Ellipse_16)">
            <ellipse id="Ellipse_16-2" data-name="Ellipse 16" cx="10.5" cy="11" rx="10.5" ry="11" transform="translate(597 311)" fill="#f5f5f7"/>
          </g>
          <g transform="matrix(1, 0, 0, 1, -596.87, -311.47)" filter="url(#Ellipse_17)">
            <ellipse id="Ellipse_17-2" data-name="Ellipse 17" cx="5.5" cy="5" rx="5.5" ry="5" transform="translate(602 318)" fill="#69be5a"/>
          </g>
        </g>
        <g transform="matrix(1, 0, 0, 1, 0, -165.33)" filter="url(#Ellipse_18)">
          <circle id="Ellipse_18-2" data-name="Ellipse 18" cx="29.5" cy="29.5" r="29.5" transform="translate(512 406)" fill="#fff"/>
        </g>
        <g id="Group_3312" data-name="Group 3312" transform="translate(535.063 262.886)">
          <g id="Group_3312-2" data-name="Group 3312" transform="translate(0 0)">
            <g id="Group_1173" data-name="Group 1173" transform="translate(0 0)">
              <path id="Path_57" data-name="Path 57" d="M237.613,61.331a.861.861,0,0,0-1.218,0L224.342,73.384A.861.861,0,0,0,225.56,74.6l12.054-12.054a.861.861,0,0,0,0-1.218" transform="translate(-224.089 -61.078)" fill="rgba(49,59,68,0.1)"/>
              <path id="Path_58" data-name="Path 58" d="M234.386,69.078a2.3,2.3,0,1,0,2.3,2.3,2.3,2.3,0,0,0-2.3-2.3m0,2.87a.574.574,0,1,1,.574-.574.575.575,0,0,1-.574.574" transform="translate(-222.905 -59.894)" fill="rgba(49,59,68,0.1)"/>
              <path id="Path_59" data-name="Path 59" d="M226.386,65.67a2.3,2.3,0,1,0-2.3-2.3,2.3,2.3,0,0,0,2.3,2.3m0-2.87a.574.574,0,1,1-.574.574.575.575,0,0,1,.574-.574" transform="translate(-224.089 -61.078)" fill="rgba(49,59,68,0.1)"/>
            </g>
          </g>
        </g>
      </g>
    </g>
    <g id="Group_3417" data-name="Group 3417" transform="translate(-3439.125 732)">
      <g id="Group_3414" data-name="Group 3414" transform="translate(4464 -700)">
        <g transform="matrix(1, 0, 0, 1, -688.88, -20)" filter="url(#Rectangle_139)">
          <rect id="Rectangle_139-3" data-name="Rectangle 139" width="79" height="460" rx="39.5" transform="translate(689 20)" fill="#fff"/>
        </g>
        <line id="Line_127-5" data-name="Line 127" x2="63.738" transform="translate(7.588 155.299)" fill="none" stroke="rgba(49,59,68,0.1)" stroke-width="1"/>
        <line id="Line_129" data-name="Line 129" x2="63.738" transform="translate(7.588 78.914)" fill="none" stroke="rgba(49,59,68,0.1)" stroke-width="1"/>
        <line id="Line_127-6" data-name="Line 127" x2="63.738" transform="translate(7.588 231.178)" fill="none" stroke="rgba(49,59,68,0.1)" stroke-width="1"/>
        <line id="Line_127-7" data-name="Line 127" x2="63.738" transform="translate(7.588 307.057)" fill="none" stroke="rgba(49,59,68,0.1)" stroke-width="1"/>
        <line id="Line_127-8" data-name="Line 127" x2="63.738" transform="translate(7.588 382.936)" fill="none" stroke="rgba(49,59,68,0.1)" stroke-width="1"/>
        <circle id="Ellipse_1" data-name="Ellipse 1" cx="26.5" cy="26.5" r="26.5" transform="translate(13.125 318)" fill="#19a4fa"/>
        <path id="Path_42" data-name="Path 42" d="M127.1,117.387h-.39a2.664,2.664,0,0,1-2.631-2.3l-.134-.955a.6.6,0,0,0-.4-.425l-.292-.123a.6.6,0,0,0-.588.014l-.466.349a2.666,2.666,0,0,1-3.471-.247l-.285-.284a2.67,2.67,0,0,1-.246-3.474l.349-.466a.6.6,0,0,0,.011-.586c-.043-.1-.085-.2-.126-.307a.589.589,0,0,0-.419-.386l-.958-.132a2.67,2.67,0,0,1-2.3-2.633v-.39a2.67,2.67,0,0,1,2.3-2.633l.958-.132a.6.6,0,0,0,.425-.4c.035-.091.077-.193.123-.295a.6.6,0,0,0-.014-.582l-.351-.468a2.671,2.671,0,0,1,.248-3.471l.285-.285a2.666,2.666,0,0,1,3.473-.247l.466.351a.6.6,0,0,0,.586.011l.285-.118a.6.6,0,0,0,.407-.427l.134-.961a2.664,2.664,0,0,1,2.631-2.293h.39a2.669,2.669,0,0,1,2.633,2.293l.134.96a.6.6,0,0,0,.4.427l.29.12a.6.6,0,0,0,.583-.011l.468-.351a2.67,2.67,0,0,1,3.474.247l.285.284a2.671,2.671,0,0,1,.246,3.474l-.349.466a.6.6,0,0,0-.012.586l.12.287a.6.6,0,0,0,.425.405l.96.132a2.667,2.667,0,0,1,2.293,2.633v.39a2.669,2.669,0,0,1-2.293,2.633l-.96.132a.6.6,0,0,0-.424.4l-.125.295a.6.6,0,0,0,.015.582l.351.468a2.669,2.669,0,0,1-.247,3.471l-.285.285a2.673,2.673,0,0,1-3.474.247l-.466-.351a.6.6,0,0,0-.585-.012l-.285.12a.6.6,0,0,0-.407.427l-.134.961a2.669,2.669,0,0,1-2.633,2.291m-4.154-6.143a3.04,3.04,0,0,1,1.221.258l.222.094a2.86,2.86,0,0,1,1.814,2.228l.132.958a.379.379,0,0,0,.375.328h.39a.378.378,0,0,0,.375-.326l.134-.961a2.865,2.865,0,0,1,1.821-2.229l.223-.094a2.852,2.852,0,0,1,2.858.281l.465.349a.385.385,0,0,0,.5-.035l.284-.285a.383.383,0,0,0,.036-.5l-.352-.468a2.864,2.864,0,0,1-.276-2.864l.091-.217a2.869,2.869,0,0,1,2.231-1.821l.96-.132a.378.378,0,0,0,.326-.375v-.39a.381.381,0,0,0-.326-.377l-.96-.132a2.865,2.865,0,0,1-2.231-1.819l-.088-.213a2.87,2.87,0,0,1,.273-2.87l.351-.466a.383.383,0,0,0-.035-.5l-.284-.284a.387.387,0,0,0-.5-.035l-.465.349a2.856,2.856,0,0,1-2.865.276l-.222-.093a2.865,2.865,0,0,1-1.815-2.227l-.134-.958v0a.379.379,0,0,0-.375-.328h-.39a.381.381,0,0,0-.375.326l-.132.963a2.866,2.866,0,0,1-1.819,2.227l-.21.088A2.872,2.872,0,0,1,121.3,98.7l-.469-.352a.385.385,0,0,0-.495.036l-.284.285a.376.376,0,0,0-.036.5l.352.468a2.871,2.871,0,0,1,.275,2.865l-.085.2a2.869,2.869,0,0,1-2.237,1.833l-.958.132a.383.383,0,0,0-.329.377v.39a.381.381,0,0,0,.329.375l.958.132a2.87,2.87,0,0,1,2.232,1.819l.087.214a2.864,2.864,0,0,1-.272,2.868l-.351.468a.379.379,0,0,0,.035.5l.284.285a.379.379,0,0,0,.493.035l.471-.351a2.732,2.732,0,0,1,1.644-.534" transform="translate(-87.446 -64.196)" fill="rgba(49,59,68,0.1)"/>
        <path id="Path_43" data-name="Path 43" d="M123.793,105.167a3.037,3.037,0,1,1,3.037-3.037,3.04,3.04,0,0,1-3.037,3.037m0-3.8a.759.759,0,1,0,.759.759.76.76,0,0,0-.759-.759" transform="translate(-84.336 -61.086)" fill="rgba(49,59,68,0.1)"/>
        <g id="Group_1142" data-name="Group 1142" transform="translate(27.99 105.212)">
          <g id="Group_1144" data-name="Group 1144" transform="translate(0 0)">
            <g id="Group_1143" data-name="Group 1143">
              <g id="Group_1142-2" data-name="Group 1142">
                <path id="Path_19" data-name="Path 19" d="M125.6,134.122a6.074,6.074,0,1,1,6.074-6.074,6.08,6.08,0,0,1-6.074,6.074m0-9.87a3.8,3.8,0,1,0,3.8,3.8,3.8,3.8,0,0,0-3.8-3.8" transform="translate(-114.137 -121.975)" fill="rgba(15,45,82,0.1)"/>
                <path id="Path_20" data-name="Path 20" d="M135.265,141.474H119.619a3.727,3.727,0,0,1-3.213-1.707,2.98,2.98,0,0,1-.055-2.988c1.338-2.534,4.349-5.554,11.09-5.554s9.753,3.02,11.09,5.554a2.976,2.976,0,0,1-.055,2.988,3.727,3.727,0,0,1-3.213,1.707m-7.823-7.972c-5.606,0-8.031,2.361-9.077,4.341a.714.714,0,0,0-.006.749,1.474,1.474,0,0,0,1.26.6h15.646a1.475,1.475,0,0,0,1.26-.6.717.717,0,0,0-.006-.75c-1.046-1.98-3.471-4.341-9.077-4.341" transform="translate(-115.977 -117.18)" fill="rgba(15,45,82,0.1)"/>
              </g>
            </g>
          </g>
        </g>
        <path id="Path_117" data-name="Path 117" d="M74.61,117.16a1.142,1.142,0,0,1-.724-.26l-5.729-4.718L62.428,116.9a1.139,1.139,0,0,1-1.824-1.178l2.079-7.619-6.233-4.848a1.139,1.139,0,0,1,.7-2.038h7.519l2.4-7.559a1.14,1.14,0,0,1,2.171,0l2.4,7.559h7.519a1.139,1.139,0,0,1,.7,2.038L73.631,108.1l2.079,7.619a1.139,1.139,0,0,1-1.1,1.438m-6.453-7.592a1.14,1.14,0,0,1,.724.26l3.688,3.037-1.336-4.9a1.141,1.141,0,0,1,.4-1.2l4.212-3.277H70.814a1.138,1.138,0,0,1-1.086-.793l-1.572-4.941L66.585,102.7a1.138,1.138,0,0,1-1.086.793H60.468l4.212,3.277a1.141,1.141,0,0,1,.4,1.2l-1.336,4.9,3.688-3.037a1.14,1.14,0,0,1,.724-.26" transform="translate(-28.699 239.913)" fill="#fff"/>
        <path id="Path_57-2" data-name="Path 57" d="M241.977,61.412a1.139,1.139,0,0,0-1.611,0L224.423,77.355a1.139,1.139,0,0,0,1.611,1.611l15.943-15.943a1.139,1.139,0,0,0,0-1.611" transform="translate(-192.225 198.997)" fill="rgba(49,59,68,0.1)"/>
        <path id="Path_58-2" data-name="Path 58" d="M235.127,69.078a3.037,3.037,0,1,0,3.037,3.037,3.04,3.04,0,0,0-3.037-3.037m0,3.8a.759.759,0,1,1,.759-.759.76.76,0,0,1-.759.759" transform="translate(-188.077 203.144)" fill="rgba(49,59,68,0.1)"/>
        <path id="Path_59-2" data-name="Path 59" d="M227.127,67.152a3.037,3.037,0,1,0-3.037-3.037,3.04,3.04,0,0,0,3.037,3.037m0-3.8a.759.759,0,1,1-.759.759.76.76,0,0,1,.759-.759" transform="translate(-192.224 198.997)" fill="rgba(49,59,68,0.1)"/>
        <path id="Path_89" data-name="Path 89" d="M196.291,49.108c-8.977,0-12.147-8.465-12.147-10.629s3.17-10.629,12.147-10.629,12.147,8.465,12.147,10.629-3.17,10.629-12.147,10.629m0-18.98c-7.721,0-9.87,7.5-9.87,8.351s2.149,8.351,9.87,8.351,9.87-7.5,9.87-8.351-2.149-8.351-9.87-8.351" transform="translate(-156.836 380.948)" fill="rgba(49,59,68,0.1)"/>
        <path id="Path_90" data-name="Path 90" d="M193.7,40.96a4.555,4.555,0,1,1,4.555-4.555A4.561,4.561,0,0,1,193.7,40.96m0-6.833a2.278,2.278,0,1,0,2.278,2.278,2.28,2.28,0,0,0-2.278-2.278" transform="translate(-154.244 383.021)" fill="rgba(49,59,68,0.1)"/>
        <path id="Path_85" data-name="Path 85" d="M99.384,177.237h-3.8a2.661,2.661,0,0,1-2.657-2.657v-9.944a1.905,1.905,0,0,0-.415-1.184l-6.927-8.658a1.139,1.139,0,0,1,.888-1.851h22.018a1.14,1.14,0,0,1,.89,1.851l-6.928,8.658a1.9,1.9,0,0,0-.415,1.184v9.944a2.66,2.66,0,0,1-2.657,2.657M88.847,155.221l5.446,6.807a4.188,4.188,0,0,1,.914,2.609v9.944a.381.381,0,0,0,.38.38h3.8a.38.38,0,0,0,.38-.38v-9.944a4.192,4.192,0,0,1,.914-2.607l5.446-6.808Z" transform="translate(-56.511 28.218)" fill="rgba(49,59,68,0.1)"/>
      </g>
    </g>
  </g>
</svg>
