<?xml version="1.0" encoding="utf-8"?>
<!-- Generator: Adobe Illustrator 27.5.0, SVG Export Plug-In . SVG Version: 6.00 Build 0)  -->
<svg version="1.1" id="Layer_1" xmlns="http://www.w3.org/2000/svg" xmlns:xlink="http://www.w3.org/1999/xlink" x="0px" y="0px"
	 viewBox="0 0 117.29 117.29" style="enable-background:new 0 0 117.29 117.29;" xml:space="preserve">
<style type="text/css">
	.st0{fill:#191918;}
</style>
<g>
	<path class="st0" d="M58.65,117.29C26.31,117.29,0,90.98,0,58.65S26.31,0,58.65,0s58.65,26.31,58.65,58.65
		S90.98,117.29,58.65,117.29z M58.65,10C31.82,10,10,31.82,10,58.65s21.82,48.65,48.65,48.65s48.65-21.82,48.65-48.65
		S85.47,10,58.65,10z M58.54,97.64c-7.44,0-14.53-1.97-20.52-5.71c0,0-0.01-0.01-0.01-0.01c-3.04-1.9-5.82-4.28-8.26-7.08
		c-0.12-0.14-0.25-0.28-0.37-0.42c-1.31,1.5-3.45,2.12-5.43,1.42c-2.6-0.92-3.96-3.78-3.04-6.38l2.63-7.43
		c0.14-0.41,0.32-0.79,0.55-1.15c0.14-0.21,0.29-0.42,0.46-0.6c0.06-0.06,0.11-0.12,0.17-0.18c0,0,0,0,0,0c0,0,0,0,0,0c0,0,0,0,0,0
		c0,0,0,0,0,0c0,0,0,0,0,0l0,0c0.31-0.31,0.67-0.59,1.07-0.82c0.51-0.29,1.07-0.49,1.66-0.59c0.11-0.02,0.22-0.03,0.33-0.04l0,0
		c0,0,0.01,0,0.01,0c0,0,0.01,0,0.01,0c0,0,0.01,0,0.01,0h0c0.06-0.01,0.13-0.01,0.19-0.01c0.34-0.02,0.68,0,1.03,0.05l7.85,1.06
		c2.74,0.37,4.66,2.89,4.29,5.62c-0.24,1.8-1.42,3.24-2.97,3.92c1.54,1.59,3.26,3,5.12,4.19c4.44,2.76,9.76,4.17,15.39,4.18
		c5.39-0.03,10.65-1.59,15.2-4.51c1.88-1.2,3.6-2.62,5.15-4.2c-1.55-0.67-2.72-2.12-2.97-3.92c-0.37-2.74,1.55-5.25,4.28-5.63
		l7.85-1.06c0.34-0.05,0.68-0.07,1.01-0.05c0.17,0.01,0.35,0.03,0.52,0.05c0.63,0.1,1.22,0.31,1.76,0.63
		c0.44,0.25,0.82,0.57,1.15,0.92c0.18,0.2,0.35,0.41,0.5,0.64c0.24,0.36,0.43,0.76,0.57,1.18l2.63,7.42
		c0.92,2.6-0.44,5.46-3.04,6.38c-1.99,0.7-4.12,0.08-5.43-1.42c-2.47,2.89-5.36,5.41-8.58,7.48c-6.15,3.94-13.25,6.05-20.54,6.09
		C58.7,97.64,58.62,97.64,58.54,97.64z M73.16,70.83c-8.46,0-11.46-13.13-11.46-24.38s3-24.38,11.46-24.38
		c8.46,0,11.46,13.13,11.46,24.38S81.62,70.83,73.16,70.83z M73.16,34.86c-0.77,2.58-1.46,6.54-1.46,11.6s0.69,9.02,1.46,11.6
		c0.77-2.58,1.46-6.54,1.46-11.6S73.93,37.44,73.16,34.86z M44.09,70.83c-8.46,0-11.46-13.13-11.46-24.38s3-24.38,11.46-24.38
		c8.46,0,11.46,13.13,11.46,24.38S52.55,70.83,44.09,70.83z M44.09,34.86c-0.77,2.58-1.46,6.54-1.46,11.6s0.69,9.02,1.46,11.6
		c0.77-2.58,1.46-6.54,1.46-11.6S44.86,37.44,44.09,34.86z"/>
</g>
</svg>
