<?xml version="1.0" encoding="utf-8"?>
<!-- Generator: Adobe Illustrator 27.5.0, SVG Export Plug-In . SVG Version: 6.00 Build 0)  -->
<svg version="1.1" id="Layer_1" xmlns="http://www.w3.org/2000/svg" xmlns:xlink="http://www.w3.org/1999/xlink" x="0px" y="0px"
	 viewBox="0 0 16 14" style="enable-background:new 0 0 16 14;" xml:space="preserve">
<style type="text/css">
	.st0{fill:#FFFFFF;}
</style>
<path class="st0" d="M13.2,0H2.8C1.2,0,0,1.2,0,2.8v8.5C0,12.8,1.2,14,2.8,14h10.5c1.5,0,2.8-1.2,2.8-2.8V2.8C16,1.2,14.8,0,13.2,0z
	 M13.2,1.5C13.3,1.5,13.3,1.5,13.2,1.5L8,6.2L2.7,1.5c0,0,0.1,0,0.1,0H13.2z M14.5,11.2c0,0.7-0.6,1.2-1.2,1.2H2.8
	c-0.7,0-1.2-0.6-1.2-1.2V2.8c0-0.1,0-0.1,0-0.2l6,5.3C7.6,7.9,7.8,8,8,8s0.4-0.1,0.5-0.2l6-5.3c0,0.1,0,0.1,0,0.2V11.2z"/>
</svg>
