<?xml version="1.0" encoding="utf-8"?>
<!-- Generator: Adobe Illustrator 27.5.0, SVG Export Plug-In . SVG Version: 6.00 Build 0)  -->
<svg version="1.1" id="Layer_1" xmlns="http://www.w3.org/2000/svg" xmlns:xlink="http://www.w3.org/1999/xlink" x="0px" y="0px"
	 viewBox="0 0 24 24" style="enable-background:new 0 0 24 24;" xml:space="preserve">
<style type="text/css">
	.st0{fill:#0B253A;}
</style>
<path class="st0" d="M8.8,13.1c0.7,0.8,1.4,1.5,2.1,2.4c0-0.1,0-0.2,0-0.3c0-0.9,0-1.7,0-2.6c0-0.2-0.1-0.3-0.3-0.3
	c-0.8-0.3-1.5-0.5-2.2-0.8c-0.1,0-0.2-0.1-0.2-0.3c0-2,0-4,0-6c0-0.1,0.1-0.2,0.2-0.3c0.4-0.3,0.8-0.2,1.1,0.2
	c0.7,0.7,1.5,1.3,2.2,1.9c0.1,0.1,0.2,0.1,0.3,0.2c0.7-0.6,1.4-1.2,2.2-1.9c0.1-0.1,0.2-0.2,0.3-0.3C15,4.8,15,4.8,15.6,5
	c0.1,0,0.2,0.1,0.2,0.2c0,2,0,4,0,6c0,0.1-0.1,0.2-0.2,0.2c-0.8,0.3-1.5,0.5-2.3,0.8c-0.1,0-0.2,0.1-0.2,0.3c0,0.9,0,1.8,0,2.7
	c0,0,0,0.1,0,0.2c0.7-0.8,1.4-1.6,2.1-2.4c0.5,0.5,1,1,1.6,1.6c0,0-0.1,0.1-0.1,0.1c-1.4,1.4-2.7,2.7-4.1,4.1
	c-0.2,0.2-0.9,0.2-1.1,0c-1.4-1.4-2.8-2.8-4.2-4.2c0,0,0-0.1-0.1-0.1C7.7,14.2,8.2,13.7,8.8,13.1z M11.5,10.1c0.1-0.3,0-0.5-0.2-0.6
	c-0.6-0.4-1.2-0.8-1.8-1.2C9.4,8.3,9.3,8.2,9.2,8.2C9.2,8.9,9.2,8.9,9.8,9.2c0.1,0.1,0.3,0.1,0.4,0.2C10.6,9.7,11,9.9,11.5,10.1z
	 M14.8,8.2c-0.7,0.5-1.4,0.9-2.1,1.4c-0.2,0.2-0.3,0.3-0.2,0.6C13.3,9.7,14,9.4,14.7,9c0,0,0.1-0.1,0.1-0.2
	C14.8,8.6,14.8,8.4,14.8,8.2z M9.2,6.3c0,0.2,0,0.3,0,0.4c0,0.3,0.1,0.4,0.3,0.6c0.6,0.4,1.1,0.8,1.7,1.2c0.1,0.1,0.2,0.1,0.2,0.2
	c0,0,0,0,0.1,0c0-0.1,0-0.3-0.1-0.4C10.7,7.5,10,6.9,9.2,6.3z M14.8,6.3c-0.7,0.6-1.4,1.2-2.1,1.7c-0.2,0.2-0.2,0.3-0.2,0.6
	c0.7-0.5,1.5-1,2.2-1.5c0,0,0.1-0.1,0.1-0.2C14.8,6.7,14.8,6.5,14.8,6.3z M9.2,10c0,0.2,0,0.4,0,0.6c0,0,0,0.1,0.1,0.1
	c0.7,0.3,1.4,0.5,2.2,0.8c0,0,0,0,0.1,0c0-0.1,0-0.4-0.1-0.4C10.7,10.8,10,10.4,9.2,10z M14.8,10c-0.1,0.1-0.2,0.1-0.3,0.1
	c-0.6,0.3-1.2,0.6-1.7,0.9c-0.3,0.1-0.3,0.3-0.2,0.6c0.7-0.3,1.4-0.5,2.1-0.8c0.1,0,0.1-0.1,0.1-0.2C14.8,10.5,14.8,10.3,14.8,10z"
	/>
</svg>
