<?xml version="1.0" encoding="utf-8"?>
<!-- Generator: Adobe Illustrator 27.5.0, SVG Export Plug-In . SVG Version: 6.00 Build 0)  -->
<svg version="1.1" id="Layer_1" xmlns="http://www.w3.org/2000/svg" xmlns:xlink="http://www.w3.org/1999/xlink" x="0px" y="0px"
	 viewBox="0 0 185.3 83.8" style="enable-background:new 0 0 185.3 83.8;" xml:space="preserve">
<style type="text/css">
	.st0{fill:#0B253A;}
</style>
<g>
	<g>
		<g>
			<path class="st0" d="M21,33.8l6.9-8.3c4.2,3.2,9,4.5,13.6,4.5c2.3,0,3.3-0.6,3.3-1.7v-0.1c0-1.1-1.2-1.7-5.4-2.6
				c-8.7-1.8-16.4-4.3-16.4-12.5v-0.1c0-7.4,5.8-13.1,16.5-13.1c7.5,0,13,1.8,17.5,5.3l-6.3,8.8c-3.7-2.7-8-3.8-11.6-3.8
				c-1.9,0-2.8,0.7-2.8,1.6v0.1c0,1.1,1.1,1.7,5.2,2.5C51.4,16.4,58,19.3,58,27.1v0.1c0,8.2-6.7,13.1-17.1,13.1
				C33,40.4,25.9,38.1,21,33.8z"/>
		</g>
		<g>
			<path class="st0" d="M73,0.6h12.9l16.4,39.1H88.2l-2.1-5.2H72.5l-2,5.2H56.7L73,0.6z M82.9,25.2l-3.5-9.4l-3.5,9.4H82.9z"/>
		</g>
		<g>
			<path class="st0" d="M104.5,0.8h21.7c5.4,0,8.8,1.2,11,3.5c1.4,1.4,2.4,3.4,2.4,6v0.1c0,4.6-2.8,7.4-6.9,8.9
				c5,1.4,8.2,4.1,8.2,9.4v0.1c0,6.2-5.1,10.8-14.9,10.8h-21.5V0.8z M122.8,16.1c2.8,0,4.1-0.9,4.1-2.7v-0.1c0-1.7-1.4-2.7-4.2-2.7
				h-5.6v5.4H122.8z M123.7,29.8c2.8,0,4.3-1.2,4.3-2.8v-0.1c0-1.7-1.4-2.8-4.2-2.8h-6.5v5.8H123.7z"/>
		</g>
		<g>
			<path class="st0" d="M142.9,20.3v-0.1C142.9,9,152.2,0,164.1,0c12,0,21.1,8.9,21.1,20.1v0.1c0,11.3-9.3,20.2-21.2,20.2
				C152.1,40.5,142.9,31.6,142.9,20.3z M172.2,20.3v-0.1c0-4.6-3.2-8.8-8.2-8.8c-4.9,0-8,4.1-8,8.6v0.1c0,4.6,3.2,8.8,8.2,8.8
				C169.1,29,172.2,24.9,172.2,20.3z"/>
		</g>
		<g>
			<path class="st0" d="M34.1,55.2H22.7v-11h35.8v11H47.1V83h-13V55.2z"/>
		</g>
		<g>
			<path class="st0" d="M63.7,44.2h33.1v10.6H76.4v3.9h19v9.4h-19v4.2h20.6V83H63.7V44.2z"/>
		</g>
		<g>
			<path class="st0" d="M103.4,65.6V44.2h13.2v21.2c0,4.8,2.5,6.9,6,6.9s6-1.9,6-6.6V44.2h13.2v21.1c0,13.3-7.7,18.5-19.3,18.5
				S103.4,78.5,103.4,65.6z"/>
		</g>
		<g>
			<path class="st0" d="M147.4,44.2h19c6.9,0,11.3,1.7,14,4.4c2.3,2.3,3.5,5.2,3.5,9.2V58c0,5.7-2.9,9.6-7.7,11.9l9,13.2h-14.8
				l-7.3-11.1h-2.8V83h-13V44.2z M166,62.7c3.1,0,5-1.4,5-3.8v-0.1c0-2.5-1.9-3.7-4.9-3.7h-5.7v7.6H166z"/>
		</g>
		<g>
			<path class="st0" d="M0,71.8L0,71.8c0-6.2,5-11.4,11.3-11.4c6.4,0,11.3,5.1,11.3,11.3v0.1c0,6.2-5,11.3-11.3,11.3
				C4.9,83.1,0,78,0,71.8z M21.3,71.7L21.3,71.7c0-5.6-4.3-10.1-10-10.1c-5.6,0-10,4.6-10,10.1v0.1c0,5.5,4.3,10.1,10,10.1
				C16.9,81.8,21.3,77.2,21.3,71.7z M6,65.5h5.8c3.4,0,5.4,1.4,5.4,4.2c0,1.9-0.9,3-2.4,3.7l2.8,4.1h-4.5l-2.3-3.4h-0.8v3.4H6V65.5z
				 M11.7,71.1c1,0,1.6-0.4,1.6-1.2c0-0.8-0.5-1.2-1.5-1.2h-1.8v2.3H11.7z"/>
		</g>
	</g>
	<g>
		<g>
			<path class="st0" d="M21,33.8l6.9-8.3c4.2,3.2,9,4.5,13.6,4.5c2.3,0,3.3-0.6,3.3-1.7v-0.1c0-1.1-1.2-1.7-5.4-2.6
				c-8.7-1.8-16.4-4.3-16.4-12.5v-0.1c0-7.4,5.8-13.1,16.5-13.1c7.5,0,13,1.8,17.5,5.3l-6.3,8.8c-3.7-2.7-8-3.8-11.6-3.8
				c-1.9,0-2.8,0.7-2.8,1.6v0.1c0,1.1,1.1,1.7,5.2,2.5C51.4,16.4,58,19.3,58,27.1v0.1c0,8.2-6.7,13.1-17.1,13.1
				C33,40.4,25.9,38.1,21,33.8z"/>
		</g>
		<g>
			<path class="st0" d="M73,0.6h12.9l16.4,39.1H88.2l-2.1-5.2H72.5l-2,5.2H56.7L73,0.6z M82.9,25.2l-3.5-9.4l-3.5,9.4H82.9z"/>
		</g>
		<g>
			<path class="st0" d="M104.5,0.8h21.7c5.4,0,8.8,1.2,11,3.5c1.4,1.4,2.4,3.4,2.4,6v0.1c0,4.6-2.8,7.4-6.9,8.9
				c5,1.4,8.2,4.1,8.2,9.4v0.1c0,6.2-5.1,10.8-14.9,10.8h-21.5V0.8z M122.8,16.1c2.8,0,4.1-0.9,4.1-2.7v-0.1c0-1.7-1.4-2.7-4.2-2.7
				h-5.6v5.4H122.8z M123.7,29.8c2.8,0,4.3-1.2,4.3-2.8v-0.1c0-1.7-1.4-2.8-4.2-2.8h-6.5v5.8H123.7z"/>
		</g>
		<g>
			<path class="st0" d="M142.9,20.3v-0.1C142.9,9,152.2,0,164.1,0c12,0,21.1,8.9,21.1,20.1v0.1c0,11.3-9.3,20.2-21.2,20.2
				C152.1,40.5,142.9,31.6,142.9,20.3z M172.2,20.3v-0.1c0-4.6-3.2-8.8-8.2-8.8c-4.9,0-8,4.1-8,8.6v0.1c0,4.6,3.2,8.8,8.2,8.8
				C169.1,29,172.2,24.9,172.2,20.3z"/>
		</g>
		<g>
			<path class="st0" d="M34.1,55.2H22.7v-11h35.8v11H47.1V83h-13V55.2z"/>
		</g>
		<g>
			<path class="st0" d="M63.7,44.2h33.1v10.6H76.4v3.9h19v9.4h-19v4.2h20.6V83H63.7V44.2z"/>
		</g>
		<g>
			<path class="st0" d="M103.4,65.6V44.2h13.2v21.2c0,4.8,2.5,6.9,6,6.9s6-1.9,6-6.6V44.2h13.2v21.1c0,13.3-7.7,18.5-19.3,18.5
				S103.4,78.5,103.4,65.6z"/>
		</g>
		<g>
			<path class="st0" d="M147.4,44.2h19c6.9,0,11.3,1.7,14,4.4c2.3,2.3,3.5,5.2,3.5,9.2V58c0,5.7-2.9,9.6-7.7,11.9l9,13.2h-14.8
				l-7.3-11.1h-2.8V83h-13V44.2z M166,62.7c3.1,0,5-1.4,5-3.8v-0.1c0-2.5-1.9-3.7-4.9-3.7h-5.7v7.6H166z"/>
		</g>
		<g>
			<path class="st0" d="M0,71.8L0,71.8c0-6.2,5-11.4,11.3-11.4c6.4,0,11.3,5.1,11.3,11.3v0.1c0,6.2-5,11.3-11.3,11.3
				C4.9,83.1,0,78,0,71.8z M21.3,71.7L21.3,71.7c0-5.6-4.3-10.1-10-10.1c-5.6,0-10,4.6-10,10.1v0.1c0,5.5,4.3,10.1,10,10.1
				C16.9,81.8,21.3,77.2,21.3,71.7z M6,65.5h5.8c3.4,0,5.4,1.4,5.4,4.2c0,1.9-0.9,3-2.4,3.7l2.8,4.1h-4.5l-2.3-3.4h-0.8v3.4H6V65.5z
				 M11.7,71.1c1,0,1.6-0.4,1.6-1.2c0-0.8-0.5-1.2-1.5-1.2h-1.8v2.3H11.7z"/>
		</g>
	</g>
</g>
</svg>
