<svg xmlns="http://www.w3.org/2000/svg" xmlns:xlink="http://www.w3.org/1999/xlink" width="669.984" height="588" viewBox="0 0 669.984 588"><defs><filter id="a" x="251" y="144" width="282" height="282" filterUnits="userSpaceOnUse"><feOffset dy="16" input="SourceAlpha"/><feGaussianBlur stdDeviation="12" result="b"/><feFlood flood-color="#0f2d52" flood-opacity="0.102"/><feComposite operator="in" in2="b"/><feComposite in="SourceGraphic"/></filter><clipPath id="c"><path d="M3278,69.062V365.2h285.984" transform="translate(-2384 106.938)" fill="#fff"/></clipPath><filter id="d" x="447" y="48" width="108" height="108" filterUnits="userSpaceOnUse"><feOffset dy="16" input="SourceAlpha"/><feGaussianBlur stdDeviation="12" result="e"/><feFlood flood-color="#0f2d52" flood-opacity="0.102"/><feComposite operator="in" in2="e"/><feComposite in="SourceGraphic"/></filter><filter id="f" x="456" y="57" width="90" height="90" filterUnits="userSpaceOnUse"><feOffset dy="16" input="SourceAlpha"/><feGaussianBlur stdDeviation="12" result="g"/><feFlood flood-color="#0f2d52" flood-opacity="0.102"/><feComposite operator="in" in2="g"/><feComposite in="SourceGraphic"/></filter><filter id="h" x="307" y="204" width="170" height="170" filterUnits="userSpaceOnUse"><feOffset dy="16" input="SourceAlpha"/><feGaussianBlur stdDeviation="12" result="i"/><feFlood flood-color="#0f2d52" flood-opacity="0.102"/><feComposite operator="in" in2="i"/><feComposite in="SourceGraphic"/></filter></defs><g transform="translate(-313.147 -1827)"><g transform="translate(-2572.853 3069)"><rect width="586" height="549" rx="24" transform="translate(2886 -1203)" fill="#fff"/><path d="M24,1A22.98,22.98,0,0,0,1,24V525a22.98,22.98,0,0,0,23,23H562a22.98,22.98,0,0,0,23-23V24A22.98,22.98,0,0,0,562,1H24m0-1H562a24,24,0,0,1,24,24V525a24,24,0,0,1-24,24H24A24,24,0,0,1,0,525V24A24,24,0,0,1,24,0Z" transform="translate(2886 -1203)" fill="rgba(49,59,68,0.1)"/><rect width="180" height="16" rx="8" transform="translate(2910 -788)" fill="#f5f5f7"/><rect width="180" height="16" rx="8" transform="translate(3012 -1155)" fill="#f5f5f7"/><rect width="180" height="25" rx="12.5" transform="translate(2910 -1034)" fill="#f5f5f7"/><rect width="180" height="25" rx="12.5" transform="translate(2910 -997)" fill="#f5f5f7"/><rect width="180" height="25" rx="12.5" transform="translate(2910 -960)" fill="#f5f5f7"/><rect width="156" height="16" rx="8" transform="translate(2910 -753)" fill="#f5f5f7"/><g transform="matrix(1, 0, 0, 1, 2886, -1242)" filter="url(#a)"><circle cx="105" cy="105" r="105" transform="translate(287 164)" fill="#f5f5f7"/></g><path d="M89.12,183.962a1.126,1.126,0,0,1,1.951-.765l4.052,4.363,4.052-4.363a1.126,1.126,0,0,1,1.651,1.531l-4.878,5.253a1.126,1.126,0,0,1-1.651,0l-4.878-5.253a1.119,1.119,0,0,1-.3-.765" transform="translate(3341.495 -1353.038)" fill="rgba(49,59,68,0.1)"/><rect width="78" height="34" rx="17" transform="translate(2910 -1164)" fill="rgba(49,59,68,0.1)"/><rect width="78" height="34" rx="17" transform="translate(3264 -718)" fill="rgba(49,59,68,0.1)"/><rect width="78" height="34" rx="17" transform="translate(3012 -910)" fill="rgba(49,59,68,0.1)"/><rect width="78" height="34" rx="17" transform="translate(3366 -718)" fill="rgba(49,59,68,0.1)"/><g transform="translate(2599 -562.167)"><path d="M144.984,99.754h3.537a4.48,4.48,0,0,0,8.684,0h9.541a1.126,1.126,0,0,0,0-2.251H157.2a4.48,4.48,0,0,0-8.684,0h-3.537a1.126,1.126,0,1,0,0,2.251m7.879-3.377a2.251,2.251,0,1,1-2.251,2.251,2.254,2.254,0,0,1,2.251-2.251" transform="translate(174.045 -375.465)" fill="rgba(49,59,68,0.1)"/><path d="M166.745,105.5h-2.037a4.48,4.48,0,0,0-8.684,0H144.984a1.126,1.126,0,1,0,0,2.251h11.041a4.48,4.48,0,0,0,8.684,0h2.037a1.126,1.126,0,0,0,0-2.251m-6.378,3.377a2.251,2.251,0,1,1,2.251-2.251,2.254,2.254,0,0,1-2.251,2.251" transform="translate(174.045 -371.459)" fill="rgba(49,59,68,0.1)"/></g><rect width="25" height="16" rx="8" transform="translate(2916 -1029)" fill="#fdc90f"/><rect width="84" height="16" rx="8" transform="translate(2916 -992)" fill="#69be5a"/><rect width="135" height="16" rx="8" transform="translate(2916 -955)" fill="#69be5a"/><path d="M121,5A116.883,116.883,0,0,0,97.617,7.357a115.337,115.337,0,0,0-41.47,17.451A116.353,116.353,0,0,0,14.114,75.849,115.38,115.38,0,0,0,7.357,97.617a117.18,117.18,0,0,0,0,46.767,115.337,115.337,0,0,0,17.451,41.47,116.353,116.353,0,0,0,51.041,42.033,115.378,115.378,0,0,0,21.768,6.757,117.18,117.18,0,0,0,46.767,0,115.338,115.338,0,0,0,41.47-17.451,116.353,116.353,0,0,0,42.033-51.041,115.379,115.379,0,0,0,6.757-21.768,117.18,117.18,0,0,0,0-46.767,115.338,115.338,0,0,0-17.451-41.47,116.353,116.353,0,0,0-51.041-42.033,115.381,115.381,0,0,0-21.768-6.757A116.882,116.882,0,0,0,121,5m0-5A121,121,0,1,1,0,121,121,121,0,0,1,121,0Z" transform="translate(3157 -1094)" fill="#fbfbfd"/><path d="M153,5a149.118,149.118,0,0,0-29.832,3.007A147.16,147.16,0,0,0,70.255,30.273a148.447,148.447,0,0,0-53.627,65.12,147.22,147.22,0,0,0-8.622,27.774,149.491,149.491,0,0,0,0,59.665,147.16,147.16,0,0,0,22.266,52.912,148.447,148.447,0,0,0,65.12,53.627,147.22,147.22,0,0,0,27.774,8.622,149.491,149.491,0,0,0,59.665,0,147.16,147.16,0,0,0,52.912-22.266,148.447,148.447,0,0,0,53.627-65.12,147.22,147.22,0,0,0,8.622-27.774,149.491,149.491,0,0,0,0-59.665,147.16,147.16,0,0,0-22.266-52.912,148.447,148.447,0,0,0-65.12-53.627,147.22,147.22,0,0,0-27.774-8.622A149.118,149.118,0,0,0,153,5m0-5A153,153,0,1,1,0,153,153,153,0,0,1,153,0Z" transform="translate(3125 -1126)" fill="#fbfbfd"/><g transform="translate(2376 -1418)" clip-path="url(#c)"><path d="M166,20C85.5,20,20,85.5,20,166S85.5,312,166,312s146-65.5,146-146S246.5,20,166,20m0-20A166,166,0,1,1,0,166,166,166,0,0,1,166,0Z" transform="translate(736 279)" fill="#69be5a"/></g><g transform="translate(2376 -1418)"><g transform="matrix(1, 0, 0, 1, 510, 176)" filter="url(#d)"><circle cx="18" cy="18" r="18" transform="translate(483 68)" fill="#f5f5f7"/></g><g transform="matrix(1, 0, 0, 1, 510, 176)" filter="url(#f)"><circle cx="9" cy="9" r="9" transform="translate(492 77)" fill="#69be5a"/></g></g><g transform="matrix(1, 0, 0, 1, 2886, -1242)" filter="url(#h)"><circle cx="49" cy="49" r="49" transform="translate(343 224)" fill="#fff"/></g><g transform="translate(2828.22 -610.995)"><g transform="translate(438.315 -369.469)"><g transform="translate(0 0)"><path d="M246.6,61.5a1.433,1.433,0,0,0-2.027,0L224.509,81.56a1.433,1.433,0,0,0,2.027,2.027L246.6,63.525a1.433,1.433,0,0,0,0-2.027" transform="translate(-224.089 -61.078)" fill="rgba(49,59,68,0.1)"/><path d="M235.911,69.078a3.821,3.821,0,1,0,3.821,3.821,3.825,3.825,0,0,0-3.821-3.821m0,4.777a.955.955,0,1,1,.955-.955.957.957,0,0,1-.955.955" transform="translate(-216.803 -53.793)" fill="rgba(49,59,68,0.1)"/><path d="M227.911,68.721A3.821,3.821,0,1,0,224.09,64.9a3.825,3.825,0,0,0,3.821,3.821m0-4.777a.955.955,0,1,1-.955.955.957.957,0,0,1,.955-.955" transform="translate(-224.088 -61.078)" fill="rgba(49,59,68,0.1)"/></g></g></g></g></g></svg>