<?xml version="1.0" encoding="utf-8"?>
<!-- Generator: Adobe Illustrator 27.5.0, SVG Export Plug-In . SVG Version: 6.00 Build 0)  -->
<svg version="1.1" xmlns="http://www.w3.org/2000/svg" xmlns:xlink="http://www.w3.org/1999/xlink" x="0px" y="0px"
	 viewBox="0 0 269.8 145.6" style="enable-background:new 0 0 269.8 145.6;" xml:space="preserve">
<style type="text/css">
	.st0{fill:#05121C;}
	.st1{fill:#0487AA;}
	.st2{fill:#FFDBAC;}
	.st3{opacity:0.2;fill:#8D5524;}
	.st4{fill:#0098CD;}
	.st5{opacity:0.2;fill:#0487AA;}
	.st6{fill:none;stroke:#0289AD;stroke-width:8.042898e-02;stroke-miterlimit:10;}
	.st7{fill:#D88219;}
	.st8{fill:#8D5524;}
	.st9{fill:#F1C27D;}
	.st10{fill:#FFFFFF;}
	.st11{opacity:0.2;fill:#F1C27D;}
	.st12{fill:#6ABDFD;}
	.st13{opacity:0.2;}
	.st14{fill:#FEC90F;}
	.st15{fill:none;stroke:#FEC90F;stroke-width:0.3575;stroke-miterlimit:10;}
	.st16{fill:#0A223A;}
	.st17{opacity:0.4;fill:#0A223A;}
	.st18{fill:#0F2D52;}
	.st19{fill:none;stroke:#FFFFFF;stroke-width:0.3575;stroke-linejoin:round;stroke-miterlimit:10;}
	.st20{opacity:0.4;fill:#F1C27D;}
	.st21{fill:#F1927D;}
	.st22{fill:#FBAD18;}
	.st23{opacity:0.2;fill:#05121C;}
	.st24{fill:#1E1A1B;}
	.st25{fill:#333333;stroke:#333333;stroke-width:0.9132;stroke-linecap:round;stroke-miterlimit:10;}
	.st26{fill:#333333;}
	.st27{fill:#D8D8D8;}
	.st28{fill:#FFFFFF;stroke:#333333;stroke-width:1.3698;stroke-linecap:round;stroke-miterlimit:10;}
	.st29{fill:none;stroke:#333333;stroke-width:1.3385;stroke-linecap:round;stroke-miterlimit:10;}
	.st30{fill:none;stroke:#333333;stroke-width:1.3698;stroke-linecap:round;stroke-miterlimit:10;}
	.st31{fill:#333333;stroke:#333333;stroke-width:1.3385;stroke-linecap:round;stroke-miterlimit:10;}
	.st32{fill:#FFFFFF;stroke:#333333;stroke-width:1.3385;stroke-linecap:round;stroke-miterlimit:10;}
	.st33{fill:none;stroke:#333333;stroke-width:1.2703;stroke-linecap:round;stroke-miterlimit:10;}
	.st34{fill:none;stroke:#6ABDFD;stroke-width:1.3698;stroke-miterlimit:10;}
	.st35{fill:none;stroke:#6ABDFD;stroke-width:1.1072;stroke-miterlimit:10;}
	.st36{fill:none;stroke:#333333;stroke-width:2.283;stroke-linecap:round;stroke-miterlimit:10;}
</style>
<g id="Layer_3">
</g>
<g id="Layer_2">
</g>
<g id="Layer_1">
	<g>
		<g>
			<path class="st0" d="M226.1,57.5c-0.2,0-0.5-0.1-0.7-0.2c-0.7-0.4-1-1.3-0.6-2l7.8-14.8c0.4-0.7,1.3-1,2-0.6c0.7,0.4,1,1.3,0.6,2
				l-7.8,14.8C227.2,57.2,226.6,57.5,226.1,57.5z"/>
		</g>
		<polygon class="st0" points="225.1,59.8 237.4,45.3 252,49.5 252.2,65.5 		"/>
		<g>
			<path class="st1" d="M108,43.6c0,0-4.8-1.9-7.8,1.8c0,0-0.5,0.6-0.6,1.6l14.2,4c0,0,0.8-3.4-1.7-5.5
				C112.1,45.5,110,44.1,108,43.6z"/>
			<path class="st2" d="M113.1,49.2l-1.1-1.5l0.8-3.6c0,0-3.5-0.4-5.3,1c-0.7-2.1-3.9-3.7-3.9-3.7l-1.2,3.5l-1.7,0.7
				c0,0-1,1.8-0.5,4.4c0.4,2.3,3.8,3.2,4.9,3.4c1.1,0.4,4.4,1.3,6-0.3C113,51.3,113.1,49.2,113.1,49.2z"/>
			<path class="st2" d="M103.7,34c0,0-0.8-0.7-1.4,0.1c0,0-0.2,0.2-0.1,0.8s0.1,1.3,0,1.8c-0.1,0.5,0.2,1,0.9,1.1
				C103.9,37.8,103.7,34,103.7,34z"/>
			<path class="st2" d="M117.8,34.5c0.1-0.4,0.6-2.8,0.6-3.3s-0.7-1.1-0.7-1.1c-1.7-2.2-4.2-2.5-5.1-2.6c-0.8-0.4-3.1-1.5-5.7-0.5
				c0,0-0.9,0.2-1.2,0.6c-0.3,0.4-1.1,2.8-1.4,3.2c-0.2,0.4-0.9,1.8-0.9,3l-0.3,4.4c0,0-0.3,2.1,0.4,4.1c0.7,1.8,1.8,2.8,3.4,3.4
				l0,0c0.1,0,0.2,0.1,0.3,0.1c0.1,0,0.2,0.1,0.3,0.1l0,0c1.7,0.4,3.2,0.1,4.7-1.1c1.7-1.3,2.5-3.3,2.5-3.3l2.1-3.9
				C117.6,36.6,117.6,34.9,117.8,34.5z"/>
			<path class="st2" d="M116.7,37.7c0,0,1-0.2,1.1,0.8c0,0,0,0.3-0.3,0.7c-0.4,0.4-0.7,1.1-1,1.6s-0.7,0.7-1.4,0.4
				C114.5,40.8,116.7,37.7,116.7,37.7z"/>
			<path class="st3" d="M116.5,33.5c0,0,0.2,1.4,0.2,1.8c0,0.4-0.1,1-0.2,1.6c-0.2,0.5-0.8,1.7-0.8,1.7l-0.2,0.6l0.2-0.1
				c0,0,1.1-1.3,1.5-1.9c0.3-0.6,0.7-3.2,0.7-3.2L116.5,33.5"/>
			<path class="st4" d="M102,43.8c0,0-1.3,0.8-1.8,1.4c0,0-0.2,0.2-0.6,0.1c-0.4-0.1-0.6-0.1-1,0.2c-0.4,0.2-1,0.3-1.6,0.1
				c-0.6-0.2-1.6,0.4-2.5,0.4s-4.7,0.4-5.9,1.2c-1.2,0.8-5.2,8.5-5.2,8.5l21.9,6.2l18.5,5.3c0,0,1.2-7.9-0.8-10.6
				c0,0-1.2-1.2-2.8-2.3c-1.6-1.2-3.4-2.7-4.4-3.7c-1-1-0.8-1.1-1.2-1.3c-0.4-0.2-0.7-0.5-1-1.1c-0.2-0.6-1.1-2.2-1.1-2.2
				s0.6,1.5-1,3.4s-3.3,2.6-4.1,2.7c-0.8,0.1-2.1,0.5-2.1,0.5s-0.4-1.3-1.2-1.6s-1.8-1.4-2.1-3.1C101.8,46.2,101.6,44.8,102,43.8z"
				/>
			<path class="st5" d="M99.1,48.7c0,0,0.4,3.7,0.8,3.8c0.4,0,1.8-2.3,2.5-2.3c0.7,0,0.7-0.3,0.4-0.6c-0.3-0.4-1.9-4.6-1.9-4.6
				L99.1,48.7z"/>
			<path class="st4" d="M102.2,43.7c0,0-2.2,0.6-2.6,3.3c-0.4,2.3-0.2,4,0.2,4.9c0.1,0.2,0.4,0.2,0.5,0c0.3-0.7,1-2.2,1.6-2.3
				c0.8-0.1,1.1,0.4,1.1,0.4S101.3,47,102.2,43.7z"/>
			<path class="st4" d="M112.5,46.6c0,0-0.3,2.8-1.8,3.9c-1.5,1.1-1.8,1.2-1.8,1.2l-0.3,0.2c0,0,2.4,3.7,3,3s2.6-5.2,2.1-6.8
				C113.2,46.6,112.5,46.6,112.5,46.6z"/>
			<path class="st5" d="M108.9,52l-0.5,0.5c0,0-0.7,0.8,0.2,1.5c0.9,0.7,1.9,1.1,1.9,1.1l0.8-0.8L108.9,52z"/>
			<path class="st4" d="M113.7,48.3c0,0-0.2-1.5-1.3-2.5l-0.1,0.6c0,0,0.2,0,0.2,0.6C112.5,47.6,113.7,48.3,113.7,48.3z"/>
			<path class="st4" d="M103,43.4l-0.1,0.4c0,0-0.6,0.4-0.8,0.7c-0.3,0.3-0.3,0-0.3,0l0-0.7L103,43.4z"/>
			<path class="st6" d="M105.4,52.7c0,0-0.8,0.3-1.3,1.2c-0.6,0.9-0.1,1.3-0.6,2.6s-0.7,2.5-0.7,2.5l2.2,0.6l1.1-4
				c0,0-0.3-1.3,0.5-2s1.3-0.5,1.9-1.8"/>
			<ellipse transform="matrix(0.2731 -0.962 0.962 0.2731 24.107 140.9682)" class="st7" cx="105.3" cy="54.5" rx="0.4" ry="0.4"/>
			
				<ellipse transform="matrix(0.4526 -0.8917 0.8917 0.4526 6.0229 124.6246)" class="st7" cx="104.5" cy="57.4" rx="0.4" ry="0.3"/>
			<path class="st6" d="M88.8,47.5c0,0,3.2,4.3,1.8,10.2"/>
			<path class="st6" d="M122.8,56.9c0,0-6.7,1.4-8.3,7.5"/>
			<path class="st8" d="M105.9,32.9c0.2-0.1,0.5-0.2,0.7-0.3c0.1-0.1,0.3-0.1,0.4-0.1c0,0,0.1,0,0.1,0c0,0,0.1,0,0.1,0
				c0.1,0,0.2,0,0.2,0c0.3,0,0.5,0.1,0.8,0.1c0.3,0,0.5,0.1,0.8,0.2c0.2,0,0.3,0.2,0.2,0.4c0,0.2-0.2,0.3-0.4,0.2c0,0,0,0,0,0l0,0
				c-0.2-0.1-0.5-0.2-0.7-0.2c-0.2-0.1-0.5-0.1-0.7-0.2c-0.1,0-0.1,0-0.2,0l-0.1,0c0,0-0.1,0-0.1,0c-0.1,0-0.2,0.1-0.4,0.1
				c-0.2,0.1-0.5,0.2-0.7,0.3l0,0c-0.1,0.1-0.2,0-0.3-0.1C105.8,33.1,105.8,33,105.9,32.9C105.9,32.9,105.9,32.9,105.9,32.9z"/>
			<path class="st9" d="M111.4,37.7c0,0,0.3,0.3,0.1,0.8c0,0-0.2,0.2-0.4,0.2c0,0,0.5,0,0.7-0.4C111.9,37.7,111.4,37.7,111.4,37.7z"
				/>
			<path class="st10" d="M106.4,39.1l0.8,0.9c1,1.1,2.2,1.4,3.6,1.1l1.1-0.3L106.4,39.1z"/>
			<path class="st11" d="M106.8,40.5c0,0,0.7,0.8,2,1.2s2.2,0.1,2.2,0.1s-1.1,0.5-2.3,0.2C107.6,41.6,106.8,40.5,106.8,40.5z"/>
			<g>
				<path class="st10" d="M109.1,34.6c0,0,0.1-0.4-0.7-0.7c-0.8-0.3-1.7,0.2-1.7,0.2s0.5,0.4,1.1,0.5S109,35,109,35L109.1,34.6z"/>
				<g>
					<path class="st12" d="M108.6,34.5c0,0.2-0.1,0.3-0.3,0.3l-0.7-0.2c-0.1-0.1-0.1-0.3-0.1-0.5c0-0.1,0.1-0.2,0.2-0.3
						c0.2,0,0.4,0,0.7,0.1c0.1,0,0.1,0,0.2,0.1C108.7,34.2,108.7,34.3,108.6,34.5z"/>
					<circle cx="108.1" cy="34.3" r="0.3"/>
					<circle class="st10" cx="107.9" cy="34.2" r="0.2"/>
				</g>
			</g>
			<path class="st11" d="M112.6,34c-0.1,0-1,0.7-1.2,1.6c0,0-0.2,0.7-0.2,1.1c0,0,0.6-1.2,1-1.3c0.4-0.1,1.1,0.1,1.1,0.1l-0.2-1.3
				L112.6,34z"/>
			<g>
				<path class="st10" d="M112.1,35.5c0,0,0.1-0.4,0.9-0.2c0.8,0.2,1.3,1.1,1.3,1.1s-0.7,0-1.2-0.1s-1.1-0.4-1.1-0.4L112.1,35.5z"/>
				<path class="st12" d="M112.6,35.6c0,0.2,0,0.3,0.1,0.4l0.7,0.2c0.2-0.1,0.3-0.2,0.3-0.4c0-0.1,0-0.2,0-0.3
					c-0.2-0.1-0.4-0.2-0.6-0.3c-0.1,0-0.1,0-0.2,0C112.8,35.3,112.7,35.5,112.6,35.6z"/>
				<circle cx="113.2" cy="35.8" r="0.3"/>
				<circle class="st10" cx="113" cy="35.6" r="0.2"/>
			</g>
			<path class="st8" d="M115.8,35.7c-0.1-0.2-0.3-0.5-0.5-0.7c-0.1-0.1-0.2-0.2-0.3-0.3c0,0-0.1-0.1-0.1-0.1c0,0-0.1-0.1-0.1-0.1
				c-0.1,0-0.1-0.1-0.2-0.1c-0.2-0.1-0.5-0.2-0.7-0.3c-0.3-0.1-0.5-0.2-0.8-0.3c-0.2-0.1-0.3,0-0.4,0.2c-0.1,0.2,0,0.3,0.2,0.4
				c0,0,0,0,0,0l0,0c0.2,0,0.5,0.1,0.7,0.2c0.2,0.1,0.5,0.2,0.7,0.3c0.1,0,0.1,0.1,0.2,0.1l0.1,0c0,0,0,0,0.1,0.1
				c0.1,0.1,0.2,0.2,0.2,0.3c0.1,0.2,0.3,0.4,0.4,0.6l0,0c0.1,0.1,0.2,0.1,0.3,0.1C115.8,35.9,115.8,35.8,115.8,35.7
				C115.8,35.7,115.8,35.7,115.8,35.7z"/>
			<g>
				<path class="st9" d="M103.2,35.6C103.2,35.6,103.2,35.6,103.2,35.6c-0.1-0.2-0.1-0.3,0-0.5c0-0.2,0.1-0.5-0.1-0.8
					c-0.1-0.2-0.1-0.3-0.3-0.3c-0.2-0.1-0.4,0.1-0.4,0.1c0,0,0,0-0.1,0c0,0,0,0,0-0.1c0,0,0.2-0.2,0.5-0.1c0.1,0,0.2,0.2,0.3,0.4
					c0.1,0.3,0.1,0.6,0.1,0.8C103.3,35.3,103.2,35.4,103.2,35.6C103.3,35.6,103.3,35.6,103.2,35.6C103.3,35.6,103.3,35.6,103.2,35.6
					z"/>
			</g>
			<g>
				<path class="st9" d="M102.5,36.5C102.5,36.5,102.5,36.4,102.5,36.5c0-0.4,0-0.9-0.1-1.5c-0.1-0.8,0.4-0.9,0.4-0.9c0,0,0,0,0,0
					s0,0,0,0c0,0-0.5,0.2-0.4,0.9C102.6,35.5,102.6,36,102.5,36.5C102.6,36.5,102.6,36.5,102.5,36.5
					C102.5,36.5,102.5,36.5,102.5,36.5z"/>
			</g>
			<g class="st13">
				<path class="st9" d="M103.1,34.3c0,0-0.3,0.2-0.3,0.5c0,0.3,0.4,0.2,0.4,0.2S103.3,34.6,103.1,34.3z"/>
			</g>
			<g>
				<path class="st9" d="M103,36.6C103,36.6,103,36.6,103,36.6c0,0-0.1-0.1-0.1-0.6c-0.1-0.4,0.3-0.7,0.3-0.7c0,0,0,0,0.1,0
					c0,0,0,0,0,0.1c0,0-0.3,0.3-0.3,0.7C103,36.4,103.1,36.6,103,36.6C103.1,36.6,103.1,36.6,103,36.6C103.1,36.6,103,36.6,103,36.6
					z"/>
			</g>
			<g>
				<path class="st9" d="M116.1,39.3C116.1,39.3,116.1,39.3,116.1,39.3c0.2-0.1,0.2-0.2,0.3-0.4c0.1-0.2,0.2-0.4,0.5-0.6
					c0.1-0.1,0.3-0.2,0.4-0.1c0.2,0,0.3,0.3,0.3,0.3c0,0,0,0,0,0c0,0,0,0,0,0c0,0-0.1-0.3-0.4-0.3c-0.1,0-0.3,0-0.4,0.1
					c-0.3,0.2-0.4,0.5-0.5,0.7C116.3,39,116.2,39.1,116.1,39.3C116.1,39.2,116.1,39.2,116.1,39.3C116.1,39.3,116.1,39.3,116.1,39.3z
					"/>
			</g>
			<g>
				<path class="st9" d="M116.3,40.4C116.3,40.4,116.3,40.4,116.3,40.4c0.2-0.4,0.5-0.8,0.9-1.3c0.5-0.6,0.1-1,0.1-1c0,0,0,0-0.1,0
					s0,0,0,0.1c0,0,0.3,0.4-0.1,0.9C116.7,39.5,116.4,39.9,116.3,40.4C116.2,40.3,116.3,40.4,116.3,40.4
					C116.3,40.4,116.3,40.4,116.3,40.4z"/>
			</g>
			<g class="st13">
				<path class="st9" d="M116.9,38.2c0,0,0.2,0.3,0,0.6c-0.2,0.3-0.5,0-0.5,0S116.6,38.4,116.9,38.2z"/>
			</g>
			<g>
				<path class="st9" d="M115.8,40.2C115.8,40.2,115.8,40.2,115.8,40.2c0,0,0.1-0.1,0.4-0.4c0.3-0.3,0.1-0.8,0.1-0.8c0,0,0,0,0,0
					c0,0,0,0,0,0c0,0,0.1,0.4-0.1,0.7C115.9,40.1,115.8,40.2,115.8,40.2C115.7,40.2,115.7,40.2,115.8,40.2
					C115.8,40.2,115.8,40.2,115.8,40.2z"/>
			</g>
			<path class="st11" d="M103.7,43c0,0-0.5,2.7,1.9,4.9c2.5,2.2,4,1.2,5.1-0.3c1.1-1.5,2-3,2-3L103.7,43z"/>
			<path class="st8" d="M115.6,39.8l0.2-0.8l-0.2,0.1l-0.2,0.5c0,0-0.5,1.2-0.6,1.4c-0.1,0.1-0.9,1-1,1c-0.1,0-0.3,0.4-0.3,0.4
				l0-0.3l-1,1.3l-0.2,0.1l0.2-1l0.1-1.3l0.1-1.2l-1.4-0.7l-0.6-0.2l-0.2-0.1l-0.1,0.1l-0.4-0.2l0.1,0.2l-0.7-0.4l-0.4,0l0-0.1
				l-0.6-0.1l0-0.1l-1-0.1c0,0-0.4-0.1-0.5-0.1c-0.1,0-1.1,0.1-1.1,0.1l-0.7,2l-0.3,0.3l-0.4,0.4l-0.2,0.4l-0.5-1.3
				c0,0-0.2-1.4-0.2-1.7c0-0.3-0.1-2-0.1-2l-0.2,0.3l-0.1,0.7c0,0-0.3,2.1-0.3,2.5c0,0.4,0.1,0.9,0.1,0.9l0.1-0.2c0,0,0.1,0,0.1,0.5
				c0,0.5,0.4,2,0.7,2.4c0.3,0.4,0.5,0.9,0.6,0.9c0,0.1,0.4,0.6,0.5,0.7c0.1,0.1,0.8,0.6,1.2,0.8c0.4,0.2,0.8,0.2,0.8,0.2l0.1,0.2
				c0,0,0.2,0,0.3,0c0.1,0,0.5,0.1,0.5,0.1s0.9,0.1,1.4,0c0.4-0.1,2.2-0.9,2.7-1.2c0.5-0.3,1.1-0.9,1.4-1.2c0.3-0.3,0.6-0.7,0.6-0.7
				l0.1,0.1l0.1-0.3l1-2.1L115.6,39.8z M111.5,43l-0.4-0.1l-0.2,0.4l-0.4-0.3l-0.4,0.4l-0.3-0.2l-0.1,0.1l-0.6-0.3l-0.2-0.3
				l-0.3-0.1l-0.1-0.2l-0.1,0.2l-0.1-0.1l-0.3,0.2l-0.5,0.1l-0.3,0.1l-0.6-0.3l-0.6-0.1l-0.2-0.6l-0.4-0.2l0-0.3l-0.2,0l0.2-0.2
				c0,0,0.4-0.9,0.4-1.1c0.1-0.1,0-0.4,0-0.4l0.4-0.7l0.4-0.1l0,0.1l0.5,0l0.6,0.1l0.7-0.1l0.2,0.1l0.3-0.1l0,0.1l0.3,0l0.3,0.2
				l0.1,0.3l0.5,0.2l0.6,0.4l0-0.3l0.7,0.6l0-0.2c0,0,0.4,0.3,0.4,0.2c0-0.1,0.2,0.1,0.2,0.1l0.1,0.4l-0.3,1.8l-0.4-0.2L111.5,43z"
				/>
			<path class="st9" d="M108.9,37.7c0,0,0.5,0,0.8,0.4c0.3,0.4,0.7,0.3,0.9,0.2c0.2-0.1,0.7,0.1,0.7,0.1s0,0.2-0.4,0.2
				c-0.5,0-0.9,0.1-0.9,0.1L108.9,37.7z"/>
			<path class="st8" d="M116.3,30l0.5,0.8l-0.2,0.6c0,0,0.3,0.3,0.3,0.7c0,0.4-0.4,1.4-0.4,1.4l1.3,0.8c0,0,0.4-1.7,0.4-2.2
				c0.1-0.5,0.4-1.1-0.2-1.9C117.4,29.5,116.3,30,116.3,30z"/>
			<path class="st8" d="M107.8,27.8l-0.8,0.5l-0.7,1.1l-0.4,0.2l-0.4,1l-1.1-0.1c0,0,0.6-1.7,0.8-2c0.2-0.4,0.3-1,0.6-1.2
				c0.3-0.2,1.4-0.4,1.4-0.4L107.8,27.8z"/>
			<path class="st8" d="M107.8,27.8c0,0-1-0.6-0.7-1.1c0.2-0.5,0.5-0.9,1.2-1.2c0,0,1-0.8,1.8-1s1.8,0,1.8,0l0.6,0l-0.2,0.1
				c0,0,0.7,0.1,1.1,0.3s1.3,0.4,1.3,0.4l-0.3,0c0,0,1.2,0.4,2,1.1c0.7,0.7,1.7,1.8,1.9,2.2s0.8,1.1,0.8,1.1l-0.4-0.1l0.2,0.3
				l-0.6-0.2l0.4,0.9l-0.4,0l0,0.3l-0.3-0.1c0,0-1.6-0.4-2.4-0.7c-0.8-0.3-1.4-0.8-1.4-0.8l-0.4,0L114,29c0,0-0.9-0.2-1.5-0.3
				c-0.6-0.2-0.9-0.7-0.9-0.7l-0.2,0.1l-0.7-0.4l-1.4-0.3l-1,0.1L107.8,27.8z"/>
			<path class="st3" d="M105.6,30.6l-0.7,1.1l-0.4,0.6c0,0-0.3,0.8-0.4,1.1s-0.2,1.1-0.2,1.2s-0.3,1.8-0.3,1.8l-0.2,0.3l0.1-2.9
				c0,0,0.2-1.4,0.2-1.7s0.7-1.6,0.7-1.6L105.6,30.6z"/>
		</g>
		<g>
			<ellipse class="st14" cx="192.7" cy="31.8" rx="9.4" ry="9"/>
			<path class="st15" d="M201.7,26.2c0,0,3.7,6-1.1,8.5"/>
			<polygon class="st16" points="189.1,38 202.4,39.7 198.1,48.2 189.6,41.2 			"/>
			<polygon class="st2" points="188.9,34 191,36.5 191.5,40.3 196.4,41 196.6,40.2 196.8,39.6 197.1,38.8 192.6,35.9 192.5,35.9 
				191.2,35 			"/>
			<path class="st17" d="M198.6,48.3c0,0-3.8,0-3.7,0.1s7.1,5.3,7.1,5.3L198.6,48.3z"/>
			<g>
				<path d="M223.6,50.5l3.5-0.3l1-1.8c0,0,2.1,0.4,2.8,0.2c0,0,0.2,0.5-0.3,0.7l1.9,0.5l0.1,1.4l-1.3,3.6l-4.1-1.2l-1.2-0.5
					l-2.2,0.2"/>
				<polygon class="st2" points="221.7,53.3 224,53.1 223.9,50.7 221.3,50.9 				"/>
				<path class="st18" d="M192.5,47.8l-3.5,3.6c0,0-0.9,2.4,0.9,3.3s13.4,0.1,13.4,0.1l5.3,0.1l12.9-1.1l0-3.1l-16.8,0L192.5,47.8z"
					/>
			</g>
			<polygon class="st18" points="201.3,60.4 201.8,69.2 194.5,69.2 192.9,71.5 192.6,69.2 186.9,69.2 191.3,60.1 188.7,47.4 
				189.6,44.4 187.7,37.8 199.6,41.5 197.5,46.1 198.5,47.6 202.9,53.7 			"/>
			<polygon class="st17" points="201.3,58.3 200.5,60.4 200.1,61 194.5,69.2 192.9,71.5 192.6,69.2 192.1,64.5 193.6,56.9 201,58.2 
				201.1,58.2 			"/>
			<polyline class="st19" points="202.4,39.7 198.5,47.6 198.5,47.7 202.1,53.7 201.2,57.9 201.1,58.2 200.1,61 199.7,62.1 
				199.3,69.2 			"/>
			<path class="st20" d="M185.6,31.9c0,0,5.9-0.7,6.3,0.6c0.3,0.9,0.5,2.6,0.6,3.4c0,0.3,0.1,0.5,0.1,0.5l0.5,2.4
				c0.8,0.6,2.2,1.1,3.6,1.5l0.2-0.6c1.9,0.5,3.6,0.8,3.6,0.8l0.9-2.5l0.2-0.5l0,0l0,0l-0.2-0.9c0,0,0.1,0,0.1,0l-0.1-0.7
				c0.5,0,0.8-0.2,1.1-0.4c-0.6-0.6-1.4-1.9-1.4-1.9c0.1-0.1,0.1-0.3,0.2-0.4c0.3-0.7,0.4-1.3,0.3-1.9c-0.1-1.4-1.1-2.4-1.1-2.4
				c-9.7-6.7-13.6,0.1-14.6,2.4C185.7,31.6,185.6,31.9,185.6,31.9z"/>
			<ellipse transform="matrix(0.9903 -0.1388 0.1388 0.9903 -2.8924 26.9831)" class="st2" cx="192" cy="34.2" rx="1.6" ry="1.8"/>
			<path class="st2" d="M185.6,31.2c0,0,0.1,0,0.3,0c1.2-0.1,5.7-0.5,6,0.6c0.4,1.3,0.6,3.9,0.6,3.9l0.1,0.3l0.5,2.1
				c0.8,0.6,2.3,1.1,3.8,1.5c1.9,0.5,3.6,0.8,3.6,0.8l0.9-2.5l0.2-0.5l0,0l0,0l0.1-0.2l-0.1-0.3l-0.1-0.4l-0.1-0.7
				c0.5,0,0.8-0.2,1.1-0.4c0.2-0.2,0.3-0.5,0.3-0.5c-0.4-0.1-1.2-1.3-1.5-1.8c-0.1-0.2-0.2-0.3-0.2-0.3c0.3-0.6,0.5-1.1,0.5-1.6
				c0.2-1.8-1.1-3.1-1.1-3.1C188.9,20.2,185.6,31.2,185.6,31.2z"/>
			<path class="st10" d="M197.6,31.2c0,0,0.3,3.4,2.6,2c0,0,0-0.7-0.4-1.3c-0.2-0.3-0.6-0.6-1.1-0.7C198.4,31.2,198,31.2,197.6,31.2
				z"/>
			<g>
				<path d="M198.5,32.1c0,0.6,0.3,1.1,0.6,1.1c0.4,0,0.7-0.5,0.7-1.1c0-0.1,0-0.2,0-0.2c-0.2-0.3-0.5-0.6-1-0.7
					C198.7,31.4,198.5,31.8,198.5,32.1z"/>
				<ellipse class="st12" cx="199.2" cy="32.1" rx="0.5" ry="0.8"/>
				<ellipse class="st10" cx="199" cy="31.7" rx="0.2" ry="0.4"/>
			</g>
			<path d="M197.4,30.8c0.1,0.2,0.2,0.4,0.3,0.5c0.2,0,0.3,0,0.5,0c0.1,0,0.2,0,0.3,0c0.4,0,1.1,0.2,1.4,0.7
				c-0.3-0.3-1.1-0.5-1.7-0.5c-0.1,0-0.2,0-0.4,0c0,0.2,0.1,0.6,0.2,0.9c0.3,0.7,0.7,0.9,1.2,1.1c0.2,0,0.6,0,0.7,0
				c-0.2,0.2-0.5,0.3-1,0.2c-0.8-0.2-1.1-1.4-1.2-1.9C197.5,31.4,197.4,30.8,197.4,30.8z"/>
			<path class="st14" d="M199,29.6l1.7,0.8c0.1,0.1,0.1,0.3,0,0.4l-0.1,0.1l0.4-0.2c-0.1,0.2-0.7,0.5-0.7,0.5l-2.4-1.5
				C198.3,29.4,199,29.6,199,29.6z"/>
			<g>
				<path class="st21" d="M201.5,36.9v0.5l0.1-0.3L201.5,36.9C201.5,36.9,201.5,36.9,201.5,36.9z"/>
				<path class="st21" d="M201.3,37.9c-1.4-0.1-1.6-0.8-1.6-0.8c0.7-0.5,1.7-0.2,1.7-0.2v0.4v0.1L201.3,37.9z"/>
			</g>
			<circle class="st8" cx="200" cy="36.1" r="0.1"/>
			<g>
				<path class="st9" d="M192.6,34C192.6,34.1,192.7,34.1,192.6,34c0.1,0.1,0.1,0.1,0.1,0.1c0,0,0.1-0.1,0.1-0.1
					c-0.1-0.5-0.3-0.8-0.5-1c0,0,0,0,0,0c0,0,0,0,0,0c0,0,0,0-0.1,0c-0.4-0.2-0.7-0.1-0.7-0.1c0,0-0.1,0.1-0.1,0.1
					c0,0,0.1,0.1,0.1,0.1c0,0,0.3-0.1,0.5,0c-0.2,0.2-0.5,0.6-0.4,1.1c0.1,0.4,0.4,0.8,1,1.1c0,0,0,0,0,0c0,0,0.1,0,0.1,0
					c0,0,0-0.1,0-0.1c-0.6-0.3-0.9-0.6-0.9-1c-0.1-0.5,0.3-0.9,0.4-1C192.4,33.4,192.5,33.7,192.6,34z"/>
				<path class="st20" d="M192.8,33.9c0,0.1-0.1,0.1-0.2,0.1c-0.1,0-0.1,0-0.2,0c-0.2,0-0.4-0.2-0.4-0.4c0-0.2,0.1-0.3,0.2-0.3h0
					c0,0,0.1,0,0.1,0c0,0,0,0,0.1,0c0,0,0,0,0,0L192.8,33.9z"/>
			</g>
			<g>
				<path class="st14" d="M188.8,34.4c1.8,1,3.5,1.3,5.1,0.8c3-1,4.6-4.3,4.7-4.5l-0.6-0.3c0,0-1.5,3.2-4.3,4.1
					c-1.4,0.4-2.9,0.2-4.5-0.7L188.8,34.4z"/>
			</g>
			<path class="st14" d="M186.3,35.4l1.8,1.9c-1.9,2.7-0.6,5.6,0.6,7.4c1.5,2.2,2.1,5,1.6,7.6c-0.3,1.6-1,3.1-2.5,4.3
				c0,0,0.2-4.2-3.7-6.7c-1.1-0.7-2-1.6-2.6-2.8C178.2,40.4,186.3,35.4,186.3,35.4z"/>
			<path class="st15" d="M186.2,35.7c0,0-6.6,2.3-6.5,8.3c0.1,6.1,8.6,8,8.6,8"/>
			<path class="st14" d="M194,29.8c0,0-0.1,2.2-2,3.1c-1.9,0.9-2.5,3.8-2.5,3.8l-2.2-0.1l-4-6.2l4.2-5.1c0,0,5.4-1.3,5.7-1.3
				c0.3,0,2.5,2.3,2.5,2.3L194,29.8z"/>
			<path class="st14" d="M199.1,25.9c0,0,0.9,3.4-0.1,4.4c-1,1-3.8,1.6-3.8,1.6s-1.3,0.7-1.3,1.3c0,0.6-0.1,1.1-0.1,1.1
				s0-1.4-1.2-2.1l1.4-7.6L199.1,25.9z"/>
			<path class="st22" d="M191.8,37.1C191.8,37.1,191.8,37.1,191.8,37.1c-0.1,0-0.2-0.1-0.2-0.2l0.1-1.3c0-0.1,0.1-0.1,0.2-0.1
				c0.1,0,0.1,0.1,0.1,0.2l-0.1,1.3C191.9,37.1,191.8,37.1,191.8,37.1z"/>
			<path class="st18" d="M215.3,30.7c0,0-16.2,0.7-24.6-1.9s-20.5-9-20.5-9l15.4,2.4l2.7-5.3l12.6,2.7l0.3,5.5L215.3,30.7z"/>
			<polyline class="st7" points="201.1,25.1 193.6,25 185.6,22.2 186.9,19.6 194.3,21.7 201,22 201.1,25.1 			"/>
			<polygon class="st16" points="192.9,71.5 192.6,69.2 194.5,69.2 			"/>
		</g>
		<rect x="100.6" y="19.7" class="st23" width="39.7" height="41.1"/>
		<rect x="142.5" y="19.7" class="st23" width="39.7" height="41.1"/>
		<g>
			<g>
				<path class="st24" d="M166.3,19.8c1,0.6,1.8,1.2,2.6,2h-3.3c-1.5-0.9-3-1.6-4.3-2.1c-1.3-0.6-1-0.8-0.9-0.9
					c0.8-0.1,2.5,0,3.3,0.2c1.5,0.3,0.7,0.1,1.8,0.5C165.6,19.5,166.3,19.8,166.3,19.8z"/>
				<path class="st24" d="M181.3,19.5c-0.7,0.3-1.6,0.6-2.6,0.9c-1.2,0.4-2.5,1-3.8,1.9c0,0,0,0,0,0c-0.6-0.4-1.3-0.6-2.1-0.6
					c0.6-0.5,1.3-1,2-1.3c0.4-0.2,0.5-0.9,1.3-0.9c0.2-0.2,0.6-0.3,0.9-0.4C179.2,18.4,183.1,18.7,181.3,19.5z"/>
				<path class="st25" d="M211.7,107.1C211.7,107.1,211.7,107.1,211.7,107.1C211.7,107,211.7,107,211.7,107.1c0-0.2,0.2-0.3,0.3-0.4
					l5.4-1.6c0.3-0.1,0.3-0.3,0.3-0.4c0-0.1,0-0.3-0.3-0.4l-5.4-1.5c0,0,0,0,0,0c-0.1,0-0.1,0-0.2-0.1c0,0,0,0,0,0
					c0,0-0.1-0.1-0.1-0.1c0,0,0,0,0-0.1c0,0,0,0,0-0.1c0,0,0,0,0,0c0,0,0-0.1,0-0.1c0,0,0-0.1,0-0.1c0,0,0,0,0,0c0,0,0,0,0-0.1
					c0,0,0-0.1,0-0.1c0,0,0,0,0.1-0.1c0,0,0,0,0.1-0.1c0,0,0.1,0,0.1,0c0,0,0,0,0.1,0l5.4-1.6c0.3-0.1,0.3-0.3,0.3-0.4
					c0-0.1,0-0.3-0.3-0.4l-5.4-1.5c-0.3-0.1-0.4-0.4-0.3-0.6c0.1-0.3,0.3-0.4,0.6-0.4l5.4,1.5c0.6,0.2,1,0.7,1,1.4
					c0,0.7-0.4,1.2-1,1.4l-3.7,1.1l3.7,1c0.6,0.2,1,0.7,1,1.4c0,0.7-0.4,1.2-1,1.4l-3.7,1.1l3.7,1c0.6,0.2,1,0.7,1,1.4
					c0,0.7-0.4,1.2-1,1.4l-3.7,1.1l3.7,1c0.6,0.2,1,0.7,1,1.4c0,0.7-0.4,1.2-1,1.4l-5.4,1.6c0,0-0.1,0-0.1,0c-0.2,0-0.4-0.1-0.5-0.4
					c-0.1-0.3,0.1-0.6,0.3-0.6l5.4-1.6c0.3-0.1,0.3-0.3,0.3-0.4c0-0.1,0-0.3-0.3-0.4l-5.4-1.5c0,0,0,0,0,0c-0.1,0-0.1,0-0.2-0.1
					c0,0,0,0,0,0c0,0-0.1-0.1-0.1-0.1c0,0,0,0,0-0.1c0,0,0,0,0-0.1c0,0,0,0,0,0c0,0,0-0.1,0-0.1c0,0,0-0.1,0-0.1c0,0,0,0,0,0
					c0,0,0,0,0-0.1c0,0,0-0.1,0-0.1c0,0,0,0,0.1-0.1c0,0,0,0,0.1-0.1c0,0,0.1,0,0.1,0c0,0,0,0,0.1,0l5.4-1.6
					c0.3-0.1,0.3-0.3,0.3-0.4c0-0.1,0-0.3-0.3-0.4l-5.4-1.5c-0.2-0.1-0.3-0.2-0.3-0.4c0,0,0,0,0,0c0,0,0,0,0,0c0,0,0-0.1,0-0.1
					C211.7,107.1,211.7,107.1,211.7,107.1z"/>
				<path class="st25" d="M48.5,107.1C48.5,107.1,48.5,107.1,48.5,107.1C48.5,107,48.5,107,48.5,107.1c0-0.2,0.2-0.3,0.3-0.4
					l5.4-1.6c0.3-0.1,0.3-0.3,0.3-0.4c0-0.1,0-0.3-0.3-0.4l-5.4-1.5c0,0,0,0,0,0c-0.1,0-0.1,0-0.2-0.1c0,0,0,0,0,0
					c0,0-0.1-0.1-0.1-0.1c0,0,0,0,0-0.1c0,0,0,0,0-0.1c0,0,0,0,0,0c0,0,0-0.1,0-0.1c0,0,0-0.1,0-0.1c0,0,0,0,0,0c0,0,0,0,0-0.1
					c0,0,0-0.1,0-0.1c0,0,0,0,0.1-0.1c0,0,0,0,0.1-0.1c0,0,0.1,0,0.1,0c0,0,0,0,0.1,0l5.4-1.6c0.3-0.1,0.3-0.3,0.3-0.4
					c0-0.1,0-0.3-0.3-0.4l-5.4-1.5c-0.3-0.1-0.4-0.4-0.3-0.6c0.1-0.3,0.3-0.4,0.6-0.4l5.4,1.5c0.6,0.2,1,0.7,1,1.4
					c0,0.7-0.4,1.2-1,1.4l-3.7,1.1l3.7,1c0.6,0.2,1,0.7,1,1.4c0,0.7-0.4,1.2-1,1.4l-3.7,1.1l3.7,1c0.6,0.2,1,0.7,1,1.4
					c0,0.7-0.4,1.2-1,1.4l-3.7,1.1l3.7,1c0.6,0.2,1,0.7,1,1.4c0,0.7-0.4,1.2-1,1.4l-5.4,1.6c0,0-0.1,0-0.1,0c-0.2,0-0.4-0.1-0.5-0.4
					c-0.1-0.3,0.1-0.6,0.3-0.6l5.4-1.6c0.3-0.1,0.3-0.3,0.3-0.4c0-0.1,0-0.3-0.3-0.4l-5.4-1.5c0,0,0,0,0,0c-0.1,0-0.1,0-0.2-0.1
					c0,0,0,0,0,0c0,0-0.1-0.1-0.1-0.1c0,0,0,0,0-0.1c0,0,0,0,0-0.1c0,0,0,0,0,0c0,0,0-0.1,0-0.1c0,0,0-0.1,0-0.1c0,0,0,0,0,0
					c0,0,0,0,0-0.1c0,0,0-0.1,0-0.1c0,0,0,0,0.1-0.1c0,0,0,0,0.1-0.1c0,0,0.1,0,0.1,0c0,0,0,0,0.1,0l5.4-1.6
					c0.3-0.1,0.3-0.3,0.3-0.4c0-0.1,0-0.3-0.3-0.4l-5.4-1.5c-0.2-0.1-0.3-0.2-0.3-0.4c0,0,0,0,0,0c0,0,0,0,0,0c0,0,0-0.1,0-0.1
					C48.5,107.1,48.5,107.1,48.5,107.1z"/>
				<ellipse class="st26" cx="215.9" cy="126.7" rx="18" ry="18.8"/>
				<path class="st10" d="M215.9,114.7c6.2,0,11.2,5.3,11.2,11.9c0,6.5-5,11.9-11.2,11.9s-11.2-5.3-11.2-11.9
					C204.7,120,209.7,114.7,215.9,114.7 M215.9,111.5c-7.9,0-14.4,6.7-14.4,15.1c0,8.3,6.4,15.1,14.4,15.1c7.9,0,14.4-6.7,14.4-15.1
					C230.2,118.2,223.8,111.5,215.9,111.5L215.9,111.5z"/>
				<ellipse class="st27" cx="215.9" cy="126.4" rx="6.2" ry="6.5"/>
				<ellipse class="st26" cx="52.6" cy="126.7" rx="18" ry="18.8"/>
				<path class="st10" d="M52.6,114.7c6.2,0,11.2,5.3,11.2,11.9c0,6.5-5,11.9-11.2,11.9s-11.2-5.3-11.2-11.9
					C41.5,120,46.5,114.7,52.6,114.7 M52.6,111.5c-7.9,0-14.4,6.7-14.4,15.1c0,8.3,6.4,15.1,14.4,15.1c7.9,0,14.4-6.7,14.4-15.1
					C67,118.2,60.6,111.5,52.6,111.5L52.6,111.5z"/>
				<ellipse class="st27" cx="52.6" cy="126.4" rx="6.2" ry="6.5"/>
				<g>
					<path class="st10" d="M19.3,10.8l4.9-3.3c8.4-5.8,14.4-6.8,24-6.8H224c5.7,0,11.3,3.9,14.4,10.1H19.3z"/>
					<path class="st26" d="M224,1.3c5.1,0,10.2,3.4,13.3,8.8H21.5l3.1-2.1c8.2-5.7,14.2-6.7,23.7-6.7H224 M224,0H48.3
						c-9.6,0-15.8,1-24.4,7l-6.7,4.5h222.4C236.3,4.4,230.2,0,224,0L224,0z"/>
				</g>
				<g>
					<path class="st14" d="M112.7,46.5c-0.2,0-0.3-0.1-0.4-0.2c-0.3-0.3-0.3-0.8,0-1.1l14-15.4c0.1-0.1,0.3-0.2,0.4-0.2
						c0.2,0,0.3,0.1,0.4,0.2c0.3,0.3,0.3,0.8,0,1.1l-14,15.4C113,46.4,112.9,46.5,112.7,46.5z"/>
					<path class="st26" d="M126.7,30.4C126.7,30.4,126.7,30.4,126.7,30.4l-13.9,15.4c0,0,0-0.1,0-0.1L126.7,30.4 M126.7,29
						c-0.3,0-0.7,0.1-0.9,0.4l-14,15.4c-0.5,0.5-0.5,1.4,0,2c0.2,0.3,0.6,0.4,0.9,0.4c0.3,0,0.7-0.2,0.9-0.4l14-15.4
						c0.5-0.5,0.5-1.4,0-2C127.4,29.1,127,29,126.7,29L126.7,29z"/>
				</g>
				<g>
					<path class="st14" d="M118.2,45.8c-0.2,0-0.3-0.1-0.4-0.2c-0.3-0.3-0.3-0.8,0-1.1l9.5-10.4c0.1-0.1,0.3-0.2,0.4-0.2
						c0.2,0,0.3,0.1,0.4,0.2c0.3,0.3,0.3,0.8,0,1.1l-9.5,10.4C118.5,45.7,118.4,45.8,118.2,45.8z"/>
					<path class="st26" d="M127.6,34.7C127.6,34.7,127.6,34.7,127.6,34.7l-9.4,10.4c0,0,0,0,0-0.1L127.6,34.7 M127.7,33.3
						c-0.3,0-0.7,0.1-0.9,0.4l-9.5,10.4c-0.5,0.5-0.5,1.4,0,2c0.2,0.3,0.6,0.4,0.9,0.4c0.3,0,0.7-0.2,0.9-0.4l9.5-10.4
						c0.5-0.5,0.5-1.4,0-2C128.4,33.4,128,33.3,127.7,33.3L127.7,33.3z"/>
				</g>
				<g>
					<path class="st14" d="M11.5,133.4c-2,0-3.7-2.4-3.7-5.3v-67c0-1.9,0.2-3.8,0.5-5.7L15,16.5c0.3-1.9,1.2-3.4,2.4-4.4h221.7
						c0.1,0.3,0.3,0.6,0.4,0.9l17,40.5c2.5,6.5,4.5,16.3,5.5,26.9c-0.4,0-0.8,0-1.1,0.1c-6.1,0.7-10.7,6.3-10.7,13
						c0,6.9,5,12.7,11.3,13c0.2,0,0.4,0,0.7,0c0.2,0,0.4,0,0.6,0v12.6c0,1.1,0,2-0.1,2.8c-1,10.4-7.7,11.2-17.8,11.2
						c-0.6,0-1.2-0.1-1.8-0.3c-0.6-0.2-1.2-0.6-1.8-1.1c-1.1-1-2-2.3-2.6-4l-4.8-13.4c-2.3-6.3-6.9-10.2-12.1-10.2h-12.1
						c-5.4,0-10.2,4-12.7,10.4l-5.4,13.9c-1,2.6-3,4.4-5.1,4.5c-0.1,0-0.2,0-0.3,0H83.7c-1.4,0-2.7-1.2-3.3-3l-3.9-11.8
						c-0.8-2.4-2.6-3.9-4.6-3.9H32.4c-2.1,0-3.9,1.6-4.7,4.2l-2.3,7.6l-1.2,4.1c-0.6,1.9-1.9,3.2-3.4,3.2H11.5z M147.3,21.2
						c-2.7,0-4.9,2.2-4.9,4.9v25.7c0,2.7,2.2,4.9,4.9,4.9h25.4c2.7,0,4.9-2.2,4.9-4.9V26.1c0-1.8-0.9-3.4-2.5-4.3
						c-0.7-0.4-1.5-0.7-2.4-0.7l-0.2,0l-0.2,0.2c-0.6,0.5-1.1,1-1.5,1.6c-0.1,0-0.1-0.1-0.2-0.1l-0.1-0.1c-0.3-0.4-0.7-0.9-1.2-1.3
						l-0.2-0.2H147.3z M107.9,21.2c-2.7,0-4.9,2.2-4.9,4.9v25.7c0,2.7,2.2,4.9,4.9,4.9h25.4c2.7,0,4.9-2.2,4.9-4.9V26.1
						c0-2.7-2.2-4.9-4.9-4.9H107.9z M192.3,17.7c-2.8,0-5.1,2.9-5.1,6.5v22.5c0,0.3,0,0.7,0.1,1c0.4,3.2,2.5,5.5,5.1,5.5h53.8
						c1.7,0,3-1.7,3.1-3.8c0-0.7-0.1-1.4-0.4-2l-12.4-27.8c-0.5-1.2-1.6-2-2.7-2H192.3z M152.1,46.5c-0.2,0-0.3-0.1-0.4-0.2
						c-0.1-0.1-0.2-0.3-0.2-0.5s0.1-0.4,0.2-0.5l14-15.4c0.1-0.1,0.3-0.2,0.4-0.2c0.2,0,0.3,0.1,0.4,0.2c0.1,0.1,0.2,0.3,0.2,0.5
						s-0.1,0.4-0.2,0.5l-14,15.4C152.4,46.4,152.3,46.5,152.1,46.5z M157.6,45.8c-0.2,0-0.3-0.1-0.4-0.2c-0.1-0.1-0.2-0.3-0.2-0.5
						s0.1-0.4,0.2-0.5l9.5-10.4c0.2-0.2,0.3-0.2,0.4-0.2c0.2,0,0.3,0.1,0.4,0.2c0.1,0.1,0.2,0.3,0.2,0.5c0,0.2-0.1,0.4-0.2,0.5
						l-9.5,10.4C158,45.7,157.8,45.8,157.6,45.8z M201.9,42.4c-0.2,0-0.3-0.1-0.4-0.2c-0.1-0.2-0.2-0.3-0.2-0.5
						c0-0.2,0.1-0.4,0.2-0.5l14-15.4c0.1-0.1,0.3-0.2,0.4-0.2c0.2,0,0.3,0.1,0.4,0.2c0.1,0.1,0.2,0.3,0.2,0.5s-0.1,0.4-0.2,0.5
						l-14,15.4C202.3,42.3,202.1,42.4,201.9,42.4z M207.5,41.7c-0.2,0-0.3-0.1-0.4-0.2c-0.1-0.1-0.2-0.3-0.2-0.5s0.1-0.4,0.2-0.5
						l9.5-10.4c0.1-0.1,0.3-0.2,0.4-0.2c0.1,0,0.3,0,0.4,0.2c0.1,0.1,0.2,0.3,0.2,0.5s-0.1,0.4-0.2,0.5l-9.5,10.4
						C207.8,41.6,207.6,41.7,207.5,41.7z"/>
					<path class="st26" d="M238.6,12.8c0.1,0.2,0.1,0.3,0.2,0.5l0,0l0,0l17,40.4c2.4,6.3,4.4,15.8,5.4,26.1c-0.2,0-0.3,0-0.5,0
						c-6.5,0.7-11.3,6.6-11.3,13.7c0,7.3,5.2,13.3,11.9,13.7c0.2,0,0.4,0,0.6,0v11.9c0,1,0,1.9-0.1,2.7c-0.9,9.8-7.1,10.5-17.1,10.5
						c-0.5,0-1-0.1-1.6-0.3c-0.6-0.2-1.1-0.5-1.6-1c-1-0.9-1.9-2.2-2.4-3.7l-4.8-13.4c-2.4-6.6-7.2-10.6-12.7-10.6h-12.1
						c-5.7,0-10.8,4.2-13.3,10.9l-5.4,13.9c-0.9,2.4-2.6,4-4.5,4.1c-0.1,0-0.2,0-0.3,0H83.7c-1.1,0-2.2-1-2.7-2.6l-3.9-11.8
						c-0.9-2.7-2.9-4.4-5.2-4.4H32.4c-2.4,0-4.5,1.8-5.3,4.6l-2.3,7.5l-0.1,0.2l-1.2,4c-0.5,1.6-1.6,2.7-2.7,2.7h-9.3
						c-1.6,0-3-2.1-3-4.6v-67c0-1.9,0.2-3.7,0.5-5.6l6.7-38.9c0.3-1.6,1-3,2-3.8H238.6 M192.3,54h53.8c2.1,0,3.7-1.9,3.8-4.4
						c0-0.8-0.1-1.6-0.5-2.3L237,19.4c-0.7-1.5-1.9-2.4-3.3-2.4h-41.4c-3.2,0-5.8,3.2-5.8,7.2v22.5c0,0.4,0,0.8,0.1,1.1
						C187,51.4,189.4,54,192.3,54 M170.8,21.9c-0.3-0.3-0.6-0.7-0.9-1l-0.4-0.4h-0.5h-21.6c-3.1,0-5.6,2.5-5.6,5.6v25.7
						c0,3.1,2.5,5.6,5.6,5.6h25.4c3.1,0,5.6-2.5,5.6-5.6V26.1c0-2-1.1-3.8-2.8-4.8c-0.8-0.5-1.8-0.8-2.8-0.8l-0.5,0l-0.4,0.3
						C171.5,21.1,171.1,21.5,170.8,21.9 M107.9,57.4h25.4c3.1,0,5.6-2.5,5.6-5.6V26.1c0-3.1-2.5-5.6-5.6-5.6h-25.4
						c-3.1,0-5.6,2.5-5.6,5.6v25.7C102.3,54.9,104.8,57.4,107.9,57.4 M215.9,26.3C215.9,26.3,215.9,26.3,215.9,26.3L202,41.6
						c0,0,0,0,0-0.1L215.9,26.3 M166.1,30.4C166.1,30.4,166.1,30.4,166.1,30.4l-13.9,15.3c0,0,0-0.1,0-0.1L166.1,30.4 M216.9,30.6
						C216.9,30.6,216.9,30.6,216.9,30.6l-9.4,10.4c0,0,0-0.1,0-0.1L216.9,30.6 M167.1,34.7C167.1,34.7,167,34.7,167.1,34.7
						l-9.4,10.4c0,0,0-0.1,0-0.1L167.1,34.7 M239.5,11.5H17.1c-1.4,1-2.5,2.8-2.8,4.9L7.6,55.3c-0.3,1.9-0.5,3.8-0.5,5.8v67
						c0,3.3,1.9,6,4.4,6h9.3c1.8,0,3.4-1.5,4-3.7l1.3-4.2c0,0,0,0,0,0l2.3-7.5c0.7-2.2,2.3-3.7,4-3.7h39.5c1.7,0,3.3,1.4,4,3.5
						l3.9,11.8c0.7,2.1,2.3,3.5,4,3.5H186c0.1,0,0.2,0,0.4,0c2.4-0.2,4.5-2,5.7-5l5.4-13.9c2.4-6.1,7-10,12.1-10h12.1
						c4.9,0,9.3,3.8,11.4,9.7l4.8,13.4c0.6,1.8,1.6,3.2,2.8,4.2c0.6,0.5,1.3,0.9,2,1.2c0.7,0.2,1.3,0.4,2,0.4
						c9.5,0,17.4-0.4,18.5-11.8c0.1-0.9,0.1-1.8,0.1-2.9v-13.3c-0.4,0.1-0.8,0.1-1.2,0.1c-0.2,0-0.4,0-0.6,0
						c-5.9-0.4-10.7-5.8-10.7-12.4c0-6.4,4.4-11.7,10.1-12.3c0.4,0,0.8-0.1,1.1-0.1c0.2,0,0.4,0,0.7,0c-0.9-9.8-2.8-20.5-5.6-27.9
						l-17-40.4C239.9,12.4,239.7,11.9,239.5,11.5L239.5,11.5z M192.3,52.6c-2.2,0-4.1-2.2-4.4-4.9c0-0.3-0.1-0.6-0.1-0.9V24.2
						c0-3.2,2-5.9,4.5-5.9h41.4c0.9,0,1.7,0.6,2.1,1.6l12.4,27.8c0.2,0.6,0.4,1.2,0.3,1.7c0,1.6-1,3.1-2.4,3.1H192.3L192.3,52.6z
						 M171,23.8c0.5-0.8,1.1-1.4,1.7-2c0.8,0,1.5,0.2,2.1,0.6c1.3,0.7,2.1,2.1,2.1,3.7v25.7c0,2.4-1.9,4.3-4.3,4.3h-25.4
						c-2.4,0-4.3-1.9-4.3-4.3V26.1c0-2.3,1.9-4.3,4.3-4.3h21.6c0.4,0.4,0.8,0.8,1.2,1.3c0.2,0.3,0,0.1,0.7,0.5
						C170.9,23.7,170.9,23.7,171,23.8L171,23.8z M107.9,56.1c-2.4,0-4.3-1.9-4.3-4.3V26.1c0-2.3,1.9-4.3,4.3-4.3h25.4
						c2.4,0,4.3,1.9,4.3,4.3v25.7c0,2.4-1.9,4.3-4.3,4.3H107.9L107.9,56.1z M216,24.9c-0.3,0-0.7,0.1-0.9,0.4l-14,15.4
						c-0.2,0.3-0.4,0.6-0.4,1c0-0.4,0.1-0.7,0.4-1l14-15.4C215.3,25,215.6,24.9,216,24.9s0.7,0.1,0.9,0.4c0.2,0.3,0.4,0.6,0.4,1
						c0-0.4-0.1-0.7-0.4-1C216.6,25,216.3,24.9,216,24.9L216,24.9z M216,24.9c-0.3,0-0.7,0.1-0.9,0.4l-14,15.4
						c-0.2,0.3-0.4,0.6-0.4,1c0-0.4,0.1-0.7,0.4-1l14-15.4C215.3,25,215.6,24.9,216,24.9s0.7,0.1,0.9,0.4c0.2,0.3,0.4,0.6,0.4,1
						c0-0.4-0.1-0.7-0.4-1C216.6,25,216.3,24.9,216,24.9L216,24.9z M216,24.9c-0.3,0-0.7,0.1-0.9,0.4l-14,15.4
						c-0.2,0.3-0.4,0.6-0.4,1c0-0.4,0.1-0.7,0.4-1l14-15.4C215.3,25,215.6,24.9,216,24.9s0.7,0.1,0.9,0.4c0.2,0.3,0.4,0.6,0.4,1
						c0-0.4-0.1-0.7-0.4-1C216.6,25,216.3,24.9,216,24.9L216,24.9z M216,24.9c-0.3,0-0.7,0.1-0.9,0.4l-14,15.4
						c-0.2,0.3-0.4,0.6-0.4,1c0,0.4,0.1,0.7,0.4,1c0.2,0.3,0.6,0.4,0.9,0.4c0.4,0,0.7-0.2,0.9-0.4l14-15.4c0.2-0.3,0.4-0.6,0.4-1
						c0-0.4-0.1-0.7-0.4-1C216.6,25,216.3,24.9,216,24.9L216,24.9z M217.3,26.3c0,0.4-0.1,0.7-0.4,1l-14,15.4
						c-0.2,0.3-0.6,0.4-0.9,0.4c-0.4,0-0.7-0.2-0.9-0.4c-0.2-0.3-0.4-0.6-0.4-1c0,0.4,0.1,0.7,0.4,1c0.2,0.3,0.6,0.4,0.9,0.4
						c0.4,0,0.7-0.2,0.9-0.4l14-15.4C217.1,27,217.3,26.6,217.3,26.3L217.3,26.3z M217.3,26.3c0,0.4-0.1,0.7-0.4,1l-14,15.4
						c-0.2,0.3-0.6,0.4-0.9,0.4c-0.4,0-0.7-0.2-0.9-0.4c-0.2-0.3-0.4-0.6-0.4-1c0,0.4,0.1,0.7,0.4,1c0.2,0.3,0.6,0.4,0.9,0.4
						c0.4,0,0.7-0.2,0.9-0.4l14-15.4C217.1,27,217.3,26.6,217.3,26.3L217.3,26.3z M217.3,26.3c0,0.4-0.1,0.7-0.4,1l-14,15.4
						c-0.2,0.3-0.6,0.4-0.9,0.4c-0.4,0-0.7-0.2-0.9-0.4c-0.2-0.3-0.4-0.6-0.4-1c0,0.4,0.1,0.7,0.4,1c0.2,0.3,0.6,0.4,0.9,0.4
						c0.4,0,0.7-0.2,0.9-0.4l14-15.4C217.1,27,217.3,26.6,217.3,26.3L217.3,26.3z M166.1,29c-0.3,0-0.7,0.1-0.9,0.4l-14,15.4
						c-0.2,0.3-0.4,0.6-0.4,1c0-0.4,0.1-0.7,0.4-1l14-15.4C165.4,29.1,165.8,29,166.1,29s0.7,0.1,0.9,0.4c0.2,0.3,0.4,0.6,0.4,1
						c0-0.4-0.1-0.7-0.4-1C166.8,29.1,166.5,29,166.1,29L166.1,29z M166.1,29c-0.3,0-0.7,0.1-0.9,0.4l-14,15.4
						c-0.2,0.3-0.4,0.6-0.4,1c0-0.4,0.1-0.7,0.4-1l14-15.4C165.4,29.1,165.8,29,166.1,29s0.7,0.1,0.9,0.4c0.2,0.3,0.4,0.6,0.4,1
						c0-0.4-0.1-0.7-0.4-1C166.8,29.1,166.5,29,166.1,29L166.1,29z M166.1,29c-0.3,0-0.7,0.1-0.9,0.4l-14,15.4
						c-0.2,0.3-0.4,0.6-0.4,1c0-0.4,0.1-0.7,0.4-1l14-15.4C165.4,29.1,165.8,29,166.1,29s0.7,0.1,0.9,0.4c0.2,0.3,0.4,0.6,0.4,1
						c0-0.4-0.1-0.7-0.4-1C166.8,29.1,166.5,29,166.1,29L166.1,29z M166.1,29c-0.3,0-0.7,0.1-0.9,0.4l-14,15.4
						c-0.2,0.3-0.4,0.6-0.4,1c0-0.4,0.1-0.7,0.4-1l14-15.4C165.4,29.1,165.8,29,166.1,29s0.7,0.1,0.9,0.4c0.2,0.3,0.4,0.6,0.4,1
						c0-0.4-0.1-0.7-0.4-1C166.8,29.1,166.5,29,166.1,29L166.1,29z M166.1,29c-0.3,0-0.7,0.1-0.9,0.4l-14,15.4
						c-0.2,0.3-0.4,0.6-0.4,1c0,0.4,0.1,0.7,0.4,1c0.2,0.3,0.6,0.4,0.9,0.4c0.4,0,0.7-0.1,0.9-0.4l14-15.4c0.2-0.3,0.4-0.6,0.4-1
						c0-0.4-0.1-0.7-0.4-1C166.8,29.1,166.5,29,166.1,29L166.1,29z M216.9,29.2c-0.3,0-0.7,0.1-0.9,0.4L206.5,40
						c-0.2,0.3-0.4,0.6-0.4,1c0-0.4,0.1-0.7,0.4-1l9.5-10.4C216.2,29.3,216.6,29.2,216.9,29.2s0.7,0.1,0.9,0.4
						c0.2,0.3,0.4,0.6,0.4,1c0-0.4-0.1-0.7-0.4-1C217.6,29.3,217.3,29.2,216.9,29.2L216.9,29.2z M216.9,29.2c-0.3,0-0.7,0.1-0.9,0.4
						L206.5,40c-0.2,0.3-0.4,0.6-0.4,1c0-0.4,0.1-0.7,0.4-1l9.5-10.4C216.2,29.3,216.6,29.2,216.9,29.2s0.7,0.1,0.9,0.4
						c0.2,0.3,0.4,0.6,0.4,1c0-0.4-0.1-0.7-0.4-1C217.6,29.3,217.3,29.2,216.9,29.2L216.9,29.2z M216.9,29.2c-0.3,0-0.7,0.1-0.9,0.4
						L206.5,40c-0.2,0.3-0.4,0.6-0.4,1c0-0.4,0.1-0.7,0.4-1l9.5-10.4C216.2,29.3,216.6,29.2,216.9,29.2s0.7,0.1,0.9,0.4
						c0.2,0.3,0.4,0.6,0.4,1c0-0.4-0.1-0.7-0.4-1C217.6,29.3,217.3,29.2,216.9,29.2L216.9,29.2z M216.9,29.2c-0.3,0-0.7,0.1-0.9,0.4
						L206.5,40c-0.2,0.3-0.4,0.6-0.4,1s0.1,0.7,0.4,1c0.2,0.3,0.6,0.4,0.9,0.4c0.3,0,0.7-0.1,0.9-0.4l9.5-10.4
						c0.2-0.3,0.4-0.6,0.4-1s-0.1-0.7-0.4-1C217.6,29.3,217.3,29.2,216.9,29.2L216.9,29.2z M167.4,30.4c0,0.4-0.1,0.7-0.4,1
						l-14,15.4c-0.2,0.3-0.6,0.4-0.9,0.4c-0.4,0-0.7-0.1-0.9-0.4c-0.2-0.3-0.4-0.6-0.4-1c0,0.4,0.1,0.7,0.4,1
						c0.2,0.3,0.6,0.4,0.9,0.4c0.4,0,0.7-0.1,0.9-0.4l14-15.4C167.3,31.1,167.4,30.7,167.4,30.4L167.4,30.4z M167.4,30.4
						c0,0.4-0.1,0.7-0.4,1l-14,15.4c-0.2,0.3-0.6,0.4-0.9,0.4c-0.4,0-0.7-0.1-0.9-0.4c-0.2-0.3-0.4-0.6-0.4-1c0,0.4,0.1,0.7,0.4,1
						c0.2,0.3,0.6,0.4,0.9,0.4c0.4,0,0.7-0.1,0.9-0.4l14-15.4C167.3,31.1,167.4,30.7,167.4,30.4L167.4,30.4z M167.4,30.4
						c0,0.4-0.1,0.7-0.4,1l-14,15.4c-0.2,0.3-0.6,0.4-0.9,0.4c-0.4,0-0.7-0.1-0.9-0.4c-0.2-0.3-0.4-0.6-0.4-1c0,0.4,0.1,0.7,0.4,1
						c0.2,0.3,0.6,0.4,0.9,0.4c0.4,0,0.7-0.1,0.9-0.4l14-15.4C167.3,31.1,167.4,30.7,167.4,30.4L167.4,30.4z M167.4,30.4
						c0,0.4-0.1,0.7-0.4,1l-14,15.4c-0.2,0.3-0.6,0.4-0.9,0.4c-0.4,0-0.7-0.1-0.9-0.4c-0.2-0.3-0.4-0.6-0.4-1c0,0.4,0.1,0.7,0.4,1
						c0.2,0.3,0.6,0.4,0.9,0.4c0.4,0,0.7-0.1,0.9-0.4l14-15.4C167.3,31.1,167.4,30.7,167.4,30.4L167.4,30.4z M218.2,30.5
						c0,0.4-0.1,0.7-0.4,1l-9.5,10.4c-0.2,0.3-0.6,0.4-0.9,0.4c-0.4,0-0.7-0.1-0.9-0.4c-0.2-0.3-0.4-0.6-0.4-1c0,0.4,0.1,0.7,0.4,1
						c0.2,0.3,0.6,0.4,0.9,0.4c0.3,0,0.7-0.1,0.9-0.4l9.5-10.4C218.1,31.3,218.2,30.9,218.2,30.5L218.2,30.5z M218.2,30.5
						c0,0.4-0.1,0.7-0.4,1l-9.5,10.4c-0.2,0.3-0.6,0.4-0.9,0.4c-0.4,0-0.7-0.1-0.9-0.4c-0.2-0.3-0.4-0.6-0.4-1c0,0.4,0.1,0.7,0.4,1
						c0.2,0.3,0.6,0.4,0.9,0.4c0.3,0,0.7-0.1,0.9-0.4l9.5-10.4C218.1,31.3,218.2,30.9,218.2,30.5L218.2,30.5z M218.2,30.5
						c0,0.4-0.1,0.7-0.4,1l-9.5,10.4c-0.2,0.3-0.6,0.4-0.9,0.4c-0.4,0-0.7-0.1-0.9-0.4c-0.2-0.3-0.4-0.6-0.4-1c0,0.4,0.1,0.7,0.4,1
						c0.2,0.3,0.6,0.4,0.9,0.4c0.3,0,0.7-0.1,0.9-0.4l9.5-10.4C218.1,31.3,218.2,30.9,218.2,30.5L218.2,30.5z M167.1,33.3
						c-0.3,0-0.7,0.1-0.9,0.4l-9.5,10.4c-0.2,0.3-0.4,0.6-0.4,1c0-0.4,0.1-0.7,0.4-1l9.5-10.4C166.4,33.4,166.8,33.3,167.1,33.3
						s0.7,0.1,0.9,0.4c0.2,0.3,0.4,0.6,0.4,1c0-0.4-0.1-0.7-0.4-1C167.8,33.4,167.4,33.3,167.1,33.3L167.1,33.3z M167.1,33.3
						c-0.3,0-0.7,0.1-0.9,0.4l-9.5,10.4c-0.2,0.3-0.4,0.6-0.4,1c0-0.4,0.1-0.7,0.4-1l9.5-10.4C166.4,33.4,166.8,33.3,167.1,33.3
						s0.7,0.1,0.9,0.4c0.2,0.3,0.4,0.6,0.4,1c0-0.4-0.1-0.7-0.4-1C167.8,33.4,167.4,33.3,167.1,33.3L167.1,33.3z M167.1,33.3
						c-0.3,0-0.7,0.1-0.9,0.4l-9.5,10.4c-0.2,0.3-0.4,0.6-0.4,1c0-0.4,0.1-0.7,0.4-1l9.5-10.4C166.4,33.4,166.8,33.3,167.1,33.3
						s0.7,0.1,0.9,0.4c0.2,0.3,0.4,0.6,0.4,1c0-0.4-0.1-0.7-0.4-1C167.8,33.4,167.4,33.3,167.1,33.3L167.1,33.3z M167.1,33.3
						c-0.3,0-0.7,0.1-0.9,0.4l-9.5,10.4c-0.2,0.3-0.4,0.6-0.4,1c0-0.4,0.1-0.7,0.4-1l9.5-10.4C166.4,33.4,166.8,33.3,167.1,33.3
						s0.7,0.1,0.9,0.4c0.2,0.3,0.4,0.6,0.4,1c0-0.4-0.1-0.7-0.4-1C167.8,33.4,167.4,33.3,167.1,33.3L167.1,33.3z M167.1,33.3
						c-0.3,0-0.7,0.1-0.9,0.4l-9.5,10.4c-0.2,0.3-0.4,0.6-0.4,1c0,0.4,0.1,0.7,0.4,1c0.2,0.3,0.6,0.4,0.9,0.4c0.4,0,0.7-0.2,0.9-0.4
						l9.5-10.4c0.2-0.3,0.4-0.6,0.4-1s-0.1-0.7-0.4-1C167.8,33.4,167.4,33.3,167.1,33.3L167.1,33.3z M168.4,34.7
						c0,0.4-0.1,0.7-0.4,1l-9.5,10.4c-0.2,0.3-0.6,0.4-0.9,0.4c-0.3,0-0.7-0.2-0.9-0.4c-0.2-0.3-0.4-0.6-0.4-1c0,0.4,0.1,0.7,0.4,1
						c0.2,0.3,0.6,0.4,0.9,0.4c0.4,0,0.7-0.2,0.9-0.4l9.5-10.4C168.3,35.4,168.4,35,168.4,34.7L168.4,34.7z M168.4,34.7
						c0,0.4-0.1,0.7-0.4,1l-9.5,10.4c-0.2,0.3-0.6,0.4-0.9,0.4c-0.3,0-0.7-0.2-0.9-0.4c-0.2-0.3-0.4-0.6-0.4-1c0,0.4,0.1,0.7,0.4,1
						c0.2,0.3,0.6,0.4,0.9,0.4c0.4,0,0.7-0.2,0.9-0.4l9.5-10.4C168.3,35.4,168.4,35,168.4,34.7L168.4,34.7z M168.4,34.7
						c0,0.4-0.1,0.7-0.4,1l-9.5,10.4c-0.2,0.3-0.6,0.4-0.9,0.4c-0.3,0-0.7-0.2-0.9-0.4c-0.2-0.3-0.4-0.6-0.4-1c0,0.4,0.1,0.7,0.4,1
						c0.2,0.3,0.6,0.4,0.9,0.4c0.4,0,0.7-0.2,0.9-0.4l9.5-10.4C168.3,35.4,168.4,35,168.4,34.7L168.4,34.7z M168.4,34.7
						c0,0.4-0.1,0.7-0.4,1l-9.5,10.4c-0.2,0.3-0.6,0.4-0.9,0.4c-0.3,0-0.7-0.2-0.9-0.4c-0.2-0.3-0.4-0.6-0.4-1c0,0.4,0.1,0.7,0.4,1
						c0.2,0.3,0.6,0.4,0.9,0.4c0.4,0,0.7-0.2,0.9-0.4l9.5-10.4C168.3,35.4,168.4,35,168.4,34.7L168.4,34.7z"/>
				</g>
				<path class="st28" d="M250.2,93.5c0-6.8,5.3-12.4,11.8-12.4c0.2,0,0.4,0,0.7,0c0.4,4.3,0.6,8.4,0.6,12.1v12.6
					c-0.4,0-0.8,0.1-1.3,0.1C255.5,105.9,250.2,100.4,250.2,93.5z"/>
				<path class="st29" d="M248.5,49.5v25.9c0,2.6-0.5,5.1-1.5,7.5l-4.4,10.5c-0.9,2.1-2.8,3.4-5,3.4h-25.4h-19.5
					c-2.7,0-4.8-2.3-4.8-5.1V47.7h0.1"/>
				<line class="st30" x1="186.8" y1="124.4" x2="85.3" y2="124.4"/>
				<line class="st30" x1="96.8" y1="18.4" x2="28" y2="18.4"/>
				<g>
					<path class="st10" d="M11.5,133.4c-2,0-3.7-2.4-3.7-5.3V75.7h134.7c0.3,0,34.8,3.2,47.5,54.2c-1.2,1.9-2.4,3.2-3.9,3.2H83.7
						c-1.4,0-2.7-1.2-3.3-3l-3.9-11.8c-0.8-2.4-2.6-3.9-4.6-3.9H32.4c-2.1,0-3.9,1.6-4.7,4.2l-3.6,11.7c-0.6,1.9-1.9,3.2-3.4,3.2
						H11.5z"/>
					<path class="st26" d="M142.4,76.4c0.7,0.1,9,1,18.7,7.7c16.6,11.5,24.4,31.1,28.1,45.7c-1.2,1.9-2.2,2.6-3.2,2.6H83.7
						c-1.1,0-2.2-1-2.7-2.6l-3.9-11.8c-0.9-2.7-2.9-4.4-5.2-4.4H32.4c-2.4,0-4.5,1.8-5.3,4.6L23.5,130c-0.5,1.6-1.6,2.7-2.7,2.7
						h-9.3c-1.6,0-3-2.1-3-4.6v-12.8v-39H142.4 M142.5,75H7.1v40.3v12.8c0,3.3,2,6,4.4,6h9.3c1.8,0,3.3-1.5,4-3.7l3.6-11.7
						c0.7-2.2,2.3-3.7,4-3.7h39.5c1.7,0,3.3,1.4,4,3.5l3.9,11.8c0.7,2.1,2.3,3.5,4,3.5H186c2,0,3.4-1.7,4.7-3.7
						C177.8,77.7,142.5,75,142.5,75L142.5,75z"/>
				</g>
				<path class="st30" d="M35.6,100.7h6.2c3.7,0,6.7-3,6.7-6.7v-5.6c0-3.7-3-6.7-6.7-6.7h-6.2c-3.7,0-6.7,3-6.7,6.7V94
					C28.9,97.7,31.9,100.7,35.6,100.7z"/>
				<path class="st31" d="M245.1,138.1h21.7c1.3,0,2.3-1.4,2.3-3.2v-9.7c0-1.8-1-3.2-2.3-3.2h-22.7c-1.3,0-2.3,1.4-2.3,3.2l1,9.7
					C242.8,136.6,243.8,138.1,245.1,138.1z"/>
				<path class="st31" d="M23.2,140.5H2.8c-1.2,0-2.2-1.4-2.2-3.2v-9.7c0-1.8,1-3.2,2.2-3.2h21.3c1.2,0,2.2,1.4,2.2,3.2l-0.9,9.7
					C25.4,139.1,24.4,140.5,23.2,140.5z"/>
				<path class="st32" d="M167.1,31.4l-14,15.4c-0.2,0.3-0.6,0.4-0.9,0.4c-0.4,0-0.7-0.2-0.9-0.4c-0.5-0.5-0.5-1.4,0-2l14-15.4
					c0.5-0.5,1.4-0.5,1.9,0C167.6,29.9,167.6,30.8,167.1,31.4z"/>
				<path class="st32" d="M168,35.7l-9.5,10.4c-0.2,0.3-0.6,0.4-0.9,0.4c-0.3,0-0.7-0.2-0.9-0.4c-0.5-0.5-0.5-1.4,0-2l9.5-10.4
					c0.5-0.6,1.4-0.6,1.9,0C168.5,34.2,168.5,35.1,168,35.7z"/>
				<path class="st32" d="M172.8,21.8c-0.7,0.5-1.3,1.2-1.7,2c-0.1,0-0.1-0.1-0.2-0.1c-0.7-0.4-0.5-0.2-0.7-0.5
					c-0.4-0.5-0.8-0.9-1.2-1.3H172.8z"/>
				<line class="st33" x1="48.2" y1="27.6" x2="28.3" y2="27.6"/>
				<line class="st33" x1="48.2" y1="31.3" x2="28.3" y2="31.3"/>
				<line class="st33" x1="48.2" y1="35" x2="28.3" y2="35"/>
				<path class="st32" d="M216.9,27.2l-14,15.4c-0.2,0.3-0.6,0.4-0.9,0.4c-0.3,0-0.7-0.2-0.9-0.4c-0.5-0.5-0.5-1.4,0-2l14-15.4
					c0.5-0.5,1.4-0.5,1.9,0C217.4,25.8,217.4,26.7,216.9,27.2z"/>
				<path class="st32" d="M217.9,31.5l-9.5,10.4c-0.2,0.3-0.6,0.4-0.9,0.4c-0.4,0-0.7-0.1-0.9-0.4c-0.5-0.5-0.5-1.4,0-2l9.5-10.4
					c0.5-0.6,1.4-0.6,1.9,0C218.4,30.1,218.4,31,217.9,31.5z"/>
				<g class="st13">
					<g>
						<path class="st12" d="M207.5,41.6c0.2,0,0.3-0.1,0.5-0.2l9.5-10.4c0.2-0.3,0.2-0.7,0-1c-0.2-0.3-0.7-0.3-0.9,0L207,40.4
							c-0.2,0.3-0.2,0.7,0,1C207.1,41.6,207.3,41.6,207.5,41.6z"/>
						<path class="st12" d="M217.9,31.5l-9.5,10.4c-0.2,0.3-0.6,0.4-0.9,0.4c-0.4,0-0.7-0.1-0.9-0.4c-0.5-0.5-0.5-1.4,0-2l9.5-10.4
							c0.5-0.6,1.4-0.6,1.9,0C218.4,30.1,218.4,31,217.9,31.5z"/>
					</g>
				</g>
				<g class="st13">
					<g>
						<path class="st12" d="M201.9,42.3c0.2,0,0.3-0.1,0.5-0.2l14-15.4c0.2-0.3,0.2-0.7,0-1c-0.2-0.3-0.7-0.3-0.9,0l-14,15.4
							c-0.2,0.3-0.2,0.7,0,1C201.6,42.3,201.8,42.3,201.9,42.3z"/>
						<path class="st12" d="M216.9,27.2l-14,15.4c-0.2,0.3-0.6,0.4-0.9,0.4c-0.3,0-0.7-0.2-0.9-0.4c-0.5-0.5-0.5-1.4,0-2l14-15.4
							c0.5-0.5,1.4-0.5,1.9,0C217.4,25.8,217.4,26.7,216.9,27.2z"/>
					</g>
				</g>
				<g class="st13">
					<g>
						<path class="st12" d="M157.6,45.8c0.2,0,0.3-0.1,0.5-0.2l9.5-10.4c0.2-0.3,0.2-0.7,0-1c-0.2-0.3-0.7-0.3-0.9,0l-9.5,10.4
							c-0.2,0.3-0.2,0.7,0,1C157.3,45.7,157.5,45.8,157.6,45.8z"/>
						<path class="st12" d="M168,35.7l-9.5,10.4c-0.2,0.3-0.6,0.4-0.9,0.4c-0.3,0-0.7-0.2-0.9-0.4c-0.5-0.5-0.5-1.4,0-2l9.5-10.4
							c0.5-0.6,1.4-0.6,1.9,0C168.5,34.2,168.5,35.1,168,35.7z"/>
					</g>
				</g>
				<g class="st13">
					<g>
						<path class="st12" d="M152.1,46.5c0.2,0,0.3-0.1,0.5-0.2l14-15.4c0.2-0.3,0.2-0.7,0-1c-0.2-0.3-0.7-0.3-0.9,0l-14,15.4
							c-0.2,0.3-0.2,0.7,0,1C151.8,46.4,151.9,46.5,152.1,46.5z"/>
						<path class="st12" d="M167.1,31.4l-14,15.4c-0.2,0.3-0.6,0.4-0.9,0.4c-0.4,0-0.7-0.2-0.9-0.4c-0.5-0.5-0.5-1.4,0-2l14-15.4
							c0.5-0.5,1.4-0.5,1.9,0C167.6,29.9,167.6,30.8,167.1,31.4z"/>
					</g>
				</g>
				<path class="st32" d="M127.6,31.4l-14,15.4c-0.2,0.3-0.6,0.4-0.9,0.4c-0.4,0-0.7-0.2-0.9-0.4c-0.5-0.5-0.5-1.4,0-2l14-15.4
					c0.5-0.5,1.4-0.5,1.9,0C128.1,29.9,128.1,30.8,127.6,31.4z"/>
				<path class="st32" d="M128.6,35.7l-9.5,10.4c-0.2,0.3-0.6,0.4-0.9,0.4c-0.4,0-0.7-0.2-0.9-0.4c-0.5-0.5-0.5-1.4,0-2l9.5-10.4
					c0.5-0.6,1.4-0.6,1.9,0C129.1,34.2,129.1,35.1,128.6,35.7z"/>
				<g class="st13">
					<g>
						<path class="st12" d="M118.2,45.8c0.2,0,0.3-0.1,0.5-0.2l9.5-10.4c0.2-0.3,0.2-0.7,0-1c-0.2-0.3-0.7-0.3-0.9,0l-9.5,10.4
							c-0.2,0.3-0.2,0.7,0,1C117.9,45.7,118,45.8,118.2,45.8z"/>
						<path class="st12" d="M128.6,35.7l-9.5,10.4c-0.2,0.3-0.6,0.4-0.9,0.4c-0.4,0-0.7-0.2-0.9-0.4c-0.5-0.5-0.5-1.4,0-2l9.5-10.4
							c0.5-0.6,1.4-0.6,1.9,0C129.1,34.2,129.1,35.1,128.6,35.7z"/>
					</g>
				</g>
				<g class="st13">
					<g>
						<path class="st12" d="M112.7,46.5c0.2,0,0.3-0.1,0.5-0.2l14-15.4c0.2-0.3,0.2-0.7,0-1c-0.2-0.3-0.7-0.3-0.9,0l-14,15.4
							c-0.2,0.3-0.2,0.7,0,1C112.4,46.4,112.5,46.5,112.7,46.5z"/>
						<path class="st12" d="M127.6,31.4l-14,15.4c-0.2,0.3-0.6,0.4-0.9,0.4c-0.4,0-0.7-0.2-0.9-0.4c-0.5-0.5-0.5-1.4,0-2l14-15.4
							c0.5-0.5,1.4-0.5,1.9,0C128.1,29.9,128.1,30.8,127.6,31.4z"/>
					</g>
				</g>
				<path class="st29" d="M111.8,46.7c-0.5-0.5-0.5-1.4,0-2l14-15.4c0.5-0.5,1.4-0.5,1.9,0c0.5,0.5,0.5,1.4,0,2l-14,15.4
					c-0.2,0.3-0.6,0.4-0.9,0.4C112.3,47.2,112,47,111.8,46.7z"/>
				<path class="st29" d="M128.6,33.7c0.5,0.5,0.5,1.4,0,2l-9.5,10.4c-0.2,0.3-0.6,0.4-0.9,0.4c-0.4,0-0.7-0.2-0.9-0.4
					c-0.5-0.5-0.5-1.4,0-2l9.5-10.4C127.2,33.1,128.1,33.1,128.6,33.7z"/>
				<path class="st29" d="M167.1,29.4c-0.5-0.5-1.4-0.5-1.9,0l-14,15.4c-0.5,0.5-0.5,1.4,0,2c0.2,0.3,0.6,0.4,0.9,0.4
					c0.4,0,0.7-0.2,0.9-0.4l14-15.4C167.6,30.8,167.6,29.9,167.1,29.4z M168,33.7c-0.5-0.6-1.4-0.6-1.9,0l-9.5,10.4
					c-0.5,0.5-0.5,1.4,0,2c0.2,0.3,0.6,0.4,0.9,0.4c0.4,0,0.7-0.2,0.9-0.4l9.5-10.4C168.5,35.1,168.5,34.2,168,33.7z M168,33.7
					c-0.5-0.6-1.4-0.6-1.9,0l-9.5,10.4c-0.5,0.5-0.5,1.4,0,2c0.2,0.3,0.6,0.4,0.9,0.4c0.4,0,0.7-0.2,0.9-0.4l9.5-10.4
					C168.5,35.1,168.5,34.2,168,33.7z M167.1,29.4c-0.5-0.5-1.4-0.5-1.9,0l-14,15.4c-0.5,0.5-0.5,1.4,0,2c0.2,0.3,0.6,0.4,0.9,0.4
					c0.4,0,0.7-0.2,0.9-0.4l14-15.4C167.6,30.8,167.6,29.9,167.1,29.4z M167.1,29.4c-0.5-0.5-1.4-0.5-1.9,0l-14,15.4
					c-0.5,0.5-0.5,1.4,0,2c0.2,0.3,0.6,0.4,0.9,0.4c0.4,0,0.7-0.2,0.9-0.4l14-15.4C167.6,30.8,167.6,29.9,167.1,29.4z M168,33.7
					c-0.5-0.6-1.4-0.6-1.9,0l-9.5,10.4c-0.5,0.5-0.5,1.4,0,2c0.2,0.3,0.6,0.4,0.9,0.4c0.4,0,0.7-0.2,0.9-0.4l9.5-10.4
					C168.5,35.1,168.5,34.2,168,33.7z M168,33.7c-0.5-0.6-1.4-0.6-1.9,0l-9.5,10.4c-0.5,0.5-0.5,1.4,0,2c0.2,0.3,0.6,0.4,0.9,0.4
					c0.4,0,0.7-0.2,0.9-0.4l9.5-10.4C168.5,35.1,168.5,34.2,168,33.7z M167.1,29.4c-0.5-0.5-1.4-0.5-1.9,0l-14,15.4
					c-0.5,0.5-0.5,1.4,0,2c0.2,0.3,0.6,0.4,0.9,0.4c0.4,0,0.7-0.2,0.9-0.4l14-15.4C167.6,30.8,167.6,29.9,167.1,29.4z M178.7,20.5
					c-0.5-0.5-1-1-1.7-1.3c-0.9-0.5-1.9-0.8-3-0.8h-67.8c-3.5,0-6.3,2.9-6.3,6.6v103.5h80.6V25.2C180.5,23.4,179.8,21.7,178.7,20.5z
					 M143,26.1c0-2.3,1.9-4.3,4.3-4.3h21.6c0.4,0.4,0.8,0.8,1.2,1.3c0.2,0.3,0,0.1,0.7,0.5c0.1,0.1,0.1,0.1,0.2,0.1
					c0.5-0.8,1.1-1.4,1.7-2c0.8,0,1.5,0.2,2.1,0.6c1.3,0.7,2.1,2.1,2.1,3.7v25.7c0,2.4-1.9,4.3-4.3,4.3h-25.4
					c-2.4,0-4.3-1.9-4.3-4.3V26.1z M103.6,26.1c0-2.3,1.9-4.3,4.3-4.3h25.4c2.4,0,4.3,1.9,4.3,4.3v25.7c0,2.4-1.9,4.3-4.3,4.3h-25.4
					c-2.4,0-4.3-1.9-4.3-4.3V26.1z M166.2,33.7l-9.5,10.4c-0.5,0.5-0.5,1.4,0,2c0.2,0.3,0.6,0.4,0.9,0.4c0.4,0,0.7-0.2,0.9-0.4
					l9.5-10.4c0.5-0.5,0.5-1.4,0-2C167.5,33.1,166.7,33.1,166.2,33.7z M152.1,47.2c0.4,0,0.7-0.2,0.9-0.4l14-15.4
					c0.5-0.5,0.5-1.4,0-2c-0.5-0.5-1.4-0.5-1.9,0l-14,15.4c-0.5,0.5-0.5,1.4,0,2C151.4,47,151.8,47.2,152.1,47.2z M167.1,29.4
					c-0.5-0.5-1.4-0.5-1.9,0l-14,15.4c-0.5,0.5-0.5,1.4,0,2c0.2,0.3,0.6,0.4,0.9,0.4c0.4,0,0.7-0.2,0.9-0.4l14-15.4
					C167.6,30.8,167.6,29.9,167.1,29.4z M168,33.7c-0.5-0.6-1.4-0.6-1.9,0l-9.5,10.4c-0.5,0.5-0.5,1.4,0,2c0.2,0.3,0.6,0.4,0.9,0.4
					c0.4,0,0.7-0.2,0.9-0.4l9.5-10.4C168.5,35.1,168.5,34.2,168,33.7z M168,33.7c-0.5-0.6-1.4-0.6-1.9,0l-9.5,10.4
					c-0.5,0.5-0.5,1.4,0,2c0.2,0.3,0.6,0.4,0.9,0.4c0.4,0,0.7-0.2,0.9-0.4l9.5-10.4C168.5,35.1,168.5,34.2,168,33.7z M167.1,29.4
					c-0.5-0.5-1.4-0.5-1.9,0l-14,15.4c-0.5,0.5-0.5,1.4,0,2c0.2,0.3,0.6,0.4,0.9,0.4c0.4,0,0.7-0.2,0.9-0.4l14-15.4
					C167.6,30.8,167.6,29.9,167.1,29.4z M167.1,29.4c-0.5-0.5-1.4-0.5-1.9,0l-14,15.4c-0.5,0.5-0.5,1.4,0,2c0.2,0.3,0.6,0.4,0.9,0.4
					c0.4,0,0.7-0.2,0.9-0.4l14-15.4C167.6,30.8,167.6,29.9,167.1,29.4z M168,33.7c-0.5-0.6-1.4-0.6-1.9,0l-9.5,10.4
					c-0.5,0.5-0.5,1.4,0,2c0.2,0.3,0.6,0.4,0.9,0.4c0.4,0,0.7-0.2,0.9-0.4l9.5-10.4C168.5,35.1,168.5,34.2,168,33.7z M168,33.7
					c-0.5-0.6-1.4-0.6-1.9,0l-9.5,10.4c-0.5,0.5-0.5,1.4,0,2c0.2,0.3,0.6,0.4,0.9,0.4c0.4,0,0.7-0.2,0.9-0.4l9.5-10.4
					C168.5,35.1,168.5,34.2,168,33.7z M167.1,29.4c-0.5-0.5-1.4-0.5-1.9,0l-14,15.4c-0.5,0.5-0.5,1.4,0,2c0.2,0.3,0.6,0.4,0.9,0.4
					c0.4,0,0.7-0.2,0.9-0.4l14-15.4C167.6,30.8,167.6,29.9,167.1,29.4z"/>
				<g class="st13">
					<path class="st34" d="M254.5,96.4c0.1,0,0.2,0,0.3-0.1l5.8-5.5c0.2-0.1,0.2-0.4,0-0.5c-0.2-0.1-0.4-0.1-0.6,0l-5.8,5.5
						c-0.2,0.1-0.2,0.4,0,0.5C254.3,96.4,254.4,96.4,254.5,96.4z"/>
				</g>
				<g class="st13">
					<path class="st35" d="M256.1,98.6c0.1,0,0.2,0,0.2-0.1l4.7-4.4c0.1-0.1,0.1-0.3,0-0.4c-0.1-0.1-0.3-0.1-0.5,0l-4.7,4.4
						c-0.1,0.1-0.1,0.3,0,0.4C255.9,98.6,256,98.6,256.1,98.6z"/>
				</g>
				<line class="st36" x1="192.1" y1="60.7" x2="205.3" y2="60.7"/>
			</g>
			<g>
				<path d="M91.5,53.1l-3.3-6l-2.8,1.7l-1.2-2.1l0.1,0l-0.1,0l-0.4-0.7l-0.7,0.4l-8.9-2.4l-1.7,1l0.6-1c0.3-0.5,0.3-1.1,0-1.6
					c-0.3-0.5-0.8-0.8-1.3-0.8l-5.1,0c-0.5,0-1,0.3-1.3,0.7c-0.3,0.5-0.3,1-0.1,1.5l0,0.1l-5.5,3.4l1.2-4.9l-1.8,1.1l-0.5-0.8l0,0
					l-0.3-0.6l0,0l-2-3.6L50.6,42l-2.6,10.4l3.2,5.8L55,56l1.2-0.7l1.3-0.8l0.4-1.5l3.1,0.8l-7.6,10.3l17.5-10.7
					c0.6-0.3,0.9-1,0.8-1.7c-0.1-0.7-0.6-1.2-1.2-1.4l-3.3-0.9l0.6-0.4c0.3,0.3,0.6,0.5,1.1,0.5c0.6,0,1.1-0.3,1.4-0.8l0.3-0.5
					l2.3,0.6l-2,8.3l-1.8,1.2l2.9,5.2l3-1.9l1.8,3.2l2.8-1.7l1.6,2.9l2.8-1.7l1.7,2.9l4.9-3.1l-1.1-2L91.5,53.1z"/>
				<g>
					<path class="st10" d="M70,51.8l-6.4-1.7l4.6-2.8l0.4,1c0.1,0.2,0.3,0.2,0.3,0l2.9-5c0.1-0.1,0-0.3-0.2-0.3l-5.1,0
						c-0.1,0-0.2,0.2-0.2,0.3l0.5,1.2L59.7,49l-1.9,1.2c-0.1,0-0.1,0.1-0.1,0.2l0.2,1.2l2.3,0.6l3,0.8l-4.7,6.3l11.6-7.1
						C70.3,52.1,70.2,51.8,70,51.8z"/>
					<polygon class="st10" points="77.9,49 80.8,47.2 74.3,45.4 71.4,47.2 74.3,48 71.8,58.2 70.6,59 72.2,61.8 74.9,60.1 
						74.2,58.9 76.7,48.7 					"/>
					<polygon class="st10" points="87.8,62.5 90.1,53.3 87.7,49 84.9,50.7 83.3,47.8 78.8,50.5 76.6,59.5 75.4,60.3 77,63.1 
						79.7,61.4 79,60.2 81.5,50.2 83,52.9 81,60.7 79.9,61.5 81.4,64.3 84.1,62.6 83.4,61.4 85.9,51.4 87.4,54.1 85.5,61.9 
						84.3,62.7 85.9,65.5 88.5,63.8 					"/>
					<polygon class="st10" points="53.6,48.6 52.8,52.1 54.3,51.2 54.1,51.9 52.5,52.9 52,52.1 54.3,42.9 56.2,46.3 58.4,44.9 
						55.9,40.4 51.8,42.9 49.5,52.2 51.8,56.3 56.2,53.5 57.3,49.3 57.5,49.2 58.1,48.8 58.9,45.4 					"/>
				</g>
			</g>
			<g>
				<path d="M38,44.3c-0.6-1-1.6-1.6-2.8-1.6L29.4,43c-1.1,0-2,0.6-2.5,1.6c-0.3,0.6-0.5,1.3-0.4,1.9l-8.4,5.6L18,52.1
					c-1.1,0.8-1.6,2.1-1.3,3.4l0.7,3.1c0.2,0.7,0.5,1.3,1,1.7c-0.2,0.6-0.3,1.3-0.2,2l1.5,6.4c0.4,1.7,2.1,2.8,3.7,2.4l3.4-0.8
					c0.8-0.2,1.4-0.7,1.8-1.4c0.7,0.4,1.4,0.5,2.2,0.3l3.4-0.8c1.7-0.4,2.7-2.2,2.3-3.9l-2.3-10.3c0.3-0.2,0.5-0.5,0.7-0.9l3.2-5.8
					C38.6,46.6,38.6,45.3,38,44.3z"/>
				<g>
					<g id="g4379_1_" transform="translate(227.1641,410.1069)">
						<path id="path4381_1_" class="st12" d="M-199.2-353.2l3.1-2.1c0.1-0.1,0.3,0,0.3,0.1l2.3,10.3c0,0.1,0,0.3-0.2,0.3l-3.4,0.8
							c-0.1,0-0.2,0-0.3-0.2l-2.1-9.1C-199.3-353.1-199.3-353.2-199.2-353.2z"/>
					</g>
					<g id="g4383_1_" transform="translate(165.2671,389.9531)">
						<path id="path4385_1_" class="st12" d="M-144.2-328.3l1.5,6.4c0,0.1,0.2,0.2,0.3,0.2l3.4-0.8c0.1,0,0.2-0.2,0.2-0.3l-1.7-7.6
							c0-0.2-0.2-0.2-0.3-0.1l-3.1,2C-144.2-328.5-144.2-328.4-144.2-328.3z"/>
					</g>
					<g id="g4387_1_" transform="translate(244.252,460.4805)">
						<path id="path4389_1_" class="st12" d="M-214.9-414.2l0.6,1.4l-10.3,6.9c-0.1,0.1-0.1,0.2-0.1,0.2l0.7,3.1
							c0,0.2,0.2,0.2,0.3,0.1l10.9-7.3l0.5,1.1c0.1,0.2,0.3,0.2,0.4,0l3.2-5.8c0.1-0.2,0-0.4-0.2-0.4l-5.8,0.2
							C-214.9-414.5-215-414.3-214.9-414.2z"/>
					</g>
				</g>
			</g>
		</g>
	</g>
</g>
</svg>
