<?xml version="1.0" encoding="utf-8"?>
<!-- Generator: Adobe Illustrator 27.5.0, SVG Export Plug-In . SVG Version: 6.00 Build 0)  -->
<svg version="1.1" xmlns="http://www.w3.org/2000/svg" xmlns:xlink="http://www.w3.org/1999/xlink" x="0px" y="0px"
	 viewBox="0 0 1080 1080" style="enable-background:new 0 0 1080 1080;" xml:space="preserve">
<style type="text/css">
	.st0{fill:#005589;}
	.st1{opacity:5.000000e-02;}
	.st2{fill:#353535;}
	.st3{fill:#DADADA;}
	.st4{fill:#838383;}
	.st5{fill:#F6F6F6;}
	.st6{fill:#A7A7A7;}
	.st7{fill:#686868;}
	.st8{fill:#B9B9B9;}
	.st9{fill:#FFFFFF;}
</style>
<g id="Layer_3">
	<rect x="-4125.4" y="-912.5" class="st0" width="9331.7" height="2927.6"/>
</g>
<g id="Terminus_-_logo">
	<g class="st1">
		<rect x="180.7" y="-745.4" class="st2" width="1639.7" height="2568.1"/>
		<g>
			<polygon class="st3" points="2128.5,-629.7 2094.7,-596 1945.3,-745.4 2012.9,-745.4 			"/>
			<polygon class="st3" points="2202,-703.3 2168.2,-669.5 2092.4,-745.4 2159.9,-745.4 			"/>
			<polygon class="st3" points="2055,-556.2 2021.2,-522.4 1798.3,-745.4 1865.8,-745.4 			"/>
			<polygon class="st3" points="1981.4,-482.7 1947.7,-448.9 1651.2,-745.4 1718.8,-745.4 			"/>
			<polygon class="st3" points="1907.9,-409.2 1874.1,-375.4 1504.1,-745.4 1571.7,-745.4 			"/>
			<polygon class="st3" points="1834.4,-335.6 1800.6,-301.8 1357.1,-745.4 1424.7,-745.4 			"/>
			<polygon class="st3" points="1760.9,-262.1 1727.1,-228.3 1210,-745.4 1277.6,-745.4 			"/>
			<polygon class="st3" points="1613.8,-115 1580,-81.3 915.9,-745.4 983.5,-745.4 			"/>
			<polygon class="st3" points="1687.3,-188.6 1653.6,-154.8 1063,-745.4 1130.6,-745.4 			"/>
			
				<rect x="707.3" y="-386.5" transform="matrix(0.7071 0.7071 -0.7071 0.7071 90.7476 -944.4032)" class="st3" width="956.1" height="47.8"/>
			
				<rect x="633.8" y="-313" transform="matrix(0.7071 0.7071 -0.7071 0.7071 121.2033 -870.8768)" class="st3" width="956.1" height="47.8"/>
			
				<rect x="560.3" y="-239.5" transform="matrix(0.7071 0.7071 -0.7071 0.7071 151.659 -797.3503)" class="st3" width="956.1" height="47.8"/>
			
				<rect x="486.7" y="-166" transform="matrix(0.7071 0.7071 -0.7071 0.7071 182.1146 -723.8239)" class="st3" width="956.1" height="47.8"/>
			
				<rect x="413.2" y="-92.4" transform="matrix(0.7071 0.7071 -0.7071 0.7071 212.5703 -650.2974)" class="st3" width="956.1" height="47.8"/>
		</g>
		<rect x="2347.2" y="-745.4" class="st2" width="1639.7" height="1639.7"/>
		<rect x="2347.2" y="-745.4" class="st4" width="546.6" height="819.9"/>
		<rect x="2347.2" y="-198.8" class="st5" width="546.6" height="273.3"/>
		<g>
			<polygon class="st4" points="2972.7,484.4 3382.7,894.4 3484.4,894.4 3074.5,484.4 			"/>
			<polygon class="st6" points="3168,484.4 3577.9,894.4 3679.6,894.4 3269.7,484.4 			"/>
			<polygon class="st4" points="3363.2,484.4 3773.2,894.4 3874.9,894.4 3465,484.4 			"/>
			<polygon class="st6" points="3558.5,484.4 3968.4,894.4 4070.1,894.4 3660.2,484.4 			"/>
			<polygon class="st4" points="3753.7,484.4 4163.7,894.4 4265.4,894.4 3855.5,484.4 			"/>
		</g>
		<g>
			<polygon class="st7" points="4265.4,74.5 3855.5,484.4 3753.7,484.4 4163.7,74.5 			"/>
			<polygon class="st7" points="4070.1,74.5 3660.2,484.4 3558.5,484.4 3968.4,74.5 			"/>
			<polygon class="st7" points="3874.9,74.5 3465,484.4 3363.2,484.4 3773.2,74.5 			"/>
			<polygon class="st7" points="3679.6,74.5 3269.7,484.4 3168,484.4 3577.9,74.5 			"/>
			<polygon class="st7" points="3484.4,74.5 3074.5,484.4 2972.7,484.4 3382.7,74.5 			"/>
		</g>
		<rect x="3986.9" y="-745.4" class="st4" width="900.3" height="2568.1"/>
		<rect x="3986.9" y="1358.6" class="st6" width="900.3" height="464.2"/>
		<rect x="4451.1" y="1358.6" class="st8" width="436.1" height="464.2"/>
		<rect x="3986.9" y="484.4" class="st5" width="900.3" height="409.9"/>
		<rect x="-2417.7" y="-745.4" class="st2" width="1654.8" height="711.3"/>
		<rect x="-1706.3" y="-745.4" class="st7" width="943.5" height="711.3"/>
		<rect x="-1706.3" y="-745.4" class="st6" width="314.5" height="154.9"/>
		<rect x="-1391.8" y="-745.4" class="st2" width="314.5" height="154.9"/>
		<rect x="-1077.3" y="-745.4" class="st5" width="314.5" height="154.9"/>
		
			<rect x="-1077.3" y="-590.5" transform="matrix(-1 -4.489976e-11 4.489976e-11 -1 -1840.1407 -1026.1514)" class="st2" width="314.5" height="154.9"/>
		
			<rect x="-1391.8" y="-590.5" transform="matrix(-1 -4.492863e-11 4.492863e-11 -1 -2469.1377 -1026.1514)" class="st6" width="314.5" height="154.9"/>
		
			<rect x="-1706.3" y="-590.5" transform="matrix(-1 -4.486468e-11 4.486468e-11 -1 -3098.1345 -1026.1514)" class="st5" width="314.5" height="154.9"/>
		<rect x="-1706.3" y="-310.7" class="st5" width="567.5" height="276.7"/>
		<path class="st4" d="M-1164.4-34h184.6c0-221.8-179.8-401.6-401.6-401.6v184.6C-1261.6-251.1-1164.4-153.9-1164.4-34z"/>
		<rect x="-1706.3" y="-435.6" class="st4" width="324.9" height="184.6"/>
		<rect x="-762.8" y="-34" class="st2" width="943.5" height="1392.6"/>
		<rect x="3986.9" y="-745.4" class="st8" width="900.3" height="819.9"/>
		<rect x="3986.9" y="-130.5" class="st3" width="695.3" height="205"/>
		<polygon class="st4" points="4887.2,-745.4 3986.9,-745.4 3986.9,74.5 		"/>
		<polygon class="st5" points="3986.9,-130.5 3986.9,74.5 4212,-130.5 		"/>
		<polygon class="st5" points="3986.9,-745.4 3986.9,-335.4 4437.1,-745.4 		"/>
		<rect x="2347.2" y="894.4" class="st7" width="1639.7" height="928.4"/>
		<rect x="3058.5" y="894.4" class="st6" width="464.2" height="464.2"/>
		<rect x="2347.2" y="894.4" class="st2" width="711.3" height="928.4"/>
		<path class="st3" d="M2347.2,367.6v1053.5c290.9,0,526.8-235.8,526.8-526.8S2638.1,367.6,2347.2,367.6z"/>
		<path class="st3" d="M2347.2,183v1422.7c392.9,0,711.3-318.5,711.3-711.3S2740,183,2347.2,183z"/>
		<path class="st8" d="M2347.2,367.6v526.8H2874C2874,603.4,2638.1,367.6,2347.2,367.6z"/>
		<path class="st4" d="M2347.2,631v263.4h263.4C2610.6,748.9,2492.6,631,2347.2,631z"/>
		<rect x="-2929.3" y="894.4" class="st2" width="3110" height="928.4"/>
		<rect x="1820.4" y="894.4" class="st4" width="526.8" height="928.4"/>
		<circle class="st4" cx="-291.1" cy="894.4" r="471.7"/>
		<rect x="-2755.6" y="-34" class="st2" width="1049.3" height="1856.8"/>
		<rect x="-2755.6" y="1015.3" class="st4" width="1049.3" height="807.5"/>
		<rect x="-1706.3" y="-34" class="st7" width="943.5" height="1856.8"/>
		<rect x="-1706.3" y="1450.9" class="st3" width="943.5" height="216.8"/>
		<rect x="-762.8" y="894.4" class="st5" width="943.5" height="928.4"/>
		<path class="st8" d="M-291.1,1366.1c260.5,0,471.7-211.2,471.7-471.7h-943.5C-762.8,1154.9-551.6,1366.1-291.1,1366.1z"/>
		<path class="st7" d="M-291.1,1366.1l0-471.7h-471.7C-762.8,1154.9-551.6,1366.1-291.1,1366.1z"/>
		<polygon class="st3" points="-762.8,-34 -1706.3,-34 -1706.3,894.4 		"/>
		<polygon class="st8" points="-762.8,-34 -1024.8,-34 -1024.8,223.8 		"/>
		<rect x="-3804.9" y="-745.4" class="st5" width="1049.3" height="1760.6"/>
		<rect x="-3804.9" y="1015.3" class="st7" width="1049.3" height="807.5"/>
		<rect x="-2997.4" y="1419" class="st8" width="241.8" height="403.7"/>
		<path class="st4" d="M-2755.6-34c-579.5,0-1049.3,469.8-1049.3,1049.3h1049.3V-34z"/>
		<path class="st6" d="M-2755.6,1015.3c579.5,0,1049.3-469.8,1049.3-1049.3h-1049.3V1015.3z"/>
		<path class="st3" d="M-2755.6,315.8c193.2,0,349.8-156.6,349.8-349.8h-349.8V315.8z"/>
		<path class="st5" d="M-2405.8,315.8c193.2,0,349.8-156.6,349.8-349.8h-349.8V315.8z"/>
		<path class="st2" d="M-2056,315.8c193.2,0,349.8-156.6,349.8-349.8H-2056V315.8z"/>
		<path class="st6" d="M-979.9-34h-184.6c0,221.8,179.8,401.6,401.6,401.6V183C-882.7,183-979.9,85.9-979.9-34z"/>
		<path class="st8" d="M-1706.3-34c0-392.9-318.5-711.3-711.3-711.3V-34H-1706.3z"/>
		<path class="st3" d="M4451.1,1358.6c0-256.4-207.8-464.2-464.2-464.2v464.2H4451.1z"/>
		<path class="st8" d="M4319.6,1358.6c0-183.7-148.9-332.7-332.7-332.7v332.7H4319.6z"/>
		<path class="st5" d="M4187.6,1358.6c0-110.8-89.8-200.7-200.7-200.7v200.7H4187.6z"/>
		<path class="st2" d="M3986.9,1358.6c256.4,0,464.2,207.8,464.2,464.2h-464.2V1358.6z"/>
		<path class="st2" d="M-3804.9,1015.3c0,446,361.5,807.5,807.5,807.5v-807.5H-3804.9z"/>
		<polygon class="st7" points="1820.4,894.4 180.7,894.4 180.7,-745.4 1109.1,183 		"/>
		<polygon class="st5" points="180.7,894.4 1820.4,894.4 1820.4,-745.4 		"/>
		<rect x="1111.1" y="250.1" class="st8" width="709.3" height="644.3"/>
		<polygon class="st5" points="3986.9,1822.8 3986.9,894.4 3058.5,894.4 		"/>
		<polygon class="st5" points="3382.7,74.5 2972.7,74.5 2972.7,484.4 		"/>
		<rect x="-762.8" y="-745.4" class="st8" width="943.5" height="711.3"/>
		<rect x="1820.4" y="-745.4" class="st6" width="526.8" height="1639.7"/>
		<rect x="1000.5" y="74.5" class="st3" width="819.9" height="293.1"/>
		<rect x="180.7" y="183" class="st8" width="819.9" height="184.6"/>
		<rect x="180.7" y="367.6" class="st3" width="819.9" height="184.6"/>
		<rect x="-762.8" y="183" class="st6" width="943.5" height="184.6"/>
		<g>
			<rect x="1275.1" y="949" class="st6" width="545.3" height="54.6"/>
			<rect x="1275.1" y="1003.6" class="st2" width="545.3" height="54.6"/>
			<rect x="1275.1" y="894.4" class="st3" width="545.3" height="54.6"/>
		</g>
		<g>
			<rect x="1275.1" y="1112.8" class="st6" width="545.3" height="54.6"/>
			<rect x="1275.1" y="1167.4" class="st2" width="545.3" height="54.6"/>
			<rect x="1275.1" y="1058.2" class="st3" width="545.3" height="54.6"/>
		</g>
		<g>
			<rect x="1275.1" y="1276.7" class="st6" width="545.3" height="54.6"/>
			<rect x="1275.1" y="1331.3" class="st2" width="545.3" height="54.6"/>
			<rect x="1275.1" y="1222" class="st3" width="545.3" height="54.6"/>
		</g>
		<g>
			<rect x="1275.1" y="1440.5" class="st6" width="545.3" height="54.6"/>
			<rect x="1275.1" y="1495.1" class="st2" width="545.3" height="54.6"/>
			<rect x="1275.1" y="1385.9" class="st3" width="545.3" height="54.6"/>
		</g>
		<g>
			<rect x="1275.1" y="1604.3" class="st6" width="545.3" height="54.6"/>
			<rect x="1275.1" y="1658.9" class="st2" width="545.3" height="54.6"/>
			<rect x="1275.1" y="1549.7" class="st3" width="545.3" height="54.6"/>
		</g>
		<g>
			<rect x="1275.1" y="1768.2" class="st6" width="545.3" height="54.6"/>
			<rect x="1275.1" y="1713.5" class="st3" width="545.3" height="54.6"/>
		</g>
		<g>
			
				<rect x="445.9" y="1292.3" transform="matrix(-1.836970e-16 1 -1 -1.836970e-16 2268.7034 448.444)" class="st3" width="928.4" height="132.6"/>
			
				<rect x="313.3" y="1292.3" transform="matrix(-1.836970e-16 1 -1 -1.836970e-16 2136.0752 581.0721)" class="st8" width="928.4" height="132.6"/>
			
				<rect x="578.6" y="1292.3" transform="matrix(-1.836970e-16 1 -1 -1.836970e-16 2401.3315 315.8158)" class="st8" width="928.4" height="132.6"/>
			
				<rect x="180.7" y="1292.3" transform="matrix(-1.836970e-16 1 -1 -1.836970e-16 2003.447 713.7003)" class="st3" width="928.4" height="132.6"/>
			
				<rect x="48" y="1292.3" transform="matrix(-1.836970e-16 1 -1 -1.836970e-16 1870.8188 846.3284)" class="st8" width="928.4" height="132.6"/>
			
				<rect x="-84.6" y="1292.3" transform="matrix(-1.836970e-16 1 -1 -1.836970e-16 1738.1908 978.9566)" class="st3" width="928.4" height="132.6"/>
			
				<rect x="-217.2" y="1292.3" transform="matrix(-1.836970e-16 1 -1 -1.836970e-16 1605.5626 1111.5847)" class="st8" width="928.4" height="132.6"/>
		</g>
		<circle class="st3" cx="2083.8" cy="762.7" r="131.7"/>
		<circle class="st8" cx="2215.5" cy="631" r="131.7"/>
		<rect x="2083.8" y="631" class="st2" width="263.4" height="263.4"/>
		<path class="st6" d="M2347.2,1157.8V894.4h-263.4C2083.8,1039.8,2201.7,1157.8,2347.2,1157.8z"/>
		<circle class="st8" cx="-3401.2" cy="1015.3" r="403.7"/>
		<path class="st5" d="M-2997.4,1015.3c0-223-180.8-403.7-403.7-403.7V1419C-3178.2,1419-2997.4,1238.3-2997.4,1015.3z"/>
		<circle class="st7" cx="-3401.2" cy="1015.3" r="278.4"/>
		<path class="st6" d="M-3122.8,1015.3c0-153.7-124.6-278.4-278.4-278.4v556.7C-3247.5,1293.7-3122.8,1169-3122.8,1015.3z"/>
		<path class="st2" d="M-2405.8,665.5c0-193.2-156.6-349.8-349.8-349.8v699.6C-2562.4,1015.3-2405.8,858.7-2405.8,665.5z"/>
		<path class="st8" d="M-2543.1,665.5c0-117.4-95.1-212.5-212.5-212.5v425C-2638.3,878-2543.1,782.8-2543.1,665.5z"/>
		<circle class="st2" cx="-3401.2" cy="1015.3" r="158.4"/>
		<circle class="st6" cx="-2876.5" cy="1419" r="120.9"/>
		<circle class="st6" cx="-2876.5" cy="1015.3" r="120.9"/>
		<circle class="st5" cx="-2876.5" cy="611.5" r="120.9"/>
		<circle class="st6" cx="-2876.5" cy="611.5" r="47.5"/>
		<circle class="st5" cx="-2876.5" cy="207.8" r="120.9"/>
		<path class="st2" d="M-2997.4,1015.3c0,66.8,54.1,120.9,120.9,120.9c66.8,0,120.9-54.1,120.9-120.9H-2997.4z"/>
		<path class="st7" d="M4887.2-218.6v-526.8h-526.8C4360.4-454.4,4596.3-218.6,4887.2-218.6z"/>
		<path class="st2" d="M4497.7-390.7c96.3,105.7,235.2,172.1,389.5,172.1v-526.8L4497.7-390.7z"/>
		<path class="st4" d="M2230.3-745.4h-409.9v409.9C2046.8-335.4,2230.3-519,2230.3-745.4z"/>
		<path class="st8" d="M2115.7-745.4h-295.3v295.3C1983.5-450.1,2115.7-582.3,2115.7-745.4z"/>
		<path class="st7" d="M2005.4-745.4h-185v185C1922.6-560.4,2005.4-643.2,2005.4-745.4z"/>
		<rect x="-3093.6" y="-389.7" class="st6" width="338" height="355.7"/>
		<rect x="-3093.6" y="-745.4" class="st8" width="338" height="355.7"/>
		<polygon class="st5" points="-3093.6,-745.4 -3093.6,-389.7 -2755.6,-389.7 		"/>
		<rect x="-3431.6" y="-389.7" class="st8" width="338" height="355.7"/>
		<polygon class="st3" points="-3431.6,-389.7 -3431.6,-34 -3093.6,-34 		"/>
		<rect x="-3431.6" y="-745.4" class="st2" width="338" height="355.7"/>
		<polygon class="st4" points="180.7,-745.4 180.7,-34 536.3,-389.7 		"/>
		<polygon class="st2" points="1109.1,894.4 180.7,894.4 180.7,1822.8 		"/>
		<polygon class="st6" points="-128.8,1822.8 180.7,1822.8 180.7,1513.3 		"/>
		<g>
			<g>
				<path class="st8" d="M2620.5-745.4c0,75.5-61.2,136.6-136.6,136.6c-75.5,0-136.6-61.2-136.6-136.6H2620.5z"/>
				<path class="st6" d="M2893.8-745.4c0,75.5-61.2,136.6-136.6,136.6c-75.5,0-136.6-61.2-136.6-136.6H2893.8z"/>
				<path class="st7" d="M3167-745.4c0,75.5-61.2,136.6-136.7,136.6c-75.5,0-136.6-61.2-136.6-136.6H3167z"/>
				<path class="st8" d="M3440.3-745.4c0,75.5-61.2,136.6-136.7,136.6c-75.5,0-136.6-61.2-136.6-136.6H3440.3z"/>
				<path class="st3" d="M3713.6-745.4c0,75.5-61.2,136.6-136.6,136.6c-75.5,0-136.6-61.2-136.6-136.6H3713.6z"/>
				<path class="st7" d="M3986.9-745.4c0,75.5-61.2,136.6-136.6,136.6c-75.5,0-136.6-61.2-136.6-136.6H3986.9z"/>
			</g>
			<g>
				<path class="st8" d="M3713.6,74.5c0-75.5,61.2-136.6,136.6-136.6c75.5,0,136.6,61.2,136.6,136.6H3713.6z"/>
				<path class="st6" d="M3440.3,74.5c0-75.5,61.2-136.6,136.6-136.6c75.5,0,136.6,61.2,136.6,136.6H3440.3z"/>
				<path class="st7" d="M3167,74.5c0-75.5,61.2-136.6,136.7-136.6c75.5,0,136.6,61.2,136.6,136.6H3167z"/>
				<path class="st8" d="M2893.7,74.5c0-75.5,61.2-136.6,136.7-136.6C3105.9-62.1,3167-1,3167,74.5H2893.7z"/>
				<path class="st3" d="M2620.5,74.5c0-75.5,61.2-136.6,136.6-136.6c75.5,0,136.6,61.2,136.6,136.6H2620.5z"/>
				<path class="st7" d="M2347.2,74.5c0-75.5,61.2-136.6,136.6-136.6c75.5,0,136.6,61.2,136.6,136.6H2347.2z"/>
			</g>
			<g>
				<circle class="st8" cx="3850.3" cy="-472.1" r="136.6"/>
				<circle class="st4" cx="3577" cy="-472.1" r="136.6"/>
				<circle class="st7" cx="3303.7" cy="-472.1" r="136.6"/>
				<circle class="st8" cx="3030.4" cy="-472.1" r="136.6"/>
				<circle class="st3" cx="2757.1" cy="-472.1" r="136.6"/>
				<circle class="st7" cx="2483.8" cy="-472.1" r="136.6"/>
			</g>
			<g>
				<circle class="st8" cx="2483.8" cy="-198.8" r="136.6"/>
				<circle class="st2" cx="2757.1" cy="-198.8" r="136.6"/>
				<circle class="st7" cx="3030.4" cy="-198.8" r="136.6"/>
				<circle class="st8" cx="3303.7" cy="-198.8" r="136.6"/>
				<circle class="st3" cx="3577" cy="-198.8" r="136.6"/>
				<circle class="st7" cx="3850.3" cy="-198.8" r="136.6"/>
			</g>
		</g>
		<circle class="st2" cx="2757.1" cy="-472.1" r="62.6"/>
		<circle class="st2" cx="3303.7" cy="-198.8" r="62.6"/>
		<path class="st2" d="M3514.4-745.4c0,34.6,28,62.6,62.6,62.6s62.6-28,62.6-62.6H3514.4z"/>
		<g>
			<polygon class="st6" points="-3431.6,-745.4 -3804.9,-372 -3804.9,-279.3 -3431.6,-652.7 			"/>
			<polygon class="st6" points="-3431.6,-567.5 -3804.9,-194.2 -3804.9,-101.5 -3431.6,-474.9 			"/>
			<polygon class="st6" points="-3431.6,-389.7 -3804.9,-16.3 -3804.9,76.3 -3431.6,-297 			"/>
			<polygon class="st6" points="-3431.6,-211.9 -3804.9,161.5 -3804.9,254.2 -3431.6,-119.2 			"/>
			<polygon class="st6" points="-3431.6,-34 -3804.9,339.3 -3804.9,432 -3431.6,58.6 			"/>
		</g>
		<path class="st6" d="M4669.2,1140.5c-120.4,0-218,97.6-218,218h436.1C4887.2,1238.1,4789.6,1140.5,4669.2,1140.5z"/>
		<path class="st5" d="M4669.2,1576.6c120.4,0,218-97.6,218-218h-436.1C4451.1,1479,4548.7,1576.6,4669.2,1576.6z"/>
		<path class="st4" d="M4669.2,1467.6c60.2,0,109-48.8,109-109h-218C4560.1,1418.8,4608.9,1467.6,4669.2,1467.6z"/>
		
			<rect x="-872" y="1558.5" transform="matrix(0.7071 0.7071 -0.7071 0.7071 955.8198 1027.8552)" class="st2" width="218.4" height="218.4"/>
		
			<rect x="-814.1" y="1616.4" transform="matrix(0.7071 0.7071 -0.7071 0.7071 955.8198 1027.8552)" class="st6" width="102.6" height="102.6"/>
		
			<rect x="-1815.5" y="1558.5" transform="matrix(0.7071 0.7071 -0.7071 0.7071 679.4764 1695.0072)" class="st8" width="218.4" height="218.4"/>
		
			<rect x="-1343.7" y="1558.5" transform="matrix(0.7071 0.7071 -0.7071 0.7071 817.6481 1361.4312)" class="st5" width="218.4" height="218.4"/>
		<polygon class="st4" points="-1234.6,1822.1 -1389,1667.7 -1234.6,1513.3 		"/>
		
			<rect x="-400.9" y="1558.5" transform="matrix(0.7071 0.7071 -0.7071 0.7071 1093.7954 694.7526)" class="st8" width="218.4" height="218.4"/>
		<rect x="105.4" y="-34" class="st2" width="435.7" height="217.1"/>
		<polygon class="st6" points="1109.1,183 536.3,183 536.3,-34 892,-34 		"/>
		<circle class="st5" cx="536.3" cy="74.5" r="108.5"/>
		<path class="st5" d="M180.7-34C-15.8-34-175-193.3-175-389.7s159.2-355.7,355.7-355.7"/>
		<path class="st8" d="M774.5-627.9L536.3-389.7l238.2,238.2c61-61,98.7-145.2,98.7-238.2C873.2-482.7,835.5-566.9,774.5-627.9z"/>
		<path class="st4" d="M-448.3-435.6l-314.5,0l0,314.5c80.5,0,161-30.7,222.4-92.1C-479-274.7-448.3-355.2-448.3-435.6z"/>
		<circle class="st2" cx="-1381.5" cy="-34" r="217.1"/>
		<circle class="st5" cx="-1381.5" cy="-34" r="146.9"/>
		<circle class="st4" cx="-1381.5" cy="-34" r="72.7"/>
		<path class="st5" d="M652.4,894.4c0,260.5-211.2,471.7-471.7,471.7c-43.5,0-43,147.2,0,147.2c341.8,0,618.9-277.1,618.9-618.9
			C799.6,841.3,652.4,809.3,652.4,894.4z"/>
		<path class="st3" d="M180.7,1366.1c260.5,0,471.7-211.2,471.7-471.7H180.7L180.7,1366.1C180.7,1366.1,180.7,1366.1,180.7,1366.1z"
			/>
		<path class="st2" d="M180.7,1220c179.8,0,325.6-145.8,325.6-325.6H180.7L180.7,1220C180.7,1220,180.7,1220,180.7,1220z"/>
		<rect x="-1706.3" y="1366.1" class="st4" width="1887" height="147.2"/>
		
			<rect x="810.9" y="1285" transform="matrix(-1.836970e-16 1 -1 -1.836970e-16 2633.6553 83.4917)" class="st4" width="928.4" height="147.2"/>
		<polygon class="st4" points="1820.4,894.4 180.7,894.4 1000.5,74.5 		"/>
		<polygon class="st5" points="1000.5,894.4 180.7,894.4 1000.5,74.5 		"/>
		
			<rect x="-1354.4" y="894.4" transform="matrix(-1 -1.224647e-16 1.224647e-16 -1 -2588.9712 2260.4973)" class="st6" width="119.8" height="471.7"/>
		<rect x="2130.1" y="1605.7" class="st5" width="217.1" height="217.1"/>
		<rect x="1820.4" y="1296" class="st8" width="309.7" height="309.7"/>
		<rect x="2130.1" y="1296" class="st2" width="217.1" height="309.7"/>
		<path class="st6" d="M1820.4-253h-177.3c-120.4,0-218,97.6-218,218s97.6,218,218,218h177.3V-253z"/>
		<rect x="3522.7" y="894.4" class="st4" width="464.2" height="464.2"/>
		<path class="st8" d="M3522.7,894.4v464.2c128.2,0,232.1-103.9,232.1-232.1S3650.9,894.4,3522.7,894.4z"/>
		<path class="st2" d="M3522.7,1822.8v-464.2c-128.2,0-232.1,103.9-232.1,232.1S3394.5,1822.8,3522.7,1822.8z"/>
		<path class="st5" d="M3290.6,1822.8v-464.2c-128.2,0-232.1,103.9-232.1,232.1S3162.4,1822.8,3290.6,1822.8z"/>
		<path class="st4" d="M3290.6,1590.7v-232.1c-128.2,0-232.1,103.9-232.1,232.1L3290.6,1590.7z"/>
		<g>
			<path class="st8" d="M2610.6,1421.1H2874c0-290.9-235.8-526.8-526.8-526.8l0,263.4C2492.6,1157.8,2610.6,1275.7,2610.6,1421.1z"
				/>
			<polygon class="st8" points="2347.2,1421.1 2347.2,1421.1 2347.2,1421.1 			"/>
		</g>
		<rect x="4477.3" y="74.5" class="st2" width="409.9" height="409.9"/>
		<rect x="4477.3" y="484.4" class="st6" width="409.9" height="409.9"/>
		
			<rect x="4537.3" y="544.5" transform="matrix(0.7071 0.7071 -0.7071 0.7071 1858.8798 -3108.9172)" class="st3" width="289.9" height="289.9"/>
		<polygon class="st8" points="4477.3,689.4 4682.2,894.4 4887.2,689.4 		"/>
		<polygon class="st3" points="3986.9,1822.8 3754.8,1590.7 3522.7,1822.8 		"/>
		<polygon class="st8" points="3986.9,1358.8 3754.8,1590.9 3986.9,1822.9 		"/>
		
			<rect x="-457.9" y="491.7" transform="matrix(-0.7071 -0.7071 0.7071 -0.7071 -962.524 918.3115)" class="st5" width="333.6" height="333.6"/>
		<polygon class="st6" points="-55.2,658.5 -291.1,422.6 -526.9,658.5 		"/>
		<polygon class="st4" points="180.7,183 -3.9,367.6 180.7,552.2 		"/>
		<polygon class="st5" points="180.7,367.6 -3.9,367.6 180.7,552.2 		"/>
		<polygon class="st6" points="4887.2,74.5 4682.2,-130.5 4477.3,74.5 		"/>
		<rect x="4204" y="74.5" class="st7" width="273.3" height="273.3"/>
		<rect x="4204" y="347.8" class="st8" width="273.3" height="273.3"/>
		<rect x="4204" y="621.1" class="st2" width="273.3" height="273.3"/>
		
			<rect x="-762.8" y="-590.5" transform="matrix(-1 -8.979319e-11 8.979319e-11 -1 -1211.1439 -1026.1514)" class="st5" width="314.5" height="154.9"/>
		<rect x="-762.8" y="-745.4" class="st2" width="314.5" height="154.9"/>
		<circle class="st7" cx="4682.2" cy="279.5" r="131.5"/>
		<circle class="st8" cx="4682.2" cy="279.5" r="64.9"/>
		<path class="st8" d="M-1474.2,1134.2c0-128.1-103.8-231.9-231.9-231.9v463.8C-1578.1,1366.1-1474.2,1262.3-1474.2,1134.2z"/>
		<circle class="st5" cx="-1706.2" cy="1134.2" r="118.9"/>
		<circle class="st2" cx="-1706.2" cy="1134.2" r="50"/>
		<path class="st4" d="M-1706.2,1015.3v-113c-65.7,0-118.9-53.2-118.9-118.9s53.2-118.9,118.9-118.9v-113
			c-128.1,0-231.9,103.8-231.9,231.9S-1834.2,1015.3-1706.2,1015.3z"/>
		<rect x="1109.1" y="894.4" class="st5" width="92.4" height="928.4"/>
		<path class="st8" d="M2874,1822.8h-263.4c0,0,0-329.8,0-401.6s263.4-53.5,263.4,0C2874,1474.6,2874,1822.8,2874,1822.8z"/>
		<rect x="751.3" y="680.4" class="st8" width="249.3" height="214"/>
		<rect x="-1706.8" y="284.6" class="st8" width="134.7" height="304"/>
		<path class="st7" d="M-1706.2,200.7v113c65.7,0,118.9,53.2,118.9,118.9s-53.2,118.9-118.9,118.9v113
			c128.1,0,231.9-103.8,231.9-231.9S-1578.1,200.7-1706.2,200.7z"/>
		<path class="st4" d="M3986.9,1358.8v113c65.7,0,118.9,53.2,118.9,118.9s-53.2,118.9-118.9,118.9v113
			c128.1,0,231.9-103.8,231.9-231.9S4115,1358.8,3986.9,1358.8z"/>
		<path class="st2" d="M1410.2,183L1410.2,183c-226.3,0.2-409.6,183.6-409.6,409.9c0,17.7,1.1,35.2,3.3,52.3h187.4
			c-4-16.8-6.1-34.3-6.1-52.3c0-124.5,100.9-225.4,225.4-225.4h936.7V183H1410.2z"/>
		<path class="st6" d="M1348.7,894.4C1348.7,894.4,1348.7,894.4,1348.7,894.4c0-192.3-155.9-348.1-348.1-348.1
			S652.4,702.1,652.4,894.4c0,0,0,0,0,0h147.2c0,0,0,0,0,0c0-111,90-200.9,200.9-200.9s200.9,90,200.9,200.9c0,0,0,0,0,0H1348.7z"/>
		<path class="st8" d="M1651.2-35c0,93.4,75.8,169.2,169.2,169.2l0,0v-338.4l0,0C1727-204.2,1651.2-128.4,1651.2-35z"/>
		<path class="st4" d="M2347.2-144.5V-253h-526.8c-120.4,0-218,97.6-218,218s97.6,218,218,218h1152.3V74.5H1820.4c0,0,0,0,0,0
			c-60.5,0-109.5-49-109.5-109.5c0-60.5,49-109.5,109.5-109.5l0,0H2347.2z"/>
		<path class="st2" d="M1929.9-35c0-60.5-49-109.5-109.5-109.5v219C1880.9,74.5,1929.9,25.5,1929.9-35z"/>
		<rect x="-2755.6" y="-745.4" class="st4" width="349.8" height="711.3"/>
		<rect x="-2755.6" y="-389.7" class="st2" width="349.8" height="355.7"/>
		<polygon class="st6" points="-328.7,-34 180.7,-34 180.7,-543.4 		"/>
		<path class="st7" d="M180.7-151.6c-131.5,0-238-106.6-238-238s106.6-238,238-238"/>
		<polygon class="st2" points="180.7,-236 180.7,-543.4 26.9,-389.7 		"/>
		<rect x="-1119.1" y="658.5" class="st4" width="129.5" height="235.9"/>
		<circle class="st5" cx="-998.7" cy="894.4" r="235.9"/>
		<rect x="-1234.6" y="894.4" class="st2" width="471.7" height="471.7"/>
		<path class="st8" d="M-998.7,1130.2c-130.3,0-235.9,105.6-235.9,235.9h471.7C-762.8,1235.9-868.4,1130.2-998.7,1130.2z"/>
		<path class="st4" d="M-1119.1,658.5c-130.3,0-235.9,105.6-235.9,235.9h235.9V658.5z"/>
		<path class="st8" d="M-998.7,658.5c-130.3,0-235.9,105.6-235.9,235.9h235.9V658.5z"/>
		<polygon class="st4" points="-545.8,183 -762.8,183 -762.8,-34 		"/>
		<polygon class="st5" points="-328.7,183 -545.8,183 -545.8,-34 		"/>
		<polygon class="st7" points="-111.6,183 -328.7,183 -328.7,-34 		"/>
		<polygon class="st8" points="105.4,183 -111.6,183 -111.6,-34 		"/>
		<polygon class="st3" points="322.5,183 105.4,183 105.4,-34 		"/>
		<path class="st8" d="M-2316.8,1366.1c0,0,597.7,0,610.5,0c12.8,0,34.5-113,0-113c-34.5,0-610.5,0-610.5,0V1366.1z"/>
		<path class="st3" d="M-1948.1,1822.8c0-446-361.5-807.5-807.5-807.5v807.5H-1948.1z"/>
		<path class="st2" d="M-2299,1513.3v-147.2c-252.2,0-456.6,204.4-456.6,456.6h147.2C-2608.4,1651.9-2469.9,1513.3-2299,1513.3z"/>
		<path class="st6" d="M-2299,1602.6c-121.6,0-220.2,98.6-220.2,220.2h440.3C-2078.8,1701.2-2177.4,1602.6-2299,1602.6z"/>
		<path class="st5" d="M-2299,1667.7c-85.6,0-155.1,69.4-155.1,155.1h310.1C-2143.9,1737.1-2213.3,1667.7-2299,1667.7z"/>
		<path class="st4" d="M-2299,1727.3c-52.7,0-95.5,42.8-95.5,95.5h191C-2203.5,1770-2246.2,1727.3-2299,1727.3z"/>
		<rect x="-2299" y="1366.1" class="st5" width="592.7" height="147.2"/>
	</g>
	<g>
		<g>
			<path class="st9" d="M254.9,540.9l21.8-7.5c0.9-0.3,1.9,0.3,1.9,1.3l0.1,63.5c0,0.8-0.6,1.4-1.4,1.4l-21.8,0
				c-0.8,0-1.4-0.6-1.4-1.4l-0.1-56C254,541.7,254.4,541.1,254.9,540.9z M206.1,558.8l0.1,39.6c0,0.8,0.6,1.4,1.4,1.4l21.6,0
				c0.8,0,1.4-0.6,1.4-1.4l-0.1-46.9c0-1-0.9-1.6-1.8-1.3l-21.6,7.3C206.5,557.6,206.1,558.1,206.1,558.8z M277.8,481.4l1.9,8.9
				L207,515.6c-0.5,0.2-0.9,0.7-0.9,1.3l0,18.9c0,1,1,1.7,1.9,1.3l76.8-26.6l1.7,7.3c0.3,1.1,1.6,1.5,2.4,0.6l27.3-29.4
				c0.8-0.8,0.3-2.1-0.8-2.3l-36-7C278.4,479.5,277.6,480.4,277.8,481.4z"/>
		</g>
		<g>
			<path class="st9" d="M439.5,571.3l-45.1,0.1c-0.7,0-1.1,0.6-1,1.2c1.7,6.9,6.6,12,16.3,12c4.5,0,7.6-0.7,9.9-3.2
				c0.3-0.3,0.8-0.5,1.2-0.5l16.5,0c1.2,0,2,1.3,1.5,2.4c-4.9,10.8-15.9,17-29.3,17c-20.9,0-34.7-14.7-34.7-34.1
				s13.6-34.3,33.5-34.3c21.9,0,35.3,16.1,32.7,37.9C441.1,570.6,440.3,571.3,439.5,571.3z M393.6,559.2l29.6,0
				c-1-8.3-6.3-12.1-14.6-12.1C399.8,547,395.2,552.4,393.6,559.2z"/>
			<path class="st9" d="M494.6,534.8l0,13.6c0,0.9-0.7,1.6-1.5,1.7c-9.2,0.8-16,3.7-21.2,9.5c-0.2,0.2-0.3,0.4-0.3,0.7l0.1,37.4
				c0,0.9-0.8,1.7-1.7,1.7l-14.5,0c-0.9,0-1.7-0.8-1.7-1.7l-0.1-61.8c0-0.9,0.8-1.7,1.7-1.7l14.5,0c0.9,0,1.7,0.8,1.7,1.7l0,5.8
				c0,0,0,0,0,0c5.5-5.3,12.4-8.2,21.3-8.6C493.8,533,494.6,533.8,494.6,534.8z"/>
			<path class="st9" d="M613.7,562.9l0,34.5c0,0.9-0.8,1.7-1.7,1.7l-14.5,0c-0.9,0-1.7-0.8-1.7-1.7l0-34.5
				c0-10.1-5.3-14.3-13.3-14.3c-3.4,0-6.9,0.8-10.1,3c-2.5,1.7-3.7,4.5-3.7,7.7c0,0.9,0,1.6,0,2.5l0,35.6c0,0.9-0.8,1.7-1.7,1.7
				l-14.5,0c-0.9,0-1.7-0.8-1.7-1.7l0-35.6c0-10-5.3-13.2-12.2-13.2c-4.1,0-7.9,1.2-11.3,3.9c-2.3,1.9-3.6,4.6-3.6,7.6l0.1,37.3
				c0,0.9-0.8,1.7-1.7,1.7l-14.5,0c-0.9,0-1.7-0.8-1.7-1.7l-0.1-61.7c0-0.9,0.8-1.7,1.7-1.7l14.5,0c0.9,0,1.7,0.8,1.7,1.7l0,2.7
				c0,0,0,0,0,0c4.4-3.7,9.4-6,17.2-6c8.6,0,15.8,2.7,20.8,8.2c0,0,0,0,0,0c6.4-5.5,13.1-8.2,22-8.2
				C601.4,532.3,613.7,543.2,613.7,562.9z"/>
			<path class="st9" d="M626.4,514.1c-0.7-6.5,4.7-12,11.2-11.8c5.6,0.2,10.2,4.2,10.6,9.9c0.4,6.2-4.7,11.3-10.9,11.3
				C631.5,523.5,626.9,519.5,626.4,514.1z M646.3,535.6l0.1,61.8c0,0.9-0.8,1.7-1.7,1.7l-14.5,0c-0.9,0-1.7-0.8-1.7-1.7l-0.1-61.8
				c0-0.9,0.8-1.7,1.7-1.7l14.5,0C645.5,533.9,646.3,534.7,646.3,535.6z"/>
			<path class="st9" d="M726.5,563.6l0,33.7c0,0.9-0.8,1.7-1.7,1.7l-14.5,0c-0.9,0-1.7-0.8-1.7-1.7l0-32.6
				c0-10.6-5.3-16.2-14.8-16.2c-1.2,0-2.5,0.2-3.8,0.5c-6.7,1.9-11.2,8.2-11.2,15.1l0,33.2c0,0.9-0.8,1.7-1.7,1.7l-14.5,0
				c-0.9,0-1.7-0.8-1.7-1.7l-0.1-61.8c0-0.9,0.8-1.7,1.7-1.7l14.5,0c0.9,0,1.7,0.8,1.7,1.7l0,3.2c0,0,0,0,0,0
				c5.3-4.2,11.4-6.6,18.8-6.6C715,532.2,726.5,544.5,726.5,563.6z"/>
			<path class="st9" d="M803.4,534.6l0.1,61.8c0,0.9-0.8,1.7-1.7,1.7l-14.5,0c-0.9,0-1.7-0.8-1.7-1.7l0-3.5
				c-5.3,4.2-11.5,6.8-18.8,6.9c-17.3,0-28.8-12.7-28.9-31.8l0-33.3c0-0.9,0.8-1.7,1.7-1.7l14.5,0c0.9,0,1.7,0.8,1.7,1.7l0,32.2
				c0,10.6,5.3,16.7,14.8,16.6c1.2,0,2.5-0.2,3.8-0.6c6.7-2,11.2-8.3,11.2-15.3l0-33c0-0.9,0.8-1.7,1.7-1.7l14.5,0
				C802.7,533,803.4,533.7,803.4,534.6z"/>
			<path class="st9" d="M845.3,585.2c6.8,0,11.6-1.8,11.6-5.5c0-2.6-2.2-4.8-6.7-5.6l-14.1-2.4c-9.6-1.6-19.3-6.8-19.3-19.1
				c0-13.4,11.3-21.5,27.8-21.5c11.3,0,26.2,3,28.6,20c0.1,1-0.6,1.9-1.7,1.9l-13.2,0c-0.8,0-1.5-0.5-1.6-1.3
				c-1.1-4.9-6.3-6.5-12.1-6.5c-6.8,0-10.1,2.3-10.1,5.5c0,2.5,1.8,5.3,8.1,6.4l11.7,1.9c10.1,1.8,19.5,6.4,19.6,19
				c0,14.5-12.5,21.6-29.1,21.6c-13.8,0-27.8-4.9-30-22.3c-0.1-1,0.7-1.9,1.7-1.9l13.3,0.1c0.8,0,1.4,0.5,1.6,1.3
				C833,583.2,838.1,585.2,845.3,585.2z"/>
			<path class="st9" d="M369.7,596.5c0,0.1,0.1,0.2,0.1,0.3c0,0.4-0.3,0.8-0.7,1c-5.7,2.1-10.3,2.6-14.9,2.6
				c-17.5,0-27.3-10.9-27.3-27.5l0-24.2l-10,0c-0.9,0-1.7-0.8-1.7-1.7l0-12c0-0.9,0.8-1.7,1.7-1.7l10,0l17.9-19.3l0,19.3l20,0
				c0.9,0,1.7,0.8,1.7,1.7l0,12c0,0.9-0.8,1.7-1.7,1.7l-20,0l0,24.2c0,7.6,4.8,11.3,11.5,11c2.3-0.1,5.2-0.4,7.6-1.2
				c0.2,0,0.3-0.1,0.5,0c0.5,0.1,1,0.5,1.1,1L369.7,596.5z"/>
		</g>
	</g>
</g>
</svg>
