<?xml version="1.0" encoding="utf-8"?>
<!-- Generator: Adobe Illustrator 27.5.0, SVG Export Plug-In . SVG Version: 6.00 Build 0)  -->
<svg version="1.1" id="Layer_1" xmlns="http://www.w3.org/2000/svg" xmlns:xlink="http://www.w3.org/1999/xlink" x="0px" y="0px"
	 viewBox="0 0 60 60" style="enable-background:new 0 0 60 60;" xml:space="preserve">
<style type="text/css">
	.st0{fill:#FFFFFF;}
</style>
<g>
	<path class="st0" d="M53.3,24.6c0-0.9-0.5-2.1-1.1-2.7C46.5,16,40.7,10.1,34.8,4.4c-0.7-0.7-2-1.2-3.1-1.3
		C26.6,3,21.5,3.1,16.4,3.1c-6,0-9.8,3.8-9.8,9.8c0,11.3,0,22.7,0,34c0,6.2,4.8,10.4,10.9,9.7c1.5-0.2,2.3-1,2.4-2.4
		c0.1-1.6-0.9-2.4-2.4-2.6c-0.6-0.1-1.3,0-1.9,0c-2.3-0.2-4-1.8-4-4.1c0-11.8-0.1-23.5,0-35.3c0-2.4,1.8-4,4.2-4.1
		c1.6-0.1,3.2,0,4.8,0H30c0,2.9,0,5.6,0,8.2c0,6.5,3.7,10.2,10.3,10.2h8.1c0,7.2,0,14.1,0,21c0,2.4-1.8,4-4.2,4.1
		c-0.6,0-1.3,0-1.9,0c-1.5,0.2-2.5,1.2-2.2,2.5c0.2,0.9,1.2,2.2,2.1,2.4c5.6,1.2,11.1-3.2,11.1-8.9C53.5,39.9,53.4,32.2,53.3,24.6z
		 M35.1,12.2c3.1,3.1,6.1,6.1,9,9C36.2,22.2,34.3,21.2,35.1,12.2z"/>
	<path class="st0" d="M32.5,47.5c1.2-1.3,2-2.3,2.9-3.2c1.2-1.3,2.5-1.6,3.8-0.4c1.3,1.1,1.1,2.5,0,3.7c-2.4,2.6-4.7,5.3-7.1,7.9
		c-1.3,1.5-2.8,1.5-4.1,0c-2.5-2.6-4.8-5.4-7.2-8.1c-1.1-1.2-1-2.5,0-3.5c1.2-1.2,2.5-0.9,3.7,0.2c0.9,0.9,1.8,1.9,3.1,3.4
		c0-3,0-5.5,0-8c0-1.1,0-2.2,0-3.3c0-1.7,0.7-2.9,2.5-2.9c1.8,0,2.5,1.1,2.5,2.9C32.5,39.7,32.5,43.3,32.5,47.5z"/>
</g>
</svg>
