<svg xmlns="http://www.w3.org/2000/svg" xmlns:xlink="http://www.w3.org/1999/xlink" width="1071" height="779" viewBox="0 0 1071 779">
  <defs>
    <filter id="Rectangle_151" x="391" y="248" width="562" height="531" filterUnits="userSpaceOnUse">
      <feOffset dy="16" input="SourceAlpha"/>
      <feGaussianBlur stdDeviation="12" result="blur"/>
      <feFlood flood-color="#0f2d52" flood-opacity="0.102"/>
      <feComposite operator="in" in2="blur"/>
      <feComposite in="SourceGraphic"/>
    </filter>
    <filter id="Ellipse_3" x="631" y="352" width="248" height="248" filterUnits="userSpaceOnUse">
      <feOffset dy="16" input="SourceAlpha"/>
      <feGaussianBlur stdDeviation="12" result="blur-2"/>
      <feFlood flood-color="#0f2d52" flood-opacity="0.102"/>
      <feComposite operator="in" in2="blur-2"/>
      <feComposite in="SourceGraphic"/>
    </filter>
    <filter id="Ellipse_14" x="617" y="339" width="275" height="275" filterUnits="userSpaceOnUse">
      <feOffset dy="16" input="SourceAlpha"/>
      <feGaussianBlur stdDeviation="12" result="blur-3"/>
      <feFlood flood-color="#0f2d52" flood-opacity="0.102"/>
      <feComposite operator="in" in2="blur-3"/>
      <feComposite in="SourceGraphic"/>
    </filter>
    <filter id="Ellipse_15" x="591" y="312" width="328" height="328" filterUnits="userSpaceOnUse">
      <feOffset dy="16" input="SourceAlpha"/>
      <feGaussianBlur stdDeviation="12" result="blur-4"/>
      <feFlood flood-color="#0f2d52" flood-opacity="0.102"/>
      <feComposite operator="in" in2="blur-4"/>
      <feComposite in="SourceGraphic"/>
    </filter>
    <clipPath id="clip-path">
      <path id="Path_134" data-name="Path 134" d="M3278,69.062V316.831h239.274" transform="translate(-3278 -69.062)" fill="#fff"/>
    </clipPath>
    <filter id="Ellipse_16" x="795" y="272" width="102" height="102" filterUnits="userSpaceOnUse">
      <feOffset dy="16" input="SourceAlpha"/>
      <feGaussianBlur stdDeviation="12" result="blur-5"/>
      <feFlood flood-color="#0f2d52" flood-opacity="0.102"/>
      <feComposite operator="in" in2="blur-5"/>
      <feComposite in="SourceGraphic"/>
    </filter>
    <filter id="Ellipse_17" x="802" y="280" width="87" height="87" filterUnits="userSpaceOnUse">
      <feOffset dy="16" input="SourceAlpha"/>
      <feGaussianBlur stdDeviation="12" result="blur-6"/>
      <feFlood flood-color="#0f2d52" flood-opacity="0.102"/>
      <feComposite operator="in" in2="blur-6"/>
      <feComposite in="SourceGraphic"/>
    </filter>
    <filter id="Ellipse_18" x="678" y="403" width="154" height="154" filterUnits="userSpaceOnUse">
      <feOffset dy="16" input="SourceAlpha"/>
      <feGaussianBlur stdDeviation="12" result="blur-7"/>
      <feFlood flood-color="#0f2d52" flood-opacity="0.102"/>
      <feComposite operator="in" in2="blur-7"/>
      <feComposite in="SourceGraphic"/>
    </filter>
    <filter id="Rectangle_139" x="915" y="0" width="156" height="561" filterUnits="userSpaceOnUse">
      <feOffset dy="16" input="SourceAlpha"/>
      <feGaussianBlur stdDeviation="12" result="blur-8"/>
      <feFlood flood-color="#0f2d52" flood-opacity="0.102"/>
      <feComposite operator="in" in2="blur-8"/>
      <feComposite in="SourceGraphic"/>
    </filter>
  </defs>
  <g id="Group_3418" data-name="Group 3418" transform="translate(-238 -4)">
    <g id="Group_3416" data-name="Group 3416" transform="translate(238 92)">
      <g id="Group_3415" data-name="Group 3415">
        <rect id="Rectangle_145" data-name="Rectangle 145" width="1004" height="669" fill="#fff"/>
        <rect id="Rectangle_140" data-name="Rectangle 140" width="231" height="29" rx="14.5" transform="translate(90 65)" fill="rgba(49,59,68,0.2)"/>
        <rect id="Rectangle_141" data-name="Rectangle 141" width="150" height="29" rx="14.5" transform="translate(427 65)" fill="#f5f5f7"/>
        <rect id="Rectangle_154" data-name="Rectangle 154" width="65" height="29" rx="14.5" transform="translate(427 131)" fill="rgba(49,59,68,0.2)"/>
        <rect id="Rectangle_155" data-name="Rectangle 155" width="65" height="29" rx="14.5" transform="translate(512 131)" fill="rgba(49,59,68,0.1)"/>
        <rect id="Rectangle_166" data-name="Rectangle 166" width="189" height="28" rx="14" transform="translate(85 17)" fill="rgba(49,59,68,0.1)"/>
        <rect id="Rectangle_156" data-name="Rectangle 156" width="66" height="29" rx="14.5" transform="translate(597 131)" fill="rgba(49,59,68,0.1)"/>
        <rect id="Rectangle_161" data-name="Rectangle 161" width="65" height="29" rx="14.5" transform="translate(850 131)" fill="rgba(49,59,68,0.1)"/>
        <g id="Rectangle_144" data-name="Rectangle 144" transform="translate(768 18)" fill="none" stroke="#f5f5f7" stroke-width="1">
          <path d="M16.186,0h122A12.814,12.814,0,0,1,151,12.814v3.372A12.814,12.814,0,0,1,138.186,29H12.814A12.814,12.814,0,0,1,0,16.186v0A16.186,16.186,0,0,1,16.186,0Z" stroke="none"/>
          <path d="M16.167.5h122A12.333,12.333,0,0,1,150.5,12.833v3.333A12.333,12.333,0,0,1,138.167,28.5H12.833A12.333,12.333,0,0,1,.5,16.167v0A15.667,15.667,0,0,1,16.167.5Z" fill="none"/>
        </g>
        <rect id="Rectangle_142" data-name="Rectangle 142" width="151" height="29" rx="14.5" transform="translate(597 65)" fill="#f5f5f7"/>
        <rect id="Rectangle_143" data-name="Rectangle 143" width="151" height="29" rx="14.5" transform="translate(768 65)" fill="#f5f5f7"/>
        <rect id="Rectangle_139-2" data-name="Rectangle 139" width="65" height="669" fill="#f5f5f7"/>
        <path id="Path_14" data-name="Path 14" d="M64.594,126.494c-.491,1.714-1,3.423-1.464,5.146-.226.84-.547,1.356-1.586,1.291-1.58-.1-3.172-.016-4.759-.03-1.03-.01-1.4-.476-1.153-1.447a.85.85,0,0,1,.946-.761c1.219.049,2.442-.009,3.662.025a.754.754,0,0,0,.881-.658c.77-2.784,1.592-5.554,2.361-8.338.339-1.226,1.369-1.777,2.127-1a3.415,3.415,0,0,1,.605,1.546c.845,3.476,1.663,6.958,2.49,10.437.4,1.671.8,3.341,1.349,5,.509-1.989,1.022-3.975,1.519-5.967a1.193,1.193,0,0,1,1.405-1.055c1.583.077,3.173.024,4.759.021.713,0,1.364.036,1.325,1.031-.038.958-.237,1.164-1.28,1.167-1.129,0-2.259.024-3.388-.011a.711.711,0,0,0-.827.606c-.792,3.056-1.575,6.115-2.4,9.163-.162.6-.266,1.3-1.237,1.252-.893-.049-1.144-.542-1.32-1.286-.871-3.682-1.777-7.357-2.663-11.036-.411-1.708-.8-3.419-1.205-5.129l-.146.031" transform="translate(-34.68 -36.761)" fill="rgba(49,59,68,0.1)"/>
        <line id="Line_127" data-name="Line 127" x2="52.71" transform="translate(6.275 128.428)" fill="none" stroke="rgba(49,59,68,0.1)" stroke-width="1"/>
        <line id="Line_128" data-name="Line 128" x2="52.71" transform="translate(6.275 62.217)" fill="none" stroke="rgba(49,59,68,0.1)" stroke-width="1"/>
        <line id="Line_127-2" data-name="Line 127" x2="52.71" transform="translate(6.275 191.178)" fill="none" stroke="rgba(49,59,68,0.1)" stroke-width="1"/>
        <line id="Line_127-3" data-name="Line 127" x2="52.71" transform="translate(6.275 253.928)" fill="none" stroke="rgba(49,59,68,0.1)" stroke-width="1"/>
        <line id="Line_127-4" data-name="Line 127" x2="52.71" transform="translate(6.275 316.678)" fill="none" stroke="rgba(49,59,68,0.1)" stroke-width="1"/>
        <line id="Line_130" data-name="Line 130" x2="52.71" transform="translate(6.275 596.962)" fill="none" stroke="rgba(49,59,68,0.1)" stroke-width="1"/>
        <path id="Path_24" data-name="Path 24" d="M30.321,131.765a.942.942,0,0,1-.666-1.607l6.906-6.906a.941.941,0,1,1,1.331,1.331l-6.906,6.906a.934.934,0,0,1-.666.276" transform="translate(-6.794 27.981)" fill="rgba(49,59,68,0.1)"/>
        <path id="Path_25" data-name="Path 25" d="M32.2,139.509h-.628a2.2,2.2,0,0,1-2.2-2.2v-3.139a2.2,2.2,0,0,1,2.2-2.2H32.2a2.2,2.2,0,0,1,2.2,2.2v3.139a2.2,2.2,0,0,1-2.2,2.2m-.628-5.651a.314.314,0,0,0-.314.314v3.139a.314.314,0,0,0,.314.314H32.2a.314.314,0,0,0,.314-.314v-3.139a.314.314,0,0,0-.314-.314Z" transform="translate(-6.794 30.282)" fill="rgba(49,59,68,0.1)"/>
        <path id="Path_26" data-name="Path 26" d="M38.2,140.276h-.628a2.2,2.2,0,0,1-2.2-2.2v-6.906a2.2,2.2,0,0,1,2.2-2.2H38.2a2.2,2.2,0,0,1,2.2,2.2v6.906a2.2,2.2,0,0,1-2.2,2.2m-.628-9.418a.314.314,0,0,0-.314.314v6.906a.314.314,0,0,0,.314.314H38.2a.314.314,0,0,0,.314-.314v-6.906a.314.314,0,0,0-.314-.314Z" transform="translate(-5.26 29.515)" fill="rgba(49,59,68,0.1)"/>
        <path id="Path_27" data-name="Path 27" d="M44.2,142.066h-.628a2.2,2.2,0,0,1-2.2-2.2v-15.7a2.2,2.2,0,0,1,2.2-2.2H44.2a2.2,2.2,0,0,1,2.2,2.2v15.7a2.2,2.2,0,0,1-2.2,2.2m-.628-18.207a.314.314,0,0,0-.314.314v15.7a.314.314,0,0,0,.314.314H44.2a.314.314,0,0,0,.314-.314v-15.7a.314.314,0,0,0-.314-.314Z" transform="translate(-3.726 27.726)" fill="rgba(49,59,68,0.1)"/>
        <path id="Path_28" data-name="Path 28" d="M37.716,128.253a.942.942,0,0,1-.942-.942v-3.453H33.321a.942.942,0,0,1,0-1.884h4.395a.942.942,0,0,1,.942.942v4.395a.942.942,0,0,1-.942.942" transform="translate(-6.027 27.726)" fill="rgba(49,59,68,0.1)"/>
        <path id="Path_34" data-name="Path 34" d="M10.045,113.167a10.045,10.045,0,1,1,10.045-10.045,10.057,10.057,0,0,1-10.045,10.045m0-18.207a8.162,8.162,0,1,0,8.162,8.162,8.171,8.171,0,0,0-8.162-8.162" transform="translate(22.585 119.489)" fill="rgba(49,59,68,0.1)"/>
        <path id="Path_35" data-name="Path 35" d="M9.278,108.633a6.278,6.278,0,1,1,6.278-6.278,6.285,6.285,0,0,1-6.278,6.278m0-10.673a4.395,4.395,0,1,0,4.395,4.395A4.4,4.4,0,0,0,9.278,97.96" transform="translate(23.352 120.256)" fill="rgba(49,59,68,0.1)"/>
        <path id="Path_36" data-name="Path 36" d="M8.511,104.1a2.511,2.511,0,1,1,2.511-2.511A2.514,2.514,0,0,1,8.511,104.1m0-3.139a.628.628,0,1,0,.628.628.628.628,0,0,0-.628-.628" transform="translate(24.119 121.023)" fill="rgba(49,59,68,0.1)"/>
        <path id="Path_73" data-name="Path 73" d="M121.186,40.392a1.255,1.255,0,0,1-1.256-1.256V36.625a1.256,1.256,0,0,1,2.511,0v2.511a1.255,1.255,0,0,1-1.256,1.256" transform="translate(-88.556 249.877)" fill="rgba(49,59,68,0.1)"/>
        <path id="Path_74" data-name="Path 74" d="M121.185,31.369a1.256,1.256,0,1,1-1.256,1.256,1.256,1.256,0,0,1,1.256-1.256" transform="translate(-88.556 248.854)" fill="rgba(49,59,68,0.1)"/>
        <path id="Path_75" data-name="Path 75" d="M122.975,47.46a10.045,10.045,0,1,1,10.045-10.045A10.057,10.057,0,0,1,122.975,47.46m0-18.207a8.162,8.162,0,1,0,8.162,8.162,8.171,8.171,0,0,0-8.162-8.162" transform="translate(-90.345 247.832)" fill="rgba(49,59,68,0.1)"/>
        <path id="Path_69" data-name="Path 69" d="M268.1,29.929H254.912a3.456,3.456,0,0,0-3.453,3.453V44.055a3.456,3.456,0,0,0,3.453,3.453H268.1a3.456,3.456,0,0,0,3.453-3.453V33.382a3.456,3.456,0,0,0-3.453-3.453m0,1.884c.043,0,.079.021.12.024L261.5,37.776l-6.713-5.939c.041,0,.078-.024.121-.024Zm1.57,12.243a1.572,1.572,0,0,1-1.57,1.57H254.912a1.572,1.572,0,0,1-1.57-1.57V33.382a1.437,1.437,0,0,1,.054-.265l7.484,6.621a.943.943,0,0,0,1.248,0l7.484-6.621a1.437,1.437,0,0,1,.054.265Z" transform="translate(-227.167 308.136)" fill="rgba(49,59,68,0.1)"/>
        <g id="Group_1165" data-name="Group 1165" transform="translate(24.478 19.979)">
          <g id="Group_1160" data-name="Group 1160" transform="translate(0 0)">
            <path id="Path_116" data-name="Path 116" d="M8.591,10.777,12.429,9.45a.248.248,0,0,1,.335.233l.016,11.17a.248.248,0,0,1-.249.249l-3.84.006a.249.249,0,0,1-.249-.249L8.427,11.01a.249.249,0,0,1,.163-.233M.011,13.908.02,20.87a.248.248,0,0,0,.249.248l3.8,0a.248.248,0,0,0,.248-.249l-.011-8.248a.249.249,0,0,0-.325-.237L.183,13.67a.248.248,0,0,0-.173.237M12.613.3l.326,1.568L.159,6.313A.248.248,0,0,0,0,6.545L0,9.873a.248.248,0,0,0,.332.234L13.842,5.428l.3,1.282a.249.249,0,0,0,.425.113l4.8-5.176a.248.248,0,0,0-.133-.412L12.9,0a.249.249,0,0,0-.291.3" transform="translate(0 0)" fill="rgba(0,0,0,0.2)"/>
          </g>
        </g>
        <g id="Group_1164" data-name="Group 1164" transform="translate(893.548 25.406)">
          <path id="Path_51" data-name="Path 51" d="M44.83,73.006a.672.672,0,0,1-.479-.2L41.343,69.8a6.326,6.326,0,1,1,.958-.958l3.007,3.008a.677.677,0,0,1-.479,1.156M37.38,59.912a4.966,4.966,0,1,0,4.966,4.966,4.972,4.972,0,0,0-4.966-4.966" transform="translate(-31.059 -58.558)" fill="rgba(49,59,68,0.1)"/>
        </g>
        <g id="Group_1154" data-name="Group 1154" transform="translate(22.585 621.634)">
          <path id="Path_76" data-name="Path 76" d="M202.218,3.342H191.545a.942.942,0,0,1,0-1.884h10.673a.942.942,0,1,1,0,1.884" transform="translate(-183.069 -1.458)" fill="rgba(49,59,68,0.1)"/>
          <path id="Path_77" data-name="Path 77" d="M201.451,7.342h-6.906a.942.942,0,1,1,0-1.884h6.906a.942.942,0,1,1,0,1.884" transform="translate(-182.302 -0.435)" fill="rgba(49,59,68,0.1)"/>
          <path id="Path_78" data-name="Path 78" d="M185.545,14.5a.941.941,0,0,1-.64-1.632l3.652-3.39L184.9,6.09a.942.942,0,1,1,1.281-1.381L190.58,8.79a.942.942,0,0,1,0,1.381l-4.395,4.081a.936.936,0,0,1-.64.251" transform="translate(-184.603 -0.691)" fill="rgba(49,59,68,0.1)"/>
          <path id="Path_79" data-name="Path 79" d="M202.218,15.842H191.545a.942.942,0,0,1,0-1.884h10.673a.942.942,0,1,1,0,1.884" transform="translate(-183.069 1.738)" fill="rgba(49,59,68,0.1)"/>
          <path id="Path_80" data-name="Path 80" d="M201.451,11.842h-6.906a.942.942,0,1,1,0-1.884h6.906a.942.942,0,1,1,0,1.884" transform="translate(-182.302 0.715)" fill="rgba(49,59,68,0.1)"/>
        </g>
        <g id="Group_3273" data-name="Group 3273" transform="translate(85.34 491.123)">
          <path id="Rectangle_149" data-name="Rectangle 149" d="M24,0H298a24,24,0,0,1,24,24V42a0,0,0,0,1,0,0H0a0,0,0,0,1,0,0V24A24,24,0,0,1,24,0Z" transform="translate(-0.34 -0.123)" fill="#f7f7f9"/>
          <g id="Rectangle_150" data-name="Rectangle 150" transform="translate(-0.34 -0.123)" fill="none" stroke="rgba(49,59,68,0.1)" stroke-width="1">
            <path d="M24,0H298a24,24,0,0,1,24,24V148a0,0,0,0,1,0,0H0a0,0,0,0,1,0,0V24A24,24,0,0,1,24,0Z" stroke="none"/>
            <path d="M24,.5H298A23.5,23.5,0,0,1,321.5,24V147.5a0,0,0,0,1,0,0H.5a0,0,0,0,1,0,0V24A23.5,23.5,0,0,1,24,.5Z" fill="none"/>
          </g>
          <g id="Group_1180" data-name="Group 1180" transform="translate(286.918 115.043)">
            <path id="Path_21" data-name="Path 21" d="M204.567,139.509H193.894a4.715,4.715,0,0,1-4.709-4.709v-1.884a.942.942,0,0,1,1.884,0V134.8a2.83,2.83,0,0,0,2.825,2.825h10.673a2.83,2.83,0,0,0,2.825-2.825v-1.884a.942.942,0,0,1,1.884,0V134.8a4.715,4.715,0,0,1-4.709,4.709" transform="translate(-189.185 -119.431)" fill="rgba(49,59,68,0.1)"/>
            <path id="Path_22" data-name="Path 22" d="M197.377,135.724a.942.942,0,0,1-.942-.942V123.167a.942.942,0,0,1,1.884,0v11.615a.942.942,0,0,1-.942.942" transform="translate(-187.331 -121.924)" fill="rgba(49,59,68,0.1)"/>
            <path id="Path_23" data-name="Path 23" d="M202.289,128.251a.944.944,0,0,1-.691-.3l-3.39-3.652-3.39,3.652a.942.942,0,1,1-1.381-1.281l4.081-4.395a.972.972,0,0,1,1.381,0l4.081,4.395a.941.941,0,0,1-.691,1.582" transform="translate(-188.162 -121.985)" fill="rgba(49,59,68,0.1)"/>
          </g>
        </g>
        <path id="Rectangle_160" data-name="Rectangle 160" d="M24,0H298a24,24,0,0,1,24,24V42a0,0,0,0,1,0,0H0a0,0,0,0,1,0,0V24A24,24,0,0,1,24,0Z" transform="translate(85 130)" fill="#f7f7f9"/>
        <g id="Rectangle_159" data-name="Rectangle 159" transform="translate(85 130)" fill="none" stroke="rgba(49,59,68,0.1)" stroke-width="1">
          <path d="M24,0H298a24,24,0,0,1,24,24V334a0,0,0,0,1,0,0H0a0,0,0,0,1,0,0V24A24,24,0,0,1,24,0Z" stroke="none"/>
          <path d="M24,.5H298A23.5,23.5,0,0,1,321.5,24V333.5a0,0,0,0,1,0,0H.5a0,0,0,0,1,0,0V24A23.5,23.5,0,0,1,24,.5Z" fill="none"/>
        </g>
        <rect id="Rectangle_164" data-name="Rectangle 164" width="151" height="14" rx="7" transform="translate(110 249)" fill="#f5f5f7"/>
        <rect id="Rectangle_165" data-name="Rectangle 165" width="151" height="13" rx="6.5" transform="translate(110 278)" fill="#f5f5f7"/>
        <rect id="Rectangle_206" data-name="Rectangle 206" width="61" height="13" rx="6.5" transform="translate(110 405)" fill="#f5f5f7"/>
        <rect id="Rectangle_207" data-name="Rectangle 207" width="60" height="13" rx="6.5" transform="translate(186 405)" fill="#f5f5f7"/>
        <rect id="Rectangle_163" data-name="Rectangle 163" width="245" height="28" rx="14" transform="translate(110 200)" fill="rgba(49,59,68,0.1)"/>
        <rect id="Rectangle_204" data-name="Rectangle 204" width="127" height="29" rx="14.5" transform="translate(110 551)" fill="rgba(49,59,68,0.1)"/>
        <rect id="Rectangle_205" data-name="Rectangle 205" width="188" height="28" rx="14" transform="translate(110 595)" fill="rgba(49,59,68,0.1)"/>
        <g id="Group_1179" data-name="Group 1179" transform="translate(372.259 429.628)">
          <path id="Path_21-2" data-name="Path 21" d="M204.567,139.509H193.894a4.715,4.715,0,0,1-4.709-4.709v-1.884a.942.942,0,0,1,1.884,0V134.8a2.83,2.83,0,0,0,2.825,2.825h10.673a2.83,2.83,0,0,0,2.825-2.825v-1.884a.942.942,0,0,1,1.884,0V134.8a4.715,4.715,0,0,1-4.709,4.709" transform="translate(-189.185 -119.431)" fill="rgba(49,59,68,0.1)"/>
          <path id="Path_22-2" data-name="Path 22" d="M197.377,135.724a.942.942,0,0,1-.942-.942V123.167a.942.942,0,0,1,1.884,0v11.615a.942.942,0,0,1-.942.942" transform="translate(-187.331 -121.924)" fill="rgba(49,59,68,0.1)"/>
          <path id="Path_23-2" data-name="Path 23" d="M202.289,128.251a.944.944,0,0,1-.691-.3l-3.39-3.652-3.39,3.652a.942.942,0,1,1-1.381-1.281l4.081-4.395a.972.972,0,0,1,1.381,0l4.081,4.395a.941.941,0,0,1-.691,1.582" transform="translate(-188.162 -121.985)" fill="rgba(49,59,68,0.1)"/>
        </g>
        <line id="Line_142" data-name="Line 142" x2="265.642" transform="translate(116.297 377.174)" fill="none" stroke="rgba(49,59,68,0.1)" stroke-width="1"/>
        <line id="Line_143" data-name="Line 143" x2="265.642" transform="translate(116.297 362.114)" fill="none" stroke="rgba(49,59,68,0.1)" stroke-width="1"/>
        <line id="Line_144" data-name="Line 144" x2="265.642" transform="translate(116.297 346.855)" fill="none" stroke="rgba(49,59,68,0.1)" stroke-width="1"/>
        <line id="Line_145" data-name="Line 145" x2="265.642" transform="translate(116.297 331.795)" fill="none" stroke="rgba(49,59,68,0.1)" stroke-width="1"/>
        <path id="Fill_27" data-name="Fill 27" d="M264.585,42.508,248.8,25.114a61.727,61.727,0,0,1-4.014-4.8,14.074,14.074,0,0,0-11.446-5.337,15.333,15.333,0,0,0-11.877,5.337c-.282.342-12.2,10.033-12.2,10.033-6.053,5.082-10.224,7.158-13.9,7.158-2.991,0-5.655-1.378-8.735-3.632L169.894,21.634a15.058,15.058,0,0,0-8.888-2.9H149.531a48.763,48.763,0,0,1-28.787-9.4L111.962,2.9A15.056,15.056,0,0,0,91.342,5.62l-7.588,9.435c-6.537,8.737-12.3,11.425-17.916,11.425-4.493,0-8.886-1.725-13.493-3.448s-9.43-3.448-14.783-3.448c-5.135,0-10.761,1.588-17.151,6.288L0,42.488c.864-.347,29.871-.464,68.4-.464,74.377,0,184.2.434,195.272.478l.91,0" transform="translate(117.719 349.727)" fill="#19a4fa"/>
        <line id="Line_134" data-name="Line 134" x2="265.642" transform="translate(116.297 392.234)" fill="none" stroke="rgba(49,59,68,0.1)" stroke-width="1"/>
        <g transform="matrix(1, 0, 0, 1, 0, -88)" filter="url(#Rectangle_151)">
          <g id="Rectangle_151-2" data-name="Rectangle 151" transform="translate(427 268)" fill="#fff" stroke="rgba(49,59,68,0.1)" stroke-width="1">
            <rect width="490" height="459" rx="24" stroke="none"/>
            <rect x="0.5" y="0.5" width="489" height="458" rx="23.5" fill="none"/>
          </g>
        </g>
        <rect id="Rectangle_153" data-name="Rectangle 153" width="150" height="13" rx="6.5" transform="translate(447 527)" fill="#f5f5f7"/>
        <rect id="Rectangle_223" data-name="Rectangle 223" width="150" height="21" rx="10.5" transform="translate(447 352)" fill="#f5f5f7"/>
        <rect id="Rectangle_225" data-name="Rectangle 225" width="150" height="21" rx="10.5" transform="translate(447 383)" fill="#f5f5f7"/>
        <rect id="Rectangle_158" data-name="Rectangle 158" width="130" height="14" rx="7" transform="translate(447 556)" fill="#f5f5f7"/>
        <g transform="matrix(1, 0, 0, 1, 0, -88)" filter="url(#Ellipse_3)">
          <circle id="Ellipse_3-2" data-name="Ellipse 3" cx="88" cy="88" r="88" transform="translate(667 372)" fill="#f5f5f7"/>
        </g>
        <path id="Path_99" data-name="Path 99" d="M89.12,183.778a.942.942,0,0,1,1.632-.64l3.39,3.65,3.39-3.65a.942.942,0,0,1,1.381,1.281l-4.081,4.395a.942.942,0,0,1-1.381,0l-4.081-4.395a.936.936,0,0,1-.251-.64" transform="translate(793.241 24.488)" fill="rgba(49,59,68,0.1)"/>
        <rect id="Rectangle_162" data-name="Rectangle 162" width="65" height="28" rx="14" transform="translate(447 213)" fill="rgba(49,59,68,0.1)"/>
        <rect id="Rectangle_175" data-name="Rectangle 175" width="65" height="28" rx="14" transform="translate(743 586)" fill="rgba(49,59,68,0.1)"/>
        <rect id="Rectangle_226" data-name="Rectangle 226" width="65" height="28" rx="14" transform="translate(532 425)" fill="rgba(49,59,68,0.1)"/>
        <rect id="Rectangle_176" data-name="Rectangle 176" width="66" height="28" rx="14" transform="translate(828 586)" fill="rgba(49,59,68,0.1)"/>
        <g id="Group_1181" data-name="Group 1181" transform="translate(452.556 480.66)">
          <path id="Path_44" data-name="Path 44" d="M144.8,98.835h2.96a3.748,3.748,0,0,0,7.265,0h7.982a.942.942,0,1,0,0-1.884h-7.982a3.748,3.748,0,0,0-7.265,0H144.8a.942.942,0,1,0,0,1.884m6.592-2.825a1.884,1.884,0,1,1-1.884,1.884,1.886,1.886,0,0,1,1.884-1.884" transform="translate(-143.858 -94.126)" fill="rgba(49,59,68,0.1)"/>
          <path id="Path_45" data-name="Path 45" d="M163.007,104.951h-1.7a3.748,3.748,0,0,0-7.265,0H144.8a.942.942,0,1,0,0,1.884h9.238a3.748,3.748,0,0,0,7.265,0h1.7a.942.942,0,1,0,0-1.884m-5.337,2.825a1.884,1.884,0,1,1,1.884-1.884,1.886,1.886,0,0,1-1.884,1.884" transform="translate(-143.858 -92.081)" fill="rgba(49,59,68,0.1)"/>
        </g>
        <g id="Group_3356" data-name="Group 3356" transform="translate(446.78 321.28)">
          <rect id="Rectangle_221" data-name="Rectangle 221" width="150" height="21" rx="10.5" transform="translate(0.22 -0.28)" fill="#f5f5f7"/>
          <rect id="Rectangle_220" data-name="Rectangle 220" width="40" height="14" rx="7" transform="translate(5.22 3.72)" fill="#fdc90f"/>
        </g>
        <rect id="Rectangle_222" data-name="Rectangle 222" width="87" height="14" rx="7" transform="translate(452 356)" fill="#69be5a"/>
        <rect id="Rectangle_224" data-name="Rectangle 224" width="27" height="14" rx="7" transform="translate(452 387)" fill="#fdc90f"/>
        <g transform="matrix(1, 0, 0, 1, 0, -88)" filter="url(#Ellipse_14)">
          <g id="Ellipse_14-2" data-name="Ellipse 14" transform="translate(653 359)" fill="none" stroke="#fbfbfd" stroke-width="5">
            <circle cx="101.5" cy="101.5" r="101.5" stroke="none"/>
            <circle cx="101.5" cy="101.5" r="99" fill="none"/>
          </g>
        </g>
        <g transform="matrix(1, 0, 0, 1, 0, -88)" filter="url(#Ellipse_15)">
          <g id="Ellipse_15-2" data-name="Ellipse 15" transform="translate(627 332)" fill="none" stroke="#fbfbfd" stroke-width="5">
            <circle cx="128" cy="128" r="128" stroke="none"/>
            <circle cx="128" cy="128" r="125.5" fill="none"/>
          </g>
        </g>
        <g id="Mask_Group_3" data-name="Mask Group 3" transform="translate(754.673 147.253)" clip-path="url(#clip-path)">
          <g id="Ellipse_2" data-name="Ellipse 2" transform="translate(-138.673 85.747)" fill="none" stroke="#69be5a" stroke-width="20">
            <circle cx="139" cy="139" r="139" stroke="none"/>
            <circle cx="139" cy="139" r="129" fill="none"/>
          </g>
        </g>
        <g id="Group_3303" data-name="Group 3303" transform="translate(830.81 204.147)">
          <g transform="matrix(1, 0, 0, 1, -830.81, -292.15)" filter="url(#Ellipse_16)">
            <circle id="Ellipse_16-2" data-name="Ellipse 16" cx="15" cy="15" r="15" transform="translate(831 292)" fill="#f5f5f7"/>
          </g>
          <g transform="matrix(1, 0, 0, 1, -830.81, -292.15)" filter="url(#Ellipse_17)">
            <circle id="Ellipse_17-2" data-name="Ellipse 17" cx="7.5" cy="7.5" r="7.5" transform="translate(838 300)" fill="#69be5a"/>
          </g>
        </g>
        <g transform="matrix(1, 0, 0, 1, 0, -88)" filter="url(#Ellipse_18)">
          <circle id="Ellipse_18-2" data-name="Ellipse 18" cx="41" cy="41" r="41" transform="translate(714 423)" fill="#fff"/>
        </g>
        <g id="Group_3312" data-name="Group 3312" transform="translate(745.081 366.072)">
          <g id="Group_3312-2" data-name="Group 3312" transform="translate(0 0)">
            <g id="Group_1173" data-name="Group 1173" transform="translate(0 0)">
              <path id="Path_57" data-name="Path 57" d="M242.922,61.43a1.2,1.2,0,0,0-1.7,0L224.441,78.215a1.2,1.2,0,0,0,1.7,1.7l16.785-16.785a1.2,1.2,0,0,0,0-1.7" transform="translate(-224.089 -61.078)" fill="rgba(49,59,68,0.1)"/>
              <path id="Path_58" data-name="Path 58" d="M235.287,69.078a3.2,3.2,0,1,0,3.2,3.2,3.2,3.2,0,0,0-3.2-3.2m0,4a.8.8,0,1,1,.8-.8.8.8,0,0,1-.8.8" transform="translate(-219.3 -56.289)" fill="rgba(49,59,68,0.1)"/>
              <path id="Path_59" data-name="Path 59" d="M227.287,67.472a3.2,3.2,0,1,0-3.2-3.2,3.2,3.2,0,0,0,3.2,3.2m0-4a.8.8,0,1,1-.8.8.8.8,0,0,1,.8-.8" transform="translate(-224.089 -61.078)" fill="rgba(49,59,68,0.1)"/>
            </g>
          </g>
        </g>
      </g>
    </g>
    <g id="Group_3417" data-name="Group 3417" transform="translate(-3275 724)">
      <g id="Group_3414" data-name="Group 3414" transform="translate(4464 -700)">
        <g transform="matrix(1, 0, 0, 1, -951, -20)" filter="url(#Rectangle_139)">
          <rect id="Rectangle_139-3" data-name="Rectangle 139" width="84" height="489" rx="42" transform="translate(951 20)" fill="#fff"/>
        </g>
        <line id="Line_127-5" data-name="Line 127" x2="67.811" transform="translate(8.073 165.221)" fill="none" stroke="rgba(49,59,68,0.1)" stroke-width="1"/>
        <line id="Line_129" data-name="Line 129" x2="67.811" transform="translate(8.073 83.956)" fill="none" stroke="rgba(49,59,68,0.1)" stroke-width="1"/>
        <line id="Line_127-6" data-name="Line 127" x2="67.811" transform="translate(8.073 245.948)" fill="none" stroke="rgba(49,59,68,0.1)" stroke-width="1"/>
        <line id="Line_127-7" data-name="Line 127" x2="67.811" transform="translate(8.073 326.675)" fill="none" stroke="rgba(49,59,68,0.1)" stroke-width="1"/>
        <line id="Line_127-8" data-name="Line 127" x2="67.811" transform="translate(8.073 407.402)" fill="none" stroke="rgba(49,59,68,0.1)" stroke-width="1"/>
        <circle id="Ellipse_1" data-name="Ellipse 1" cx="28" cy="28" r="28" transform="translate(14 339)" fill="#19a4fa"/>
        <path id="Path_42" data-name="Path 42" d="M127.887,118.94h-.415a2.834,2.834,0,0,1-2.8-2.442l-.142-1.016a.635.635,0,0,0-.426-.452l-.31-.131a.641.641,0,0,0-.625.015l-.5.372a2.836,2.836,0,0,1-3.693-.263l-.3-.3a2.84,2.84,0,0,1-.262-3.7l.372-.5a.639.639,0,0,0,.011-.624c-.045-.1-.09-.215-.134-.326a.627.627,0,0,0-.446-.41l-1.019-.141a2.84,2.84,0,0,1-2.443-2.8v-.415a2.84,2.84,0,0,1,2.443-2.8l1.019-.141a.637.637,0,0,0,.452-.428c.037-.1.082-.205.131-.313a.638.638,0,0,0-.015-.619l-.373-.5a2.842,2.842,0,0,1,.263-3.693l.3-.3a2.836,2.836,0,0,1,3.694-.263l.5.373a.639.639,0,0,0,.624.011l.3-.126a.643.643,0,0,0,.433-.454l.142-1.023a2.834,2.834,0,0,1,2.8-2.439h.415a2.839,2.839,0,0,1,2.8,2.439l.142,1.021a.639.639,0,0,0,.428.454l.309.128a.636.636,0,0,0,.62-.011l.5-.373a2.84,2.84,0,0,1,3.7.263l.3.3a2.842,2.842,0,0,1,.262,3.7l-.372.5a.642.642,0,0,0-.013.624l.128.305a.641.641,0,0,0,.452.431l1.021.141a2.838,2.838,0,0,1,2.439,2.8v.415a2.839,2.839,0,0,1-2.439,2.8l-1.021.141a.638.638,0,0,0-.451.428l-.132.313a.642.642,0,0,0,.016.619l.373.5a2.84,2.84,0,0,1-.263,3.693l-.3.3a2.844,2.844,0,0,1-3.7.263l-.5-.373a.643.643,0,0,0-.622-.013l-.3.128a.643.643,0,0,0-.433.454l-.142,1.023a2.839,2.839,0,0,1-2.8,2.438m-4.42-6.536a3.235,3.235,0,0,1,1.3.275l.236.1a3.043,3.043,0,0,1,1.93,2.37l.141,1.019a.4.4,0,0,0,.4.349h.415a.4.4,0,0,0,.4-.347l.142-1.023a3.048,3.048,0,0,1,1.937-2.371l.237-.1a3.034,3.034,0,0,1,3.04.3l.494.372a.41.41,0,0,0,.531-.037l.3-.3a.407.407,0,0,0,.039-.528l-.375-.5a3.047,3.047,0,0,1-.294-3.047l.1-.231a3.053,3.053,0,0,1,2.373-1.937l1.021-.141a.4.4,0,0,0,.347-.4v-.415a.405.405,0,0,0-.347-.4l-1.021-.141a3.048,3.048,0,0,1-2.373-1.935l-.094-.226a3.054,3.054,0,0,1,.291-3.053l.373-.5a.408.408,0,0,0-.037-.53l-.3-.3a.411.411,0,0,0-.531-.037l-.494.372a3.039,3.039,0,0,1-3.048.294l-.236-.1a3.048,3.048,0,0,1-1.93-2.37l-.142-1.019v0a.4.4,0,0,0-.4-.349h-.415a.4.4,0,0,0-.4.347l-.141,1.024A3.049,3.049,0,0,1,125,99.257l-.223.094a3.055,3.055,0,0,1-3.056-.289l-.5-.375a.41.41,0,0,0-.527.039l-.3.3a.4.4,0,0,0-.039.527l.375.5a3.054,3.054,0,0,1,.292,3.048l-.09.216a3.052,3.052,0,0,1-2.38,1.95l-1.019.141a.408.408,0,0,0-.351.4v.415a.405.405,0,0,0,.351.4l1.019.141a3.054,3.054,0,0,1,2.375,1.935l.092.228a3.047,3.047,0,0,1-.289,3.051l-.373.5a.4.4,0,0,0,.037.528l.3.3a.4.4,0,0,0,.525.037l.5-.373a2.906,2.906,0,0,1,1.749-.569" transform="translate(-85.702 -62.35)" fill="rgba(49,59,68,0.1)"/>
        <path id="Path_43" data-name="Path 43" d="M123.987,105.555a3.231,3.231,0,1,1,3.231-3.231,3.234,3.234,0,0,1-3.231,3.231m0-4.039a.808.808,0,1,0,.808.808.809.809,0,0,0-.808-.808" transform="translate(-82.009 -58.658)" fill="rgba(49,59,68,0.1)"/>
        <g id="Group_1142" data-name="Group 1142" transform="translate(29.778 111.934)">
          <g id="Group_1144" data-name="Group 1144" transform="translate(0)">
            <g id="Group_1143" data-name="Group 1143">
              <g id="Group_1142-2" data-name="Group 1142" transform="translate(0 0)">
                <path id="Path_19" data-name="Path 19" d="M125.99,134.9a6.462,6.462,0,1,1,6.462-6.462,6.468,6.468,0,0,1-6.462,6.462m0-10.5a4.039,4.039,0,1,0,4.039,4.038,4.043,4.043,0,0,0-4.039-4.038" transform="translate(-113.792 -121.975)" fill="rgba(15,45,82,0.1)"/>
                <path id="Path_20" data-name="Path 20" d="M136.5,142.129H119.852a3.965,3.965,0,0,1-3.418-1.816,3.17,3.17,0,0,1-.058-3.179c1.423-2.7,4.627-5.909,11.8-5.909s10.376,3.213,11.8,5.909a3.166,3.166,0,0,1-.058,3.179,3.965,3.965,0,0,1-3.418,1.816m-8.323-8.481c-5.964,0-8.544,2.512-9.657,4.618a.76.76,0,0,0-.006.8,1.568,1.568,0,0,0,1.341.643H136.5a1.569,1.569,0,0,0,1.341-.641.763.763,0,0,0-.006-.8c-1.113-2.106-3.693-4.618-9.657-4.618" transform="translate(-115.977 -116.282)" fill="rgba(15,45,82,0.1)"/>
              </g>
            </g>
          </g>
        </g>
        <path id="Path_117" data-name="Path 117" d="M75.8,118.713a1.215,1.215,0,0,1-.771-.276l-6.095-5.019-6.095,5.019a1.212,1.212,0,0,1-1.94-1.254l2.211-8.106-6.631-5.158a1.212,1.212,0,0,1,.743-2.168h8l2.557-8.042a1.213,1.213,0,0,1,2.31,0l2.557,8.042h8a1.212,1.212,0,0,1,.743,2.168l-6.631,5.158,2.212,8.106a1.212,1.212,0,0,1-1.17,1.53m-6.865-8.077a1.213,1.213,0,0,1,.771.276l3.924,3.231-1.422-5.208a1.213,1.213,0,0,1,.426-1.275l4.481-3.486H71.76a1.211,1.211,0,0,1-1.155-.843l-1.672-5.257-1.672,5.257a1.211,1.211,0,0,1-1.155.843H60.753l4.481,3.486a1.214,1.214,0,0,1,.426,1.275l-1.422,5.208,3.924-3.231a1.213,1.213,0,0,1,.771-.276" transform="translate(-26.954 261.174)" fill="#fff"/>
        <path id="Path_57-2" data-name="Path 57" d="M243.12,61.433a1.212,1.212,0,0,0-1.714,0L224.444,78.4a1.212,1.212,0,0,0,1.714,1.714L243.12,63.147a1.212,1.212,0,0,0,0-1.714" transform="translate(-190.189 215.613)" fill="rgba(49,59,68,0.1)"/>
        <path id="Path_58-2" data-name="Path 58" d="M235.321,69.078a3.231,3.231,0,1,0,3.231,3.231,3.234,3.234,0,0,0-3.231-3.231m0,4.039a.808.808,0,1,1,.808-.808.809.809,0,0,1-.808.808" transform="translate(-185.265 220.536)" fill="rgba(49,59,68,0.1)"/>
        <path id="Path_59-2" data-name="Path 59" d="M227.321,67.54a3.231,3.231,0,1,0-3.231-3.231,3.234,3.234,0,0,0,3.231,3.231m0-4.039a.808.808,0,1,1-.808.808.809.809,0,0,1,.808-.808" transform="translate(-190.188 215.613)" fill="rgba(49,59,68,0.1)"/>
        <path id="Path_89" data-name="Path 89" d="M197.067,50.466c-9.55,0-12.923-9.006-12.923-11.308s3.373-11.308,12.923-11.308,12.923,9.006,12.923,11.308-3.373,11.308-12.923,11.308m0-20.193c-8.214,0-10.5,7.978-10.5,8.885s2.286,8.885,10.5,8.885,10.5-7.978,10.5-8.885-2.286-8.885-10.5-8.885" transform="translate(-155.091 407.066)" fill="rgba(49,59,68,0.1)"/>
        <path id="Path_90" data-name="Path 90" d="M193.99,41.542a4.846,4.846,0,1,1,4.846-4.846,4.852,4.852,0,0,1-4.846,4.846m0-7.269a2.423,2.423,0,1,0,2.423,2.423,2.426,2.426,0,0,0-2.423-2.423" transform="translate(-152.014 409.527)" fill="rgba(49,59,68,0.1)"/>
        <path id="Path_85" data-name="Path 85" d="M100.282,178.79h-4.04a2.831,2.831,0,0,1-2.827-2.827V165.383a2.027,2.027,0,0,0-.441-1.26L85.6,154.912a1.212,1.212,0,0,1,.945-1.969h23.425a1.212,1.212,0,0,1,.947,1.969l-7.371,9.211a2.024,2.024,0,0,0-.441,1.26v10.579a2.83,2.83,0,0,1-2.827,2.827M89.071,155.366l5.794,7.242a4.455,4.455,0,0,1,.972,2.775v10.579a.405.405,0,0,0,.4.4h4.04a.4.4,0,0,0,.4-.4V165.383a4.46,4.46,0,0,1,.972-2.774l5.794-7.243Z" transform="translate(-54.669 39.793)" fill="rgba(49,59,68,0.1)"/>
      </g>
    </g>
  </g>
</svg>
