<svg width="222" height="73" viewBox="0 0 222 73" fill="none" xmlns="http://www.w3.org/2000/svg">
<path d="M17.675 30.575V58.175H9.275V38.9H1.7V30.575H17.675ZM17.675 54.725C20.675 59.825 26.15 62 33.95 62.375C43.25 62.75 61.775 62.525 72.425 61.7C71.45 63.65 70.175 67.625 69.725 70.1C60.125 70.55 43.4 70.7 33.95 70.325C24.8 69.95 18.65 67.7 14.075 61.85C11.3 64.85 8.375 67.7 4.925 71.075L0.65 62.45C3.65 60.35 7.1 57.5 10.175 54.725H17.675ZM1.175 7.4L8.3 2.975C12.125 6.65 16.625 11.75 18.5 15.5L10.85 20.45C9.2 16.85 4.925 11.3 1.175 7.4ZM19.85 11.075H45.125V18.5H19.85V11.075ZM30.05 23.975H40.25V31.25H30.05V23.975ZM28.7 1.325H37.025V15.05H28.7V1.325ZM37.25 23.975H44.825C44.825 23.975 44.75 26.15 44.75 27.05C44.3 47.225 43.85 54.725 42.2 57.125C40.925 58.925 39.65 59.6 37.775 59.9C36.2 60.2 33.8 60.2 31.25 60.2C31.1 58.025 30.425 54.95 29.3 53C31.175 53.225 32.75 53.225 33.65 53.225C34.55 53.225 35.075 53 35.525 52.25C36.5 50.75 36.875 44.375 37.25 25.4V23.975ZM49.025 8.75H70.625V16.175H49.025V8.75ZM46.4 35.6H71.075V42.725H46.4V35.6ZM48.275 20.675H64.925V27.275H48.275V20.675ZM50.6 0.949998L58.1 2.675C56.15 10.4 52.7 18.2 48.8 23.15C47.45 21.8 44.45 19.325 42.725 18.2C46.325 14 49.1 7.475 50.6 0.949998ZM54.725 31.025H62.3V51.725C62.3 55.25 61.85 57.35 59.375 58.55C57.05 59.75 53.9 59.9 49.7 59.9C49.4 57.725 48.275 54.575 47.225 52.475C49.925 52.55 52.7 52.55 53.6 52.55C54.5 52.55 54.725 52.325 54.725 51.65V31.025ZM62.75 20.675H64.475L65.975 20.225L70.625 23.75C67.85 28.325 63.8 33.575 60.275 36.95C59.3 35.6 57.2 33.425 56.075 32.45C58.55 29.675 61.4 25.1 62.75 22.025V20.675ZM25.7 14.45H32.975V27.725C32.975 37.4 31.85 50.75 23.9 59.45C22.7 57.875 20.225 55.4 18.575 54.275C24.95 46.775 25.7 35.525 25.7 27.575V14.45ZM128.225 8.9C129.725 18.275 132.875 30.2 144.275 40.775L138.2 49.4C130.025 40.325 124.025 27.8 118.85 11.525L128.225 8.9ZM78.875 12.65C80.225 12.725 81.725 12.725 83.15 12.65C90.2 12.275 102.725 10.7 107.6 8.9L110.45 17.225C109.4 17.6 107.825 18.2 106.7 18.8C101.6 22.7 91.475 34.25 91.475 48.65C91.475 57.425 97.175 60.875 104.375 60.875C121.4 60.875 126.425 42.2 119.75 13.55L128.525 27.875C132.725 48.125 129.125 71 104.15 71C92.075 71 81.875 64.4 81.875 50.825C81.875 38.6 86.9 29.525 93.875 20.6C91.025 20.825 86.225 21.425 84.05 21.65C82.475 21.875 81.275 22.025 79.55 22.4L78.875 12.65ZM134.975 4.7C136.4 7.85 138.35 12.5 139.325 15.575L133.775 17.45C132.5 13.85 131.075 9.65 129.425 6.5L134.975 4.7ZM143 1.84999C144.65 5 146.525 9.65 147.65 12.725L142.025 14.6C140.9 11.15 139.25 6.875 137.6 3.725L143 1.84999ZM174.275 31.55H221.75V39.125H174.275V31.55ZM182.45 42.725H213.275V49.775H182.45V42.725ZM185.3 34.325L193.025 36.275C189.2 44.975 182.45 52.475 175.325 57.125C174.05 55.625 171.05 52.925 169.325 51.725C176.225 47.825 182.225 41.6 185.3 34.325ZM211.85 42.725H220.25C220.25 42.725 220.175 44.75 220.025 45.8C218.975 60.5 217.775 66.575 215.75 68.825C214.325 70.475 212.675 71.075 210.725 71.3C209 71.525 206.15 71.6 203.075 71.525C203 69.35 202.25 66.275 201.125 64.4C203.45 64.625 205.475 64.7 206.45 64.7C207.5 64.7 208.1 64.55 208.7 63.8C209.9 62.45 211.025 57.275 211.85 43.925V42.725ZM188.825 18.875V22.475H208.25V18.875H188.825ZM188.825 9.425V13.025H208.25V9.425H188.825ZM180.875 3.2H216.575V28.7H180.875V3.2ZM152.3 17.075H175.25V25.625H152.3V17.075ZM159.875 2.225H168.275V48.875H159.875V2.225ZM150.65 50.45C156.425 48.275 165.575 44.45 174.275 40.7L176.15 48.425C168.65 52.325 160.55 56.375 153.95 59.525L150.65 50.45ZM203.3 44.15L209.375 47.45C206.525 56.45 200.225 66.875 193.55 72.05C191.975 70.325 189.35 68.3 187.1 67.025C194.375 62.525 200.525 52.85 203.3 44.15ZM191.9 44.225L197.825 47.75C194.075 55.475 186.2 64.175 179.075 68.75C177.65 66.875 175.25 64.7 173.15 63.425C180.575 59.675 188.3 51.575 191.9 44.225Z" fill="black"/>
</svg>
