<svg width="1328" height="428" viewBox="0 0 1328 428" fill="none" xmlns="http://www.w3.org/2000/svg">
<path d="M103.05 178.45V344.05H52.65V228.4H7.2V178.45H103.05ZM103.05 323.35C121.05 353.95 153.9 367 200.7 369.25C256.5 371.5 367.65 370.15 431.55 365.2C425.7 376.9 418.05 400.75 415.35 415.6C357.75 418.3 257.4 419.2 200.7 416.95C145.8 414.7 108.9 401.2 81.45 366.1C64.8 384.1 47.25 401.2 26.55 421.45L0.900001 369.7C18.9 357.1 39.6 340 58.05 323.35H103.05ZM4.05 39.4L46.8 12.85C69.75 34.9 96.75 65.5 108 88L62.1 117.7C52.2 96.1 26.55 62.8 4.05 39.4ZM116.1 61.45H267.75V106H116.1V61.45ZM177.3 138.85H238.5V182.5H177.3V138.85ZM169.2 2.94998H219.15V85.3H169.2V2.94998ZM220.5 138.85H265.95C265.95 138.85 265.5 151.9 265.5 157.3C262.8 278.35 260.1 323.35 250.2 337.75C242.55 348.55 234.9 352.6 223.65 354.4C214.2 356.2 199.8 356.2 184.5 356.2C183.6 343.15 179.55 324.7 172.8 313C184.05 314.35 193.5 314.35 198.9 314.35C204.3 314.35 207.45 313 210.15 308.5C216 299.5 218.25 261.25 220.5 147.4V138.85ZM291.15 47.5H420.75V92.05H291.15V47.5ZM275.4 208.6H423.45V251.35H275.4V208.6ZM286.65 119.05H386.55V158.65H286.65V119.05ZM300.6 0.699986L345.6 11.05C333.9 57.4 313.2 104.2 289.8 133.9C281.7 125.8 263.7 110.95 253.35 104.2C274.95 79 291.6 39.85 300.6 0.699986ZM325.35 181.15H370.8V305.35C370.8 326.5 368.1 339.1 353.25 346.3C339.3 353.5 320.4 354.4 295.2 354.4C293.4 341.35 286.65 322.45 280.35 309.85C296.55 310.3 313.2 310.3 318.6 310.3C324 310.3 325.35 308.95 325.35 304.9V181.15ZM373.5 119.05H383.85L392.85 116.35L420.75 137.5C404.1 164.95 379.8 196.45 358.65 216.7C352.8 208.6 340.2 195.55 333.45 189.7C348.3 173.05 365.4 145.6 373.5 127.15V119.05ZM151.2 81.7H194.85V161.35C194.85 219.4 188.1 299.5 140.4 351.7C133.2 342.25 118.35 327.4 108.45 320.65C146.7 275.65 151.2 208.15 151.2 160.45V81.7ZM766.35 48.4C775.35 104.65 794.25 176.2 862.65 239.65L826.2 291.4C777.15 236.95 741.15 161.8 710.1 64.15L766.35 48.4ZM470.25 70.9C478.35 71.35 487.35 71.35 495.9 70.9C538.2 68.65 613.35 59.2 642.6 48.4L659.7 98.35C653.4 100.6 643.95 104.2 637.2 107.8C606.6 131.2 545.85 200.5 545.85 286.9C545.85 339.55 580.05 360.25 623.25 360.25C725.4 360.25 755.55 248.2 715.5 76.3L768.15 162.25C793.35 283.75 771.75 421 621.9 421C549.45 421 488.25 381.4 488.25 299.95C488.25 226.6 518.4 172.15 560.25 118.6C543.15 119.95 514.35 123.55 501.3 124.9C491.85 126.25 484.65 127.15 474.3 129.4L470.25 70.9ZM806.85 23.2C815.4 42.1 827.1 70 832.95 88.45L799.65 99.7C792 78.1 783.45 52.9 773.55 34L806.85 23.2ZM855 6.09997C864.9 25 876.15 52.9 882.9 71.35L849.15 82.6C842.4 61.9 832.5 36.25 822.6 17.35L855 6.09997ZM1042.65 184.3H1327.5V229.75H1042.65V184.3ZM1091.7 251.35H1276.65V293.65H1091.7V251.35ZM1108.8 200.95L1155.15 212.65C1132.2 264.85 1091.7 309.85 1048.95 337.75C1041.3 328.75 1023.3 312.55 1012.95 305.35C1054.35 281.95 1090.35 244.6 1108.8 200.95ZM1268.1 251.35H1318.5C1318.5 251.35 1318.05 263.5 1317.15 269.8C1310.85 358 1303.65 394.45 1291.5 407.95C1282.95 417.85 1273.05 421.45 1261.35 422.8C1251 424.15 1233.9 424.6 1215.45 424.15C1215 411.1 1210.5 392.65 1203.75 381.4C1217.7 382.75 1229.85 383.2 1235.7 383.2C1242 383.2 1245.6 382.3 1249.2 377.8C1256.4 369.7 1263.15 338.65 1268.1 258.55V251.35ZM1129.95 108.25V129.85H1246.5V108.25H1129.95ZM1129.95 51.55V73.15H1246.5V51.55H1129.95ZM1082.25 14.2H1296.45V167.2H1082.25V14.2ZM910.8 97.45H1048.5V148.75H910.8V97.45ZM956.25 8.34999H1006.65V288.25H956.25V8.34999ZM900.9 297.7C935.55 284.65 990.45 261.7 1042.65 239.2L1053.9 285.55C1008.9 308.95 960.3 333.25 920.7 352.15L900.9 297.7ZM1216.8 259.9L1253.25 279.7C1236.15 333.7 1198.35 396.25 1158.3 427.3C1148.85 416.95 1133.1 404.8 1119.6 397.15C1163.25 370.15 1200.15 312.1 1216.8 259.9ZM1148.4 260.35L1183.95 281.5C1161.45 327.85 1114.2 380.05 1071.45 407.5C1062.9 396.25 1048.5 383.2 1035.9 375.55C1080.45 353.05 1126.8 304.45 1148.4 260.35Z" fill="#FF5511"/>
</svg>
