<svg width="1194" height="381" viewBox="0 0 1194 381" fill="none" xmlns="http://www.w3.org/2000/svg">
<path d="M140.031 380.5C55.0313 380.5 0.0312504 319 0.0312504 239.5C0.0312504 159.5 54.5313 98.5 138.031 98.5C209.031 98.5 253.031 139 262.531 197H186.531C181.031 172.5 165.031 157 139.031 157C99.5313 157 79.5313 189.5 79.5313 239.5C79.5313 288 99.5313 321 139.031 321C168.031 321 185.531 303.5 189.031 273H264.531C262.031 333.5 214.031 380.5 140.031 380.5ZM302.105 372V-8.82149e-06H381.105V372H302.105ZM603.93 372C599.93 366 596.43 354.5 594.93 339.5H593.93C576.43 364 554.43 379 513.43 379C460.93 379 422.43 351 422.43 298.5C422.43 239.5 468.93 224.5 526.93 217.5C574.43 211 593.93 203.5 593.93 183.5C593.93 164.5 581.43 151.5 554.43 151.5C524.43 151.5 509.93 165.5 507.93 186.5H435.43C437.43 141 474.43 98.5 553.43 98.5C587.43 98.5 611.43 103.5 629.93 114.5C657.43 130.5 670.43 158 670.43 194V330.5C670.43 351.5 673.43 363 680.43 367.5V372H603.93ZM537.93 327.5C572.93 327.5 595.93 305.5 595.93 276.5V242C584.43 249 567.43 253 549.93 257C515.43 264.5 498.93 273 498.93 296C498.93 319 516.43 327.5 537.93 327.5ZM798.969 106V153.5H800.469C817.469 116.5 841.469 101.5 874.469 101.5C881.969 101.5 887.469 102 890.969 103.5V172H888.969C883.469 171 877.969 170.5 872.469 170.5C829.969 170 801.969 196.5 801.969 248.5V372H723.469V106H798.969ZM1102.05 372L1032.55 256L1006.05 283.5V372H928.547V-8.82149e-06H1006.05V116C1006.05 155 1004.55 184.5 1003.55 201.5L1091.05 106H1182.05L1087.05 204.5L1193.05 372H1102.05Z" fill="black"/>
</svg>
