<svg width="1376" height="514" viewBox="0 0 1376 514" fill="none" xmlns="http://www.w3.org/2000/svg">
<path d="M236.031 507.5C151.031 507.5 96.0313 446 96.0313 366.5C96.0313 286.5 150.531 225.5 234.031 225.5C305.031 225.5 349.031 266 358.531 324H282.531C277.031 299.5 261.031 284 235.031 284C195.531 284 175.531 316.5 175.531 366.5C175.531 415 195.531 448 235.031 448C264.031 448 281.531 430.5 285.031 400H360.531C358.031 460.5 310.031 507.5 236.031 507.5ZM398.105 499V127H477.105V499H398.105ZM699.93 499C695.93 493 692.43 481.5 690.93 466.5H689.93C672.43 491 650.43 506 609.43 506C556.93 506 518.43 478 518.43 425.5C518.43 366.5 564.93 351.5 622.93 344.5C670.43 338 689.93 330.5 689.93 310.5C689.93 291.5 677.43 278.5 650.43 278.5C620.43 278.5 605.93 292.5 603.93 313.5H531.43C533.43 268 570.43 225.5 649.43 225.5C683.43 225.5 707.43 230.5 725.93 241.5C753.43 257.5 766.43 285 766.43 321V457.5C766.43 478.5 769.43 490 776.43 494.5V499H699.93ZM633.93 454.5C668.93 454.5 691.93 432.5 691.93 403.5V369C680.43 376 663.43 380 645.93 384C611.43 391.5 594.93 400 594.93 423C594.93 446 612.43 454.5 633.93 454.5ZM894.969 233V280.5H896.469C913.469 243.5 937.469 228.5 970.469 228.5C977.969 228.5 983.469 229 986.969 230.5V299H984.969C979.469 298 973.969 297.5 968.469 297.5C925.969 297 897.969 323.5 897.969 375.5V499H819.469V233H894.969ZM1198.05 499L1128.55 383L1102.05 410.5V499H1024.55V127H1102.05V243C1102.05 282 1100.55 311.5 1099.55 328.5L1187.05 233H1278.05L1183.05 331.5L1289.05 499H1198.05Z" fill="black"/>
<path d="M1316.07 276.1C1303.92 276.1 1294.32 266.725 1294.32 254.2C1294.32 241.525 1303.92 232.225 1316.07 232.225C1328.14 232.225 1337.67 241.525 1337.67 254.2C1337.67 266.725 1328.14 276.1 1316.07 276.1ZM1316.07 272.875C1326.27 272.875 1333.92 264.925 1333.92 254.2C1333.92 243.4 1326.27 235.525 1316.07 235.525C1305.72 235.525 1298.14 243.4 1298.14 254.2C1298.14 264.925 1305.72 272.875 1316.07 272.875ZM1307.14 265.075V242.875H1318.02C1322.44 242.875 1326.12 245.05 1326.12 249.25C1326.12 251.875 1324.99 253.675 1321.84 254.65V254.8C1324.39 255.475 1325.14 256.375 1325.52 258.85C1325.89 261.1 1325.74 264.175 1326.64 264.475V265.075H1320.72C1320.04 264.7 1320.04 262.075 1319.74 259.9C1319.52 257.95 1318.47 256.975 1316.37 256.975H1313.14V265.075H1307.14ZM1313.14 247.45V252.55H1316.97C1319.07 252.55 1320.12 251.725 1320.12 250C1320.12 248.425 1319.22 247.45 1317.04 247.45H1313.14Z" fill="black"/>
</svg>
