<svg width="117" height="43" viewBox="0 0 117 43" fill="none" xmlns="http://www.w3.org/2000/svg">
<path d="M10.745 35.595C4.795 35.595 0.945 31.29 0.945 25.725C0.945 20.125 4.76 15.855 10.605 15.855C15.575 15.855 18.655 18.69 19.32 22.75H14C13.615 21.035 12.495 19.95 10.675 19.95C7.91 19.95 6.51 22.225 6.51 25.725C6.51 29.12 7.91 31.43 10.675 31.43C12.705 31.43 13.93 30.205 14.175 28.07H19.46C19.285 32.305 15.925 35.595 10.745 35.595ZM22.0902 35V8.96H27.6202V35H22.0902ZM43.2179 35C42.9379 34.58 42.6929 33.775 42.5879 32.725H42.5179C41.2929 34.44 39.7529 35.49 36.8829 35.49C33.2079 35.49 30.5129 33.53 30.5129 29.855C30.5129 25.725 33.7679 24.675 37.8279 24.185C41.1529 23.73 42.5179 23.205 42.5179 21.805C42.5179 20.475 41.6429 19.565 39.7529 19.565C37.6529 19.565 36.6379 20.545 36.4979 22.015H31.4229C31.5629 18.83 34.1529 15.855 39.6829 15.855C42.0629 15.855 43.7429 16.205 45.0379 16.975C46.9629 18.095 47.8729 20.02 47.8729 22.54V32.095C47.8729 33.565 48.0829 34.37 48.5729 34.685V35H43.2179ZM38.5979 31.885C41.0479 31.885 42.6579 30.345 42.6579 28.315V25.9C41.8529 26.39 40.6629 26.67 39.4379 26.95C37.0229 27.475 35.8679 28.07 35.8679 29.68C35.8679 31.29 37.0929 31.885 38.5979 31.885ZM56.8706 16.38V19.705H56.9756C58.1656 17.115 59.8456 16.065 62.1556 16.065C62.6806 16.065 63.0656 16.1 63.3106 16.205V21H63.1706C62.7856 20.93 62.4006 20.895 62.0156 20.895C59.0406 20.86 57.0806 22.715 57.0806 26.355V35H51.5856V16.38H56.8706ZM78.0861 35L73.2211 26.88L71.3661 28.805V35H65.9411V8.96H71.3661V17.08C71.3661 19.81 71.2611 21.875 71.1911 23.065L77.3161 16.38H83.6861L77.0361 23.275L84.4561 35H78.0861ZM95.427 28.98C89.757 28.98 85.277 24.605 85.277 18.76C85.277 12.845 89.757 8.505 95.427 8.505C101.062 8.505 105.507 12.845 105.507 18.76C105.507 24.605 101.062 28.98 95.427 28.98ZM95.427 27.475C100.187 27.475 103.757 23.765 103.757 18.76C103.757 13.72 100.187 10.045 95.427 10.045C90.597 10.045 87.062 13.72 87.062 18.76C87.062 23.765 90.597 27.475 95.427 27.475ZM91.262 23.835V13.475H96.337C98.402 13.475 100.117 14.49 100.117 16.45C100.117 17.675 99.592 18.515 98.122 18.97V19.04C99.312 19.355 99.662 19.775 99.837 20.93C100.012 21.98 99.942 23.415 100.362 23.555V23.835H97.597C97.282 23.66 97.282 22.435 97.142 21.42C97.037 20.51 96.547 20.055 95.567 20.055H94.062V23.835H91.262ZM94.062 15.61V17.99H95.847C96.827 17.99 97.317 17.605 97.317 16.8C97.317 16.065 96.897 15.61 95.882 15.61H94.062Z" fill="black"/>
</svg>
