<svg width="1140" height="199" viewBox="0 0 1140 199" fill="none" xmlns="http://www.w3.org/2000/svg">
<path d="M0.11018 196.701V45.684H32.2732V61.872H32.9122C40.5802 48.879 51.8692 42.489 67.4182 42.489C97.4512 42.489 116.195 67.623 116.195 102.342C116.195 139.191 96.5992 162.621 66.3532 162.621C51.4432 162.621 39.5152 156.018 32.9122 144.942H32.4862C32.9122 149.202 33.5512 157.509 33.5512 169.65V196.701H0.11018ZM58.4722 136.635C73.5952 136.635 82.3282 123.642 82.3282 103.407C82.3282 83.172 74.4472 69.114 58.0462 69.114C40.7932 69.114 32.4862 84.237 32.4862 103.407C32.4862 122.79 41.4322 136.635 58.4722 136.635ZM133.453 159V0.527996H167.107V159H133.453ZM262.03 159C260.326 156.444 258.835 151.545 258.196 145.155H257.77C250.315 155.592 240.943 161.982 223.477 161.982C201.112 161.982 184.711 150.054 184.711 127.689C184.711 102.555 204.52 96.165 229.228 93.183C249.463 90.414 257.77 87.219 257.77 78.699C257.77 70.605 252.445 65.067 240.943 65.067C228.163 65.067 221.986 71.031 221.134 79.977H190.249C191.101 60.594 206.863 42.489 240.517 42.489C255.001 42.489 265.225 44.619 273.106 49.305C284.821 56.121 290.359 67.836 290.359 83.172V141.321C290.359 150.267 291.637 155.166 294.619 157.083V159H262.03ZM233.914 140.043C248.824 140.043 258.622 130.671 258.622 118.317V103.62C253.723 106.602 246.481 108.306 239.026 110.01C224.329 113.205 217.3 116.826 217.3 126.624C217.3 136.422 224.755 140.043 233.914 140.043ZM335.582 196.914C334.517 196.914 313.856 196.701 313.217 196.488V170.289H314.921C315.347 170.502 324.932 170.502 325.784 170.502C336.221 170.502 341.333 166.668 341.972 159C341.972 155.166 340.055 146.433 336.008 136.209L300.863 45.684H336.008L350.492 89.136C355.604 104.472 359.864 128.541 359.864 128.541H360.29C360.29 128.541 365.402 104.259 370.301 89.136L384.146 45.684H417.374L376.904 161.769C367.745 187.968 357.308 196.914 335.582 196.914ZM478.929 198.405C447.831 198.405 427.809 185.412 424.401 163.047H456.99C459.12 169.863 465.51 174.549 478.503 174.549C494.265 174.549 502.146 166.455 502.146 152.61V150.267C502.146 144.516 502.359 139.191 502.785 135.357H501.933C495.33 146.433 485.319 151.971 471.261 151.971C445.062 151.971 421.845 132.588 421.845 98.295C421.845 65.28 441.654 42.489 469.557 42.489C484.893 42.489 495.756 47.601 502.146 60.168H502.572V45.684H534.522V148.989C534.522 165.816 528.984 177.957 519.825 186.051C510.027 194.571 495.543 198.405 478.929 198.405ZM478.716 126.837C495.756 126.837 503.211 114.057 503.211 97.23C503.211 80.403 494.904 67.836 478.503 67.836C463.806 67.836 454.647 79.338 454.647 97.443C454.647 115.335 463.806 126.837 478.716 126.837ZM589.11 45.684V65.919H589.749C596.991 50.157 607.215 43.767 621.273 43.767C624.468 43.767 626.811 43.98 628.302 44.619V73.8H627.45C625.107 73.374 622.764 73.161 620.421 73.161C602.316 72.948 590.388 84.237 590.388 106.389V159H556.947V45.684H589.11ZM696.971 162.621C660.761 162.621 636.905 136.422 636.905 102.555C636.905 68.475 660.761 42.489 696.971 42.489C732.968 42.489 756.611 68.475 756.611 102.555C756.611 136.422 732.968 162.621 696.971 162.621ZM696.758 138.339C713.372 138.339 722.744 123.855 722.744 102.555C722.744 81.042 713.372 66.345 696.758 66.345C679.718 66.345 670.772 81.042 670.772 102.555C670.772 123.855 679.718 138.339 696.758 138.339ZM878.918 159H847.181V142.812H846.542C838.235 156.018 828.011 162.195 812.462 162.195C786.689 162.195 772.631 145.581 772.631 120.66V45.684H806.072V114.27C806.072 126.837 812.249 134.079 824.177 134.079C837.596 134.079 845.903 123.855 845.903 109.797V45.684H878.918V159ZM933.368 45.684V62.937H934.007C941.036 49.305 953.177 42.489 968.939 42.489C993.86 42.489 1008.34 59.103 1008.34 84.45V159H975.116V90.84C975.116 78.486 968.513 70.179 956.159 70.179C943.166 70.179 934.433 80.616 934.433 95.1V159H900.992V45.684H933.368ZM1072.78 162.621C1043.39 162.621 1024.22 139.83 1024.22 102.342C1024.22 67.623 1043.81 42.489 1073.21 42.489C1088.75 42.489 1099.19 49.731 1106.86 61.446H1107.29C1106.86 54.417 1106.43 44.832 1106.43 35.247V0.527996H1139.87V159H1107.71V142.386H1107.29C1100.68 156.231 1088.12 162.621 1072.78 162.621ZM1081.73 135.783C1097.91 135.783 1107.5 122.151 1107.5 102.342C1107.5 82.32 1099.19 67.836 1081.94 67.836C1066.18 67.836 1058.3 81.894 1058.3 102.129C1058.3 122.577 1066.18 135.783 1081.73 135.783Z" fill="black"/>
</svg>
